<svg xmlns="http://www.w3.org/2000/svg" width="42" height="43" fill="none"><g clip-path="url(#a)"><ellipse cx="21" cy="25.833" rx="9.333" ry="16.917" fill="#FDF9EF"/><path d="M14.058 10.49c.987-1.477 2.216-2.147 4.183-2.147 4.289 0 5.307 3.257 5.307 6.282v9.034H18.49v-6.685c0-1.548.21-4.2-1.9-4.2-.881 0-1.613.57-2.532 1.477v9.402H9V4.243L14.058.75v9.74ZM24.715 7.536a9.319 9.319 0 0 1 1.85 3.275l.005.011h1.403v12.831H33V4.02h-3.997l-4.288 3.517Z" fill="#282828"/><path d="m24.884 27.771-5.292 3.265L21 32.889l3.884-5.118Z" fill="#856DF7"/><path d="M33 27.771h-8.116L21 32.889l-3.884-5.118H9L21 42.75l12-14.979Z" fill="#282828"/></g><defs><clipPath id="a"><path fill="#fff" transform="translate(0 .75)" d="M0 0h42v42H0z"/></clipPath></defs></svg>