<svg width="71" height="38" fill="none" xmlns="http://www.w3.org/2000/svg"><g clip-path="url(#a)"><path d="M26.805 12.623c1.236-1.892 2.776-2.75 5.242-2.75 5.374 0 6.65 4.172 6.65 8.048v11.575h-6.34V20.93c0-1.983.265-5.38-2.38-5.38-1.104 0-2.021.73-3.172 1.892v12.046h-6.34V4.62l6.34-4.477v12.48Z" fill="#282828"/><path d="m14.912 15.595-3.057 4.628-1.734-1.23 4.791-3.398Z" fill="#856DF7"/><path d="M14.912 8.497v7.098l-4.79 3.397 4.79 3.397v7.099L.89 18.992 14.912 8.497Z" fill="#282828"/><path d="m56.088 15.595 3.057 4.629 1.734-1.232-4.791-3.397Z" fill="#856DF7"/><path d="M70.111 18.992 56.088 29.496v-7.099L60.879 19l-4.791-3.397V8.504L70.11 18.992ZM40.159 8.839a12.011 12.011 0 0 1 2.318 4.195l.008.015h1.757v16.439h6.3V4.332h-5.009L40.16 8.839Z" fill="#282828"/><path d="M17.526 34.975h.583v.038l-.88 2.075h-.232l-.646-1.224-.638 1.224h-.233l-.887-2.075v-.038h.584l.474 1.27.583-1.163h.203l.614 1.147.475-1.254ZM20.706 35.978c0 .046 0 .1-.007.13h-1.533c.047.38.304.6.677.6.226 0 .529-.068.739-.167v.418a1.904 1.904 0 0 1-.793.175c-.716 0-1.12-.487-1.12-1.125 0-.684.459-1.087 1.065-1.087.607 0 .98.449.972 1.056Zm-1.516-.205h1.019c-.04-.266-.21-.425-.482-.425-.273 0-.467.16-.537.425ZM23.833 36.032c0 .676-.474 1.102-1.034 1.102-.273 0-.521-.107-.685-.259v.213h-.536V33.98h.536v1.208a.983.983 0 0 1 .685-.258c.567-.008 1.034.418 1.034 1.102Zm-.529 0c-.007-.41-.295-.661-.622-.661a.877.877 0 0 0-.568.235v.844a.861.861 0 0 0 .568.235c.335 0 .622-.243.622-.653ZM27.629 33.98h.537v3.108h-.537v-.213a.983.983 0 0 1-.685.259c-.56 0-1.034-.426-1.034-1.102 0-.677.474-1.102 1.034-1.102.273 0 .521.106.685.258V33.98Zm0 2.47v-.844a.861.861 0 0 0-.568-.236c-.327 0-.614.251-.622.662 0 .41.288.66.622.66a.928.928 0 0 0 .568-.242ZM31.098 35.978c0 .046 0 .1-.008.13h-1.532c.047.38.303.6.677.6.225 0 .528-.068.738-.167v.418a1.904 1.904 0 0 1-.793.175c-.715 0-1.12-.487-1.12-1.125 0-.684.459-1.087 1.066-1.087.606 0 .972.449.972 1.056Zm-1.517-.205h1.02c-.04-.266-.21-.425-.483-.425a.525.525 0 0 0-.537.425ZM33.345 34.975h.576v.038l-1.042 2.075h-.195l-1.05-2.075v-.038h.568l.576 1.254.567-1.254ZM36.495 35.978c0 .046 0 .1-.007.13h-1.532c.046.38.303.6.676.6.226 0 .53-.068.74-.167v.418a1.904 1.904 0 0 1-.794.175c-.716 0-1.12-.487-1.12-1.125 0-.684.459-1.087 1.065-1.087.607 0 .972.449.972 1.056Zm-1.524-.205h1.019c-.039-.266-.21-.425-.482-.425-.273 0-.467.16-.537.425ZM37.335 36.282V33.98h.537v2.25c0 .288.125.44.342.44.047 0 .101 0 .156-.015v.456a1.36 1.36 0 0 1-.241.023c-.568 0-.794-.395-.794-.852ZM38.953 36.032c0-.646.506-1.102 1.143-1.102.638 0 1.144.456 1.144 1.102 0 .646-.506 1.102-1.144 1.102-.637 0-1.143-.464-1.143-1.102Zm1.766 0a.626.626 0 0 0-.623-.646c-.342 0-.614.273-.614.646 0 .372.28.646.614.646a.635.635 0 0 0 .623-.646ZM44.367 36.032c0 .676-.467 1.102-1.027 1.102-.272 0-.529-.107-.684-.259v1.019h-.53v-2.919h.537v.206c.164-.152.413-.259.685-.259.552 0 1.019.426 1.019 1.11Zm-.521 0c0-.41-.296-.661-.623-.661a.877.877 0 0 0-.567.235v.844a.877.877 0 0 0 .567.235c.327 0 .615-.243.623-.653ZM48.434 35.758v1.33h-.528v-1.277c0-.258-.14-.425-.35-.425-.164 0-.327.114-.444.281v1.421h-.529v-1.277c0-.258-.14-.425-.35-.425-.163 0-.319.106-.435.273v1.43h-.53v-2.114h.53v.259c.148-.183.35-.304.575-.304.296 0 .53.137.654.387.147-.228.427-.387.669-.387.427-.008.738.304.738.828ZM51.335 35.978c0 .046 0 .1-.007.13h-1.533c.047.38.304.6.677.6.226 0 .529-.068.739-.167v.418a1.904 1.904 0 0 1-.793.175c-.716 0-1.12-.487-1.12-1.125 0-.684.459-1.087 1.065-1.087.607 0 .98.449.972 1.056Zm-1.516-.205h1.019c-.04-.266-.21-.425-.483-.425-.272 0-.466.16-.536.425ZM54.198 35.758v1.33h-.53v-1.261c0-.282-.163-.441-.411-.441-.187 0-.381.114-.506.288v1.414h-.529v-2.113h.53v.259a.893.893 0 0 1 .683-.312c.436 0 .763.289.763.836ZM56.469 36.632v.449c-.117.038-.288.06-.436.06-.66 0-.863-.478-.863-.972v-1.49l.482-.304h.055v.608h.707v.433h-.707v.768c0 .296.14.501.435.501a1.72 1.72 0 0 0 .327-.053Z" fill="#856DF7"/></g><defs><clipPath id="a"><path fill="#fff" transform="translate(.5)" d="M0 0h70v38H0z"/></clipPath></defs></svg>