<svg width="360" height="86" viewBox="0 0 360 86" fill="none" xmlns="http://www.w3.org/2000/svg">
<g clip-path="url(#clip0_2722_15078)">
<path d="M102.358 57.1787C102.371 57.7572 102.418 58.3441 102.149 58.8886C101.502 59.467 101.783 60.2242 101.766 60.9217C101.8 61.3343 101.834 61.7469 101.886 62.3424C104.337 59.2161 106.869 56.3408 109.848 53.8823C112.219 51.9257 114.823 50.4923 117.888 49.9904C120.105 49.6289 121.454 50.42 122.148 52.4999C122.148 54.7925 122.143 57.0851 122.139 59.382C122.109 59.6117 122.084 59.8456 122.054 60.0753C121.028 60.7431 121.475 61.5597 121.824 62.3679C124.552 59.2501 127.285 56.1409 130.642 53.6526C133.026 51.8874 135.588 50.5476 138.537 50.033C141.18 49.5736 142.857 50.7986 143.261 53.4527C143.814 57.1064 142.895 60.6452 142.427 64.2181C141.818 68.8544 141.12 73.4736 140.503 78.1098C140.397 78.9095 140.133 79.8154 141.095 80.5555C142.759 80.2323 144.027 79.1221 145.287 78.1566C144.751 71.4787 145.632 65.0986 148.185 59.0289C152.071 49.8033 161.034 47.4937 168.077 48.9356C172.686 49.8798 174.827 54.8989 172.899 59.7775C171.865 62.3934 169.873 64.1033 167.52 65.4474C163.494 67.7485 159.11 68.9352 154.45 69.386C154.122 71.4319 153.99 73.4225 154.356 75.4259C155.075 79.3305 158.08 81.1808 161.774 79.8069C167.226 77.778 171.878 74.4731 175.955 70.6876C173.665 57.1617 175.418 45.1373 187.22 36.7325C198.277 28.8594 210.155 29.3145 222.382 34.2315C221.897 37.63 221.429 40.8711 220.965 44.1122C220.514 43.9335 220.458 44.1845 220.463 44.5503C220.471 45.469 220.463 46.3878 220.463 47.3065C219.45 48.221 218.296 47.5192 217.139 47.6936C216.598 45.116 216.764 42.5554 216.39 39.9268C210.789 36.7665 204.861 35.6606 198.485 37.0387C193.944 38.0213 190.735 40.5308 188.901 44.8225C187.705 47.6255 186.935 50.5349 186.471 53.5378C185.794 57.9188 185.645 62.3168 186.267 66.7106C187.488 75.3621 191.548 79.5772 200.056 81.1425C199.532 81.1425 199.005 81.1425 198.477 81.1425C198.481 81.2531 198.485 81.3637 198.49 81.4743C199.754 81.4743 201.013 81.4743 202.277 81.4743C202.694 81.4743 203.111 81.4743 203.648 81.4743C203.163 80.9511 202.656 81.2403 202.226 81.1297C203.767 80.8192 205.337 80.6916 206.814 80.0664C208.504 79.3518 209.631 78.331 209.546 76.3106C209.504 75.2685 209.687 74.2222 209.763 73.1758C210.478 72.9334 210.236 72.3209 210.24 71.8445C210.266 69.8582 210.257 67.8718 210.261 65.8855C210.321 64.5371 210.398 63.193 210.44 61.8447C210.457 61.2918 210.683 60.7048 210.236 60.2071C209.827 59.4373 209.112 59.8754 208.533 59.7861C206.81 59.5138 205.018 60.3262 203.239 59.5309V57.5913C203.222 57.1702 203.158 56.7364 203.473 56.3791C203.58 56.562 203.482 57.0809 203.835 56.8597C204.546 56.4131 205.282 56.6045 205.997 56.6002C212.308 56.579 218.616 56.5875 224.927 56.5875C225.434 56.5875 225.944 56.5875 226.451 56.5875C225.846 56.2642 225.272 56.2642 224.697 56.2642C217.701 56.243 210.7 56.2174 203.703 56.1962C205.393 55.8984 207.095 56.0813 208.789 56.0728C214.794 56.043 220.799 56.0601 226.932 56.0601C229.132 53.2145 231.941 51.1218 235.405 49.9351C238.354 48.9228 241.385 48.4507 244.496 48.6251C251.309 49.0121 255.514 53.155 256.208 60.1774C256.65 64.6775 256.25 69.1563 254.608 73.3417C251.999 79.9856 246.692 83.5967 239.946 85.3109C236.78 85.2981 233.609 85.2853 230.443 85.2726C226.331 84.3879 224.135 81.5934 223.084 77.7568C221.603 72.3507 222.361 67.0254 223.872 61.7511C224.004 61.2918 224.153 60.8409 224.297 60.3858C224.225 59.8286 223.825 59.7733 223.374 59.7733C221.756 59.7775 220.143 59.7733 218.428 59.7733C218.501 60.0966 218.543 60.288 218.586 60.4836C218.135 67.5315 217.684 74.5795 217.224 81.738C213.343 83.1374 209.606 84.809 205.499 85.3066C200.592 85.196 195.664 85.5916 190.791 84.6558C186.024 83.6222 180.815 80.5768 177.474 74.269C174.823 76.4042 172.214 78.5522 169.55 80.6406C165.66 83.6946 161.323 85.6809 156.301 85.9233C152.164 86.1233 148.581 85.128 146.393 81.0957C144.18 82.6184 142.018 84.0306 139.597 84.9791C137.95 85.6214 136.277 86.0977 134.481 85.9744C132.366 85.8298 131.391 84.8728 131.391 82.7333C131.391 77.3484 132.285 72.0572 133.17 66.7617C133.528 64.6179 133.766 62.4487 134.034 60.2922C134.111 59.667 134.196 59.0204 133.839 58.4335C133.166 57.6806 132.404 57.906 131.647 58.2336C130.4 58.7737 129.447 59.7095 128.523 60.6665C123.335 66.0216 120.909 72.5719 120.245 79.8792C120.216 80.194 120.177 80.5087 120.143 80.8277C119.403 81.0192 119.62 81.6316 119.611 82.1123C119.59 83.3585 119.603 84.6048 119.603 85.8553H111.121C111.844 81.3679 112.555 76.9529 113.266 72.5378C114.04 72.389 113.849 71.768 113.857 71.2746C113.879 70.1134 113.87 68.9479 113.87 67.7825C113.921 65.3453 114.406 62.9251 114.211 60.4751C114.138 59.5691 114.1 58.6589 113.142 57.9826C111.308 57.7572 109.891 58.6461 108.695 60.0413C104.443 65.0008 101.809 70.7003 100.766 77.1485C100.302 80.0239 100.128 82.9289 99.881 85.8425H90.9352C91.3863 83.4776 91.8204 81.1978 92.2545 78.9137C93.4163 77.9227 92.5098 76.5998 92.8077 75.4684C93.1567 71.6616 93.5568 67.8633 93.8419 64.0522C94.0079 61.8277 94.0547 59.5947 94.0505 57.3616C94.0462 54.3076 93.1184 53.4825 90.0882 53.6016C89.1519 53.6399 88.2071 53.6058 87.0495 53.6058C89.8797 58.7822 89.5094 64.0182 88.671 69.3435C87.4198 77.2676 82.3383 81.8188 75.3331 84.6431C71.7029 86.1062 67.8768 86.3232 64.0423 85.4938C59.3396 84.4729 56.5137 81.3552 55.8072 76.5403C55.7987 73.2056 55.7944 69.8709 55.7859 66.5362C55.9093 64.4606 56.6456 62.5168 57.1776 60.3943H50.947C50.6746 63.2186 50.3895 66.0003 50.1384 68.7863C49.8447 72.0657 49.5468 75.3408 49.3085 78.6245C49.0574 82.0145 49.5383 82.5334 52.8791 82.7375C53.1941 82.7588 53.509 82.8141 53.8239 82.8524C53.7346 83.0098 53.4452 83.048 53.5899 83.4436H56.1562C56.4668 84.1156 56.5179 84.6516 56.1179 85.196H32.6169C32.4893 84.609 32.3786 84.1071 32.2807 83.6605C33.0042 82.946 34.2001 83.9838 34.7066 82.8396C35.0726 82.7928 35.4428 82.712 35.8088 82.712C37.4516 82.695 38.3155 81.8996 38.5964 80.262C39.2306 76.536 39.3838 72.7633 39.7881 69.0117C40.0519 66.583 40.252 64.1458 40.4435 61.7086C40.486 61.1642 40.7542 60.5261 40.0902 60.1178C40.0945 60.0285 40.1243 59.8669 40.103 59.8626C39.9626 59.8158 39.8094 59.7775 39.6604 59.7775C32.8297 59.7775 25.9991 59.7818 19.1684 59.7946C19.1556 59.7946 19.1428 59.9392 19.1258 60.0157C19.2237 60.0498 19.3258 60.0795 19.4237 60.1136C18.9683 60.3177 18.879 60.7261 18.8449 61.1642C18.364 67.0934 17.815 73.0142 17.432 78.952C17.2277 82.0868 17.5682 82.342 20.675 82.8056C21.4921 83.7243 22.7093 83.1374 23.7434 83.584C23.8158 84.1369 24.0328 84.6856 23.5306 85.213H0.548933C0.127601 84.7919 0.272301 84.3368 0.199951 83.937C0.204207 83.7584 0.208463 83.5755 0.216975 83.3968C0.961752 83.3968 1.70227 83.3968 2.44705 83.3968C2.44705 83.2905 2.44705 83.1799 2.44705 83.0736H0.331883C1.48948 82.5802 2.72794 82.8013 3.92384 82.729C5.55809 82.6312 6.40501 81.8698 6.69016 80.2535C7.32428 76.6509 7.40514 72.9929 7.83924 69.3733C7.90308 68.8501 7.97543 68.3269 8.04352 67.808C8.15418 68.0122 8.26057 68.2163 8.53721 68.731V62.3721C8.58402 61.7214 8.62658 61.0706 8.67339 60.4156C9.40115 60.1774 9.1458 59.5564 9.15856 59.0757C9.19687 57.6508 9.18835 56.2259 9.20112 54.801C9.45647 51.5216 9.6948 48.238 9.97569 44.9586C10.1289 43.2105 10.2438 41.4623 10.1544 39.7056C10.0608 37.7958 9.58841 37.3237 7.63496 37.1621C6.20924 37.043 4.78353 36.9707 3.31951 36.8729C3.03011 35.8478 3.17055 34.9375 3.43867 33.989H27.6163C27.8333 34.9163 27.6631 35.7882 27.561 36.8601C26.348 36.9579 25.1521 37.1025 23.952 37.1408C22.2454 37.1919 21.2878 38.0511 21.0069 39.6886C20.8111 40.837 20.6792 41.9982 20.5175 43.1552C20.3728 43.0573 20.3302 42.7809 19.9812 42.9127V47.8509C19.7472 50.5221 19.5174 53.1975 19.2748 55.9707H41.018C41.2947 52.7041 41.5755 49.4034 41.8522 46.1028C41.9713 46.3112 42.0862 46.5196 42.3544 46.9918C42.3544 44.1079 42.3544 41.5176 42.3544 38.9315C42.3544 38.5317 42.2863 38.1872 41.8181 38.0851C40.9244 37.1281 39.7242 37.1791 38.5624 37.1025C37.4516 37.0302 36.3451 36.9452 35.1832 36.8601C34.9236 35.8605 35.0811 34.9546 35.2854 34.0188H59.5055V36.8516C58.3607 36.9494 57.3095 37.043 56.254 37.1238C53.7303 37.3195 53.1643 37.8256 52.7515 40.3479C52.6323 41.0795 52.5642 41.8196 52.4706 42.5554C51.7215 42.7468 51.9429 43.3636 51.9343 43.8485C51.9088 45.418 51.9173 46.9918 51.9131 48.5613C51.7428 50.9857 51.5726 53.4144 51.3981 55.958H60.0205C68.345 47.4171 79.6741 46.7578 85.394 51.611C91.0032 50.8071 96.7146 49.9691 102.23 48.0934C102.694 48.221 103.098 48.4549 103.473 48.9398C103.481 50.1818 103.269 51.4791 102.971 52.7637C102.192 52.8998 102.375 53.5165 102.366 54.0142C102.345 55.069 102.354 56.1281 102.349 57.183L102.358 57.1787ZM64.4338 68.1738C64.3274 67.8378 64.5445 67.4337 64.1402 67.0807V75.3664C64.204 75.3706 64.2679 75.3749 64.336 75.3791C64.3743 75.0303 64.4083 74.6815 64.4466 74.3328C64.536 74.8517 64.6339 75.3664 64.7147 75.8895C65.1573 78.8542 67.2895 81.3594 69.8814 81.9549C72.503 82.5546 75.1203 81.2871 76.861 78.5819C77.7292 77.2294 78.3165 75.7534 78.7506 74.2137C80.121 69.3945 80.2316 64.4648 79.9422 59.5138C79.8741 58.3484 79.5507 57.2212 79.0102 56.1579C76.7716 51.7726 71.7539 51.1176 68.4982 54.8138C67.2087 56.277 66.5064 58.0507 65.9021 59.8796C65.0169 62.5763 64.8509 65.3963 64.4381 68.1738H64.4338ZM247.211 63.4142C247.143 62.2913 247.113 60.641 246.926 59.0119C246.462 55.0052 243.581 52.2788 240.061 52.4659C237.678 52.5935 236.022 53.9163 234.788 55.8431C232.996 58.6376 232.294 61.7809 231.907 65.0178C231.447 68.8756 231.17 72.759 231.971 76.5786C232.562 79.4241 234.299 81.5125 237.324 82.0017C240.231 82.4696 242.321 81.0021 243.866 78.667C244.538 77.6504 245.04 76.536 245.44 75.3749C246.73 71.6659 247.011 67.8123 247.211 63.4142ZM154.667 65.5069C157.527 65.5835 160.085 65.1411 162.387 63.6567C164.817 62.0914 165.949 59.7946 165.928 56.9448C165.902 53.257 162.834 51.5769 159.642 53.4612C158.897 53.8993 158.284 54.4905 157.808 55.1966C155.731 58.2718 155.144 61.7852 154.667 65.5069ZM40.7371 56.5152C40.7371 56.4641 40.7371 56.4131 40.7371 56.3578H19.7599C19.7599 56.4088 19.7599 56.4599 19.7599 56.5152H40.7371ZM59.8843 56.4982C59.8843 56.4599 59.8843 56.4173 59.8843 56.3791H51.7173C51.7173 56.4173 51.7173 56.4599 51.7173 56.4982H59.8843ZM56.6967 60.0115C56.6967 59.969 56.6967 59.9307 56.6967 59.8881H51.0789C51.0789 59.9307 51.0789 59.969 51.0832 60.0115H56.7009H56.6967ZM17.0702 77.3952C17.0149 77.3952 16.9638 77.4037 16.9085 77.4037V80.815C16.9638 80.815 17.0149 80.815 17.0702 80.815V77.3952Z" fill="#C0123E"/>
<path d="M317.148 49.3654C317.518 49.2293 317.543 48.8976 317.565 48.5828C317.786 45.1928 318.22 41.8114 318.165 38.4086C318.126 35.9927 317.275 35.2015 314.832 35.1803C313.832 35.1718 312.832 35.1803 311.836 35.1803C311.589 34.236 311.789 33.4832 312.053 32.607C317.028 31.7478 322.089 31.0842 326.779 29.1191C327.404 29.251 327.779 29.5828 327.915 29.9188C326.455 42.9258 325.021 55.7413 323.578 68.5569C323.442 69.7691 323.25 70.9728 323.089 72.1808C322.352 71.9766 322.625 72.5551 322.621 72.8316C322.591 74.2054 322.599 75.5793 322.595 76.9532C322.74 77.7443 322.467 78.7183 323.638 79.1607C324.897 78.629 326.038 77.7953 327.2 76.8851C327.272 75.8345 327.345 74.7839 327.417 73.7631C327.966 73.2654 328.558 73.593 329.047 73.4866C329.485 73.8439 329.579 74.2863 329.583 74.6861C329.596 77.0297 331 78.3185 332.928 79.2628C335.993 80.76 339.146 81.7383 342.602 80.9471C345.023 80.3899 346.249 79.0841 346.458 76.9106C346.658 74.7924 345.517 72.8741 343.436 71.9639C341.67 71.194 339.75 70.9899 337.882 70.6113C335.363 70.1009 332.937 69.365 330.941 67.6509C329.677 66.5663 328.63 65.3158 328.366 63.5846C328.375 61.828 328.383 60.0713 328.392 58.3189C329.881 53.7209 333.026 50.8712 337.644 49.5824C338.172 49.4718 338.835 49.8759 339.21 49.1783C343.474 48.0554 348.875 48.6594 352.412 50.7053C352.161 53.6997 352.148 56.7664 351.684 59.7991C351.684 58.8591 351.684 57.9191 351.684 56.9791C351.565 56.9791 351.446 56.9876 351.326 56.9918V59.3652C350.897 59.8927 350.433 59.731 350.033 59.8161C349.539 58.7995 349.509 57.6639 349.207 56.5112C346.317 54.2867 343.151 52.8575 339.359 53.3977C337.061 53.7252 335.554 55.2096 335.329 57.2726C335.052 59.8204 335.92 61.3346 338.329 62.2363C340.627 63.0955 343.066 63.4273 345.449 63.9504C347.556 64.4141 349.535 65.1499 351.199 66.5493C353.965 68.8759 354.969 71.9043 353.893 75.2816C352.144 80.7727 348.381 84.2223 342.593 85.2601C341.138 85.2601 339.682 85.2601 337.818 85.2601C338.299 85.6386 338.423 85.7322 338.546 85.8258C334.46 86.2937 330.681 84.9921 326.889 83.8862C326.472 83.1121 326.923 82.3508 326.702 81.5596C325.94 81.6319 325.434 82.2104 324.838 82.5889C323.357 83.5332 321.867 84.4562 320.254 85.1538C316.501 86.7828 314.547 85.6046 314.224 81.3257C312.053 82.8739 310.117 84.6348 307.555 85.2771H304.699C305.112 85.6216 305.231 85.7237 305.35 85.8215C304.516 85.9577 303.682 85.9492 302.848 85.8258C302.971 85.6939 303.09 85.5621 303.371 85.2601H299.447C294.447 84.0989 292.442 80.3857 291.727 75.8217C290.693 69.2247 291.787 62.8701 294.932 57.0046C297.911 51.4454 303.044 49.1315 309.1 48.6296C311.262 48.451 313.453 48.3914 315.59 48.9826C315.918 49.9056 316.539 49.5994 317.148 49.3612V49.3654ZM315.1 70.6198C315.752 70.4199 315.573 69.8755 315.581 69.4288C315.607 68.1613 315.607 66.8896 315.615 65.6178C315.475 62.8701 315.845 60.0798 315.015 57.3831C313.432 52.228 307.814 50.7053 304.261 54.4525C303.184 55.5882 302.439 56.9408 301.912 58.3955C299.826 64.1716 299.554 70.1392 300.307 76.1535C300.69 79.2032 302.971 81.4575 305.686 81.9637C308.227 82.4401 310.751 81.0875 312.436 78.3993C313.934 76.0089 314.496 73.308 315.096 70.6156L315.1 70.6198ZM341.993 53.0149C342.006 52.9596 342.023 52.9085 342.036 52.8533H339.567V53.0149H341.989H341.993Z" fill="#C0123E"/>
<path d="M0.165877 26.7285V23.3938C1.80013 22.8281 3.45141 22.7983 5.05587 22.5814C20.8664 20.4844 36.6813 18.4343 52.4918 16.3544C66.4553 14.5169 80.4146 12.6454 94.3824 10.8079C106.295 9.23837 118.207 7.70289 130.119 6.13763C143.925 4.32142 157.778 2.77742 171.52 0.557134C178.849 -0.625318 185.896 0.310435 193.046 1.25044C210.542 3.54729 228.038 5.85265 245.534 8.158C264.136 10.6122 282.739 13.0707 301.341 15.5292C320.314 18.0345 339.282 20.5397 358.255 23.045C358.778 23.113 359.298 23.2024 359.911 23.2959C360.021 24.4912 359.889 25.6226 359.676 26.9241C356.753 26.5541 353.867 26.2053 350.99 25.8267C336.129 23.8616 321.271 21.8881 306.414 19.923C289.761 17.7197 273.108 15.5207 256.455 13.3259C242.385 11.4714 228.31 9.63394 214.241 7.77945C203.226 6.32903 192.216 4.85309 181.198 3.41544C178.734 3.09218 176.333 3.76847 173.916 4.08322C152.198 6.9075 130.485 9.7658 108.771 12.6284C86.692 15.542 64.6126 18.4811 42.5331 21.3989C28.7781 23.2151 15.0231 25.0143 1.26389 26.8135C0.914911 26.8603 0.536138 27.0304 0.161621 26.7327L0.165877 26.7285Z" fill="#BE1540"/>
<path d="M290.046 69.9563C289.161 76.8681 284.62 80.9259 278.862 83.8522C274.508 86.064 269.831 86.5149 265.043 85.3579C261.689 84.5498 259.396 82.4954 258.161 79.3011C256.161 74.1161 256.672 68.8589 257.906 63.6187C260.472 52.7172 270.171 47.6726 280.228 48.753C286.114 49.3867 289.77 53.2446 290.659 59.2972C291.055 62.0024 290.995 64.6948 290.536 67.383C290.442 67.2596 290.349 67.1405 290.046 66.7492V69.9563ZM281.224 71.2621C281.875 71.1047 281.747 70.5773 281.752 70.1264C281.764 69.1354 281.76 68.1486 281.764 67.1575C281.752 64.9287 281.743 62.7042 281.73 60.4754C281.722 59.2972 281.535 58.1403 281.109 57.0471C280.19 54.6822 278.662 52.9086 276.032 52.5087C273.414 52.1089 271.393 53.2446 269.822 55.2862C269.171 56.1369 268.673 57.0727 268.295 58.0637C266.039 63.9632 265.762 70.0796 266.528 76.2471C266.894 79.1905 269.201 81.5256 271.797 81.9765C274.789 82.4911 276.908 81.062 278.513 78.6886C279.445 77.3147 280.028 75.775 280.475 74.1842C280.747 73.2144 280.973 72.2361 281.22 71.2578L281.224 71.2621Z" fill="#C0123E"/>
<path d="M34.7024 82.8396C34.2002 83.9881 33 82.946 32.2766 83.6606C32.3744 84.1072 32.4851 84.6091 32.6128 85.196H56.1137C56.518 84.6516 56.4669 84.1157 56.152 83.4436H53.5857C53.4453 83.0523 53.7304 83.0098 53.8198 82.8524C54.6667 82.7503 55.5051 82.7801 56.4116 82.9885C56.7478 83.8647 56.4074 84.7282 56.4201 85.6979H32.0084C31.7956 84.7579 31.9403 83.8987 32.0893 83.0523C33.0128 82.7205 33.8555 82.7673 34.6981 82.8354L34.7024 82.8396Z" fill="#BE1540"/>
<path d="M0.19998 83.9415C0.276586 84.3456 0.131886 84.8007 0.548961 85.2175H23.5264C24.0286 84.6901 23.8116 84.1414 23.7392 83.5885C22.705 83.1419 21.4879 83.7288 20.6707 82.8101C21.7815 82.7208 22.8795 82.7846 24.0456 82.9632C24.3606 83.8607 24.101 84.7284 24.0541 85.7024H0.102095C-0.0766518 85.0517 -0.0128137 84.4902 0.19998 83.9415Z" fill="#BE1540"/>
<path d="M357.127 53.6865C355.608 53.6568 354.335 52.3297 354.361 50.8027C354.387 49.2289 355.659 48.004 357.229 48.0337C358.791 48.0678 360.021 49.3395 360 50.9091C359.979 52.4445 358.668 53.7163 357.132 53.6865H357.127ZM358.459 49.1354C358.123 48.7313 357.664 48.6079 357.174 48.6335C356.102 48.6845 355.361 49.1949 355.08 50.2583C354.804 51.3089 355.123 52.2063 356.038 52.7338C356.808 53.1761 357.71 53.5292 358.34 52.4233C359.698 51.5811 359.74 50.4582 358.459 49.1354Z" fill="#BE1540"/>
<path d="M190.791 84.6646C195.664 85.6003 200.592 85.2005 205.499 85.3153C200.545 86.2681 195.638 86.0894 190.791 84.6646Z" fill="#BE1540"/>
<path d="M203.712 56.1963C210.708 56.2176 217.709 56.2431 224.706 56.2643C225.28 56.2643 225.855 56.2643 226.459 56.5876C225.953 56.5876 225.442 56.5876 224.936 56.5876C218.624 56.5876 212.317 56.5791 206.005 56.6004C205.29 56.6004 204.554 56.4132 203.843 56.8598C203.49 57.081 203.588 56.5621 203.482 56.3792C203.558 56.3196 203.635 56.2558 203.712 56.1963Z" fill="#BE1540"/>
<path d="M19.4239 60.1178C19.326 60.088 19.2239 60.054 19.126 60.0199C19.1387 59.9434 19.1515 59.7987 19.1685 59.7987C25.9992 59.786 32.8299 59.7817 39.6606 59.7817C39.8095 59.7817 39.9627 59.82 40.1032 59.8668C40.1245 59.8753 40.0947 60.0327 40.0904 60.122C33.2044 60.2496 26.3141 60.2539 19.4281 60.122L19.4239 60.1178Z" fill="#BE1540"/>
<path d="M230.447 85.2769C233.613 85.2896 236.784 85.3024 239.95 85.3151C236.78 86.1786 233.613 86.2169 230.447 85.2769Z" fill="#BE1540"/>
<path d="M55.7859 66.5405C55.7944 69.8752 55.7987 73.2099 55.8072 76.5446C54.9135 73.2099 55.0837 69.8752 55.7859 66.5405Z" fill="#BE1540"/>
<path d="M203.248 57.5869V59.5265C205.027 60.3219 206.818 59.5095 208.542 59.7817C209.116 59.871 209.836 59.4329 210.244 60.2028C207.827 60.3516 205.41 60.3516 202.933 60.1943C202.852 59.2032 202.924 58.3823 203.252 57.5869H203.248Z" fill="#BE1540"/>
<path d="M41.8311 38.085C42.2992 38.1828 42.3673 38.5273 42.3673 38.9314C42.3673 41.5217 42.3673 44.1121 42.3673 46.9916C42.0992 46.5195 41.98 46.3111 41.8651 46.1027C41.8651 43.4315 42.3673 40.7561 41.8353 38.085H41.8311Z" fill="#BE1540"/>
<path d="M218.59 60.4882C218.548 60.2925 218.505 60.1011 218.433 59.7778C220.148 59.7778 221.765 59.7778 223.378 59.7778C223.829 59.7778 224.229 59.8331 224.301 60.3903C222.395 60.3095 220.488 60.1139 218.59 60.4882Z" fill="#BE1540"/>
<path d="M119.603 85.8552C119.603 84.6089 119.59 83.3584 119.611 82.1122C119.62 81.6315 119.403 81.0233 120.143 80.8276C120.152 82.2866 120.16 83.7455 120.173 85.2044C120.173 85.6042 120.156 85.9573 119.603 85.8509V85.8552Z" fill="#BE1540"/>
<path d="M210.27 65.8857C210.27 67.8721 210.274 69.8584 210.249 71.8448C210.24 72.3212 210.487 72.9337 209.772 73.1761C209.827 70.7389 209.912 68.3017 210.27 65.8857Z" fill="#BE1540"/>
<path d="M122.139 59.382C122.139 57.0894 122.143 54.7968 122.148 52.5C122.969 54.7926 122.556 57.0894 122.139 59.382Z" fill="#BE1540"/>
<path d="M51.9216 48.5527C51.9259 46.9832 51.9216 45.4094 51.9429 43.8399C51.9514 43.355 51.7301 42.7425 52.4791 42.5469C52.4195 44.5587 52.2748 46.5664 51.9216 48.5527Z" fill="#BE1540"/>
<path d="M8.53738 62.3682V68.727C8.26501 68.2124 8.15435 68.0082 8.0437 67.804C8.06072 65.9793 8.1884 64.1631 8.53738 62.3682Z" fill="#BE1540"/>
<path d="M9.20131 54.7967C9.18855 56.2216 9.20131 57.6465 9.15875 59.0714C9.14599 59.5521 9.40559 60.1731 8.67358 60.4113C8.76721 58.5312 8.85233 56.6512 9.20131 54.7925V54.7967Z" fill="#BE1540"/>
<path d="M113.87 67.7866C113.87 68.9521 113.879 70.1132 113.857 71.2787C113.849 71.7721 114.04 72.3931 113.266 72.542C113.359 70.9427 113.487 69.3519 113.87 67.7866Z" fill="#BE1540"/>
<path d="M328.387 58.3101C328.379 60.0667 328.37 61.8234 328.362 63.5758C327.766 61.8191 327.723 60.0625 328.387 58.3101Z" fill="#BE1540"/>
<path d="M102.358 57.1786C102.358 56.1237 102.358 55.0646 102.375 54.0098C102.383 53.5121 102.2 52.8954 102.979 52.7593C102.89 54.248 102.766 55.7367 102.358 57.1828V57.1786Z" fill="#BE1540"/>
<path d="M322.595 76.9532C322.599 75.5793 322.595 74.2055 322.621 72.8316C322.625 72.5551 322.352 71.9724 323.089 72.1808C322.923 73.7716 322.761 75.3624 322.595 76.9532Z" fill="#BE1540"/>
<path d="M19.9856 47.8466V42.9084C20.3388 42.7765 20.3771 43.0487 20.5218 43.1508C20.3431 44.7161 20.1643 46.2814 19.9856 47.8466Z" fill="#BE1540"/>
<path d="M338.546 85.8299C338.423 85.7363 338.304 85.6385 337.818 85.2642C339.682 85.2642 341.138 85.2642 342.593 85.2642C341.278 85.6938 339.921 85.8299 338.546 85.8299Z" fill="#BE1540"/>
<path d="M202.231 81.1255C202.66 81.2361 203.167 80.9468 203.652 81.47C203.116 81.47 202.699 81.47 202.282 81.47C201.018 81.47 199.758 81.47 198.494 81.47C198.49 81.3594 198.485 81.2488 198.481 81.1382C199.009 81.1382 199.532 81.1382 200.06 81.1382C200.784 81.1382 201.507 81.1297 202.231 81.1255Z" fill="#BE1540"/>
<path d="M299.443 85.2642H303.367C303.086 85.5662 302.967 85.698 302.844 85.8299C301.677 85.8299 300.533 85.7108 299.443 85.2642Z" fill="#BE1540"/>
<path d="M350.029 59.8116C350.429 59.7266 350.897 59.884 351.322 59.3608V56.9874C351.442 56.9874 351.561 56.9789 351.68 56.9746C351.68 57.9146 351.68 58.8546 351.68 59.7946C351.135 60.4582 350.586 60.4156 350.029 59.8116Z" fill="#BE1540"/>
<path d="M92.8079 75.4727C92.51 76.6041 93.4165 77.9269 92.2546 78.9179C92.344 77.7525 92.4376 76.5913 92.8079 75.4727Z" fill="#BE1540"/>
<path d="M220.463 47.3065C220.463 46.3877 220.471 45.469 220.463 44.5503C220.463 44.1845 220.514 43.9335 220.965 44.1122C220.931 45.1968 220.854 46.2771 220.463 47.3022V47.3065Z" fill="#BE1540"/>
<path d="M290.046 69.9561V66.749C290.348 67.1403 290.442 67.2637 290.536 67.3828C290.502 68.2632 290.399 69.1352 290.046 69.9561Z" fill="#BE1540"/>
<path d="M121.82 62.3678C121.475 61.5596 121.024 60.743 122.05 60.0752C121.973 60.8408 121.897 61.6022 121.82 62.3678Z" fill="#BE1540"/>
<path d="M305.35 85.8257C305.231 85.7236 305.112 85.6258 304.699 85.2812H307.555C306.874 85.6811 306.125 85.8002 305.35 85.8257Z" fill="#BE1540"/>
<path d="M317.148 49.3652C316.539 49.6034 315.918 49.9096 315.59 48.9866C316.156 48.9186 316.654 49.1398 317.148 49.3652Z" fill="#BE1540"/>
<path d="M0.331885 83.0736H2.4428C2.4428 83.1799 2.4428 83.2905 2.4428 83.3969C1.69802 83.3969 0.957498 83.3969 0.21272 83.3969C0.106323 83.2395 0.157394 83.1331 0.327629 83.0693L0.331885 83.0736Z" fill="#BE1540"/>
<path d="M101.767 60.9218C101.784 60.2242 101.503 59.4671 102.15 58.8887C102.103 59.582 102.201 60.3008 101.767 60.9218Z" fill="#BE1540"/>
<path d="M339.21 49.1694C338.831 49.867 338.172 49.4629 337.644 49.5735C338.125 49.28 338.648 49.1397 339.21 49.1694Z" fill="#BE1540"/>
<path d="M40.7372 56.5153H19.76C19.76 56.4642 19.76 56.4132 19.76 56.3579H40.7372C40.7372 56.409 40.7372 56.46 40.7372 56.5153Z" fill="#BE1540"/>
<path d="M59.8843 56.498H51.7173C51.7173 56.4597 51.7173 56.4172 51.7173 56.3789H59.8843C59.8843 56.4172 59.8843 56.4597 59.8843 56.498Z" fill="#BE1540"/>
<path d="M64.4338 68.1737C64.4338 70.2281 64.4423 72.2825 64.4466 74.3327C64.4083 74.6814 64.3742 75.0302 64.3359 75.379C64.2721 75.3747 64.2082 75.3705 64.1401 75.3662V67.0806C64.5444 67.4293 64.3274 67.8377 64.4338 68.1737Z" fill="#BE1540"/>
<path d="M56.6967 60.0115H51.079C51.079 59.969 51.079 59.9307 51.0747 59.8882H56.6925C56.6925 59.9307 56.6925 59.969 56.6925 60.0115H56.6967Z" fill="#BE1540"/>
<path d="M17.0704 77.3955V80.8153C17.0151 80.8153 16.964 80.8153 16.9087 80.8153V77.404C16.964 77.404 17.0151 77.3955 17.0704 77.3955Z" fill="#BE1540"/>
<path d="M315.101 70.6197C315.271 68.9524 315.445 67.285 315.616 65.6177C315.607 66.8894 315.607 68.157 315.582 69.4287C315.573 69.8754 315.747 70.424 315.101 70.6197Z" fill="#BE1540"/>
<path d="M341.993 53.0147H339.572V52.853H342.036C342.023 52.9083 342.006 52.9594 341.993 53.0147Z" fill="#BE1540"/>
<path d="M281.224 71.2618C281.403 69.8922 281.586 68.5268 281.764 67.1572C281.764 68.1483 281.764 69.1351 281.752 70.1261C281.747 70.577 281.875 71.1044 281.224 71.2618Z" fill="#BE1540"/>
<path d="M358.217 49.3994C358.638 50.0672 358.451 50.6499 357.957 51.1603C358.102 51.6154 358.238 52.0365 358.374 52.4576C357.514 52.5087 357.672 51.3262 356.936 51.2454C356.378 51.4325 356.936 52.2024 356.204 52.3768V49.3696C356.906 49.1314 357.561 49.1952 358.217 49.3994ZM356.506 50.2926C357.085 50.6457 357.497 50.7605 357.906 50.0927C357.412 49.6418 357.016 49.4717 356.506 50.2926Z" fill="#BE1540"/>
</g>
<defs>
<clipPath id="clip0_2722_15078">
<rect width="360" height="86" fill="white"/>
</clipPath>
</defs>
</svg>
