<svg width="360" height="210" viewBox="0 0 360 210" fill="none" xmlns="http://www.w3.org/2000/svg">
<g clip-path="url(#clip0_2064_5240)">
<path d="M0 2.60181V93.2584H47.5601C66.2795 93.2584 83.5783 86.7013 83.5783 67.4405C83.5783 54.4196 74.1796 48.4756 63.842 45.3643C70.1403 42.8429 77.2852 37.546 77.2852 26.4419C77.2852 12.2298 63.1558 2.60181 44.1324 2.60181H0ZM29.1359 23.7158H39.8477C44.2082 23.7158 47.5333 27.1247 47.5333 30.5845C47.5333 33.799 44.0782 37.2395 39.8477 37.2395H29.1359V23.7158ZM29.1359 56.055H43.2754C48.2115 56.055 52.3536 59.7965 52.3536 64.0729C52.3536 68.6141 48.4796 72.3849 42.4185 72.3849H29.1359V56.055Z" fill="#1C252C"/>
<path d="M23.5658 103.147V193.804H71.1259C89.8453 193.804 107.144 187.246 107.144 167.986C107.144 154.965 97.7454 149.021 87.4078 145.909C93.7061 143.388 100.851 138.091 100.851 126.987C100.851 112.775 86.7216 103.147 67.6982 103.147H23.5658ZM52.7017 124.261H63.4135C67.774 124.261 71.0991 127.67 71.0991 131.13C71.0991 134.344 67.6441 137.785 63.4135 137.785H52.7017V124.261ZM52.7017 156.6H66.8412C71.7773 156.6 75.9194 160.342 75.9194 164.618C75.9194 169.159 72.0454 172.93 65.9843 172.93H52.7017V156.6Z" fill="#1C252C"/>
<path d="M85.8653 93.2474V2.59082H159.134V24.4852H114.915V36.3732H150.821V56.8992H114.915V71.4385H159.134V93.2474H85.8653Z" fill="#1C252C"/>
<path d="M198.824 95.8422C219.447 95.8422 235.944 84.1015 235.944 65.0756C235.944 34.3701 195.92 39.0951 195.92 29.5348C195.92 25.8419 199.811 23.8822 203.802 23.8822C210.679 23.8822 215.648 28.4043 215.648 28.4043L232.868 12.0411C225.98 5.49961 215.103 0 200.451 0C178.445 0 164.048 13.0352 164.048 28.7594C164.048 59.8554 203.495 55.3422 203.495 65.0991C203.495 68.5193 200.198 71.9602 194.218 71.9602C187.429 71.9602 182.051 67.8698 177.865 64.3992L160.545 80.8793C167.519 87.6592 178.716 95.8422 198.824 95.8422Z" fill="#1C252C"/>
<path d="M258.367 93.2474V24.3997H234.373V2.59082H311.497V24.3997H287.503V93.2474H258.367Z" fill="#1C252C"/>
<path d="M108.146 103.083H137.196V157.391C137.196 162.906 142.695 167.988 148.429 167.988C153.838 167.988 159.305 163.399 159.305 157.101V103.083H188.269V156.732C188.269 178.02 170.56 195.001 147.661 195.001C124.632 195.001 108.146 176.52 108.146 155.572V103.083Z" fill="#1C252C"/>
<path d="M224.089 193.739V161.345L189.945 103.083H219.338L238.657 134.299L258.044 103.083H287.503L253.225 161.678V193.739H224.089Z" fill="#1C252C"/>
<path d="M287.503 152.698L270.364 169.803V192.895L287.503 210H360V152.698H287.503Z" fill="#FFED31"/>
<path d="M284.688 181.338C284.688 183.464 282.962 185.187 280.832 185.187C278.702 185.187 276.976 183.464 276.976 181.338C276.976 179.213 278.702 177.49 280.832 177.49C282.962 177.49 284.688 179.213 284.688 181.338Z" fill="#1C252C"/>
</g>
<defs>
<clipPath id="clip0_2064_5240">
<rect width="360" height="210" fill="white"/>
</clipPath>
</defs>
</svg>
