<svg width="300" height="360" viewBox="0 0 300 360" fill="none" xmlns="http://www.w3.org/2000/svg">
<g clip-path="url(#clip0_2722_16815)">
<path d="M299.975 180.015C299.975 236.009 299.959 292.005 300 348C300.004 353.125 296.297 358.605 290.516 359.829C289.675 360.007 288.849 359.995 288.013 359.995C210.075 360 132.139 360 54.2011 360C40.0902 360 25.9811 360 11.8702 360C5.34428 360 0.0882607 354.781 0.0162112 348.237C0.00360248 347.097 0.0126087 345.954 0.0126087 344.813C0.0108074 234.144 0.0126087 123.477 0 12.8096C0 7.49869 2.18851 3.55922 6.94918 1.14616C8.69098 0.263112 10.5769 0 12.5366 0C75.1027 0.0162192 137.669 0.0126149 200.235 0.0126149C229.417 0.0126149 258.597 0.0126149 287.779 0.0162192C292.761 0.0162192 296.356 2.34638 298.694 6.6679C299.681 8.49166 300 10.4776 299.998 12.5717C299.969 42.0709 299.978 71.57 299.978 101.069C299.978 127.384 299.978 153.699 299.978 180.015H299.975ZM285.615 179.833V37.4628C285.615 32.4168 285.619 27.3708 285.615 22.3249C285.614 19.9857 284.744 17.9871 283.09 16.3688C281.273 14.5901 279.008 14.0224 276.512 14.0224C192.221 14.0332 107.93 14.0314 23.6395 14.0296C23.3387 14.0296 23.0378 14.0152 22.7388 14.0332C19.2354 14.2495 16.5138 15.693 15.0854 19.0486C14.4441 20.5552 14.3469 22.1699 14.3469 23.8008C14.3559 128.087 14.3559 232.373 14.3559 336.659C14.3559 337.079 14.3217 337.504 14.3631 337.92C14.6765 341.097 15.9266 343.655 18.9634 345.12C20.4134 345.819 21.8959 346.039 23.4846 346.039C107.356 346.024 191.225 346.024 275.096 346.024C275.937 346.024 276.782 346.079 277.616 346.008C280.82 345.738 283.328 344.386 284.742 341.342C285.415 339.894 285.626 338.387 285.626 336.805C285.615 284.482 285.617 232.158 285.617 179.835L285.615 179.833Z" fill="#FFC802"/>
<path d="M285.615 179.833C285.615 232.156 285.614 284.48 285.624 336.803C285.624 338.385 285.414 339.892 284.74 341.341C283.326 344.386 280.82 345.738 277.614 346.006C276.78 346.077 275.934 346.022 275.094 346.022C191.223 346.022 107.354 346.023 23.4828 346.037C21.8941 346.037 20.4117 345.817 18.9617 345.118C15.9248 343.653 14.6729 341.095 14.3613 337.918C14.3199 337.502 14.3541 337.078 14.3541 336.657C14.3541 232.371 14.3541 128.085 14.3451 23.7989C14.3451 22.1662 14.4424 20.5532 15.0836 19.0467C16.512 15.6911 19.2337 14.2476 22.7371 14.0313C23.0361 14.0133 23.3369 14.0277 23.6377 14.0277C107.928 14.0277 192.219 14.0313 276.51 14.0205C279.007 14.0205 281.271 14.59 283.088 16.3669C284.742 17.9852 285.612 19.9838 285.614 22.3229C285.619 27.3689 285.614 32.4149 285.614 37.4609V179.831L285.615 179.833ZM274.84 180.008C274.84 130.747 274.84 81.4834 274.84 32.2221C274.84 31.5607 274.851 30.8993 274.837 30.2397C274.79 28.1673 273.895 26.5994 272.156 25.4298C270.878 24.5702 269.5 24.4621 268.039 24.4621C189.388 24.4711 110.735 24.4693 32.0837 24.4693C31.7234 24.4693 31.3614 24.4531 31.003 24.4747C28.6037 24.6207 26.8205 25.6533 25.7163 27.8897C25.1201 29.0954 25.1291 30.3154 25.1291 31.5733C25.1291 130.518 25.1291 229.464 25.1291 328.408C25.1291 329.009 25.0913 329.614 25.1525 330.211C25.4011 332.643 26.68 334.301 28.9441 335.23C30.1023 335.703 31.3038 335.595 32.498 335.595C110.609 335.599 188.721 335.599 266.832 335.599C267.612 335.599 268.394 335.61 269.174 335.586C270.674 335.543 271.948 335.001 273.052 333.954C274.531 332.55 274.857 330.818 274.855 328.877C274.837 279.255 274.84 229.632 274.84 180.01V180.008Z" fill="#FE7901"/>
<path d="M274.84 180.008C274.84 229.63 274.837 279.254 274.855 328.875C274.855 330.818 274.529 332.55 273.052 333.952C271.948 334.999 270.674 335.541 269.174 335.585C268.394 335.606 267.612 335.597 266.832 335.597C188.721 335.597 110.609 335.597 32.498 335.594C31.3038 335.594 30.1023 335.702 28.9441 335.228C26.6782 334.3 25.3993 332.64 25.1525 330.209C25.0913 329.614 25.1291 329.009 25.1291 328.407C25.1291 229.462 25.1291 130.516 25.1291 31.5717C25.1291 30.3156 25.1201 29.0937 25.7163 27.8881C26.8205 25.6517 28.6037 24.619 31.0029 24.4731C31.3614 24.4514 31.7234 24.4677 32.0837 24.4677C110.735 24.4677 189.388 24.4677 268.039 24.4604C269.5 24.4604 270.876 24.5668 272.156 25.4282C273.893 26.596 274.788 28.1638 274.837 30.2381C274.851 30.8995 274.84 31.5591 274.84 32.2204C274.84 81.4818 274.84 130.745 274.84 180.006V180.008ZM33.7048 180.156C33.7048 218.001 33.7048 255.847 33.7048 293.692C33.7048 303.303 33.7066 312.916 33.7192 322.526C33.7228 325.599 35.4124 327.295 38.4889 327.36C38.8491 327.367 39.2094 327.36 39.5696 327.36C113.235 327.36 186.898 327.36 260.564 327.36C261.045 327.36 261.526 327.378 262.005 327.349C264.44 327.201 266.128 325.55 266.301 323.112C266.382 321.975 266.429 320.832 266.429 319.692C266.434 226.399 266.434 133.106 266.434 39.8128C266.434 39.092 266.439 38.3711 266.418 37.6503C266.326 34.4767 264.249 32.5178 261.255 32.6998C260.956 32.7178 260.656 32.6998 260.355 32.6998C186.87 32.6998 113.386 32.6998 39.9011 32.7016C39.24 32.7016 38.5808 32.7286 37.9197 32.7304C36.7669 32.7341 35.8681 33.2639 35.0413 34.0208C33.8039 35.1525 33.6922 36.5924 33.6922 38.1405C33.7066 85.4772 33.7048 132.816 33.7012 180.152L33.7048 180.156Z" fill="#D40102"/>
<path d="M33.7048 180.156C33.7048 132.819 33.7084 85.4809 33.694 38.1442C33.694 36.5962 33.8056 35.1563 35.0431 34.0245C35.8717 33.2676 36.7687 32.7378 37.9215 32.7342C38.5825 32.7324 39.2418 32.7054 39.9028 32.7054C113.388 32.7036 186.871 32.7036 260.357 32.7036C260.657 32.7036 260.958 32.7216 261.257 32.7036C264.251 32.5216 266.328 34.4805 266.419 37.654C266.441 38.3749 266.436 39.0957 266.436 39.8166C266.436 133.11 266.436 226.403 266.43 319.695C266.43 320.836 266.383 321.977 266.302 323.116C266.128 325.554 264.442 327.207 262.006 327.353C261.527 327.382 261.046 327.364 260.565 327.364C186.9 327.364 113.237 327.364 39.5714 327.364C39.2112 327.364 38.8509 327.371 38.4907 327.364C35.4142 327.299 33.7246 325.605 33.721 322.53C33.7084 312.919 33.7066 303.307 33.7066 293.696C33.7066 255.851 33.7066 218.005 33.7066 180.16L33.7048 180.156ZM68.4381 199.493C69.4954 198.821 70.8247 198.583 71.6173 197.493C72.9682 196.538 74.0723 195.363 74.8397 193.885C75.4971 193.146 76.0483 192.344 76.3221 191.376C76.7814 190.881 77.0534 190.291 77.2047 189.641C77.6154 189.075 77.9108 188.459 78.0351 187.767C78.0891 187.539 78.0963 187.287 78.2044 187.089C79.9408 183.883 80.8036 180.362 81.9041 176.927C82.3833 176.159 82.5562 175.274 82.839 174.434C83.3992 172.769 83.9305 171.093 84.4727 169.423C84.9302 168.52 85.2653 167.568 85.413 166.573C85.5246 165.82 85.6777 165.106 86.1154 164.476C86.5657 163.825 86.7225 163.056 86.9638 162.326C87.4952 160.72 87.9851 159.102 88.4931 157.489C89.2352 155.944 89.6981 154.306 90.1196 152.652C90.3862 151.607 90.5177 150.506 91.1679 149.588C91.321 149.269 91.5083 148.961 91.62 148.628C94.5723 139.945 97.5353 131.266 100.455 122.571C101.426 119.678 102.539 116.829 103.297 113.866C104.292 111.392 105.207 108.892 105.861 106.303C106.758 104.144 107.575 101.956 108.085 99.6673C108.629 99.2348 108.325 98.5392 108.609 98.0094C109.629 96.0991 110.148 94.005 110.769 91.9488C111.502 90.0331 112.275 88.1319 112.714 86.1189C114.062 82.8318 115.101 79.4384 116.196 76.0648C116.65 75.3673 116.924 74.596 117.138 73.7995C118.006 72.2749 118.875 70.7485 119.741 69.2238C120.377 68.4597 121.011 67.6956 121.647 66.9315C122.571 66.3963 123.266 65.5835 124.077 64.9113C124.929 64.7906 125.602 64.2409 126.38 63.94C127.173 63.6354 128.111 63.6859 128.796 63.0894C128.663 62.6821 128.4 62.6911 128.178 62.6911C121.591 62.6965 115.004 62.6587 108.418 62.7578C106.902 62.7812 105.329 63.066 103.996 63.9832C102.662 64.5041 101.323 65.0195 100.41 66.2197C99.2969 66.809 98.6232 67.8272 97.8991 68.7949C96.8292 70.0979 95.9484 71.518 95.2964 73.075C94.7578 74.0031 94.2859 74.9618 94.0175 76.0089C92.5152 79.2671 91.3841 82.657 90.415 86.1063C89.6279 87.8489 89.0551 89.6655 88.5759 91.5145C87.4664 94.2032 86.4883 96.9353 85.775 99.7592C84.9717 101.698 84.2349 103.659 83.7918 105.719C82.7291 108.11 81.9618 110.603 81.2413 113.113C81.1188 113.382 80.9711 113.641 80.8774 113.919C78.2422 121.646 75.598 129.37 72.9898 137.108C71.5542 141.371 69.9709 145.584 68.7407 149.914C67.7464 152.261 66.9665 154.679 66.2748 157.128C65.4066 159.246 64.6519 161.401 64.0809 163.62C63.2415 165.343 62.7281 167.175 62.249 169.021C61.325 171.232 60.5558 173.497 59.9236 175.809C58.4484 179.738 57.0705 183.699 55.8708 187.721C55.2368 188.329 55.3557 189.187 55.1359 189.933C54.6676 190.313 54.6334 190.836 54.6586 191.378C54.2245 192.029 54.0498 192.769 53.9111 193.523C53.3563 194.67 52.897 195.851 52.7205 197.123C52.4521 197.394 52.4449 197.758 52.371 198.096C51.9279 198.88 51.6181 199.702 51.5605 200.623C51.7946 200.699 51.9603 200.798 52.1261 200.798C56.1446 200.792 60.165 200.825 64.1835 200.733C65.6696 200.699 67.1484 200.362 68.4309 199.493H68.4381ZM219.775 124.798C220.274 125.506 221.052 125.89 221.738 126.339C222.431 126.793 222.671 127.887 223.705 127.909C223.876 127.462 223.663 127.215 223.545 126.962C220.965 121.482 218.418 115.986 215.767 110.54C215.097 109.165 214.456 107.705 213.209 106.685C212.163 105.928 211.772 104.448 210.358 104.095C209.535 103.322 208.544 102.918 207.44 102.771C206.526 102.389 205.583 102.187 204.588 102.295C203.751 102.053 202.904 101.967 202.04 102.124C199.765 101.956 197.488 101.958 195.211 102.115C193.529 101.938 191.846 101.978 190.164 102.12C188.483 101.94 186.805 101.983 185.124 102.12C184.423 101.92 183.707 102.05 182.999 102.016C182.536 101.994 182.143 102.149 182.017 102.607C181.642 103.969 180.906 105.22 180.753 106.651C179.872 108.418 179.396 110.336 178.775 112.196C177.602 115.699 176.242 119.141 175.302 122.722C175.097 123.001 174.785 123.295 175.408 123.454C179.126 123.58 182.844 123.614 186.56 123.439C188.721 123.576 190.883 123.62 193.044 123.439C194.727 123.567 196.407 123.607 198.088 123.436C199.891 123.582 201.694 123.598 203.497 123.441C205.774 123.583 208.05 123.6 210.327 123.437C211.042 123.6 211.757 123.546 212.474 123.454C212.961 123.616 213.456 123.603 213.955 123.529C215.389 123.782 216.822 124.036 218.256 124.288C218.708 124.625 219.218 124.789 219.778 124.804L219.775 124.798ZM107.714 193.977C107.927 193.915 108.028 193.764 108.049 193.551C108.499 193.005 109.061 192.521 109.079 191.729C109.297 190.933 110.382 190.587 110.193 189.579C110.578 188.749 111.326 188.091 111.38 187.1C112.788 184.191 113.725 181.113 114.625 178.022C114.993 177.538 115.096 176.947 115.277 176.388C115.962 174.296 116.639 172.2 117.32 170.106C118.46 167.274 119.413 164.38 120.253 161.448C120.91 160.041 121.351 158.563 121.771 157.071C122.192 155.577 122.729 154.115 123.216 152.641C123.583 152.288 123.65 151.794 123.801 151.349C127.178 141.417 130.563 131.489 133.904 121.547C134.799 118.883 135.864 116.27 136.5 113.522C137.044 113.023 136.764 112.271 137.076 111.688C137.979 109.99 138.501 108.154 138.962 106.297C139.834 104.182 140.63 102.043 141.16 99.8115C142.067 97.7138 142.818 95.5621 143.353 93.3364C144.297 91.1684 145.03 88.9284 145.657 86.6523L145.654 86.6C145.823 86.4757 145.859 86.3081 145.812 86.1135C145.978 85.7332 146.172 85.3602 146.304 84.9691C147.277 82.1073 148.372 79.2834 149.076 76.3369C149.796 75.5854 149.919 74.5582 150.315 73.6553C150.915 72.5254 151.517 71.3972 152.116 70.2673C152.61 69.55 153.104 68.831 153.597 68.1137C154.609 67.1388 155.623 66.1638 156.636 65.1889C158.179 64.3995 159.7 63.5525 161.454 63.293C161.688 63.2588 161.953 63.1687 161.96 62.8767C161.971 62.4658 161.632 62.4514 161.339 62.4208C161.16 62.4028 160.98 62.4064 160.8 62.4082C154.685 62.41 148.57 62.3361 142.456 62.4622C140.47 62.5037 138.389 62.6929 136.682 64.0139C134.43 64.7293 132.849 66.317 131.402 68.0777C130.797 68.7156 130.307 69.4293 129.961 70.2403C129.331 70.9972 128.798 71.8063 128.562 72.7795C127.991 73.5201 127.668 74.3798 127.366 75.2484C125.678 78.9806 124.435 82.8714 123.252 86.7839C122.439 88.7878 121.735 90.8296 121.175 92.9201C120.26 95.2971 119.273 97.6507 118.748 100.159C117.947 102.017 117.212 103.901 116.785 105.886C115.908 108.154 114.933 110.388 114.467 112.792C114.074 113.203 114.004 113.76 113.833 114.263C110.861 123 107.878 131.735 104.951 140.486C103.697 144.232 102.253 147.916 101.219 151.735C99.9417 155.034 98.7655 158.366 97.8325 161.782C96.6617 164.596 95.7232 167.491 94.8659 170.414C93.8662 172.875 93.0448 175.4 92.2919 177.947C91.2111 181.086 90.1322 184.227 89.0515 187.366C88.7669 187.803 88.5309 188.257 88.5129 188.794C87.8969 189.702 87.4916 190.709 87.1295 191.738C86.5928 192.232 86.328 192.89 86.047 193.539C85.5552 194.103 85.0293 194.643 84.8113 195.391C84.1107 195.826 83.6045 196.462 83.0695 197.069C82.041 197.671 81.099 198.401 80.0561 198.992C79.0204 199.578 77.673 199.459 76.5238 200.558C77.1687 200.628 77.5055 200.699 77.8423 200.699C83.7036 200.704 89.563 200.702 95.4242 200.702C96.6869 200.702 97.9406 200.515 99.1438 200.196C100.563 199.819 102.08 199.558 103.152 198.376C104.445 197.828 105.481 196.966 106.279 195.813L106.264 195.786C106.477 195.737 106.599 195.595 106.671 195.399C107.143 195.015 107.577 194.602 107.73 193.978L107.705 193.984L107.714 193.977ZM140.79 193.892C141.311 193.395 141.747 192.841 141.938 192.128C142.593 191.383 143.056 190.535 143.321 189.578C143.847 188.806 144.335 188.019 144.404 187.051C144.859 186.036 145.457 185.09 145.792 184.014C146.527 181.659 147.298 179.316 148.055 176.968C149.335 173.827 150.418 170.617 151.326 167.348C152.592 164.249 153.655 161.08 154.554 157.856C154.957 157.383 155.051 156.775 155.233 156.211C155.876 154.232 156.495 152.246 157.124 150.264C157.488 149.841 157.587 149.3 157.758 148.794C160.649 140.282 163.544 131.774 166.42 123.257C167.589 119.797 168.713 116.321 169.857 112.854C170.772 110.599 171.597 108.314 172.171 105.946C173.061 103.964 173.731 101.906 174.282 99.8079C174.862 98.3968 175.462 96.993 175.732 95.4774C175.875 93.9401 176.815 92.6985 177.309 91.2892C177.757 90.0079 177.777 88.5968 178.413 87.4146C179.011 86.3027 179.371 85.1439 179.683 83.9491C180.713 81.3558 181.592 78.7085 182.404 76.0395C183.067 75.3295 182.786 74.2338 183.435 73.5183C183.777 73.1165 184.009 72.6623 184.096 72.1379C184.834 71.3918 184.802 70.2114 185.585 69.4924C186.198 69.0364 186.542 68.375 186.929 67.7461C187.905 66.7928 188.88 65.8394 189.856 64.8861H189.809C189.933 64.9041 190.04 64.8699 190.128 64.7816C190.939 64.3977 191.736 63.9796 192.565 63.6426C193.397 63.3038 194.262 63.0479 195.135 62.747C194.898 62.291 194.638 62.3163 194.419 62.3163C187.938 62.3163 181.455 62.264 174.976 62.3667C172.953 62.3992 170.925 62.8191 169.212 64.086C167.658 64.8969 166.154 65.771 165.177 67.3082C164.586 67.8182 164.026 68.3498 163.781 69.1247C163.163 69.7609 162.632 70.4493 162.416 71.3323C161.901 71.9703 161.486 72.6623 161.315 73.4787C160.768 74.2392 160.368 75.0646 160.209 75.9963C158.99 78.5517 158.035 81.2008 157.356 83.9491C155.922 87.3479 154.854 90.8711 153.801 94.3997C153.152 95.8612 152.52 97.3281 152.268 98.923C152.095 99.051 152.032 99.2222 152.07 99.4312C151.998 99.6655 151.927 99.8998 151.855 100.134C151.048 102.019 150.225 103.897 149.867 105.935C149.038 107.858 148.391 109.84 147.864 111.864C147.642 112.417 147.395 112.962 147.203 113.526C144.371 121.816 141.522 130.1 138.737 138.406C137.613 141.756 136.341 145.06 135.428 148.482C134.273 151.416 133.232 154.387 132.402 157.431C131.179 160.509 130.06 163.623 129.226 166.833C127.956 170.003 126.825 173.22 125.925 176.514L125.943 176.5C125.748 176.59 125.699 176.743 125.744 176.941C125.085 178.803 124.394 180.653 123.778 182.53C123.388 183.715 122.729 184.818 122.646 186.103C122.036 187.204 121.594 188.374 121.241 189.579C120.937 189.99 120.55 190.36 120.564 190.931C119.934 191.731 119.482 192.634 119.051 193.551C118.601 193.923 118.298 194.402 118.053 194.923C117.183 195.757 116.243 196.52 115.495 197.476C114.597 197.949 113.723 198.478 112.794 198.88C111.861 199.284 110.872 199.56 109.904 199.893C110.131 200.39 110.398 200.353 110.618 200.353C116.98 200.349 123.343 200.409 129.705 200.288C131.847 200.246 133.994 199.789 135.795 198.421C136.954 197.967 137.975 197.323 138.695 196.276C139.634 195.694 140.277 194.854 140.785 193.894L140.79 193.892ZM216.073 133.018C215.853 132.901 215.628 132.901 215.401 132.998C215.153 133.016 214.904 133.034 214.655 133.052C213.933 132.915 213.209 132.919 212.485 133.028C212.254 132.933 212.026 132.931 211.795 133.028C210.219 132.902 208.643 132.908 207.065 133.021C206.959 132.938 206.851 132.938 206.746 133.023C205.9 132.924 205.053 132.908 204.208 133.039C203.243 132.886 202.277 132.91 201.312 133.028C201.198 132.949 201.085 132.951 200.973 133.03C199.77 132.911 198.567 132.906 197.365 133.041C194.604 132.884 191.843 132.922 189.081 133.045C186.558 132.877 184.033 132.913 181.509 133.041C178.582 133.014 175.655 133.007 172.728 132.944C171.914 132.926 171.57 133.281 171.345 134.014C170.889 135.499 170.341 136.957 169.846 138.431C168.174 143.418 166.51 148.408 164.844 153.396C164.565 153.717 164.332 154.036 164.862 154.342C165.217 154.384 165.57 154.461 165.925 154.461C173.468 154.468 181.012 154.47 188.556 154.461C188.968 154.461 189.379 154.366 189.791 154.315C192.203 154.541 194.615 154.568 197.027 154.308C199.66 154.515 202.295 154.553 204.929 154.304C207.337 154.521 209.745 154.542 212.154 154.31C214.904 154.524 217.655 154.541 220.405 154.315C221.246 154.53 222.087 154.512 222.927 154.301C223.645 154.535 224.366 154.494 225.086 154.308C225.91 154.622 226.769 154.506 227.615 154.528C229.058 154.899 230.503 155.272 231.946 155.643C233.54 156.563 234.946 157.741 236.249 159.039C236.71 158.485 236.414 158.177 236.279 157.871C235.555 156.224 234.828 154.577 234.08 152.94C232.136 148.684 230.35 144.351 228.174 140.203C227.313 138.563 226.364 136.954 224.73 135.917C223.348 134.584 221.745 133.713 219.8 133.556C218.973 133.241 218.116 133.137 217.237 133.18C216.871 132.973 216.469 133.018 216.075 133.016L216.073 133.018ZM245.334 187.248C245.932 187.745 246.514 188.266 247.134 188.736C247.75 189.203 248.079 190.071 248.949 190.216C249.203 189.774 248.974 189.524 248.866 189.26C247.404 185.71 245.938 182.162 244.468 178.615C243.457 176.177 242.549 173.685 241.226 171.394C240.307 169.805 239.471 168.102 237.751 167.15C236.899 166.146 235.793 165.564 234.539 165.233C233.785 165.016 233.028 164.798 232.273 164.582C231.22 164.281 230.164 163.986 229.047 164.193C228.219 163.969 227.383 163.942 226.54 164.108C225.699 163.968 224.858 163.944 224.017 164.101C221.257 163.928 218.499 163.944 215.74 164.094C213.458 163.926 211.175 163.957 208.891 164.094C206.489 163.926 204.088 163.955 201.685 164.094C199.403 163.937 197.122 163.95 194.84 164.099C192.318 163.933 189.797 163.953 187.275 164.101C186.742 164.067 186.209 164.005 185.674 164.005C178.813 163.998 171.952 163.998 165.091 164.004C164.558 164.004 164.024 164.067 163.489 164.101C161.961 163.98 160.958 164.623 160.48 166.031C158.99 170.396 157.455 174.746 156.02 179.127C155.353 181.163 154.444 183.124 154.078 185.256C154.127 185.494 154.273 185.535 154.48 185.453C160.238 185.55 165.997 185.57 171.755 185.431C172.831 185.613 173.906 185.606 174.983 185.436C175.848 185.557 176.712 185.557 177.577 185.436C182.235 185.618 186.895 185.613 191.553 185.436C192.887 185.546 194.222 185.6 195.553 185.402C197.954 185.572 200.357 185.595 202.758 185.4C205.159 185.57 207.562 185.584 209.965 185.406C212.247 185.573 214.529 185.584 216.812 185.406C219.097 185.561 221.383 185.593 223.669 185.406C226.423 185.572 229.179 185.579 231.935 185.413C232.897 185.575 233.857 185.566 234.817 185.391C235.653 185.586 236.488 185.532 237.326 185.399C238.16 185.649 239.014 185.568 239.864 185.554C240.664 185.914 241.526 185.932 242.378 186.013C243.362 186.426 244.347 186.838 245.331 187.251L245.334 187.248ZM166.793 251.923C166.793 260.452 166.793 268.98 166.793 277.509C166.793 277.929 166.809 278.351 166.793 278.771C166.77 279.398 167.096 279.629 167.677 279.609C167.976 279.598 168.277 279.611 168.578 279.611C176.141 279.611 183.705 279.641 191.268 279.598C194.39 279.58 197.499 279.295 200.561 278.618C209.232 276.7 215.064 271.679 217.395 262.982C219.247 256.076 219.368 249.073 217.752 242.115C215.999 234.568 211.505 229.268 204.185 226.503C201.418 225.458 198.545 224.856 195.609 224.563C193.399 224.341 191.18 224.256 188.957 224.262C182.174 224.28 175.39 224.272 168.609 224.267C166.58 224.267 166.798 224.227 166.793 226.154C166.793 226.394 166.793 226.635 166.793 226.875C166.793 235.224 166.793 243.571 166.793 251.921V251.923ZM113.249 279.389C113.345 278.924 113.102 278.484 112.961 278.045C109.978 268.726 107.019 259.4 103.759 250.173C100.837 241.908 97.6704 233.739 94.4714 225.581C94.0823 224.591 93.5978 224.199 92.5116 224.242C90.2943 224.33 88.0698 224.269 85.8489 224.269C81.6466 224.269 77.4425 224.292 73.2402 224.251C72.3215 224.242 71.7379 224.478 71.556 225.422C71.5344 225.537 71.4642 225.644 71.4191 225.754C64.4429 242.953 58.4538 260.499 52.9348 278.212C52.8159 278.592 52.5367 278.973 52.7475 279.454C52.888 279.497 53.0519 279.593 53.214 279.593C58.6177 279.603 64.0214 279.587 69.4252 279.627C70.2988 279.634 70.5347 279.216 70.7112 278.488C71.3345 275.922 72.0514 273.379 72.644 270.805C72.8691 269.827 73.2456 269.409 74.3191 269.418C80.0831 269.466 85.8471 269.472 91.611 269.412C92.708 269.401 93.0646 269.852 93.288 270.798C93.8662 273.251 94.5182 275.687 95.1396 278.131C95.5125 279.594 95.5107 279.607 97.0436 279.609C101.966 279.614 106.891 279.614 111.814 279.603C112.277 279.603 112.772 279.74 113.253 279.387L113.249 279.389ZM160.065 279.447C160.218 279.133 160.107 278.848 160.047 278.556C159.383 275.262 158.731 271.966 158.064 268.672C157.785 267.293 157.774 267.28 156.322 267.279C151.52 267.271 146.72 267.286 141.918 267.264C140.9 267.259 139.875 267.197 138.87 267.051C136.891 266.761 135.925 265.799 135.536 263.815C135.304 262.629 135.352 261.422 135.351 260.223C135.345 248.992 135.347 237.763 135.347 226.532C135.347 226.172 135.311 225.808 135.354 225.453C135.475 224.458 134.974 224.213 134.088 224.26C133.13 224.31 132.168 224.271 131.208 224.271C127.427 224.271 123.646 224.262 119.865 224.278C118.595 224.283 118.595 224.314 118.556 225.586C118.549 225.826 118.554 226.067 118.554 226.307C118.554 238.918 118.554 251.53 118.549 264.141C118.549 265.527 118.63 266.907 118.855 268.268C119.705 273.408 122.27 277.176 127.429 278.81C129.334 279.414 131.303 279.611 133.292 279.612C141.633 279.616 149.977 279.618 158.318 279.607C158.905 279.607 159.518 279.751 160.065 279.45V279.447ZM227.716 251.748C227.716 260.452 227.714 269.156 227.716 277.861C227.716 279.602 227.727 279.611 229.49 279.612C233.81 279.618 238.129 279.616 242.449 279.612C244.698 279.612 244.509 279.807 244.509 277.614C244.509 260.506 244.509 243.398 244.509 226.289C244.509 225.988 244.48 225.685 244.515 225.39C244.614 224.514 244.217 224.251 243.373 224.256C238.513 224.283 233.653 224.278 228.795 224.262C228.062 224.26 227.646 224.462 227.711 225.276C227.743 225.694 227.714 226.116 227.714 226.536C227.714 234.939 227.714 243.344 227.714 251.748H227.716Z" fill="#010160"/>
<path d="M166.793 251.922C166.793 243.573 166.793 235.225 166.793 226.876C166.793 226.636 166.793 226.395 166.793 226.155C166.797 224.229 166.579 224.267 168.609 224.268C175.392 224.274 182.176 224.281 188.957 224.263C191.182 224.258 193.399 224.342 195.609 224.564C198.545 224.858 201.42 225.461 204.185 226.505C211.505 229.269 215.999 234.568 217.752 242.117C219.368 249.075 219.247 256.076 217.395 262.984C215.064 271.681 209.232 276.701 200.561 278.619C197.499 279.297 194.392 279.581 191.268 279.599C183.705 279.643 176.141 279.614 168.578 279.612C168.277 279.612 167.978 279.599 167.677 279.61C167.094 279.63 166.77 279.399 166.793 278.772C166.809 278.352 166.793 277.931 166.793 277.511C166.793 268.981 166.793 260.453 166.793 251.924V251.922ZM183.642 251.742C183.642 252.461 183.642 253.182 183.642 253.901C183.642 258.039 183.636 262.178 183.649 266.316C183.649 266.865 183.424 267.584 184.432 267.565C187.304 267.509 190.18 267.694 193.035 267.139C197.627 266.245 200.521 263.553 201.679 259.048C202.803 254.683 202.892 250.252 201.959 245.854C200.892 240.83 197.744 237.808 192.691 236.757C190.141 236.227 187.567 236.299 184.991 236.299C183.665 236.299 183.647 236.325 183.644 237.705C183.635 242.383 183.64 247.062 183.64 251.74L183.642 251.742Z" fill="#FBFCFD"/>
<path d="M113.249 279.389C112.77 279.742 112.275 279.603 111.81 279.605C106.887 279.616 101.963 279.618 97.0399 279.61C95.5071 279.61 95.5089 279.596 95.136 278.133C94.5146 275.689 93.8626 273.254 93.2844 270.8C93.061 269.854 92.7044 269.403 91.6074 269.414C85.8434 269.473 80.0795 269.468 74.3155 269.419C73.242 269.41 72.8655 269.827 72.6404 270.807C72.0478 273.38 71.3309 275.923 70.7076 278.49C70.5311 279.218 70.2951 279.634 69.4215 279.628C64.0178 279.589 58.6141 279.605 53.2104 279.594C53.0483 279.594 52.8844 279.499 52.7439 279.455C52.5349 278.972 52.8141 278.592 52.9312 278.214C58.4502 260.502 64.4411 242.955 71.4155 225.755C71.4605 225.644 71.5308 225.539 71.5524 225.424C71.7343 224.48 72.3179 224.243 73.2366 224.252C77.4389 224.294 81.6411 224.27 85.8452 224.27C88.0662 224.27 90.2907 224.334 92.508 224.243C93.5942 224.2 94.0787 224.593 94.4678 225.582C97.6668 233.741 100.833 241.91 103.755 250.174C107.017 259.401 109.975 268.727 112.957 278.046C113.098 278.486 113.339 278.926 113.246 279.391L113.249 279.389ZM82.9579 234.815C80.1659 242.231 77.7937 249.682 75.6232 257.307H90.3249C88.0986 249.643 85.7894 242.153 82.9579 234.815Z" fill="#FBFCFD"/>
<path d="M160.065 279.446C159.518 279.747 158.905 279.603 158.318 279.603C149.977 279.614 141.633 279.614 133.292 279.608C131.303 279.608 129.334 279.41 127.429 278.807C122.27 277.172 119.703 273.404 118.855 268.264C118.63 266.902 118.549 265.521 118.549 264.137C118.556 251.526 118.554 238.914 118.554 226.303C118.554 226.063 118.549 225.822 118.556 225.582C118.595 224.31 118.595 224.279 119.865 224.274C123.646 224.258 127.427 224.268 131.208 224.267C132.168 224.267 133.13 224.306 134.088 224.256C134.974 224.209 135.475 224.456 135.354 225.449C135.311 225.804 135.347 226.168 135.347 226.528C135.347 237.759 135.345 248.988 135.351 260.219C135.351 261.42 135.304 262.625 135.536 263.811C135.923 265.795 136.889 266.757 138.87 267.048C139.875 267.195 140.902 267.257 141.918 267.26C146.72 267.282 151.52 267.267 156.322 267.275C157.774 267.276 157.785 267.289 158.064 268.668C158.731 271.962 159.384 275.258 160.047 278.552C160.107 278.846 160.218 279.129 160.065 279.443V279.446Z" fill="#FBFCFD"/>
<path d="M227.716 251.748C227.716 243.344 227.716 234.939 227.716 226.536C227.716 226.116 227.745 225.692 227.713 225.276C227.648 224.461 228.064 224.26 228.797 224.261C233.657 224.279 238.517 224.285 243.374 224.256C244.219 224.251 244.615 224.514 244.516 225.389C244.482 225.685 244.511 225.99 244.511 226.289C244.511 243.396 244.511 260.504 244.511 277.614C244.511 279.807 244.7 279.61 242.45 279.612C238.131 279.616 233.812 279.616 229.492 279.612C227.727 279.61 227.718 279.603 227.718 277.86C227.714 269.156 227.718 260.452 227.718 251.748H227.716Z" fill="#FBFCFD"/>
<path d="M101.226 151.731C102.26 147.912 103.705 144.228 104.958 140.482C107.885 131.731 110.868 122.996 113.84 114.259C114.011 113.756 114.082 113.199 114.474 112.788C115.89 112.922 117.306 112.817 118.723 112.805C123.817 112.758 128.913 112.801 134.009 112.772C134.943 112.767 135.788 112.88 136.505 113.52C135.869 116.27 134.807 118.881 133.91 121.545C130.568 131.487 127.184 141.415 123.806 151.347C123.655 151.794 123.587 152.288 123.221 152.639C122.949 151.26 121.839 151.623 121.088 151.808C119.961 152.088 118.848 152.07 117.724 152.073C113.372 152.084 109.02 152.073 104.668 152.082C103.96 152.082 103.231 151.951 102.555 152.289C101.889 152.625 101.594 152.095 101.226 151.729V151.731Z" fill="#56C2EF"/>
<path d="M169.859 112.853C168.715 116.322 167.591 119.797 166.422 123.257C163.545 131.772 160.651 140.282 157.76 148.793C157.589 149.3 157.49 149.839 157.124 150.264C155.501 150.464 153.952 149.857 152.325 149.887C147.842 149.972 143.353 149.866 138.87 149.947C137.431 149.974 136.314 149.588 135.428 148.483C136.341 145.063 137.613 141.76 138.737 138.408C141.522 130.102 144.373 121.819 147.203 113.527C147.395 112.963 147.642 112.419 147.864 111.866C148.631 112.826 149.514 113.414 150.793 112.814C150.942 112.743 151.147 112.787 151.328 112.787C157.504 112.808 163.679 112.83 169.855 112.853H169.859Z" fill="#56C2EF"/>
<path d="M68.7479 149.914C69.9782 145.584 71.5615 141.37 72.997 137.108C75.6034 129.372 78.2495 121.646 80.8847 113.918C80.9801 113.641 81.126 113.381 81.2485 113.113C82.2266 113.005 83.1092 113.509 84.0801 113.517C90.4871 113.567 96.9031 113.268 103.299 113.864C102.541 116.827 101.428 119.676 100.457 122.569C97.5371 131.262 94.5741 139.943 91.6219 148.626C91.5084 148.959 91.321 149.267 91.1697 149.586C90.4511 149.575 89.7324 149.545 89.0137 149.559C82.259 149.694 75.4936 149.22 68.7479 149.914Z" fill="#56C2EF"/>
<path d="M163.491 164.097C164.024 164.063 164.558 164 165.093 164C171.953 163.995 178.814 163.995 185.675 164.002C186.208 164.002 186.742 164.065 187.277 164.097C187.286 164.456 187.251 164.849 187.543 165.105C188.404 165.854 188.694 166.898 189.011 167.918C189.173 168.435 189.379 168.92 189.651 169.387C190.285 170.466 190.757 171.585 190.933 172.856C191.122 174.214 191.643 175.499 192.372 176.669C192.724 177.231 192.956 177.797 193.131 178.444C193.518 179.873 193.739 181.535 194.635 182.584C195.447 183.537 195.546 184.366 195.555 185.402C194.224 185.6 192.889 185.546 191.555 185.436C186.897 185.098 182.237 185.101 177.579 185.436C176.714 185.557 175.85 185.557 174.985 185.436C173.942 184.998 172.84 185.366 171.777 185.209C171.811 184.696 171.705 184.263 171.165 184.045C170.458 183.759 170.181 183.232 169.889 182.495C169.109 180.527 168.616 178.453 167.506 176.593C166.73 175.294 166.26 173.822 165.952 172.277C165.682 170.918 165.163 169.475 164.331 168.395C163.261 167.006 163.028 165.678 163.489 164.099L163.491 164.097Z" fill="#56C2EF"/>
<path d="M189.791 154.317C189.379 154.367 188.968 154.461 188.556 154.463C181.012 154.472 173.468 154.47 165.925 154.463C165.57 154.463 165.217 154.385 164.862 154.344C164.857 154.029 164.849 153.713 164.844 153.398C166.51 148.409 168.174 143.419 169.846 138.433C170.34 136.959 170.887 135.503 171.345 134.016C171.57 133.282 171.914 132.929 172.728 132.945C175.655 133.007 178.582 133.014 181.509 133.043C181.689 133.974 181.725 134.964 182.075 135.825C183.687 139.788 185.873 143.518 186.904 147.721C186.945 147.89 187.075 148.038 187.138 148.204C187.927 150.284 189.267 152.124 189.791 154.317Z" fill="#56C2EF"/>
<path d="M55.878 187.721C57.0776 183.699 58.4574 179.738 59.9308 175.809C60.9629 176.157 62.0184 176.252 63.11 176.245C67.3681 176.215 71.6281 176.258 75.8862 176.218C77.1579 176.206 78.4061 176.296 79.6021 176.685C80.3713 176.935 81.1242 176.964 81.9041 176.926C80.8036 180.363 79.9408 183.884 78.2044 187.089C78.0963 187.287 78.0891 187.539 78.0351 187.766C70.6482 187.752 63.2631 187.736 55.8762 187.721H55.878Z" fill="#ADE1F6"/>
<path d="M123.262 86.7801C124.446 82.8677 125.689 78.9769 127.376 75.2446C128.075 75.6898 128.855 75.6591 129.641 75.6591C135.345 75.6519 141.05 75.6555 146.752 75.6555C147.293 75.6555 147.833 75.6627 148.373 75.6699C148.808 75.6771 149.008 75.9421 149.085 76.3349C148.379 79.2832 147.286 82.1054 146.311 84.9672C146.178 85.36 145.985 85.7313 145.819 86.1115C145.632 86.2304 145.56 86.3854 145.661 86.5981C145.661 86.5981 145.664 86.6503 145.664 86.6485C144.78 86.0556 143.84 86.4341 142.91 86.4575C136.363 86.6179 129.804 86.1512 123.264 86.7801H123.262Z" fill="#ADE1F6"/>
<path d="M153.804 94.3994C154.856 90.8708 155.926 87.3476 157.36 83.9488C159.28 84.1903 161.139 83.5217 163.052 83.5793C168.594 83.7451 174.151 83.2495 179.683 83.9488C179.371 85.1454 179.013 86.3042 178.413 87.4143C177.777 88.5965 177.757 90.0076 177.309 91.2889C176.815 92.6999 175.875 93.9398 175.732 95.477C175.19 94.5237 174.349 94.3723 173.313 94.3795C166.811 94.421 160.307 94.3994 153.802 94.3994H153.804Z" fill="#99DAF6"/>
<path d="M116.2 76.0629C115.103 79.4365 114.065 82.8299 112.718 86.117C111.731 86.6378 110.747 86.0701 109.759 86.0792C103.314 86.1368 96.8671 86.108 90.4222 86.108C91.3913 82.6587 92.5243 79.2689 94.0247 76.0106C94.9307 76.2125 95.7593 75.4033 96.6563 75.7709C97.4723 76.1061 98.3063 76.0052 99.1366 76.0088C104.823 76.034 110.511 76.0467 116.2 76.0611V76.0629Z" fill="#ADE1F6"/>
<path d="M122.65 186.103C122.733 184.82 123.392 183.717 123.781 182.529C124.397 180.653 125.089 178.803 125.748 176.941C125.917 176.84 125.989 176.696 125.946 176.499L125.928 176.514C127.459 176.13 128.976 176.525 130.502 176.575C136.352 176.768 142.219 176.229 148.058 176.966C147.302 179.314 146.529 181.657 145.796 184.012C145.461 185.088 144.863 186.034 144.407 187.049C143.044 187.013 141.725 186.638 140.336 186.658C135.086 186.728 129.833 186.692 124.581 186.678C123.896 186.676 123.111 186.901 122.652 186.101L122.65 186.103Z" fill="#ADE1F6"/>
<path d="M148.058 176.966C142.219 176.229 136.352 176.768 130.502 176.575C128.976 176.525 127.459 176.132 125.928 176.514C126.827 173.218 127.96 170.001 129.23 166.831C129.929 167.276 130.711 167.219 131.487 167.219C136.743 167.215 141.999 167.219 147.253 167.213C148.083 167.213 148.908 167.26 149.728 166.957C150.281 166.754 150.919 166.716 151.331 167.343C150.423 170.612 149.341 173.822 148.06 176.963L148.058 176.966Z" fill="#99DAF6"/>
<path d="M101.226 151.731C101.593 152.097 101.887 152.628 102.555 152.291C103.231 151.951 103.96 152.084 104.668 152.084C109.02 152.073 113.372 152.084 117.724 152.075C118.848 152.073 119.961 152.09 121.088 151.81C121.839 151.625 122.949 151.262 123.221 152.641C122.735 154.117 122.198 155.579 121.776 157.073C121.355 158.565 120.914 160.042 120.258 161.45C114.159 161.45 108.058 161.45 101.959 161.455C101.482 161.455 100.859 161.293 100.554 161.529C99.6571 162.228 98.7583 161.877 97.8415 161.78C98.7745 158.365 99.9507 155.033 101.228 151.733L101.226 151.731Z" fill="#66C8F1"/>
<path d="M151.328 167.346C150.915 166.719 150.277 166.757 149.724 166.961C148.905 167.261 148.08 167.215 147.25 167.216C141.994 167.222 136.737 167.216 131.483 167.222C130.707 167.222 129.925 167.279 129.226 166.834C130.06 163.625 131.179 160.511 132.402 157.433C132.996 157.672 133.418 158.382 134.171 158.166C136.296 157.557 138.468 157.833 140.61 157.876C144.857 157.959 149.121 157.458 153.352 158.18C153.792 158.256 154.155 157.971 154.554 157.856C153.655 161.08 152.594 164.248 151.326 167.348L151.328 167.346Z" fill="#76CEF2"/>
<path d="M114.629 178.022C113.728 181.113 112.792 184.191 111.381 187.099C110.286 186.815 109.279 187.415 108.208 187.409C101.824 187.388 95.4422 187.377 89.0587 187.361C90.1394 184.221 91.2183 181.08 92.2991 177.941C92.8953 177.973 93.4231 178.501 94.0265 178.292C95.3756 177.827 96.7553 178.051 98.1189 178.044C103.622 178.009 109.126 178.024 114.629 178.02V178.022Z" fill="#ADE1F6"/>
<path d="M97.8397 161.776C98.7547 161.873 99.6553 162.224 100.552 161.525C100.857 161.289 101.48 161.451 101.957 161.451C108.056 161.448 114.157 161.448 120.256 161.446C119.417 164.378 118.464 167.272 117.324 170.103C116.724 170.098 116.113 170.046 115.658 170.567C115.267 171.013 114.843 171.114 114.224 170.941C113.608 170.768 112.92 170.842 112.264 170.824C106.468 170.657 100.653 171.219 94.873 170.408C95.7304 167.485 96.6689 164.591 97.8397 161.776Z" fill="#84D3F4"/>
<path d="M163.491 164.097C163.03 165.676 163.261 167.004 164.332 168.394C165.165 169.473 165.682 170.917 165.954 172.275C166.262 173.818 166.732 175.292 167.508 176.591C168.618 178.449 169.111 180.526 169.891 182.493C170.183 183.231 170.46 183.757 171.166 184.043C171.705 184.261 171.813 184.694 171.779 185.209C171.755 185.281 171.75 185.355 171.759 185.431C166 185.571 160.242 185.552 154.483 185.453C154.35 185.388 154.215 185.321 154.082 185.256C154.445 183.124 155.357 181.162 156.023 179.127C157.457 174.744 158.994 170.394 160.483 166.031C160.964 164.623 161.967 163.98 163.493 164.101L163.491 164.097Z" fill="#66C8F1"/>
<path d="M154.555 157.854C154.155 157.971 153.793 158.254 153.354 158.179C149.123 157.456 144.859 157.957 140.612 157.874C138.47 157.833 136.298 157.555 134.173 158.164C133.421 158.381 132.998 157.669 132.404 157.431C133.234 154.387 134.275 151.415 135.43 148.481C136.316 149.586 137.433 149.972 138.872 149.945C143.355 149.864 147.844 149.97 152.327 149.885C153.954 149.855 155.503 150.462 157.126 150.262C156.497 152.244 155.877 154.23 155.236 156.209C155.052 156.773 154.961 157.38 154.557 157.854H154.555Z" fill="#66C8F1"/>
<path d="M215.74 164.093C218.499 163.944 221.259 163.928 224.017 164.101C224.011 165.058 224.081 165.937 224.636 166.831C225.319 167.928 225.773 169.186 226.205 170.417C227.732 174.762 229.649 178.943 231.472 183.164C231.791 183.901 232.021 184.609 231.937 185.409C229.181 185.575 226.427 185.568 223.671 185.402C223.719 183.856 223.074 182.47 222.466 181.14C221.354 178.711 220.144 176.326 219.216 173.816C218.948 173.088 218.791 172.299 218.418 171.63C217.098 169.264 216.599 166.616 215.738 164.093H215.74Z" fill="#ADE1F6"/>
<path d="M207.067 133.023C208.643 132.909 210.221 132.902 211.797 133.03C211.954 133.297 212.217 133.322 212.485 133.337C212.447 135.463 213.596 137.254 214.385 139.071C215.453 141.531 216.525 143.993 217.545 146.478C218.224 148.132 218.766 149.841 219.688 151.399C220.203 152.268 220.537 153.256 220.405 154.319C217.655 154.542 214.904 154.528 212.154 154.313C212.047 153.239 211.779 152.21 211.352 151.214C210.07 148.211 208.762 145.218 207.56 142.183C206.705 140.026 205.979 137.826 204.768 135.818C204.282 135.009 204.091 134.03 204.21 133.045C205.055 132.913 205.901 132.929 206.748 133.028C206.856 133.214 206.962 133.212 207.069 133.027L207.067 133.023Z" fill="#ADE1F6"/>
<path d="M179.683 83.9469C174.151 83.2495 168.594 83.7451 163.052 83.5775C161.137 83.5198 159.28 84.1902 157.36 83.9469C158.037 81.1968 158.992 78.5477 160.213 75.9941C161.438 75.4318 162.656 76.0427 163.879 76.0319C169.003 75.9869 174.129 76.0445 179.254 75.9869C180.308 75.9761 181.351 76.4951 182.404 76.0355C181.594 78.7045 180.715 81.3518 179.683 83.9451V83.9469Z" fill="#ADE1F6"/>
<path d="M83.7991 105.72C84.2422 103.661 84.9789 101.7 85.7822 99.7607C86.7585 99.1913 87.7834 98.7371 88.9326 98.7335C94.6605 98.7209 100.39 98.7281 106.118 98.7281C106.923 98.7281 107.671 98.8507 108.089 99.667C107.577 101.956 106.761 104.144 105.864 106.302C100.228 106.302 94.5921 106.29 88.956 106.304C87.7078 106.308 86.4541 106.169 85.2166 106.591C84.5232 106.827 83.8927 106.627 83.7991 105.72Z" fill="#76CEF2"/>
<path d="M68.7479 149.914C75.4936 149.22 82.259 149.694 89.0137 149.559C89.7323 149.545 90.451 149.577 91.1697 149.586C90.5195 150.503 90.388 151.604 90.1214 152.65C89.6999 154.304 89.2352 155.94 88.4949 157.487C87.7258 157.591 86.9783 156.697 86.4991 156.939C85.195 157.6 83.9432 157.07 82.6913 157.094C78.507 157.175 74.3209 157.119 70.1367 157.128C68.8524 157.13 67.5681 156.677 66.2838 157.128C66.9755 154.679 67.7554 152.26 68.7497 149.914H68.7479Z" fill="#66C8F1"/>
<path d="M204.929 154.306C202.295 154.557 199.66 154.517 197.027 154.31C196.89 153.733 196.796 153.14 196.607 152.581C196 150.781 195.438 148.957 194.709 147.206C193.756 144.921 192.592 142.724 191.639 140.439C190.908 138.687 190.368 136.856 189.732 135.065C189.494 134.398 189 133.816 189.083 133.046C191.845 132.924 194.606 132.888 197.367 133.043C197.241 134.513 197.562 135.877 198.201 137.211C200.085 141.136 201.269 145.353 203.268 149.242C204.07 150.801 204.923 152.441 204.931 154.306H204.929Z" fill="#84D3F4"/>
<path d="M189.081 133.046C188.999 133.816 189.494 134.398 189.73 135.065C190.368 136.856 190.908 138.687 191.637 140.439C192.59 142.724 193.754 144.921 194.707 147.206C195.438 148.957 195.998 150.781 196.605 152.582C196.794 153.142 196.888 153.733 197.025 154.31C194.613 154.568 192.201 154.54 189.789 154.315C189.265 152.122 187.925 150.28 187.136 148.202C187.073 148.035 186.943 147.889 186.902 147.719C185.872 143.517 183.685 139.788 182.073 135.823C181.722 134.962 181.687 133.971 181.507 133.041C184.031 132.913 186.556 132.877 189.08 133.045L189.081 133.046Z" fill="#66C8F1"/>
<path d="M94.8749 170.408C100.655 171.217 106.469 170.655 112.266 170.824C112.921 170.844 113.61 170.769 114.226 170.942C114.845 171.116 115.267 171.014 115.659 170.567C116.115 170.046 116.726 170.098 117.326 170.104C116.645 172.198 115.967 174.293 115.283 176.386C115.101 176.944 114.997 177.536 114.631 178.02C109.128 178.024 103.623 178.009 98.1207 178.044C96.7572 178.053 95.3774 177.827 94.0283 178.292C93.4231 178.501 92.8971 177.972 92.3009 177.941C93.0556 175.395 93.8752 172.87 94.8749 170.408Z" fill="#99DAF6"/>
<path d="M83.7991 105.721C83.8927 106.627 84.5232 106.825 85.2166 106.591C86.4541 106.171 87.7077 106.308 88.956 106.305C94.5921 106.288 100.228 106.301 105.864 106.303C105.21 108.892 104.295 111.392 103.301 113.866C96.9031 113.27 90.4889 113.569 84.0819 113.519C83.1092 113.511 82.2266 113.005 81.2503 113.115C81.9708 110.606 82.7381 108.112 83.8009 105.721H83.7991Z" fill="#66C8F1"/>
<path d="M195.557 185.4C195.548 184.366 195.449 183.535 194.636 182.582C193.741 181.533 193.52 179.871 193.132 178.442C192.958 177.795 192.724 177.229 192.374 176.667C191.645 175.497 191.124 174.212 190.935 172.854C190.758 171.583 190.287 170.462 189.652 169.384C189.379 168.92 189.173 168.435 189.013 167.916C188.694 166.896 188.404 165.852 187.545 165.103C187.251 164.847 187.286 164.454 187.278 164.095C189.8 163.947 192.322 163.928 194.844 164.093C195.227 165.398 195.487 166.757 196.02 167.997C196.92 170.089 198.165 172.005 198.783 174.254C199.219 175.842 200.238 177.26 200.791 178.828C201.55 180.981 202.928 182.964 202.765 185.396C200.364 185.591 197.962 185.568 195.561 185.398L195.557 185.4Z" fill="#66C8F1"/>
<path d="M204.929 154.306C204.922 152.441 204.068 150.801 203.266 149.242C201.267 145.353 200.083 141.136 198.199 137.211C197.56 135.877 197.239 134.513 197.365 133.043C198.567 132.908 199.77 132.915 200.973 133.032C201.087 133.212 201.2 133.21 201.312 133.03C202.277 132.911 203.243 132.89 204.208 133.041C204.089 134.027 204.279 135.007 204.767 135.814C205.977 137.824 206.705 140.022 207.559 142.18C208.76 145.214 210.068 148.208 211.35 151.21C211.775 152.207 212.045 153.234 212.152 154.31C209.744 154.542 207.335 154.521 204.927 154.304L204.929 154.306Z" fill="#99DAF6"/>
<path d="M169.859 112.853C163.682 112.832 157.508 112.808 151.331 112.786C151.151 112.786 150.946 112.743 150.796 112.813C149.517 113.414 148.635 112.826 147.867 111.866C148.395 109.842 149.042 107.858 149.87 105.935C155.665 105.935 161.461 105.935 167.256 105.933C167.793 105.933 168.383 106.039 168.855 105.855C170.001 105.407 171.076 105.618 172.173 105.944C171.599 108.314 170.775 110.597 169.859 112.851V112.853Z" fill="#66C8F1"/>
<path d="M66.282 157.128C67.5663 156.68 68.8506 157.132 70.1349 157.128C74.3209 157.119 78.507 157.175 82.6895 157.094C83.9414 157.069 85.1932 157.601 86.4973 156.939C86.9764 156.696 87.724 157.59 88.4931 157.487C87.9851 159.1 87.4952 160.718 86.9638 162.324C86.7225 163.054 86.564 163.823 86.1155 164.474C85.7228 163.83 85.0779 163.984 84.4961 163.978C82.6985 163.966 80.8973 163.935 79.1014 163.982C74.3768 164.104 69.6449 163.681 64.9257 164.209C64.4898 164.258 64.3907 163.78 64.0863 163.618C64.6573 161.399 65.412 159.244 66.2802 157.127L66.282 157.128Z" fill="#76CEF2"/>
<path d="M143.359 93.3344C142.824 95.5601 142.073 97.71 141.165 99.8095C140.18 100.359 139.202 99.7482 138.211 99.7789C131.728 99.9771 125.233 99.4707 118.758 100.154C119.282 97.6452 120.269 95.2916 121.184 92.9146C122.464 93.5507 123.76 92.929 125.047 92.9398C131.154 92.992 137.262 92.8371 143.359 93.3344Z" fill="#84D3F4"/>
<path d="M202.762 185.398C202.926 182.965 201.546 180.983 200.788 178.829C200.237 177.262 199.215 175.843 198.779 174.256C198.162 172.007 196.915 170.091 196.016 167.999C195.483 166.759 195.224 165.4 194.84 164.095C197.12 163.946 199.403 163.933 201.685 164.09C201.667 165.586 202.416 166.901 203.169 168.008C203.893 169.071 204.39 170.156 204.797 171.325C205.129 172.279 205.357 173.27 205.723 174.209C206.48 176.148 207.18 178.125 208.376 179.848C208.955 180.68 208.632 181.762 209.255 182.527C209.956 183.387 210.028 184.373 209.969 185.404C207.566 185.582 205.165 185.568 202.762 185.398Z" fill="#76CEF2"/>
<path d="M209.969 185.405C210.028 184.373 209.956 183.389 209.255 182.529C208.632 181.765 208.955 180.682 208.376 179.849C207.18 178.127 206.48 176.15 205.723 174.21C205.358 173.272 205.129 172.28 204.797 171.327C204.392 170.157 203.893 169.073 203.169 168.009C202.416 166.903 201.667 165.587 201.685 164.091C204.088 163.953 206.489 163.926 208.892 164.091C209.018 166.616 210.36 168.73 211.341 170.936C212.478 173.493 213.674 176.013 214.472 178.707C214.845 179.965 215.259 181.237 215.969 182.349C216.577 183.302 216.858 184.293 216.815 185.402C214.533 185.582 212.251 185.571 209.969 185.402V185.405Z" fill="#84D3F4"/>
<path d="M81.9059 176.925C81.126 176.962 80.3731 176.934 79.6039 176.683C78.4079 176.294 77.1597 176.204 75.888 176.216C71.6299 176.258 67.3699 176.214 63.1118 176.243C62.0203 176.251 60.9647 176.155 59.9326 175.807C60.5631 173.495 61.334 171.23 62.258 169.019C62.9677 169.684 63.8269 169.757 64.7545 169.752C69.7854 169.729 74.8163 169.743 79.8471 169.739C81.3962 169.739 82.9543 169.839 84.4763 169.42C83.9341 171.091 83.4028 172.767 82.8426 174.432C82.5598 175.272 82.3869 176.157 81.9077 176.925H81.9059Z" fill="#99DAF6"/>
<path d="M108.091 99.6652C107.673 98.8488 106.925 98.7263 106.12 98.7263C100.392 98.7263 94.6623 98.7209 88.9344 98.7317C87.7852 98.7335 86.7603 99.1877 85.784 99.7589C86.4991 96.9368 87.4754 94.2029 88.5849 91.5142C90.5339 92.4675 92.6269 92.2224 94.6857 92.235C96.4185 92.2458 98.1513 92.244 99.8859 92.235C103.517 92.2188 107.154 92.3684 110.774 91.9449C110.153 94.0011 109.634 96.0952 108.615 98.0055C108.332 98.5371 108.635 99.2309 108.091 99.6634V99.6652Z" fill="#84D3F4"/>
<path d="M143.359 93.3344C137.263 92.837 131.154 92.992 125.047 92.9397C123.76 92.9289 122.464 93.5507 121.184 92.9145C121.744 90.824 122.448 88.784 123.261 86.7782C129.801 86.1493 136.359 86.616 142.907 86.4556C143.836 86.4322 144.778 86.0556 145.661 86.6467C145.036 88.9246 144.301 91.1646 143.359 93.3326V93.3344Z" fill="#99DAF6"/>
<path d="M136.505 113.52C135.79 112.881 134.943 112.767 134.009 112.772C128.913 112.801 123.819 112.758 118.723 112.805C117.306 112.817 115.89 112.922 114.474 112.789C114.943 110.385 115.915 108.15 116.794 105.883C118.606 106.335 120.451 106.308 122.299 106.303C127.856 106.286 133.411 106.296 138.967 106.296C138.506 108.15 137.984 109.988 137.082 111.686C136.77 112.27 137.049 113.023 136.505 113.52Z" fill="#66C8F1"/>
<path d="M216.815 185.404C216.858 184.296 216.579 183.304 215.969 182.351C215.257 181.239 214.845 179.967 214.472 178.709C213.674 176.015 212.478 173.495 211.341 170.938C210.36 168.732 209.019 166.618 208.891 164.094C211.174 163.958 213.456 163.928 215.74 164.094C216.601 166.617 217.1 169.264 218.42 171.63C218.793 172.299 218.95 173.088 219.218 173.816C220.146 176.327 221.356 178.711 222.467 181.14C223.076 182.468 223.719 183.856 223.672 185.402C221.387 185.591 219.101 185.557 216.815 185.402V185.404Z" fill="#99DAF6"/>
<path d="M138.967 106.295C133.411 106.295 127.856 106.286 122.299 106.302C120.451 106.308 118.604 106.335 116.794 105.882C117.223 103.896 117.956 102.013 118.757 100.155C125.231 99.4723 131.728 99.9787 138.211 99.7804C139.202 99.7498 140.18 100.361 141.165 99.8111C140.635 102.042 139.837 104.181 138.967 106.297V106.295Z" fill="#76CEF2"/>
<path d="M195.209 102.113C197.486 101.956 199.761 101.954 202.038 102.122C202.423 103.736 202.901 105.315 203.556 106.852C204.767 109.691 205.88 112.571 207.078 115.416C207.946 117.48 208.836 119.547 209.603 121.655C209.823 122.259 210.473 122.686 210.323 123.434C208.047 123.596 205.77 123.578 203.493 123.437C203.515 122.713 203.454 122.019 203.095 121.352C202.394 120.046 201.843 118.66 201.2 117.334C199.592 114.019 198.574 110.476 197.011 107.15C196.254 105.54 195.606 103.866 195.209 102.115V102.113Z" fill="#ADE1F6"/>
<path d="M110.773 91.947C107.152 92.3705 103.515 92.2209 99.8841 92.2371C98.1513 92.2443 96.4185 92.2461 94.6839 92.2371C92.6233 92.2245 90.5321 92.4714 88.5831 91.5163C89.0605 89.6673 89.6333 87.8507 90.4222 86.108C96.867 86.108 103.314 86.1369 109.758 86.0792C110.747 86.0702 111.731 86.6361 112.718 86.1171C112.278 88.13 111.506 90.0331 110.773 91.947Z" fill="#99DAF6"/>
<path d="M172.173 105.944C171.076 105.618 170.001 105.405 168.855 105.855C168.383 106.041 167.793 105.933 167.256 105.933C161.461 105.937 155.665 105.935 149.87 105.935C150.231 103.897 151.052 102.017 151.859 100.134C152.578 100.144 153.296 100.179 154.015 100.164C160.771 100.029 167.537 100.507 174.283 99.8057C173.731 101.903 173.061 103.961 172.171 105.944H172.173Z" fill="#76CEF2"/>
<path d="M84.4745 169.421C82.9525 169.839 81.3944 169.738 79.8453 169.74C74.8145 169.745 69.7836 169.729 64.7527 169.752C63.8269 169.756 62.9659 169.684 62.2562 169.019C62.7354 167.173 63.2487 165.341 64.0881 163.618C64.3943 163.78 64.4916 164.257 64.9275 164.209C69.6449 163.679 74.3786 164.104 79.1032 163.982C80.9009 163.935 82.7003 163.965 84.4979 163.978C85.0779 163.982 85.7246 163.829 86.1172 164.474C85.6795 165.106 85.5264 165.818 85.4148 166.571C85.2671 167.564 84.932 168.518 84.4745 169.421Z" fill="#84D3F4"/>
<path d="M174.284 99.8059C167.539 100.505 160.771 100.029 154.017 100.164C153.298 100.179 152.579 100.145 151.861 100.134C151.933 99.8996 152.003 99.6653 152.075 99.431C152.237 99.2995 152.293 99.1246 152.273 98.9228C152.525 97.3261 153.158 95.861 153.806 94.3995C160.31 94.3995 166.813 94.4193 173.317 94.3796C174.353 94.3724 175.194 94.5238 175.736 95.4771C175.466 96.9909 174.866 98.3966 174.286 99.8077L174.284 99.8059Z" fill="#84D3F4"/>
<path d="M175.297 122.716C176.237 119.136 177.595 115.694 178.769 112.19C179.393 110.33 179.866 108.415 180.749 106.645C180.983 106.688 181.257 106.697 181.376 106.935C181.936 108.052 182.586 109.119 182.934 110.345C183.934 113.866 185.827 117.029 187.015 120.484C187.632 122.275 187.821 122.21 186.554 123.434C182.837 123.609 179.121 123.574 175.403 123.448C175.367 123.205 175.333 122.962 175.297 122.716Z" fill="#56C2EF"/>
<path d="M186.556 123.432C187.821 122.208 187.633 122.273 187.017 120.482C185.828 117.025 183.935 113.863 182.936 110.343C182.588 109.12 181.938 108.051 181.378 106.934C181.259 106.696 180.985 106.687 180.751 106.643C180.904 105.212 181.639 103.964 182.015 102.599C182.141 102.143 182.534 101.987 182.997 102.008C183.707 102.043 184.422 101.913 185.122 102.113C185.128 102.473 185.214 102.796 185.375 103.136C186.133 104.749 186.879 106.369 187.559 108.017C188.788 110.987 189.984 113.971 191.16 116.961C191.985 119.056 193.235 121.033 193.041 123.428C190.879 123.609 188.718 123.565 186.556 123.428V123.432Z" fill="#66C8F1"/>
<path d="M193.041 123.432C193.233 121.039 191.983 119.06 191.16 116.964C189.984 113.973 188.788 110.99 187.559 108.02C186.879 106.373 186.133 104.753 185.375 103.14C185.214 102.799 185.128 102.477 185.122 102.116C186.803 101.979 188.483 101.938 190.162 102.116C190.121 102.731 190.29 103.243 190.634 103.787C191.238 104.744 191.884 105.748 192.158 106.822C192.972 110.001 194.988 112.713 195.606 115.959C195.669 116.287 195.978 116.56 196.142 116.876C197.218 118.932 198.279 120.994 198.086 123.427C196.405 123.598 194.723 123.558 193.042 123.43L193.041 123.432Z" fill="#84D3F4"/>
<path d="M198.084 123.428C198.277 120.995 197.216 118.932 196.141 116.877C195.977 116.562 195.667 116.288 195.604 115.96C194.984 112.714 192.97 110.004 192.156 106.823C191.881 105.749 191.236 104.744 190.632 103.788C190.288 103.244 190.121 102.731 190.16 102.118C191.843 101.975 193.525 101.938 195.207 102.112C195.604 103.864 196.252 105.538 197.009 107.148C198.572 110.474 199.592 114.017 201.198 117.331C201.841 118.658 202.393 120.044 203.093 121.35C203.452 122.017 203.513 122.711 203.491 123.435C201.688 123.59 199.885 123.576 198.082 123.43L198.084 123.428Z" fill="#99DAF6"/>
<path d="M119.746 69.222C118.878 70.7466 118.01 72.273 117.142 73.7977C115.785 73.4426 114.418 73.457 113.019 73.4516C107.113 73.43 101.195 73.7886 95.3036 73.075C95.9556 71.5179 96.8364 70.0979 97.9064 68.7949C99.3798 69.2022 100.907 69.1157 102.399 69.1409C108.181 69.2346 113.963 69.2058 119.746 69.222Z" fill="#76BFDB"/>
<path d="M231.942 155.645C230.499 155.274 229.055 154.901 227.612 154.529C227.516 153.517 227.41 152.47 226.843 151.623C225.906 150.226 225.34 148.66 224.778 147.124C223.555 143.78 221.97 140.59 220.724 137.267C220.29 136.11 219.49 134.94 219.796 133.556C221.74 133.715 223.345 134.583 224.726 135.917C224.624 136.872 225.072 137.663 225.512 138.444C225.802 138.959 226.014 139.512 226.266 140.029C226.848 141.224 226.893 142.599 227.504 143.722C229.044 146.551 230.188 149.532 231.337 152.525C231.733 153.558 232.043 154.544 231.942 155.643V155.645Z" fill="#459EC4"/>
<path d="M156.645 65.187C155.632 66.162 154.618 67.137 153.606 68.1137C147.262 68.1029 140.918 68.0831 134.576 68.0903C133.52 68.0903 132.467 68.3948 131.413 68.0741C132.859 66.3134 134.441 64.7257 136.692 64.0103C138.162 64.4157 139.681 64.4428 141.181 64.468C144.701 64.5275 148.224 64.5094 151.744 64.4752C152.985 64.4626 154.235 64.6572 155.47 64.2391C156.207 63.9904 156.564 64.4824 156.647 65.187H156.645Z" fill="#459EC4"/>
<path d="M52.7277 197.121C52.906 195.849 53.3653 194.668 53.9201 193.521C54.7324 193.863 55.5484 193.567 56.3662 193.562C62.1265 193.521 67.8851 193.542 73.6454 193.535C74.0868 193.535 74.4596 193.71 74.8415 193.883C74.0741 195.36 72.9682 196.535 71.6191 197.491C71.0318 197.116 70.3636 197.031 69.7133 197.143C67.8779 197.456 66.055 197.118 64.2268 197.123C60.3937 197.137 56.5625 197.123 52.7295 197.119L52.7277 197.121Z" fill="#5EAED0"/>
<path d="M103.161 198.37C102.089 199.552 100.572 199.814 99.1528 200.19C97.9496 200.509 96.6977 200.697 95.4332 200.697C89.572 200.697 83.7126 200.697 77.8513 200.693C77.5145 200.693 77.1777 200.623 76.5328 200.552C77.682 199.455 79.0294 199.574 80.0651 198.986C81.108 198.395 82.05 197.665 83.0785 197.063C83.7018 197.896 84.6024 197.871 85.5066 197.869C89.4423 197.862 93.3798 197.883 97.3155 197.86C99.2825 197.847 101.242 197.838 103.159 198.37H103.161Z" fill="#2687B4"/>
<path d="M128.572 72.774C128.808 71.8009 129.342 70.9917 129.972 70.2348C132.424 70.2384 134.875 70.242 137.326 70.2438C139.837 70.2438 142.35 70.2781 144.859 70.2348C147.282 70.1934 149.703 70.5051 152.125 70.2672C151.524 71.3972 150.924 72.5253 150.322 73.6553C149.804 72.9344 149.029 73.1399 148.334 73.138C142.691 73.1272 137.047 73.1236 131.404 73.1399C130.437 73.1435 129.491 73.0966 128.572 72.7776V72.774Z" fill="#76BFDB"/>
<path d="M189.856 64.8841C188.88 65.8375 187.905 66.7908 186.929 67.7441C186.41 67.1314 185.701 67.3783 185.072 67.3747C181.832 67.3513 178.587 67.2738 175.351 67.3873C172.076 67.5026 168.81 66.9638 165.539 67.3386C165.422 67.3513 165.302 67.3188 165.181 67.3062C166.157 65.7708 167.661 64.8967 169.216 64.084C169.965 64.5904 170.815 64.457 171.645 64.4841C177.716 64.6823 183.804 64.0353 189.858 64.8823L189.856 64.8841Z" fill="#459EC4"/>
<path d="M229.047 164.194C230.164 163.987 231.218 164.281 232.273 164.584C232.003 165.542 232.174 166.343 232.74 167.229C233.396 168.258 233.749 169.486 234.203 170.641C235.723 174.508 237.086 178.44 239.028 182.131C239.588 183.194 239.985 184.314 239.866 185.552C239.015 185.568 238.162 185.649 237.328 185.397C236.364 182.268 234.865 179.35 233.709 176.294C232.616 173.409 231.164 170.652 230.074 167.754C229.642 166.602 228.874 165.528 229.046 164.194H229.047Z" fill="#76BFDB"/>
<path d="M231.938 185.409C232.023 184.611 231.792 183.901 231.474 183.164C229.651 178.943 227.732 174.762 226.207 170.417C225.774 169.186 225.321 167.928 224.638 166.831C224.081 165.937 224.013 165.058 224.018 164.101C224.859 163.946 225.701 163.967 226.542 164.108C227.17 166.982 228.424 169.635 229.498 172.349C229.734 172.944 230.26 173.416 230.458 174.061C231.232 176.571 232.291 178.972 233.26 181.408C233.786 182.731 234.586 183.951 234.82 185.387C233.86 185.562 232.9 185.569 231.938 185.409Z" fill="#99DAF6"/>
<path d="M122.65 186.103C123.111 186.901 123.895 186.678 124.579 186.68C129.832 186.694 135.084 186.73 140.335 186.66C141.723 186.642 143.04 187.015 144.405 187.051C144.337 188.019 143.849 188.806 143.323 189.578C142.624 189.127 141.837 189.194 141.066 189.213C134.461 189.368 127.841 188.842 121.247 189.581C121.598 188.376 122.041 187.206 122.652 186.105L122.65 186.103Z" fill="#99DAF6"/>
<path d="M128.572 72.7739C129.491 73.0947 130.437 73.1398 131.404 73.1362C137.047 73.1199 142.691 73.1217 148.334 73.1344C149.029 73.1344 149.804 72.9307 150.322 73.6516C149.928 74.5544 149.804 75.5817 149.085 76.3331C149.008 75.9403 148.808 75.6754 148.374 75.6682C147.833 75.6609 147.293 75.6537 146.752 75.6537C141.048 75.6537 135.343 75.6501 129.641 75.6573C128.857 75.6573 128.075 75.688 127.376 75.2428C127.679 74.3724 128.003 73.5128 128.572 72.7739Z" fill="#99DAF6"/>
<path d="M95.3035 73.0767C101.195 73.7903 107.112 73.4317 113.019 73.4533C114.416 73.4587 115.785 73.4425 117.142 73.7993C116.927 74.5959 116.654 75.3672 116.2 76.0646C110.513 76.0484 104.825 76.0376 99.1366 76.0123C98.3062 76.0087 97.4722 76.1097 96.6563 75.7745C95.7592 75.4068 94.9307 76.2142 94.0247 76.0141C94.2912 74.9671 94.7632 74.0084 95.3035 73.0803V73.0767Z" fill="#99DAF6"/>
<path d="M135.799 198.417C133.998 199.787 131.851 200.244 129.709 200.284C123.349 200.405 116.985 200.345 110.621 200.349C110.402 200.349 110.135 200.387 109.908 199.889C110.875 199.556 111.864 199.28 112.797 198.877C113.727 198.475 114.6 197.947 115.499 197.473C116.149 197.848 116.859 197.867 117.587 197.866C121.002 197.853 124.419 197.893 127.832 197.846C129.56 197.822 131.283 197.907 133.023 197.718C133.87 197.626 135.064 197.455 135.797 198.413L135.799 198.417Z" fill="#2687B4"/>
<path d="M210.324 123.432C210.471 122.684 209.823 122.257 209.603 121.653C208.836 119.545 207.946 117.478 207.078 115.414C205.88 112.569 204.767 109.689 203.556 106.851C202.901 105.313 202.423 103.737 202.038 102.12C202.902 101.963 203.749 102.05 204.587 102.291C204.538 103.221 204.934 104.032 205.291 104.845C206.336 107.227 207.591 109.538 208.403 111.998C209.279 114.652 210.525 117.126 211.575 119.694C212.064 120.891 212.766 122.055 212.472 123.448C211.756 123.54 211.04 123.594 210.325 123.432H210.324Z" fill="#99DAF6"/>
<path d="M119.746 69.2216C113.964 69.2054 108.181 69.2342 102.399 69.1405C100.907 69.1171 99.3798 69.2018 97.9064 68.7945C98.6305 67.8267 99.3041 66.8085 100.417 66.2192C100.898 66.886 101.612 66.6391 102.235 66.6409C108.078 66.6572 113.919 66.6427 119.763 66.6626C120.395 66.6644 121.081 66.4409 121.654 66.9311C121.018 67.6952 120.384 68.4593 119.748 69.2234L119.746 69.2216Z" fill="#5EAED0"/>
<path d="M103.161 198.37C101.244 197.839 99.2843 197.848 97.3173 197.86C93.3816 197.884 89.4441 197.864 85.5084 197.869C84.6042 197.869 83.7036 197.896 83.0803 197.064C83.6153 196.456 84.1214 195.82 84.8221 195.386C91.9784 195.499 99.1474 194.883 106.287 195.808C105.49 196.961 104.454 197.822 103.161 198.37Z" fill="#459EC4"/>
<path d="M135.799 198.417C135.066 197.458 133.872 197.629 133.025 197.721C131.285 197.91 129.561 197.826 127.834 197.849C124.419 197.896 121.004 197.856 117.588 197.869C116.861 197.871 116.151 197.851 115.501 197.476C116.248 196.519 117.189 195.757 118.059 194.922C118.93 195.982 120.036 195.342 121.059 195.342C126.024 195.337 130.99 195.319 135.954 195.358C136.932 195.366 137.979 195.398 138.703 196.274C137.98 197.321 136.961 197.963 135.801 198.417H135.799Z" fill="#459EC4"/>
<path d="M212.471 123.448C212.764 122.057 212.062 120.891 211.574 119.694C210.525 117.126 209.279 114.652 208.402 111.997C207.591 109.539 206.334 107.229 205.289 104.845C204.932 104.03 204.536 103.221 204.585 102.291C205.581 102.181 206.523 102.385 207.436 102.767C207.364 103.691 207.58 104.538 208.049 105.344C208.349 105.859 208.643 106.4 208.816 106.966C209.679 109.804 211.102 112.41 212.168 115.164C213.007 117.328 213.858 119.49 214.78 121.621C215.225 122.646 214.873 123.174 213.948 123.524C213.449 123.598 212.953 123.61 212.467 123.448H212.471Z" fill="#76BFDB"/>
<path d="M234.819 185.388C234.584 183.95 233.785 182.731 233.259 181.409C232.29 178.972 231.229 176.572 230.456 174.061C230.258 173.418 229.732 172.946 229.496 172.349C228.422 169.635 227.169 166.983 226.54 164.108C227.383 163.942 228.219 163.969 229.047 164.193C228.874 165.526 229.642 166.6 230.076 167.752C231.166 170.65 232.617 173.405 233.711 176.292C234.869 179.349 236.366 182.266 237.329 185.395C236.492 185.526 235.656 185.582 234.82 185.388H234.819Z" fill="#84D3F4"/>
<path d="M220.403 154.317C220.537 153.254 220.202 152.266 219.686 151.397C218.764 149.839 218.222 148.13 217.543 146.476C216.523 143.991 215.452 141.531 214.384 139.069C213.595 137.253 212.445 135.461 212.483 133.335C212.49 133.232 212.49 133.129 212.485 133.026C213.209 132.917 213.933 132.911 214.655 133.05C214.576 133.823 215.059 134.411 215.318 135.072C217.13 139.68 218.901 144.302 221.037 148.779C221.869 150.523 222.307 152.455 222.925 154.301C222.086 154.512 221.244 154.53 220.403 154.315V154.317Z" fill="#99DAF6"/>
<path d="M234.539 165.234C235.793 165.566 236.899 166.148 237.751 167.152C237.661 168.768 238.471 170.138 239.003 171.576C239.496 172.917 240.215 174.157 240.73 175.505C241.281 176.939 241.732 178.44 242.422 179.812C243.625 182.209 244.56 184.694 245.336 187.247C244.353 186.835 243.367 186.422 242.384 186.009C242.404 183.697 240.822 181.951 240.166 179.864C239.486 177.698 238.284 175.707 237.479 173.54C236.805 171.735 236.218 169.832 235.157 168.152C234.62 167.303 234.323 166.296 234.543 165.234H234.539Z" fill="#459EC4"/>
<path d="M245.334 187.247C244.558 184.692 243.623 182.207 242.42 179.812C241.732 178.44 241.28 176.939 240.728 175.505C240.211 174.159 239.495 172.917 239.001 171.576C238.471 170.138 237.659 168.77 237.749 167.152C239.469 168.103 240.303 169.805 241.224 171.396C242.548 173.686 243.456 176.179 244.466 178.617C245.936 182.164 247.402 185.712 248.865 189.262C248.973 189.524 249.201 189.776 248.947 190.217C248.077 190.073 247.748 189.205 247.132 188.738C246.512 188.267 245.93 187.748 245.332 187.249L245.334 187.247Z" fill="#2687B4"/>
<path d="M213.951 123.524C214.877 123.172 215.228 122.646 214.783 121.621C213.859 119.49 213.011 117.328 212.172 115.163C211.103 112.41 209.682 109.804 208.819 106.966C208.647 106.398 208.353 105.859 208.052 105.344C207.584 104.54 207.368 103.691 207.44 102.767C208.546 102.914 209.536 103.318 210.358 104.091C210.246 104.417 209.884 104.758 210.143 105.086C211.493 106.798 211.651 109.011 212.649 110.912C213.985 113.459 214.935 116.252 216.048 118.943C216.785 120.721 217.518 122.502 218.253 124.282C216.819 124.03 215.385 123.776 213.951 123.524Z" fill="#5EAED0"/>
<path d="M219.798 133.556C219.492 134.939 220.292 136.108 220.726 137.267C221.972 140.59 223.557 143.78 224.78 147.125C225.342 148.66 225.908 150.226 226.844 151.623C227.412 152.47 227.518 153.517 227.614 154.53C226.765 154.51 225.906 154.623 225.085 154.31C225.195 153.686 224.941 153.126 224.719 152.582C222.703 147.62 220.614 142.688 218.67 137.699C218.101 136.238 216.943 134.926 217.235 133.18C218.114 133.136 218.971 133.241 219.798 133.556Z" fill="#76BFDB"/>
<path d="M182.404 76.0375C181.351 76.4953 180.308 75.9763 179.254 75.9889C174.129 76.0448 169.003 75.9889 163.879 76.0339C162.655 76.0448 161.438 75.4338 160.213 75.9961C160.372 75.0644 160.771 74.239 161.319 73.4785C162.288 73.8245 163.291 73.8678 164.311 73.8588C170.687 73.8047 177.067 74.0354 183.435 73.5164C182.786 74.2318 183.067 75.3275 182.404 76.0375Z" fill="#99DAF6"/>
<path d="M189.856 64.8841C183.8 64.0371 177.712 64.684 171.644 64.4858C170.815 64.4588 169.963 64.5921 169.214 64.0857C170.927 62.8188 172.955 62.3989 174.978 62.3665C181.457 62.2638 187.939 62.316 194.42 62.316C194.64 62.316 194.899 62.2908 195.137 62.7467C194.264 63.0477 193.399 63.3036 192.567 63.6424C191.736 63.9794 190.94 64.3993 190.13 64.7813C189.951 64.5957 189.869 64.7057 189.811 64.8859H189.858L189.856 64.8841Z" fill="#2687B4"/>
<path d="M217.235 133.182C216.943 134.928 218.099 136.24 218.67 137.701C220.616 142.69 222.703 147.622 224.719 152.583C224.941 153.128 225.193 153.688 225.085 154.312C224.364 154.495 223.644 154.539 222.925 154.304C222.307 152.459 221.869 150.527 221.037 148.783C218.901 144.304 217.13 139.684 215.318 135.076C215.059 134.416 214.576 133.827 214.655 133.054C214.904 133.036 215.153 133.018 215.401 133C215.616 133.317 215.839 133.329 216.073 133.019C216.468 133.019 216.869 132.974 217.235 133.183V133.182Z" fill="#84D3F4"/>
<path d="M231.942 155.645C232.043 154.546 231.733 153.562 231.337 152.527C230.188 149.534 229.042 146.553 227.504 143.724C226.893 142.601 226.848 141.226 226.266 140.031C226.014 139.514 225.803 138.961 225.512 138.446C225.072 137.663 224.624 136.874 224.726 135.919C226.362 136.955 227.311 138.564 228.17 140.206C230.346 144.353 232.133 148.685 234.076 152.944C234.824 154.58 235.55 156.227 236.276 157.874C236.411 158.183 236.706 158.489 236.245 159.042C234.943 157.743 233.536 156.564 231.942 155.647V155.645Z" fill="#2687B4"/>
<path d="M110.196 189.579C110.384 190.587 109.299 190.933 109.083 191.729C107.793 191.944 106.504 191.737 105.214 191.735C99.1906 191.722 93.1655 191.735 87.1422 191.735C87.5024 190.706 87.9077 189.698 88.5255 188.79C88.729 189.871 89.5936 189.558 90.2493 189.56C96.8995 189.579 103.548 189.576 110.198 189.579H110.196Z" fill="#84D3F4"/>
<path d="M110.196 189.579C103.546 189.576 96.8976 189.579 90.2475 189.56C89.5918 189.558 88.7272 189.871 88.5237 188.79C88.5399 188.253 88.7777 187.799 89.0623 187.363C95.4458 187.377 101.828 187.39 108.211 187.411C109.281 187.415 110.29 186.815 111.385 187.101C111.331 188.093 110.583 188.75 110.198 189.581L110.196 189.579Z" fill="#99DAF6"/>
<path d="M156.645 65.187C156.564 64.4824 156.205 63.9886 155.469 64.2391C154.233 64.6572 152.983 64.4644 151.742 64.4752C148.22 64.5094 144.699 64.5274 141.179 64.468C139.679 64.4427 138.162 64.4139 136.691 64.0102C138.396 62.6893 140.479 62.5 142.465 62.4586C148.577 62.3324 154.694 62.4081 160.809 62.4045C160.989 62.4045 161.17 62.3991 161.348 62.4171C161.64 62.4478 161.98 62.4622 161.969 62.8731C161.962 63.165 161.697 63.2551 161.463 63.2894C159.709 63.5489 158.188 64.3959 156.645 65.1852V65.187Z" fill="#2687B4"/>
<path d="M165.179 67.3079C165.298 67.3205 165.42 67.353 165.537 67.3403C168.809 66.9637 172.074 67.5025 175.349 67.389C178.586 67.2755 181.83 67.3529 185.07 67.3764C185.699 67.3818 186.408 67.1331 186.927 67.7458C186.54 68.373 186.196 69.0361 185.583 69.4921C178.888 69.5047 172.193 69.5119 165.5 69.5335C164.882 69.5353 164.316 69.4254 163.783 69.1262C164.026 68.3495 164.588 67.8179 165.179 67.3097V67.3079Z" fill="#5EAED0"/>
<path d="M121.245 189.579C127.839 188.84 134.459 189.367 141.064 189.212C141.837 189.194 142.622 189.125 143.321 189.576C143.056 190.533 142.593 191.381 141.938 192.126C140.729 191.578 139.463 191.352 138.133 191.356C132.886 191.376 127.639 191.371 122.391 191.356C121.764 191.354 121.056 191.574 120.568 190.929C120.555 190.358 120.941 189.988 121.245 189.577V189.579Z" fill="#84D3F4"/>
<path d="M152.124 70.2653C149.701 70.5032 147.28 70.1914 144.857 70.2329C142.347 70.2761 139.836 70.2437 137.325 70.2419C134.873 70.2419 132.422 70.2365 129.97 70.2329C130.316 69.4219 130.806 68.7083 131.411 68.0703C132.465 68.3911 133.52 68.0865 134.574 68.0865C140.918 68.0793 147.26 68.0991 153.604 68.11C153.111 68.8272 152.617 69.5463 152.124 70.2635V70.2653Z" fill="#5EAED0"/>
<path d="M163.783 69.1244C164.316 69.4253 164.884 69.5352 165.5 69.5316C172.195 69.5082 178.888 69.501 185.583 69.4902C184.8 70.2092 184.832 71.3914 184.094 72.1357C183.546 71.4401 182.77 71.7068 182.087 71.7032C176.285 71.6834 170.484 71.6924 164.682 71.6906C163.907 71.6906 163.12 71.7807 162.418 71.3302C162.634 70.4453 163.165 69.7569 163.783 69.1226V69.1244Z" fill="#76BFDB"/>
<path d="M121.652 66.9312C121.079 66.4428 120.393 66.6663 119.761 66.6627C113.918 66.6447 108.076 66.6591 102.233 66.6411C101.611 66.6411 100.898 66.8862 100.415 66.2194C101.329 65.0191 102.665 64.5037 104.002 63.9829C104.436 64.7272 105.165 64.4731 105.787 64.4749C110.704 64.4929 115.623 64.4983 120.541 64.4785C121.746 64.4731 122.931 64.5127 124.082 64.9092C123.271 65.5814 122.576 66.3942 121.652 66.9294V66.9312Z" fill="#459EC4"/>
<path d="M120.568 190.931C121.056 191.576 121.764 191.356 122.391 191.358C127.638 191.372 132.885 191.378 138.133 191.358C139.465 191.352 140.729 191.579 141.938 192.127C141.745 192.839 141.311 193.392 140.79 193.892C140.203 193.531 139.553 193.529 138.892 193.531C132.279 193.544 125.669 193.547 119.057 193.553C119.485 192.635 119.937 191.733 120.57 190.932L120.568 190.931Z" fill="#76BFDB"/>
<path d="M74.8414 193.885C74.4596 193.712 74.0867 193.535 73.6454 193.537C67.885 193.544 62.1265 193.522 56.3661 193.564C55.5484 193.569 54.7324 193.865 53.92 193.522C54.0587 192.769 54.2317 192.029 54.6676 191.378C61.8869 191.378 69.1045 191.378 76.3239 191.378C76.0519 192.346 75.4989 193.146 74.8414 193.887V193.885Z" fill="#76BFDB"/>
<path d="M162.418 71.332C163.12 71.7826 163.909 71.6925 164.682 71.6925C170.484 71.6925 176.285 71.6853 182.087 71.7051C182.77 71.7069 183.546 71.4402 184.094 72.1376C184.009 72.662 183.777 73.1161 183.433 73.518C177.065 74.0352 170.685 73.8046 164.309 73.8604C163.288 73.8694 162.286 73.828 161.317 73.4802C161.488 72.6656 161.903 71.9736 162.418 71.3338V71.332Z" fill="#84D3F4"/>
<path d="M234.539 165.234C234.32 166.296 234.617 167.303 235.154 168.152C236.216 169.832 236.804 171.735 237.475 173.54C238.282 175.705 239.482 177.698 240.163 179.864C240.818 181.951 242.4 183.697 242.38 186.009C241.528 185.928 240.665 185.91 239.866 185.55C239.985 184.312 239.588 183.193 239.028 182.129C237.086 178.439 235.723 174.506 234.203 170.639C233.749 169.486 233.396 168.258 232.74 167.228C232.174 166.341 232.003 165.541 232.273 164.582C233.028 164.8 233.785 165.016 234.539 165.233V165.234Z" fill="#5EAED0"/>
<path d="M124.084 64.9112C122.935 64.5147 121.748 64.475 120.543 64.4804C115.625 64.5021 110.706 64.4967 105.789 64.4768C105.167 64.475 104.438 64.7291 104.004 63.9849C105.335 63.0676 106.907 62.781 108.426 62.7594C115.011 62.6585 121.598 62.6981 128.185 62.6927C128.407 62.6927 128.67 62.6837 128.803 63.091C128.119 63.6857 127.18 63.6352 126.388 63.9416C125.608 64.2408 124.936 64.7922 124.084 64.913V64.9112Z" fill="#2687B4"/>
<path d="M55.8781 187.721C63.265 187.735 70.6501 187.752 78.0369 187.766C77.9126 188.46 77.6154 189.076 77.2048 189.64C75.5584 189.617 73.9103 189.577 72.264 189.574C68.0905 189.565 63.917 189.568 59.7435 189.572C58.2017 189.572 56.6508 189.471 55.1432 189.93C55.3629 189.184 55.2441 188.327 55.8781 187.719V187.721Z" fill="#99DAF6"/>
<path d="M119.055 193.551C125.667 193.546 132.278 193.542 138.89 193.529C139.551 193.529 140.201 193.529 140.788 193.89C140.28 194.85 139.636 195.69 138.699 196.272C137.975 195.396 136.928 195.364 135.95 195.357C130.986 195.317 126.022 195.335 121.056 195.34C120.035 195.34 118.927 195.98 118.055 194.921C118.3 194.4 118.603 193.92 119.053 193.549L119.055 193.551Z" fill="#5EAED0"/>
<path d="M87.1385 191.735C93.1619 191.733 99.187 191.722 105.21 191.735C106.5 191.736 107.79 191.944 109.079 191.729C109.061 192.52 108.499 193.005 108.049 193.551C107.842 193.618 107.723 193.755 107.714 193.976C107.714 193.976 107.739 193.971 107.739 193.969C106.232 193.493 104.679 193.526 103.125 193.529C97.4362 193.542 91.7461 193.533 86.0578 193.533C86.3388 192.886 86.6036 192.227 87.1403 191.733L87.1385 191.735Z" fill="#76BFDB"/>
<path d="M86.0578 193.535C91.7461 193.535 97.4362 193.544 103.125 193.532C104.681 193.528 106.232 193.495 107.739 193.971C107.588 194.595 107.154 195.007 106.68 195.391C106.446 195.418 106.307 195.543 106.273 195.779C106.273 195.779 106.288 195.806 106.288 195.808C99.1474 194.885 91.9785 195.499 84.8221 195.388C85.0383 194.642 85.5643 194.099 86.056 193.537L86.0578 193.535Z" fill="#5EAED0"/>
<path d="M55.1432 189.931C56.6508 189.471 58.2017 189.572 59.7435 189.572C63.917 189.568 68.0905 189.565 72.2639 189.574C73.9103 189.577 75.5584 189.617 77.2047 189.64C77.0534 190.293 76.7815 190.882 76.3221 191.378C69.1028 191.378 61.8852 191.378 54.6658 191.378C54.6388 190.835 54.6748 190.313 55.1432 189.932V189.931Z" fill="#84D3F4"/>
<path d="M213.207 106.683C214.454 107.704 215.095 109.162 215.765 110.537C218.416 115.983 220.963 121.48 223.543 126.96C223.662 127.214 223.874 127.459 223.703 127.906C222.669 127.885 222.431 126.791 221.736 126.337C221.05 125.888 220.272 125.506 219.773 124.796C219.701 124.326 219.724 123.814 219.54 123.394C218.825 121.774 218.278 120.091 217.514 118.483C216.268 115.861 215.12 113.183 214.131 110.454C213.697 109.26 212.969 108.068 213.207 106.683Z" fill="#2687B4"/>
<path d="M213.207 106.683C212.97 108.069 213.697 109.26 214.131 110.455C215.12 113.181 216.268 115.861 217.514 118.483C218.278 120.091 218.825 121.774 219.54 123.394C219.726 123.814 219.701 124.326 219.773 124.796C219.213 124.783 218.703 124.619 218.251 124.282C217.516 122.502 216.781 120.723 216.046 118.943C214.933 116.254 213.984 113.461 212.647 110.912C211.649 109.011 211.489 106.798 210.142 105.086C209.882 104.758 210.244 104.417 210.356 104.091C211.77 104.445 212.161 105.924 213.207 106.681V106.683Z" fill="#459EC4"/>
<path d="M68.438 199.493C67.1556 200.361 65.6767 200.698 64.1907 200.733C60.1739 200.825 56.1536 200.792 52.1332 200.798C51.9675 200.798 51.8018 200.698 51.5676 200.623C51.6271 199.702 51.9369 198.878 52.38 198.096C52.8627 198.727 53.558 198.576 54.1992 198.577C57.6648 198.586 61.1304 198.54 64.596 198.603C65.9145 198.626 67.3015 198.576 68.4362 199.493H68.438Z" fill="#2687B4"/>
<path d="M68.4381 199.493C67.3033 198.574 65.9163 198.626 64.5978 198.603C61.1341 198.54 57.6667 198.586 54.2011 198.577C53.5598 198.577 52.8628 198.725 52.3818 198.096C52.4539 197.756 52.4611 197.392 52.7295 197.123C56.5607 197.127 60.3937 197.141 64.2268 197.127C66.055 197.119 67.8797 197.458 69.7134 197.146C70.3636 197.037 71.0301 197.119 71.6191 197.494C70.8247 198.585 69.4954 198.822 68.4399 199.495L68.4381 199.493Z" fill="#459EC4"/>
<path d="M177.579 185.434C182.239 185.099 186.897 185.097 191.555 185.434C186.895 185.609 182.237 185.614 177.579 185.434Z" fill="#5EAED0"/>
<path d="M171.757 185.429C171.746 185.353 171.754 185.279 171.777 185.207C172.84 185.364 173.942 184.996 174.985 185.434C173.91 185.604 172.833 185.611 171.757 185.429Z" fill="#5EAED0"/>
<path d="M175.297 122.716C175.333 122.96 175.367 123.203 175.403 123.448C174.78 123.289 175.091 122.996 175.297 122.716Z" fill="#5EAED0"/>
<path d="M212.485 133.028C212.49 133.131 212.49 133.233 212.483 133.336C212.215 133.322 211.952 133.297 211.795 133.03C212.026 132.933 212.254 132.934 212.485 133.03V133.028Z" fill="#84D3F4"/>
<path d="M164.844 153.396C164.849 153.711 164.857 154.027 164.862 154.342C164.332 154.038 164.563 153.717 164.844 153.396Z" fill="#459EC4"/>
<path d="M216.073 133.017C215.839 133.327 215.616 133.315 215.401 132.997C215.628 132.9 215.853 132.9 216.073 133.017Z" fill="#459EC4"/>
<path d="M152.271 98.9229C152.291 99.1265 152.235 99.2995 152.073 99.4311C152.035 99.222 152.098 99.0508 152.271 98.9229Z" fill="#76CEF2"/>
<path d="M154.082 185.254C154.215 185.319 154.35 185.385 154.483 185.45C154.276 185.533 154.13 185.492 154.082 185.254Z" fill="#5EAED0"/>
<path d="M125.944 176.501C125.988 176.697 125.917 176.842 125.746 176.942C125.701 176.746 125.75 176.591 125.944 176.501Z" fill="#99DAF6"/>
<path d="M145.659 86.5979C145.558 86.3853 145.632 86.2303 145.817 86.1113C145.864 86.306 145.826 86.4736 145.659 86.5979Z" fill="#99DAF6"/>
<path d="M107.714 193.977C107.723 193.755 107.842 193.618 108.049 193.551C108.026 193.764 107.927 193.915 107.714 193.977Z" fill="#5EAED0"/>
<path d="M106.273 195.779C106.307 195.542 106.446 195.416 106.68 195.391C106.608 195.588 106.486 195.73 106.273 195.779Z" fill="#459EC4"/>
<path d="M201.312 133.03C201.2 133.21 201.087 133.212 200.973 133.032C201.085 132.951 201.198 132.951 201.312 133.03Z" fill="#84D3F4"/>
<path d="M207.067 133.023C206.961 133.21 206.854 133.21 206.746 133.025C206.852 132.94 206.959 132.94 207.067 133.023Z" fill="#84D3F4"/>
<path d="M189.809 64.8861C189.867 64.7041 189.95 64.596 190.128 64.7816C190.038 64.8681 189.932 64.9041 189.809 64.8861Z" fill="#459EC4"/>
<path d="M183.642 251.742C183.642 247.064 183.636 242.386 183.645 237.707C183.647 236.327 183.665 236.302 184.993 236.302C187.567 236.302 190.141 236.23 192.693 236.759C197.745 237.81 200.894 240.832 201.96 245.857C202.893 250.252 202.803 254.683 201.681 259.05C200.523 263.555 197.628 266.246 193.037 267.142C190.182 267.698 187.305 267.511 184.434 267.567C183.426 267.587 183.653 266.868 183.651 266.318C183.638 262.18 183.644 258.041 183.644 253.903C183.644 253.184 183.644 252.463 183.644 251.744L183.642 251.742Z" fill="#010160"/>
<path d="M82.9579 234.814C85.7894 242.153 88.0986 249.642 90.3249 257.307H75.6232C77.7937 249.68 80.166 242.23 82.9579 234.814Z" fill="#010160"/>
</g>
<defs>
<clipPath id="clip0_2722_16815">
<rect width="300" height="360" fill="white"/>
</clipPath>
</defs>
</svg>
