<svg width="360" height="72" viewBox="0 0 360 72" fill="none" xmlns="http://www.w3.org/2000/svg">
<g clip-path="url(#clip0_2722_15091)">
<path d="M0 70.3819C1.44281 68.2668 2.70984 66.0438 4.04297 63.8615C16.7245 43.1032 29.3948 22.338 42.0694 1.5755C42.1889 1.37812 42.3211 1.18914 42.4448 0.998763H52.4334V41.4248C61.342 27.9541 70.1086 14.4414 78.9947 0.993164H90.09V70.4435H75.555V21.6436C75.5058 21.624 75.458 21.6044 75.4087 21.5848C65.115 37.8986 54.8227 54.2138 44.5162 70.5485H39.9656C39.4538 54.1914 38.9419 37.8552 38.43 21.5191C38.3864 21.5037 38.3442 21.4883 38.3006 21.4729C28.0758 37.809 17.8509 54.1452 7.59938 70.5219H0V70.3819Z" fill="#143C60"/>
<path d="M324.984 0.52972C324.972 0.832086 324.949 1.13445 324.949 1.43542C324.948 24.1577 324.948 46.8799 324.948 69.6021V70.4714H311.414C311.266 70.3035 311.341 70.0851 311.34 69.8849C311.335 46.8365 311.337 23.7867 311.337 0.738297C311.337 0.668305 311.341 0.598312 311.342 0.52832C315.889 0.52832 320.437 0.52832 324.983 0.52832L324.984 0.52972Z" fill="#143C60"/>
<path d="M305.438 0.529785C305.453 0.760759 305.481 0.991733 305.481 1.22411C305.483 24.0597 305.483 46.8954 305.483 69.731V70.4729H291.978C291.833 70.2657 291.904 70.0264 291.904 69.8038C291.9 46.922 291.9 24.0387 291.902 1.15691C291.902 0.948338 291.925 0.739761 291.938 0.531185C296.438 0.531185 300.938 0.531185 305.438 0.531185V0.529785Z" fill="#143C60"/>
<path d="M360 58.0632C359.675 63.3896 357.182 67.2825 352.273 69.5307C348.692 71.1699 344.924 71.594 341.024 71.1489C337.155 70.7079 333.442 69.7659 329.955 68.0063C329.851 67.9545 329.754 67.8901 329.598 67.7991C329.766 66.0199 329.934 64.2197 330.1 62.4363C330.39 62.3383 330.55 62.5161 330.725 62.6085C334.063 64.3667 337.569 65.6027 341.346 65.9821C343.284 66.1767 345.187 66.0395 346.981 65.2122C349.543 64.0293 350.407 61.5348 349.097 59.0375C348.102 57.1393 346.489 55.8192 344.732 54.6756C342.202 53.0279 339.424 51.8325 336.762 50.4242C331.992 47.9017 329.889 43.8492 329.854 38.5942C329.827 34.7082 331.211 31.448 334.223 28.9339C336.757 26.8187 339.736 25.6792 342.987 25.3433C348.009 24.8225 352.765 25.8094 357.237 28.1429C357.462 28.2605 357.673 28.4061 357.914 28.5545C357.713 30.2357 357.514 31.8987 357.314 33.5659C356.979 33.5897 356.768 33.3756 356.527 33.2524C352.882 31.4032 349.083 30.1027 344.942 30.0271C343.955 30.0089 342.982 30.0859 342.02 30.3379C338.699 31.2086 338.248 34.3288 339.289 36.535C340.066 38.184 341.518 39.1317 343.119 39.8708C346.067 41.2301 349.045 42.5249 351.965 43.9402C356.625 46.2009 359.179 49.9931 359.866 55.0717C359.92 55.4623 359.956 55.8542 360.001 56.2448V58.0646L360 58.0632Z" fill="#143C60"/>
<path d="M243.406 70.4672H229.996C229.853 70.2026 229.918 69.9422 229.918 69.6945C229.918 60.0831 229.918 50.4704 229.927 40.8591C229.927 39.966 229.83 39.0883 229.596 38.2316C228.613 34.6466 225.817 33.3378 222.39 33.6443C218.891 33.9579 216.872 36.1024 216.553 39.6006C216.479 40.393 216.515 41.1825 216.515 41.9748C216.526 51.2375 216.522 60.4989 216.522 69.7617C216.522 69.9436 216.522 70.1256 216.522 70.3454H202.877V1H216.689V30.1965C217.8 29.358 218.796 28.6413 219.866 28.0352C223.279 26.0992 226.908 25.0843 230.872 25.2971C237.196 25.6358 242.759 30.9566 243.274 37.2251C243.361 38.2946 243.409 39.3655 243.409 40.4406C243.404 50.1695 243.406 59.8984 243.406 69.6273C243.406 69.882 243.406 70.1368 243.406 70.47V70.4672Z" fill="#143C60"/>
<path d="M99.0998 36.9452C98.8875 34.977 98.6878 33.1292 98.4839 31.2408C100.242 29.995 102.133 28.9885 104.113 28.1514C108.353 26.3624 112.764 25.4091 117.385 25.7366C121.684 26.0418 125.7 27.1617 128.85 30.3155C131.912 33.3812 133.334 37.1986 133.374 41.4373C133.467 50.8834 133.404 60.3323 133.402 69.7785C133.402 69.9143 133.386 70.05 133.372 70.2516H120.001V66.7422C119.634 67.0614 119.393 67.2686 119.156 67.4771C114.2 71.825 106.152 72.7881 100.329 69.7309C96.7556 67.8551 94.9894 64.8188 94.4845 60.9035C93.8362 55.8738 96.3858 52.6108 100.37 50.1317C103.252 48.3371 106.422 47.2326 109.711 46.4347C112.029 45.8734 114.322 45.2154 116.553 44.3755C120.082 43.0471 121.071 38.2358 118.482 35.2388C117.055 33.587 115.194 32.8254 113.081 32.5833C108.134 32.0149 103.832 33.6779 99.8451 36.409C99.6356 36.5532 99.4303 36.7058 99.0984 36.9438L99.0998 36.9452ZM119.628 47.7744C119.347 47.8541 119.213 47.8835 119.085 47.9311C116.516 48.876 114.052 50.0547 111.644 51.3426C110.682 51.8563 109.901 52.5926 109.291 53.5025C107.795 55.7353 107.734 58.2018 108.225 60.7033C108.683 63.041 110.302 64.5627 112.463 64.9098C114.785 65.2822 116.883 64.2953 118.124 62.2445C118.685 61.3164 119.052 60.3099 119.247 59.2531C119.943 55.4819 119.402 51.6757 119.63 47.7744H119.628Z" fill="#143C60"/>
<path d="M286.325 70.2758H272.963V66.6922C271.261 68.3454 269.428 69.5114 267.356 70.308C263.23 71.8968 259.066 71.9234 254.925 70.4591C250.235 68.8003 247.608 65.0264 247.345 60.0555C247.12 55.7972 249.227 52.8757 252.533 50.5996C255.995 48.2156 259.899 46.8956 263.983 46.0347C265.584 45.6973 267.178 45.3222 268.72 44.7678C273.291 43.1286 274.347 37.8162 270.766 34.5658C269.027 32.9868 266.891 32.5304 264.663 32.4744C260.205 32.361 256.289 33.9471 252.704 36.471C252.515 36.6054 252.328 36.7411 252.042 36.9455C251.828 34.9927 251.623 33.1141 251.416 31.223C255.419 28.5395 259.748 26.7533 264.49 26.0113C268.217 25.4276 271.908 25.5634 275.541 26.6791C281.213 28.4219 284.529 32.3008 285.889 37.9576C286.218 39.3238 286.334 40.7111 286.331 42.1193C286.318 51.1945 286.324 60.2697 286.324 69.3463C286.324 69.6234 286.324 69.8992 286.324 70.2758H286.325ZM272.535 47.8629C272.306 47.7901 272.164 47.8769 272.011 47.9329C269.467 48.875 267.017 50.027 264.637 51.3177C262.911 52.2528 261.809 53.7128 261.26 55.5914C260.737 57.3846 260.803 59.1946 261.228 60.978C261.74 63.1338 263.152 64.4958 265.335 64.878C267.536 65.2615 269.401 64.5644 270.752 62.7194C271.554 61.6247 271.964 60.3691 272.242 59.0616C272.528 57.708 272.547 56.3347 272.538 54.9573C272.524 52.586 272.534 50.216 272.534 47.8615L272.535 47.8629Z" fill="#143C60"/>
<path d="M196.221 28.5742C196.017 30.2582 195.816 31.917 195.605 33.6486C194.171 32.9179 192.795 32.2334 191.351 31.6959C188.319 30.5676 185.22 29.8467 181.953 30.0538C181.437 30.086 180.932 30.1742 180.434 30.31C177.299 31.1639 176.093 34.3066 177.86 37.0391C178.743 38.4039 180.046 39.2438 181.495 39.9045C184.448 41.2512 187.432 42.5362 190.343 43.9669C194.91 46.2108 197.46 49.954 198.134 54.9486C198.564 58.1347 198.232 61.2339 196.649 64.105C194.827 67.4086 191.874 69.2522 188.378 70.3847C184.742 71.5634 181.049 71.5074 177.335 70.8928C174.182 70.3707 171.141 69.486 168.286 68.0204C168.164 67.9574 168.047 67.8846 167.896 67.7978C168.067 65.9962 168.237 64.1974 168.415 62.3076C169.149 62.6702 169.785 62.9991 170.433 63.3029C173.72 64.8441 177.133 65.922 180.797 66.055C182.386 66.1124 183.93 65.873 185.372 65.1815C187.857 63.9916 188.682 61.5377 187.431 59.0852C186.649 57.5509 185.41 56.4171 184.058 55.391C181.676 53.5838 178.934 52.4121 176.292 51.0725C174.161 49.9932 172.159 48.7949 170.712 46.838C169.107 44.6696 168.301 42.2311 168.171 39.5588C168.006 36.209 168.705 33.1125 170.949 30.5004C173.405 27.6433 176.611 26.0727 180.269 25.4974C185.798 24.6281 191.019 25.6905 195.92 28.3628C196.002 28.4076 196.073 28.4664 196.224 28.5714L196.221 28.5742Z" fill="#143C60"/>
<path d="M138.797 70.4619V26.8624H152.148V33.7188C156.234 29.5879 160.556 26.1891 166.719 26.3165V33.3157C165.253 33.4011 163.834 33.506 162.456 33.9134C158.705 35.0207 156.18 37.4984 154.524 40.9322C152.64 44.8434 152.096 49.0163 152.12 53.3054C152.151 58.9034 152.135 64.5014 152.139 70.0993C152.139 70.2099 152.12 70.3205 152.106 70.4619H138.798H138.797Z" fill="#143C60"/>
</g>
<defs>
<clipPath id="clip0_2722_15091">
<rect width="360" height="71" fill="white" transform="translate(0 0.529785)"/>
</clipPath>
</defs>
</svg>
