<svg width="360" height="147" viewBox="0 0 360 147" fill="none" xmlns="http://www.w3.org/2000/svg">
<g clip-path="url(#clip0_2721_14968)">
<path d="M53.0452 0.694336C59.1063 1.01467 65.0767 1.04806 71.1536 0.696423C71.1536 1.26301 71.1692 1.77326 71.1515 2.28246C70.9929 6.62528 70.778 10.9671 70.6758 15.312C70.5328 21.3598 70.4045 27.4097 70.393 33.4596C70.3774 41.9438 70.4462 50.4281 70.5391 58.9113C70.5756 62.2827 70.7801 65.653 71.551 68.9566C72.6819 73.8055 75.4944 77.3918 79.7779 79.8606C82.554 81.4602 85.5668 82.3774 88.7132 82.8845C93.2523 83.6159 97.781 83.6566 102.277 82.5704C106.193 81.624 109.731 79.9274 112.742 77.2071C116.36 73.939 118.338 69.8414 118.942 65.0343C119.424 61.1965 119.554 57.3388 119.531 53.4802C119.471 43.605 119.443 33.7288 119.234 23.8567C119.075 16.3846 118.658 8.91878 118.358 1.44979C118.35 1.27971 118.358 1.10858 118.358 0.877982H130.743C130.695 1.73152 130.638 2.61532 130.598 3.50016C130.32 9.71701 129.975 15.9307 129.79 22.1507C129.533 30.804 129.393 39.4615 129.208 48.1169C129.125 52.0454 129.062 55.974 128.973 59.9015C128.883 63.8072 128.435 67.6658 127.391 71.4421C125.748 77.3834 122.314 82.0184 117.277 85.5432C113.101 88.4648 108.468 90.2658 103.531 91.3124C93.6289 93.4129 83.833 92.7972 74.1748 89.8808C69.9424 88.6026 66.0595 86.6054 62.6815 83.7099C57.8242 79.5455 55.0774 74.202 54.078 67.9455C53.7827 66.1007 53.6732 64.2089 53.6669 62.338C53.6283 49.7843 53.7076 37.2296 53.6106 24.6769C53.5522 17.0994 53.2444 9.52398 53.0514 1.94647C53.042 1.56874 53.0504 1.19102 53.0504 0.695379L53.0452 0.694336Z" fill="#F87D3C"/>
<path d="M33.3198 4.79938C33.6422 5.66857 33.3083 6.1016 32.6949 6.55133C25.795 11.6173 19.8225 17.5847 15.1613 24.8033C10.0954 32.649 7.05439 41.2167 6.01533 50.4981C5.61577 54.0657 5.44468 57.6384 5.77121 61.2206C6.24484 66.4086 7.79717 71.2878 10.0798 75.9457C13.1406 82.1897 17.2947 87.65 22.1134 92.6252C28.5178 99.2375 35.81 104.72 43.6561 109.488C53.9799 115.764 64.9589 120.614 76.3916 124.462C88.1436 128.419 100.174 131.221 112.426 133.116C129.009 135.681 145.688 136.465 162.439 135.837C168.066 135.627 173.692 135.321 179.306 134.902C186.205 134.388 193.071 133.542 199.912 132.505C209.368 131.071 218.73 129.183 227.987 126.784C231.349 125.913 234.678 124.918 238.028 123.998C238.619 123.836 239.238 123.769 239.977 123.634C239.757 124.2 239.348 124.261 239.041 124.418C230.135 128.95 220.917 132.729 211.415 135.818C200.72 139.294 189.812 141.867 178.692 143.552C164.798 145.655 150.834 146.409 136.792 145.871C130.744 145.64 124.707 145.297 118.685 144.713C111.799 144.045 104.95 143.091 98.1472 141.828C88.3648 140.009 78.7379 137.584 69.3238 134.345C58.5733 130.647 48.2662 126 38.6298 119.93C30.3737 114.73 22.8572 108.646 16.4654 101.236C10.4021 94.2071 5.71801 86.3823 2.88251 77.5036C0.396491 69.7216 -0.502774 61.7517 0.268173 53.618C1.18413 43.9599 4.55794 35.1897 10.0161 27.2011C14.4686 20.6848 19.9362 15.1191 26.062 10.1857C28.1182 8.5297 30.2725 6.99375 32.3861 5.40876C32.6594 5.20424 32.9588 5.03312 33.3198 4.79834V4.79938Z" fill="#F87D3C"/>
<path d="M297.441 0.787109H306.256C317.895 31.5041 331.864 61.2068 345.676 91.0828H325.325C321.528 81.6469 317.729 72.2099 313.91 62.7198C302.74 62.4986 291.661 62.4996 280.512 62.7125C276.508 72.0033 272.685 81.3057 269.732 90.9315H257.165C257.361 90.4859 257.504 90.1426 257.66 89.8066C265.227 73.5497 272.819 57.3043 280.351 41.0318C285.037 30.9093 289.703 20.7764 293.87 10.4254C295.063 7.46203 296.093 4.43291 297.197 1.43405C297.268 1.24101 297.341 1.04797 297.439 0.787109H297.441ZM309.957 54.5841C305.703 43.8449 301.515 33.2748 297.235 22.471C292.601 33.3009 288.072 43.8856 283.494 54.5882C292.368 54.9931 301.072 55.2237 309.957 54.5841Z" fill="#F87D3C"/>
<path d="M222.299 9.7838C213.009 9.69616 203.884 10.0488 194.65 10.678C194.97 7.22632 195.27 3.84764 194.884 0.375052C218.859 1.18998 242.785 1.23903 266.755 0.0390625C266.657 1.86509 266.51 3.6233 266.485 5.38255C266.46 7.11154 266.56 8.84262 266.609 10.6833C257.711 9.96015 248.806 9.78798 239.829 9.77441C239.803 10.2294 239.768 10.5674 239.767 10.9055C239.709 31.2496 239.601 51.5936 239.634 71.9377C239.644 77.8739 239.771 83.8257 240.532 89.7337C240.572 90.0405 240.568 90.3535 240.591 90.8084C234.246 90.4631 227.947 90.4004 221.625 90.8189C221.625 89.9225 221.587 89.0982 221.631 88.2781C221.932 82.6539 222.374 77.0339 222.532 71.4056C222.732 64.2465 222.75 57.0822 222.766 49.9189C222.786 41.5734 222.744 33.2269 222.679 24.8804C222.642 20.2913 222.502 15.7033 222.403 11.1142C222.395 10.7041 222.342 10.2961 222.301 9.78172L222.299 9.7838Z" fill="#F87D3C"/>
<path d="M150.274 90.7019C150.257 90.5725 150.221 90.4379 150.226 90.3043C151.253 60.6506 151.57 30.998 150.255 1.34327C150.252 1.28379 150.31 1.22223 150.359 1.12101C156.509 1.62395 162.679 1.57387 168.968 1.0918C167.74 28.1504 167.06 55.1726 168.08 82.2802C168.337 82.3136 168.565 82.3689 168.794 82.37C177.035 82.4055 185.273 82.3042 193.506 81.8963C196.037 81.771 198.562 81.4883 201.091 81.2775C201.288 81.2608 201.485 81.2431 201.78 81.217C201.436 84.4391 201.39 87.5841 201.783 90.7885C193.152 90.5589 184.581 90.1635 176.011 90.1489C167.465 90.1343 158.919 90.4995 150.275 90.7008L150.274 90.7019Z" fill="#F87D3C"/>
<path d="M142.868 98.4767C143.108 98.4558 143.343 98.4172 143.577 98.4172C145.94 98.4151 148.305 98.3734 150.666 98.4454C151.622 98.4746 152.617 98.6311 153.517 98.9515C156.599 100.05 156.487 103.71 154.863 105.179C154.283 105.704 153.557 106.073 152.878 106.483C152.618 106.64 152.308 106.711 151.904 106.865C152.49 107.059 152.968 107.195 153.429 107.372C155.156 108.038 156.322 109.205 156.425 111.125C156.527 113.032 155.803 114.584 154.122 115.61C153.184 116.182 152.154 116.549 151.071 116.578C148.432 116.649 145.792 116.631 143.151 116.641C143.058 116.641 142.964 116.573 142.87 116.537V98.4767H142.868ZM147.368 107.914C147.056 109.369 147.046 113.214 147.334 115.084C148.88 115.252 150.44 115.35 151.371 113.761C152.238 112.28 152.264 110.67 151.349 109.217C150.412 107.729 148.844 107.881 147.368 107.914ZM147.245 106.334C147.902 106.334 148.569 106.43 149.198 106.316C151.091 105.974 152.097 104.03 151.561 101.94C151.28 100.844 150.599 100.164 149.515 99.9928C148.816 99.8822 148.085 99.972 147.246 99.972V106.334H147.245Z" fill="#F87D3C"/>
<path d="M279.625 98.5152C279.545 102.08 279.487 105.553 279.373 109.026C279.343 109.957 279.218 110.9 279.008 111.808C278.361 114.59 276.603 116.279 273.798 116.843C271.549 117.295 269.308 117.263 267.095 116.614C264.052 115.721 262.386 113.602 262.297 110.439C262.253 108.877 262.33 107.31 262.332 105.747C262.335 103.767 262.319 101.785 262.312 99.8049C262.311 99.3937 262.312 98.9837 262.312 98.4995H266.875C266.853 98.9764 266.824 99.4167 266.815 99.857C266.756 103.121 266.652 106.386 266.675 109.65C266.682 110.635 266.963 111.644 267.269 112.592C267.693 113.903 268.634 114.793 270.014 115.029C270.962 115.19 271.949 115.255 272.909 115.199C274.519 115.104 275.594 114.166 276.234 112.72C276.804 111.43 277.058 110.05 277.061 108.658C277.069 105.602 276.987 102.545 276.943 99.4887C276.939 99.183 276.943 98.8772 276.943 98.5152H279.625Z" fill="#F87D3C"/>
<path d="M239.519 116.728H234.798C234.124 114.963 233.447 113.189 232.766 111.406H226.174C225.222 113.084 224.826 115.011 224.071 116.786H221.426C224.161 110.623 226.849 104.568 229.556 98.4702H231.663C234.271 104.532 236.885 110.607 239.519 116.728ZM226.943 109.647C228.611 109.868 231.312 109.796 232.003 109.514C231.294 107.715 230.587 105.913 229.873 104.115C229.814 103.967 229.711 103.837 229.551 103.568C228.527 105.58 227.757 107.562 226.943 109.648V109.647Z" fill="#F87D3C"/>
<path d="M189.155 114.474H195.538V116.83C191.981 116.869 188.388 116.836 184.715 116.848V98.575C185.413 98.3695 194.474 98.3277 195.545 98.5364C195.562 98.6022 195.593 98.6679 195.593 98.7336C195.597 99.3545 195.595 99.9753 195.595 100.672C193.438 100.619 191.334 100.566 189.176 100.513C188.915 101.468 189.051 102.369 189.03 103.256C189.009 104.157 189.025 105.06 189.025 106.07C191.196 106.289 193.295 105.918 195.446 105.995V108.242C193.376 108.161 191.284 108.081 189.078 107.995C189.055 110.222 188.973 112.318 189.156 114.476L189.155 114.474Z" fill="#F87D3C"/>
<path d="M343.747 98.5102H348.787C350.181 101.117 351.569 103.711 353.045 106.472C354.93 103.91 356.031 101.174 357.345 98.481H359.999C359.875 98.747 359.783 98.9891 359.656 99.2114C357.957 102.162 356.264 105.115 354.546 108.055C354.217 108.617 354.071 109.181 354.091 109.829C354.16 112.118 354.199 114.407 354.251 116.848C353.53 116.848 352.779 116.848 352.028 116.848C351.277 116.848 350.505 116.848 349.6 116.848C349.651 116.033 349.711 115.291 349.743 114.547C349.806 113.125 349.846 111.701 349.91 110.28C349.937 109.667 349.751 109.136 349.448 108.606C347.735 105.623 346.043 102.629 344.346 99.6361C344.165 99.3157 344 98.9849 343.748 98.5112L343.747 98.5102Z" fill="#F87D3C"/>
<path d="M309.422 116.587V100.539C307.697 100.364 306.015 100.604 304.296 100.536V98.3628H318.782V100.546H313.789C313.822 105.929 313.693 111.22 313.96 116.588H309.422V116.587Z" fill="#F87D3C"/>
<path d="M329.596 5.85513C329.659 2.88235 332.152 0.515818 335.173 0.560686C338.096 0.603467 340.505 3.09417 340.466 6.03356C340.428 9.0439 337.94 11.4574 334.953 11.3802C331.937 11.3019 329.532 8.82269 329.595 5.85513H329.596ZM339.499 5.96574C339.493 3.36547 337.61 1.42257 335.081 1.40901C332.527 1.3944 330.61 3.32791 330.62 5.9073C330.631 8.54931 332.573 10.6059 335.057 10.607C337.625 10.607 339.506 8.64218 339.499 5.96574Z" fill="#F87D3C"/>
<path d="M333.859 6.48033V9.05869H333.015V2.83871C334.103 2.79906 335.198 2.71036 336.281 2.92218C337.062 3.07453 337.512 3.68598 337.574 4.48422C337.635 5.28872 337.291 5.85009 336.519 6.19965C336.371 6.26643 336.219 6.3259 335.98 6.42712C336.561 7.31718 337.099 8.14359 337.66 9.00234C336.979 9.25486 336.575 9.12338 336.286 8.55366C336.021 8.02985 335.646 7.5603 335.394 7.03127C335.079 6.3666 334.614 6.2153 333.859 6.48033ZM333.892 5.6101C334.608 5.56627 335.228 5.57775 335.829 5.47549C336.272 5.40037 336.535 5.05499 336.533 4.57396C336.533 4.09919 336.298 3.78407 335.843 3.65885C335.205 3.48356 334.566 3.45851 333.892 3.65051V5.61114V5.6101Z" fill="#F87D3C"/>
</g>
<defs>
<clipPath id="clip0_2721_14968">
<rect width="360" height="146" fill="white" transform="translate(0 0.0390625)"/>
</clipPath>
</defs>
</svg>
