<svg width="360" height="87" viewBox="0 0 360 87" fill="none" xmlns="http://www.w3.org/2000/svg">
<path d="M316.225 29.2205C318.23 29.2205 319.88 28.1781 320.103 26.8313L322.083 4.44409C322.083 2.23134 319.49 0.414795 316.231 0.414795C312.975 0.414795 310.385 2.23133 310.385 4.44448L312.364 26.8313C312.581 28.1777 314.232 29.2205 316.231 29.2205H316.225ZM304.125 36.2131C305.131 34.4788 305.055 32.5297 303.995 31.6638L285.594 18.7559C283.681 17.6479 280.812 18.9816 279.184 21.805C277.551 24.6249 277.84 27.7743 279.748 28.8826L300.124 38.3695C301.397 38.8416 303.134 37.933 304.132 36.1999L304.125 36.2131ZM328.335 36.2011C329.339 37.9342 331.067 38.8432 332.342 38.3707L352.717 28.8838C354.637 27.7759 354.91 24.6261 353.292 21.8062C351.656 18.9856 348.782 17.6491 346.874 18.7571L328.472 31.665C327.419 32.5297 327.341 34.4804 328.341 36.2143L328.335 36.2011ZM316.225 57.1855C318.23 57.1855 319.88 58.2192 320.103 59.5672L322.083 81.9512C322.083 84.1708 319.49 85.9833 316.231 85.9833C312.975 85.9833 310.385 84.1708 310.385 81.9512L312.364 59.5672C312.581 58.2192 314.232 57.1855 316.231 57.1855H316.225ZM328.335 50.1914C329.339 48.4535 331.067 47.5525 332.342 48.0302L352.717 57.5107C354.637 58.6198 354.91 61.7724 353.292 64.5947C351.656 67.4061 348.782 68.7462 346.874 67.6398L328.472 54.7439C327.419 53.8724 327.341 51.9205 328.341 50.1878H328.333M304.125 50.189C305.131 51.9205 305.055 53.8724 303.995 54.7455L285.594 67.641C283.681 68.7474 280.812 67.4073 279.184 64.5959C277.551 61.7736 277.84 58.621 279.748 57.5119L300.124 48.0314C301.397 47.5537 303.134 48.4547 304.132 50.193H304.125" fill="#FDBB30"/>
<path d="M200.156 54.7034C200.156 55.3904 200.095 56.0989 199.906 56.7212C199.126 59.3058 196.45 61.4914 193.102 61.4914C190.311 61.4914 188.093 59.9058 188.093 56.5567C188.093 51.431 193.735 50.0155 200.157 50.051L200.156 54.703V54.7034ZM210.229 45.7709C210.229 37.3189 206.617 29.8818 194.415 29.8818C188.151 29.8818 183.179 31.6412 180.465 33.2093L182.453 40.0041C184.933 38.4384 188.885 37.1423 192.626 37.1423C198.816 37.1252 199.829 40.6476 199.829 42.9019V43.4355C186.337 43.4155 177.808 48.0875 177.808 57.6047C177.808 63.4202 182.152 68.867 189.703 68.867C194.343 68.867 198.229 67.0149 200.555 64.0453H200.785C200.785 64.0453 202.324 70.4926 210.82 68.0258C210.376 65.3446 210.231 62.4824 210.231 59.0406L210.229 45.7709M0.000488281 18.3715C0.000488281 18.3715 8.81756 54.5001 10.2255 60.3635C11.8679 67.2074 14.8279 69.7269 23.3582 68.0258L28.8634 45.6275C30.2593 40.0613 31.1935 36.0927 32.093 30.4362H32.2496C32.8811 36.1526 33.777 40.0784 34.9257 45.6459C34.9257 45.6459 37.1656 55.815 38.3147 61.1543C39.465 66.4921 42.6667 69.8584 51.0233 68.0258L64.1416 18.3699H53.5531L49.0725 39.8396C47.8679 46.0864 46.7759 50.9733 45.9331 56.6869H45.7833C45.0177 51.0236 44.0427 46.3361 42.8193 40.2482L38.1581 18.3699H27.1239L22.1352 39.6966C20.7233 46.1791 19.3992 51.4114 18.5605 56.9349H18.4079C17.5468 51.7337 16.4004 45.155 15.1599 38.883C15.1599 38.883 12.1982 23.6282 11.1565 18.3699L0.000488281 18.3715ZM84.1706 54.7034C84.1706 55.3904 84.1095 56.0989 83.9186 56.7212C83.1397 59.3058 80.4621 61.4914 77.1142 61.4914C74.3223 61.4914 72.1083 59.9058 72.1083 56.5567C72.1083 51.431 77.7485 50.0155 84.1718 50.051L84.1706 54.703V54.7034ZM94.2427 45.7709C94.2427 37.3189 90.6312 29.8818 78.4307 29.8818C72.165 29.8818 67.1895 31.6412 64.4775 33.2093L66.4626 40.0041C68.9422 38.4384 72.8948 37.1423 76.6365 37.1423C82.8306 37.1252 83.8443 40.6476 83.8443 42.9019V43.4355C70.3461 43.4155 61.821 48.0875 61.821 57.6047C61.821 63.4202 66.1626 68.867 73.7084 68.867C78.3548 68.867 82.2387 67.0149 84.5673 64.0453H84.7941C84.7941 64.0453 86.3375 70.4926 94.8314 68.0258C94.3873 65.3446 94.2427 62.4824 94.2427 59.0406V45.7709ZM111.052 57.4853V18.3715H100.967V68.0274H111.052V57.4853ZM242.985 18.3715V55.0017C242.985 60.0543 243.938 63.5904 245.969 65.7544C247.749 67.6464 250.673 68.871 254.18 68.871C257.163 68.871 260.095 68.3018 261.479 67.7886L261.349 59.9097C260.319 60.1614 259.137 60.3651 257.518 60.3651C254.082 60.3651 252.933 58.1635 252.933 53.6298V39.6143H261.715V30.1122H252.933V18.3715H242.985ZM216.954 30.7242V68.0274H227.357V48.9275C227.357 47.895 227.42 46.9955 227.583 46.1727C228.353 42.1698 231.412 39.6143 235.807 39.6143C237.012 39.6143 237.874 39.7453 238.808 39.8779V30.1122C238.024 29.9561 237.492 29.883 236.517 29.883C232.634 29.883 228.217 32.3881 226.364 37.7618H226.082V30.7242H216.954ZM118.114 30.7242V68.0274H128.25V46.1527C128.25 45.1262 128.371 44.0406 128.726 43.0996C129.566 40.8972 131.616 38.3178 134.887 38.3178C138.979 38.3178 140.889 41.7755 140.889 46.7658V68.0246H151.017V45.8835C151.017 44.9042 151.151 43.7235 151.441 42.86C152.272 40.3532 154.48 38.315 157.521 38.315C161.668 38.315 163.658 41.712 163.658 47.5858V68.0235H173.793V46.0517C173.793 34.4659 167.909 29.8794 161.267 29.8794C158.328 29.8794 156.006 30.6155 153.906 31.9024C152.143 32.9888 150.561 34.5282 149.181 36.5516H149.031C147.429 32.5315 143.661 29.8814 138.75 29.8814C132.441 29.8814 129.606 33.0795 127.886 35.7915H127.735V30.723H118.114" fill="#1A75CF"/>
<path d="M357.828 66.2137H357.981C358.184 66.2137 358.314 66.1298 358.314 66.0052C358.314 65.8634 358.192 65.7863 358.003 65.7863C357.938 65.7863 357.872 65.7995 357.828 65.7995V66.2173V66.2133L357.828 66.2137ZM357.804 67.2194H357.265V65.464C357.387 65.44 357.673 65.3973 358.038 65.3973C358.434 65.3973 358.612 65.4532 358.742 65.5411C358.852 65.6178 358.932 65.7488 358.932 65.9257C358.932 66.1059 358.766 66.2584 358.522 66.3251V66.3475C358.721 66.4006 358.83 66.5452 358.887 66.7988C358.941 67.0521 358.975 67.1555 359.009 67.2206H358.398C358.345 67.1555 358.314 67.0001 358.278 66.8452C358.243 66.6674 358.16 66.5784 357.979 66.5784H357.803L357.804 67.2194ZM358.027 64.892C357.253 64.892 356.67 65.5223 356.67 66.3259C356.67 67.1088 357.255 67.7474 358.048 67.7474C358.845 67.7606 359.43 67.1092 359.43 66.3131C359.43 65.5207 358.845 64.892 358.039 64.892H358.027ZM358.062 64.4155C359.14 64.4155 360 65.2647 360 66.3127C360 67.3732 359.14 68.2235 358.047 68.2235C356.954 68.2235 356.083 67.372 356.083 66.3131C356.083 65.2647 356.955 64.4159 358.047 64.4159H358.059" fill="#FDBB30"/>
</svg>
