<svg width="360" height="93" viewBox="0 0 360 93" fill="none" xmlns="http://www.w3.org/2000/svg">
<g clip-path="url(#clip0_2722_16848)">
<path d="M165.396 93.0001C164.363 92.689 163.328 92.3827 162.298 92.062C161.919 91.9443 161.529 91.8396 161.229 91.5736C160.782 90.4405 160.175 86.8413 160.227 85.5841C160.544 85.4729 160.883 85.3536 161.2 85.2424C161.618 85.4632 161.597 85.8791 161.725 86.1982C162.345 87.7584 163.158 89.1849 164.479 90.2696C165.349 90.9837 166.321 91.4302 167.48 91.4527C169.121 91.485 170.462 90.945 171.169 89.417C171.887 87.8681 171.819 86.3191 170.714 84.9297C169.827 83.8127 168.607 83.1164 167.367 82.4669C166.159 81.8334 164.956 81.1984 163.853 80.3892C161.474 78.6436 160.267 76.3968 160.962 73.4246C161.67 70.3928 163.825 68.8374 166.739 68.2023C169.155 67.6753 171.495 68.1411 173.869 68.9164C174.091 70.6265 174.309 72.3189 174.526 73.9952C174.175 74.3304 173.778 74.3111 173.355 74.3417C172.954 73.3698 172.636 72.393 172.044 71.5452C171.155 70.2751 170.008 69.495 168.387 69.4821C166.794 69.4692 165.579 70.0946 164.931 71.542C164.251 73.0603 164.45 74.5271 165.581 75.794C166.413 76.7256 167.503 77.3171 168.599 77.878C169.812 78.4986 171.033 79.103 172.168 79.8654C174.703 81.5642 176.134 83.8224 175.527 86.9332C174.913 90.0714 172.737 91.7686 169.759 92.6052C169.368 92.7148 168.902 92.6277 168.601 93.0017H165.401L165.396 93.0001Z" fill="#6DBD48"/>
<path d="M360 7.93485C359.935 7.94291 359.875 7.93163 359.819 7.89939C359.812 7.39651 359.807 6.89362 359.801 6.39074C359.867 6.37462 359.934 6.36011 360 6.34399V7.93324V7.93485Z" fill="#6DBD48"/>
<path d="M112.729 52.6484V55.4287H88.2469V52.658C89.1894 52.5194 90.1433 52.4082 91.0842 52.2325C93.6995 51.7425 94.7505 50.5933 95.0064 47.9741C95.0777 47.2488 95.1538 46.5219 95.1538 45.7949C95.1603 34.5332 95.157 23.2731 95.1441 12.0113C95.1441 11.0523 95.042 10.0981 94.8461 9.15197C94.5319 7.63203 93.6186 6.71813 92.1303 6.29745C90.9708 5.97025 89.7773 5.87032 88.5303 5.6898V2.90136C88.7409 2.87718 88.932 2.83689 89.1231 2.8385C97.7546 2.89814 106.386 2.69343 115.018 2.95294C117.322 3.02224 119.617 3.27208 121.813 3.99256C127.218 5.76555 130.684 9.27286 131.314 15.0609C131.931 20.7167 129.673 25.0428 124.846 28.0714C123.724 28.7758 122.515 29.3174 121.281 29.9266C121.447 30.2732 121.576 30.5714 121.728 30.8599C124.822 36.6882 128.245 42.3134 132.096 47.6791C132.93 48.8413 133.856 49.9228 134.888 50.9173C136.07 52.0568 137.374 53.0094 139.037 53.5864C138.881 54.4471 138.732 55.2804 138.562 56.2169C133.848 56.0058 129.139 55.9945 124.823 53.7621C122.566 52.5952 120.987 50.7206 119.644 48.6333C117.043 44.5893 114.937 40.2696 112.582 36.0886C111.069 33.4017 108.969 32.4056 105.931 32.9165C105.905 32.9713 105.853 33.0294 105.853 33.0874C105.879 37.8551 105.675 42.6261 105.955 47.389C106.156 50.7964 107.069 51.7361 110.488 52.3389C111.207 52.4662 111.936 52.5404 112.724 52.6484H112.729ZM105.84 29.5575C107.363 29.5575 108.731 29.6252 110.09 29.5462C115.685 29.2158 118.376 25.7262 119.351 21.903C120.051 19.1629 120.009 16.3826 119.337 13.6393C118.132 8.7329 114.538 5.99282 109.581 6.13304C106.538 6.22008 105.84 6.93089 105.84 9.95949C105.84 16.1521 105.84 22.3447 105.84 28.5389C105.84 28.8628 105.84 29.1852 105.84 29.5591V29.5575Z" fill="#2B793B"/>
<path d="M40.5 5.66225V2.9399C40.6571 2.90444 40.8125 2.83835 40.968 2.83997C49.4635 2.8996 57.9606 2.67395 66.4544 2.9673C68.5208 3.03822 70.5629 3.35252 72.5613 3.91505C79.6268 5.90241 83.7093 11.9467 83.1312 19.2369C82.4446 27.9101 76.6309 32.6085 68.984 34.3719C65.5022 35.1745 62.1225 34.957 58.7509 33.9189C58.4059 33.8126 58.0464 33.7594 57.5881 33.6594C57.5881 34.6346 57.5735 35.5211 57.5913 36.4076C57.6675 40.3775 57.3776 44.3554 57.7679 48.3189C58.0092 50.7624 58.9808 51.7762 61.4083 52.2227C62.6763 52.4564 63.9654 52.5805 65.2901 52.761V55.3996H40.0255V52.7562C41.0587 52.5982 42.1065 52.479 43.138 52.2743C45.4489 51.8165 46.3412 50.8672 46.6165 48.5671C46.7315 47.6161 46.8044 46.6539 46.8044 45.6965C46.8093 34.438 46.7995 23.1794 46.7898 11.9225C46.7898 10.8942 46.6797 9.87714 46.4497 8.87137C46.1485 7.5513 45.3323 6.73894 44.0498 6.33438C42.9065 5.97333 41.7016 5.92498 40.4984 5.66386L40.5 5.66225ZM57.5978 30.3149C63.2836 32.6263 68.4755 30.0683 70.375 24.8315C71.805 20.8923 71.9038 16.8466 70.7103 12.8413C69.3046 8.1251 65.018 5.46077 60.1873 6.12484C58.3849 6.37306 57.6173 7.12417 57.6108 8.92456C57.58 16.0343 57.5978 23.1456 57.5978 30.3149Z" fill="#2B793B"/>
<path d="M238.247 5.66876V2.919H258.633C258.733 3.83612 258.712 4.74357 258.644 5.6752C257.473 5.8251 256.349 5.94115 255.275 6.32315C253.279 7.03396 252.103 8.38466 251.763 10.4945C251.203 13.9712 251.07 17.4737 251.018 20.9842C250.944 26.0163 251.214 31.0532 250.806 36.0788C250.594 38.6932 250.155 41.2673 249.303 43.7559C246.932 50.6802 241.995 54.7178 234.89 56.1991C230.68 57.0775 226.46 56.8454 222.319 55.722C215.033 53.7443 210.928 48.8927 209.6 41.5896C209.137 39.0397 208.96 36.4689 208.942 33.8803C208.89 26.3628 209.078 18.8453 208.837 11.3294C208.829 11.0651 208.809 10.8008 208.785 10.5364C208.507 7.54491 207.483 6.45371 204.495 5.98467C203.741 5.86701 202.98 5.78964 202.155 5.68649V2.8916H226.565V5.65103C225.572 5.80737 224.558 5.92987 223.559 6.12973C221.404 6.5617 220.56 7.45142 220.15 9.59513C219.914 10.8378 219.865 12.0967 219.867 13.3523C219.881 20.6038 219.668 27.8586 219.985 35.1069C220.121 38.1984 220.702 41.2205 222.011 44.0589C224.15 48.7026 227.783 51.1187 232.944 51.1509C238.127 51.1831 242.084 49.12 244.427 44.3716C245.889 41.4091 246.569 38.229 246.727 34.9812C247.091 27.4395 247.229 19.8898 246.401 12.361C246.369 12.0644 246.32 11.7711 246.273 11.4761C245.669 7.80441 244.341 6.51012 240.595 5.95727C239.842 5.84605 239.085 5.76708 238.244 5.66392L238.247 5.66876Z" fill="#2B793B"/>
<path d="M347.53 3.8409C348.052 7.68991 348.572 11.5147 349.098 15.4024C348.139 15.6329 347.278 15.8425 346.353 16.0649C345.953 15.0607 345.6 14.0727 345.173 13.1169C343.926 10.3252 342.356 7.7705 339.599 6.18286C334.632 3.32028 328.642 5.5736 327.32 10.8233C326.548 13.8922 327.272 16.5887 329.612 18.8017C331.641 20.7198 334.078 22.0205 336.546 23.26C339.697 24.8428 342.846 26.4288 345.6 28.666C348.695 31.1789 350.939 34.2236 351.406 38.2821C352.207 45.2516 348.787 51.3378 342.254 54.4228C335.945 57.4014 329.429 57.2644 322.859 55.3593C321.71 55.0272 320.598 54.5743 319.474 54.1633C319.165 54.0505 318.872 53.8925 318.507 53.7265C317.328 49.2553 316.787 44.6633 316.18 40.0132C317.134 39.7102 318.039 39.4217 319.025 39.1074C319.293 39.8101 319.529 40.4855 319.803 41.1463C321.239 44.6053 323.09 47.7967 325.937 50.3208C328.013 52.1614 330.386 53.3252 333.238 53.3365C337.846 53.3542 341.038 50.3884 341.394 45.8125C341.629 42.7791 340.535 40.3195 338.339 38.2757C336.324 36.3995 333.965 35.0408 331.539 33.7836C328.7 32.3136 325.945 30.7276 323.398 28.7805C313.795 21.4403 316.749 7.72376 326.975 3.42989C332.219 1.22815 337.599 1.22815 343.05 2.4628C344.572 2.80773 346.073 3.23163 347.529 3.84412L347.53 3.8409Z" fill="#2B793B"/>
<path d="M31.3552 3.84256C31.8799 7.69479 32.3965 11.4938 32.918 15.3267C32.0208 15.72 31.101 15.8183 30.2038 16.044C29.6613 14.7594 29.1722 13.5005 28.6022 12.2804C27.7131 10.3736 26.5666 8.63609 24.9456 7.24993C22.9796 5.57042 20.68 4.79192 18.1116 5.00629C15.0898 5.25934 12.7934 6.72126 11.5934 9.54193C10.3854 12.3852 10.536 15.1784 12.4598 17.7106C13.7683 19.432 15.5707 20.5812 17.4104 21.6692C20.1294 23.2762 23.0654 24.4818 25.7617 26.1291C27.6969 27.3122 29.5334 28.6177 31.1528 30.2118C37.373 36.3367 36.2135 45.6756 31.0621 50.872C27.4961 54.4696 23.0492 56.1265 18.1019 56.5779C12.6428 57.0743 7.43154 56.0443 2.34009 53.7282C1.14496 49.3134 0.641322 44.7133 -0.00158691 40.0245C0.937676 39.7199 1.86884 39.4185 2.86316 39.0945C3.48178 40.824 4.13117 42.4793 4.9846 44.046C6.53924 46.8973 8.4032 49.4923 11.1222 51.3798C13.0056 52.6869 15.0784 53.3897 17.3974 53.3284C21.6857 53.2172 24.7269 50.4078 25.1836 46.1688C25.5026 43.2063 24.6233 40.6951 22.4954 38.5949C20.3869 36.5124 17.846 35.0714 15.2469 33.7175C11.9967 32.0251 8.79509 30.265 6.08095 27.7586C2.55224 24.5012 0.89881 20.5119 1.51257 15.7265C2.37248 9.03421 6.3352 4.86767 12.6121 2.76587C18.157 0.910673 25.4476 1.38132 31.3552 3.84256Z" fill="#2B793B"/>
<path d="M310.362 16.484C309.366 16.6887 308.41 16.6726 307.429 16.6791C306.956 14.956 306.472 13.2765 305.856 11.6325C304.588 8.25252 302.185 6.55205 298.567 6.53432C296.378 6.52465 294.19 6.53271 291.899 6.53271C291.899 6.92116 291.899 7.27576 291.899 7.63036C291.899 20.2154 291.895 32.802 291.903 45.3871C291.903 46.6104 291.934 47.8354 292.189 49.0443C292.496 50.5062 293.34 51.4507 294.789 51.8924C296.397 52.3823 298.073 52.4017 299.782 52.6515V55.4222H273.36V52.6596C274.438 52.5242 275.525 52.4098 276.605 52.2502C279.57 51.815 280.598 50.7335 280.828 47.7935C280.908 46.7716 280.955 45.7433 280.956 44.7198C280.964 32.3652 280.961 20.0123 280.961 7.65776C280.961 7.29994 280.961 6.94211 280.961 6.46179C277.602 6.51498 274.305 6.20551 271.094 7.17421C269.531 7.64648 268.534 8.77797 267.785 10.1657C266.788 12.0161 266.223 14.0228 265.635 16.0198C265.56 16.2713 265.565 16.5501 265.324 16.7645H262.479C262.817 11.4407 263.154 6.17489 263.492 0.860743H265.476C266.522 2.8336 268.49 2.84811 270.517 2.84327C281.149 2.82071 291.782 2.81426 302.414 2.84972C304.42 2.85617 306.192 2.48061 307.429 0.859131H309.448C309.664 6.08946 309.949 11.2731 310.363 16.484H310.362Z" fill="#2B793B"/>
<path d="M175.623 57.4757C165.535 59.3229 156.604 56.9728 148.951 50.1355C146.274 47.7436 144.227 44.852 142.668 41.6251C142.723 41.5784 142.778 41.5333 142.831 41.4865C143.605 42.4407 144.381 43.3949 145.157 44.3459C145.202 44.3523 145.246 44.362 145.262 44.3652H145.14C145.247 44.204 145.191 44.0542 145.11 43.9043C140.836 36.1305 141.338 28.3051 144.904 20.4717C147.361 15.0738 150.956 10.4672 155.084 6.24101C155.455 5.86224 155.814 5.47379 156.178 5.09018C156.423 4.88226 156.667 4.67594 157.1 4.31006C156.481 4.45835 156.198 4.65015 155.945 4.89837C155.318 5.1482 154.803 5.57533 154.285 5.98474C149.555 9.70641 145.868 14.2356 143.549 19.8076C143.309 20.3831 143.161 20.9955 142.907 21.7886C142.528 19.4305 142.548 17.261 142.901 15.1044C144.212 7.08077 149.204 2.1599 157.565 0.602891C159.989 0.151584 162.434 -0.0498929 164.901 0.0097442C164.914 0.101618 164.951 0.188655 164.925 0.216056C161.741 3.47837 160.403 7.5353 159.791 11.9146C159.516 13.8794 159.212 15.841 158.59 17.7381C157.338 21.5581 154.569 23.9484 151.067 25.6569C149.573 26.3855 148.015 26.9576 146.468 27.475C144.214 33.7805 148.98 46.9216 154.501 49.544C154.506 49.1136 154.217 48.8702 154.031 48.5882C149.466 41.6816 151.045 31.5964 157.461 26.7239C158.416 25.9986 159.44 25.3861 160.585 24.9928C160.692 25.009 160.799 25.0251 160.905 25.0412C157.314 27.9006 154.928 31.5046 154.293 36.0805C153.652 40.7096 154.719 44.8713 158.11 48.2884C158.515 48.6962 158.969 49.0056 159.49 49.2394C164.394 51.4363 169.422 51.728 174.57 50.2274C174.824 50.1532 175.08 50.0807 175.334 50.0082C175.741 50.3322 175.807 50.7754 175.793 51.2557C175.73 53.3285 175.942 55.4078 175.621 57.4741L175.623 57.4757ZM155.178 50.279C155.338 50.1146 155.166 50.063 155.076 49.984C154.964 49.818 154.896 49.5875 154.535 49.6778C154.643 49.8873 154.747 50.042 154.977 50.0888C154.995 50.2177 155.071 50.2741 155.2 50.2629C155.27 50.3402 155.338 50.4192 155.408 50.4966C155.459 50.6384 155.542 50.7013 155.691 50.6029C155.709 50.4095 155.582 50.3306 155.429 50.2741C155.344 50.2741 155.262 50.2774 155.178 50.2774V50.279Z" fill="#2B793B"/>
<path d="M175.623 57.4756C175.943 55.4108 175.731 53.33 175.794 51.2572C175.809 50.7769 175.743 50.3336 175.336 50.0096C178.313 48.7911 181.062 47.2228 183.368 44.9453C187.318 41.0431 189.308 36.2238 190 30.8323C191.768 17.0706 182.811 4.48882 170.177 0.369021C170.089 0.340009 170.011 0.285207 169.686 0.115967C171.909 0.144979 173.846 0.414152 175.754 0.855789C188.415 3.78607 197.478 14.2419 198.204 27.1525C198.782 37.4391 195.27 46.1348 186.947 52.5805C183.624 55.1529 179.82 56.8083 175.623 57.4739V57.4756Z" fill="#2B793B"/>
<path d="M90.3814 91.1641C90.5709 91.5912 90.5045 91.9378 90.43 92.3391H81.8049C81.5782 91.9861 81.6414 91.6106 81.7952 91.0964C84.5822 91.2431 84.7604 89.2138 84.9936 87.1845C85.5231 82.578 85.7499 77.9472 86.1369 73.3294C86.1725 72.9023 86.1693 72.4655 86.1223 72.04C85.9685 70.6264 85.4891 70.1493 84.064 69.9317C83.7045 69.8769 83.345 69.8173 83.0033 69.7641C82.7653 69.3885 82.843 69.0371 82.9207 68.6181H89.9879C92.4494 74.1031 94.94 79.6509 97.5003 85.3568C100.095 79.6832 102.623 74.1546 105.162 68.6003H112.075C112.29 68.9485 112.187 69.3031 112.159 69.6658C111.774 69.914 111.332 69.8817 110.914 69.943C109.578 70.1364 109.097 70.6006 109.048 71.9529C109.008 73.1086 109.084 74.2691 109.113 75.4264C109.214 79.464 109.316 83.5032 109.418 87.5408C109.423 87.739 109.424 87.9389 109.432 88.1371C109.525 90.3953 109.805 90.7128 112.03 91.1093C112.193 91.1383 112.354 91.1867 112.512 91.2237C112.744 91.5735 112.613 91.9297 112.608 92.3391H102.284C102.049 92.0168 102.148 91.6654 102.208 91.2528C102.383 91.2044 102.564 91.1415 102.752 91.1061C104.822 90.7176 105.128 90.4436 105.136 88.2951C105.152 84.2881 105.076 80.2828 105.044 76.2758C105.034 75.1588 105.044 74.0418 104.854 72.8781C102.078 79.2625 99.3011 85.6453 96.5384 91.999C96.1902 92.2102 95.8728 92.1973 95.4647 92.0393C92.9239 85.8306 90.3619 79.5736 87.8 73.3149C87.7482 73.3262 87.6964 73.3359 87.6446 73.3471C87.5069 76.0356 87.3223 78.7225 87.2429 81.4126C87.1717 83.8255 86.8705 86.2352 87.1215 88.6561C87.3012 90.3953 87.6948 90.8095 89.4421 91.0287C89.766 91.069 90.0899 91.1222 90.3814 91.1657V91.1641Z" fill="#6DBD48"/>
<path d="M194.089 68.6069C196.575 74.1516 199.048 79.6656 201.6 85.3553C204.197 79.6753 206.722 74.158 209.265 68.5989H216.222C216.396 68.9873 216.364 69.3355 216.235 69.7529C215.797 69.819 215.339 69.8819 214.884 69.9609C213.645 70.1752 213.193 70.6249 213.182 71.887C213.166 74.0049 213.206 76.1244 213.26 78.2424C213.342 81.4837 213.457 84.7251 213.553 87.9664C213.627 90.4776 213.771 90.6517 216.252 91.1385C216.382 91.1643 216.51 91.1997 216.644 91.232C216.835 91.5817 216.787 91.9266 216.681 92.3344H206.335C206.12 92.0024 206.27 91.6736 206.218 91.3673C206.541 91.0772 206.921 91.1014 207.269 91.0418C208.738 90.7919 209.185 90.3342 209.197 88.7643C209.222 85.1554 209.19 81.545 209.184 77.9361C209.18 76.2582 209.184 74.5819 208.965 72.8444C206.181 79.2449 203.397 85.6454 200.64 91.9863C200.299 92.2264 200.005 92.1588 199.587 92.0975C197.048 85.8952 194.487 79.6398 191.836 73.1651C191.516 75.0445 191.582 76.695 191.496 78.3326C191.325 81.6046 191.075 84.8766 191.179 88.1566C191.249 90.3841 191.598 90.7613 193.831 91.0514C194.058 91.0804 194.28 91.1465 194.491 91.1933C194.631 91.5849 194.568 91.9347 194.534 92.3393H185.906C185.676 92.0137 185.793 91.6559 185.812 91.2642C185.917 91.2126 186.026 91.1304 186.146 91.1046C188.377 90.6291 188.666 90.3455 188.965 88.0567C189.61 83.131 189.872 78.1714 190.21 73.2199C190.24 72.7912 190.232 72.3576 190.201 71.9305C190.115 70.7426 189.637 70.2107 188.455 69.977C188 69.8867 187.537 69.8351 187.101 69.769C186.878 69.3822 187.004 69.0228 186.991 68.6069H194.087H194.089Z" fill="#6DBD48"/>
<path d="M58.6214 69.7045V68.6197C58.806 68.5923 58.9647 68.5488 59.1234 68.5488C62.6877 68.5521 66.2521 68.5488 69.818 68.5714C71.0213 68.5795 72.2099 68.7487 73.3532 69.1388C77.5912 70.5845 78.7572 75.9986 75.4989 79.0675C74.7151 79.8057 73.7759 80.3006 72.6714 80.8566C75.1249 84.6976 76.8593 89.0011 81.0276 91.7847C81.094 91.9411 80.9888 92.2747 80.809 92.6632C77.5313 92.7421 74.4933 92.3086 72.6391 89.1139C71.6091 87.3377 70.5565 85.5744 69.5217 83.8014C68.6375 82.2847 67.9055 81.9349 65.9395 82.1848C65.967 84.6041 65.8245 87.0395 66.0318 89.4734C66.1047 90.3373 66.7039 90.808 67.5395 90.9708C68.0253 91.0659 68.5176 91.1352 68.9905 91.2125C69.1282 91.6187 69.1508 91.9669 68.9581 92.3408H58.5274C58.3606 91.9765 58.4108 91.6558 58.4708 91.3076C58.9112 91.0481 59.423 91.09 59.9007 90.9917C61.0408 90.758 61.5039 90.2728 61.6027 89.1139C61.6578 88.4563 61.6481 87.7907 61.6481 87.1298C61.6513 82.5942 61.6481 78.0585 61.6497 73.5229C61.6497 71.4587 60.6402 70.1854 58.6214 69.7029V69.7045ZM65.9509 80.689C67.0002 80.6922 67.9217 80.7422 68.8448 80.5681C70.9322 80.1764 72.0901 78.8483 72.5403 76.8755C72.7767 75.8391 72.7524 74.7608 72.5467 73.7147C72.0285 71.0874 69.7937 69.5433 67.1881 69.9817C66.5258 70.0929 65.9492 70.3009 65.9492 71.1342C65.9525 74.274 65.9492 77.4154 65.9492 80.689H65.9509Z" fill="#6DBD48"/>
<path d="M259.07 80.8695C261.614 84.7427 263.321 89.0639 267.415 91.7637C267.415 91.7718 267.426 91.9314 267.411 92.0893C267.395 92.2505 267.353 92.4101 267.324 92.5583C264.496 93.2127 261.083 91.9604 259.439 89.6474C258.169 87.8615 257.096 85.9499 256.093 84.0109C255.314 82.5055 254.192 81.8688 252.48 82.1396C252.234 82.7843 252.382 83.4806 252.37 84.1592C252.346 85.5824 252.346 87.0073 252.372 88.4305C252.406 90.376 252.762 90.7612 254.704 91.0787C254.932 91.1158 255.159 91.1657 255.324 91.198C255.567 91.3866 255.52 91.5977 255.522 91.7895C255.522 91.9491 255.496 92.1103 255.476 92.3295H244.973C244.739 92.0071 244.837 91.6573 244.908 91.2479C245.22 91.1835 245.538 91.1045 245.858 91.0545C247.562 90.7918 248.032 90.3743 248.045 88.6868C248.084 83.1905 248.082 77.6942 248.048 72.1979C248.038 70.5216 247.624 70.1509 245.944 69.893C245.653 69.8479 245.366 69.7754 245.049 69.7109C245.049 69.3563 245.049 69.0307 245.049 68.7067C245.19 68.5117 245.402 68.5455 245.595 68.5472C249.161 68.552 252.725 68.552 256.291 68.5713C257.259 68.5762 258.22 68.7116 259.156 68.955C261.424 69.5433 263.037 70.8617 263.575 73.1972C264.153 75.7036 263.484 77.8441 261.426 79.4914C260.751 80.0313 259.975 80.4085 259.065 80.8695H259.07ZM252.364 80.6728C253.389 80.7099 254.309 80.7373 255.228 80.5761C257.178 80.2328 258.357 79.0562 258.88 77.2026C259.277 75.7971 259.232 74.3803 258.777 72.9958C258.046 70.7699 255.773 69.5159 253.463 69.9994C252.683 70.1638 252.344 70.5845 252.357 71.384C252.385 73.2053 252.364 75.0267 252.364 76.848C252.364 78.0972 252.364 79.3463 252.364 80.6728Z" fill="#6DBD48"/>
<path d="M143.655 82.1718C143.72 84.6202 143.526 87.0282 143.787 89.4346C143.88 90.305 144.433 90.787 145.262 90.9659C145.746 91.0706 146.242 91.1319 146.729 91.2125C146.893 91.5977 146.833 91.9458 146.773 92.3424H136.298C136.145 91.9765 136.196 91.6541 136.25 91.2367C136.642 91.169 137.055 91.0948 137.469 91.0271C138.807 90.8063 139.377 90.276 139.385 88.9156C139.419 83.255 139.419 77.5927 139.383 71.932C139.375 70.5974 138.847 70.1284 137.515 69.922C137.158 69.8672 136.804 69.7979 136.465 69.7383C136.302 69.3386 136.374 68.9904 136.421 68.5456C137.455 68.5456 138.447 68.5262 139.438 68.5488C142.799 68.6278 146.172 68.3086 149.521 68.7631C153.926 69.3611 156.233 73.1569 154.637 77.0978C154.06 78.5211 152.975 79.4672 151.676 80.2086C151.309 80.4182 150.931 80.61 150.425 80.8808C152.938 84.7394 154.653 89.0768 158.782 91.7895C158.826 92.0119 158.753 92.352 158.501 92.697C157.19 92.655 155.866 92.6228 154.561 92.3101C152.846 91.8991 151.547 90.9159 150.637 89.4508C149.519 87.6504 148.391 85.85 147.406 83.9754C146.611 82.4603 145.48 81.8688 143.654 82.1702L143.655 82.1718ZM143.791 80.6616C144.533 80.6616 145.265 80.7083 145.989 80.6535C148.285 80.4746 149.816 79.1577 150.285 76.9125C150.588 75.4667 150.549 74.0144 149.974 72.625C149.004 70.2766 146.012 69.1903 143.791 70.4878V80.6616Z" fill="#6DBD48"/>
<path d="M268.823 69.7237C268.733 69.3014 268.718 68.9775 268.845 68.6019H279.003C279.275 68.9259 279.082 69.2885 279.138 69.6028C278.81 69.8688 278.466 69.8527 278.146 69.9026C276.647 70.138 276.2 70.5441 276.172 72.0125C276.125 74.4899 276.159 76.9672 276.159 79.451C276.684 79.6187 277.042 79.3108 277.353 79.0577C280.179 76.7577 282.555 74.0369 284.736 71.1421C284.867 70.9681 284.903 70.7247 284.976 70.5361C284.456 69.7189 283.529 70.0622 282.869 69.6883V68.5955H292.001C292.261 68.913 292.14 69.2724 292.106 69.6834C291.963 69.7286 291.816 69.8092 291.664 69.8188C289.141 69.9865 287.24 71.3081 285.544 73.036C283.874 74.7381 282.187 76.424 280.49 78.1358C282.75 81.3787 285.172 84.3671 287.594 87.3521C288.075 87.9437 288.579 88.5175 289.079 89.0945C290.039 90.2018 291.194 90.9997 292.647 91.2028C292.78 91.6057 292.77 91.9281 292.673 92.3246H285.863C283.181 89.0252 280.639 85.5437 278.033 82.1105C277.586 81.5206 277.185 80.8178 276.227 80.8678C276.009 81.4271 276.119 81.9912 276.117 82.5393C276.111 84.525 276.101 86.5124 276.148 88.4981C276.193 90.4178 276.548 90.7772 278.44 91.069C278.7 91.1093 278.959 91.1689 279.212 91.2173C279.424 91.5831 279.374 91.9281 279.264 92.3359H268.932C268.76 91.9845 268.82 91.6621 268.867 91.3398C269.066 91.1044 269.356 91.1351 269.606 91.0915C271.487 90.7547 271.852 90.4081 271.863 88.4836C271.896 83.1534 271.894 77.8215 271.868 72.4912C271.858 70.499 271.526 70.1847 269.543 69.8688C269.314 69.8317 269.089 69.7785 268.827 69.7253L268.823 69.7237Z" fill="#6DBD48"/>
<path d="M122.656 79.2399C124.32 79.2479 125.976 79.364 127.625 79.0916C128.4 78.9643 128.843 78.4662 129.045 77.7312C129.149 77.3508 129.262 76.9737 129.366 76.611C129.746 76.4144 130.109 76.5046 130.543 76.532V83.6707C130.213 83.898 129.827 83.8077 129.456 83.7352C129.403 83.6643 129.336 83.6159 129.327 83.5579C128.873 81.0258 128.098 81.0451 125.851 81.0177C124.792 81.0048 123.735 81.0161 122.549 81.0161C122.587 83.8142 122.439 86.5172 122.645 89.2186C122.71 90.0745 123.277 90.6096 124.137 90.716C125.86 90.9303 127.587 90.969 129.309 90.6789C130.326 90.5064 131.051 89.9149 131.63 89.0929C132.242 88.2209 132.658 87.249 133.105 86.3012C133.537 86.1545 133.911 86.2706 134.362 86.4495C134.073 88.4224 133.621 90.3678 133.111 92.3439H114.775C114.512 92.0199 114.694 91.6621 114.65 91.3236C115.225 91.0383 115.801 91.0802 116.35 90.9932C117.408 90.8272 118.031 90.2518 118.124 89.1686C118.158 88.7737 118.18 88.3756 118.18 87.9791C118.184 82.9454 118.182 77.9117 118.182 72.878C118.182 72.712 118.179 72.5476 118.174 72.3816C118.109 70.5183 117.774 70.1444 115.949 69.8752C115.719 69.8414 115.494 69.7834 115.267 69.7366C115.129 69.3675 115.15 69.0145 115.254 68.6035H132.161C132.289 70.383 132.413 72.1205 132.536 73.8387C132.172 74.1756 131.766 74.1062 131.328 74.1207C131.063 73.4212 130.83 72.704 130.522 72.0206C130.188 71.2807 129.704 70.6602 128.881 70.3797C127.897 70.0429 123.774 69.9784 122.652 70.3314V79.2399H122.656Z" fill="#6DBD48"/>
<path d="M301.654 79.2658C303.445 79.2207 305.098 79.3706 306.749 79.103C307.573 78.9692 308.031 78.4647 308.237 77.6911C308.329 77.3413 308.421 76.9915 308.517 76.6337C308.888 76.3807 309.285 76.5096 309.74 76.5354V83.6709C309.385 83.882 309.003 83.8192 308.634 83.7273C308.577 83.6564 308.514 83.6096 308.499 83.5532C307.944 81.2741 307.68 81.0549 305.324 81.0195C304.161 81.0017 303 81.0162 301.945 81.0162C301.675 81.1887 301.67 81.3563 301.672 81.5207C301.694 83.903 301.591 86.2869 301.761 88.6675C301.866 90.1488 302.362 90.7 303.842 90.7951C304.97 90.8676 306.106 90.8306 307.238 90.8402C309.043 90.8547 310.363 90.0601 311.2 88.4757C311.584 87.7488 311.952 87.0106 312.329 86.2691C312.739 86.1869 313.119 86.245 313.536 86.4787C313.242 88.4193 312.799 90.339 312.305 92.3183H293.921C293.741 91.9846 293.803 91.6365 293.895 91.219C294.439 91.1416 294.995 91.0756 295.545 90.9837C296.538 90.8193 297.201 90.3164 297.272 89.2445C297.309 88.6836 297.372 88.1243 297.374 87.5634C297.382 82.8295 297.379 78.0956 297.379 73.3617C297.379 73.1957 297.38 73.0313 297.379 72.8653C297.315 70.0446 296.716 69.9898 294.83 69.8077C294.702 69.7948 294.577 69.7481 294.454 69.7174C294.307 69.3451 294.323 68.9969 294.449 68.6021H311.348C311.471 70.3912 311.591 72.1287 311.709 73.8469C311.34 74.1789 310.935 74.1048 310.52 74.1209C310.214 73.3585 309.936 72.5881 309.597 71.8434C309.288 71.16 308.817 70.5749 308.054 70.3847C306.025 69.8786 303.976 70.1575 301.805 70.1252C301.536 73.2457 301.737 76.2001 301.656 79.2658H301.654Z" fill="#6DBD48"/>
<path d="M230.15 68.4441C230.68 68.2958 231.157 68.162 231.637 68.0266C232.019 68.328 232.064 68.7777 232.21 69.171C234.404 75.1299 236.592 81.0904 238.782 87.0508C238.861 87.2684 238.94 87.486 239.018 87.7036C239.677 89.5234 240.498 91.1755 242.778 91.161C242.994 91.5945 242.971 91.9379 242.832 92.3392H232.984C232.787 91.9733 232.84 91.6252 232.939 91.2657C233.595 90.9079 234.508 91.0997 235.047 90.1761C234.785 88.1888 233.799 86.3062 233.138 84.3011H225.834C225.177 85.9822 224.549 87.6794 224.131 89.4508C223.964 90.16 224.243 90.6194 224.916 90.8289C225.451 90.995 226.003 91.1045 226.532 91.2351C226.66 91.5945 226.628 91.9201 226.558 92.3215H218.55C218.38 91.9814 218.442 91.659 218.489 91.3447C218.547 91.2915 218.591 91.2142 218.641 91.2109C220.804 91.0433 221.724 89.583 222.432 87.7778C224.86 81.59 227.345 75.4232 229.81 69.25C229.907 69.0066 230.014 68.7648 230.15 68.4457V68.4441ZM226.445 82.3766H232.464C231.496 79.5736 230.558 76.8593 229.535 73.9001C228.448 76.8819 227.459 79.5978 226.445 82.3766Z" fill="#6DBD48"/>
<path d="M56.4108 91.153C56.5177 91.6526 56.5517 91.9734 56.3687 92.3393H46.5567C46.3623 91.9927 46.4385 91.6687 46.4806 91.2884C47.1089 90.8822 48.0967 91.1288 48.6263 90.1504C48.338 88.1824 47.368 86.2966 46.7105 84.2995H39.4069C38.7446 85.9887 38.1276 87.6956 37.6871 89.4606C37.509 90.1714 37.8313 90.6227 38.4952 90.829C39.0296 90.995 39.5835 91.103 40.1551 91.2432V92.3183H32.1277C31.943 91.9831 32.0661 91.6559 32.037 91.3673C32.1212 91.2916 32.1649 91.2142 32.2135 91.211C34.4224 91.0305 35.3228 89.5154 36.0418 87.6827C38.5535 81.2806 41.1284 74.9027 43.7033 68.4538C44.1956 68.3136 44.7008 68.1701 45.3324 67.9912C45.8198 69.2919 46.3073 70.5782 46.7818 71.8692C48.7105 77.1141 50.636 82.3621 52.5631 87.607C52.6084 87.7311 52.6554 87.8552 52.7008 87.9793C53.3275 89.7362 54.236 91.1788 56.4108 91.153ZM40.0094 82.3847H46.0352C45.0701 79.5882 44.1308 76.8675 43.1089 73.9082C42.0239 76.8771 41.0312 79.593 40.0094 82.3847Z" fill="#6DBD48"/>
<path d="M26.3448 91.2157C26.4176 91.6542 26.4533 91.9765 26.3091 92.3424H15.5384C15.2971 92.0168 15.4169 91.6622 15.4525 91.2431C15.6987 91.19 15.9497 91.1271 16.2023 91.0852C18.1133 90.766 18.4971 90.463 18.5181 88.524C18.5764 83.1277 18.5748 77.7281 18.5213 72.3317C18.5035 70.4749 18.1181 70.1751 16.2331 69.8689C16.0064 69.8318 15.7829 69.769 15.527 69.7125C15.5044 69.5014 15.472 69.308 15.4687 69.1162C15.4671 68.9582 15.5011 68.8003 15.5238 68.5972H32.4872C32.62 70.4121 32.7496 72.1851 32.8791 73.9758C32.539 74.2337 32.1407 74.2208 31.7488 74.2627C31.42 73.4552 31.135 72.6477 30.7674 71.8788C30.3447 70.9939 29.6403 70.3943 28.6395 70.2477C26.8209 69.9801 24.9974 70.1139 22.9051 70.1445C22.7335 73.2988 22.8679 76.3758 22.8193 79.5543C24.7496 79.5511 26.5731 79.6494 28.3885 79.4253C29.1383 79.3318 29.65 78.8596 29.8589 78.1117C29.9642 77.7329 30.0727 77.3558 30.1747 76.9931C30.5731 76.8577 30.9277 76.8738 31.3407 76.9818V84.0238C30.9876 84.1834 30.633 84.0948 30.2913 84.0964C30.2119 83.9803 30.1326 83.9078 30.1083 83.8207C29.4994 81.569 29.203 81.3337 26.7869 81.3015C25.4978 81.2837 24.2087 81.2983 22.8047 81.2983C22.9019 84.0609 22.6606 86.7317 22.9666 89.4008C23.0735 90.3292 23.6695 90.7918 24.5326 90.9579C25.1189 91.0707 25.7148 91.1303 26.3415 91.219L26.3448 91.2157Z" fill="#6DBD48"/>
<path d="M316.127 74.5979C315.761 74.714 315.434 74.6898 314.98 74.6044C314.94 72.3188 315.255 70.0381 315.336 67.7783C315.767 67.5156 316.114 67.5414 316.379 67.8686C316.878 68.4843 317.549 68.5504 318.271 68.5504C323.103 68.5439 327.937 68.5407 332.769 68.5536C333.535 68.5552 334.225 68.4295 334.782 67.8686C335.075 67.5736 335.412 67.5349 335.854 67.7284C335.973 69.9365 336.092 72.1705 336.212 74.4045C335.848 74.6285 335.488 74.5802 335.067 74.5834C334.794 73.7872 334.525 72.9813 334.238 72.1802C333.757 70.8327 332.76 70.1783 331.351 70.1445C330.195 70.1171 329.035 70.1396 327.905 70.1396C327.676 70.5039 327.765 70.844 327.765 71.1631C327.759 76.7271 327.761 82.2927 327.762 87.8567C327.762 88.2532 327.762 88.6529 327.799 89.0478C327.903 90.197 328.344 90.708 329.485 90.9481C330.096 91.0771 330.722 91.1335 331.317 91.2189C331.461 91.6058 331.419 91.9297 331.356 92.3262H320.008C319.772 91.9942 319.918 91.6412 319.919 91.2189C320.345 91.1561 320.734 91.0932 321.124 91.0448C322.868 90.8273 323.374 90.3018 323.406 88.5369C323.442 86.5173 323.43 84.4961 323.432 82.4765C323.435 78.4066 323.432 74.3352 323.432 70.1477C321.761 70.1074 320.143 69.9494 318.557 70.4056C317.719 70.6474 317.288 71.3501 316.991 72.1044C316.666 72.9297 316.405 73.7791 316.123 74.6011L316.127 74.5979Z" fill="#6DBD48"/>
<path d="M359.801 6.3908C359.807 6.89368 359.812 7.39657 359.819 7.89945C359.592 7.91073 359.365 7.92202 359.069 7.93652C358.993 6.86628 358.92 5.83794 358.847 4.80961C358.798 4.80638 358.751 4.80316 358.703 4.79994C358.376 5.78959 358.049 6.77924 357.733 7.73505C357.432 7.98166 357.137 7.87044 356.763 7.86077C356.447 6.86628 356.131 5.8734 355.815 4.88053C355.764 4.88053 355.712 4.88053 355.662 4.87891C355.602 5.85567 355.543 6.83404 355.487 7.76567C355.208 8.02356 354.96 7.9607 354.619 7.85916C354.721 6.47139 354.823 5.07072 354.928 3.63943H356.251C356.593 4.60007 356.931 5.55104 357.294 6.57132C357.649 5.55749 357.974 4.62908 358.291 3.72002C358.721 3.53144 359.108 3.58624 359.603 3.66522C359.668 4.56783 359.734 5.47851 359.801 6.3908Z" fill="#2B793B"/>
<path d="M354.232 3.64917C354.442 3.8313 354.374 4.02795 354.342 4.22942C353.964 4.50182 353.501 4.24393 353.019 4.44379V7.77541C352.703 8.02041 352.454 7.95432 352.112 7.856V4.50504C351.658 4.24071 351.242 4.43735 350.865 4.31807C350.643 4.12627 350.739 3.9119 350.8 3.64917H354.23H354.232Z" fill="#2B793B"/>
<path d="M142.395 40.916C142.153 40.8757 142.174 40.6952 142.172 40.5066C142.392 40.5904 142.446 40.7322 142.383 40.9305L142.395 40.9144V40.916Z" fill="#6DBD48"/>
<path d="M160.904 25.0445C160.797 25.0283 160.69 25.0122 160.583 24.9961C160.76 24.8075 160.956 24.7028 161.213 24.8414L161.199 24.8317C161.161 24.9848 161.054 25.0445 160.904 25.0445Z" fill="#6DBD48"/>
<path d="M142.383 40.9319C142.617 40.8868 142.601 41.1108 142.695 41.2188C142.656 41.2559 142.621 41.2962 142.585 41.3348C142.379 41.2591 142.384 41.0882 142.395 40.9158L142.383 40.9319Z" fill="#2B793B"/>
<path d="M142.668 41.6252C142.64 41.5285 142.612 41.4318 142.585 41.335C142.621 41.2948 142.656 41.2561 142.695 41.219C142.74 41.3093 142.786 41.3979 142.831 41.4882C142.776 41.5349 142.721 41.58 142.668 41.6268V41.6252Z" fill="#2B793B"/>
<path d="M161.213 24.8412C161.223 24.801 161.234 24.7607 161.228 24.7816C161.239 24.7623 161.218 24.7977 161.197 24.8316L161.211 24.8412H161.213Z" fill="#6DBD48"/>
<path d="M155.429 50.2756C155.584 50.332 155.709 50.411 155.691 50.6044C155.542 50.7011 155.459 50.6399 155.408 50.4965C155.414 50.4223 155.422 50.3498 155.429 50.2756Z" fill="#6DBD48"/>
</g>
<defs>
<clipPath id="clip0_2722_16848">
<rect width="360" height="93" fill="white"/>
</clipPath>
</defs>
</svg>
