<svg width="360" height="75" viewBox="0 0 360 75" fill="none" xmlns="http://www.w3.org/2000/svg">
<g clip-path="url(#clip0_2722_16672)">
<path d="M12.7492 52.4692V73.1912H0.238658C-0.109205 72.8483 0.0249486 72.4123 0.0249486 72.0213C0.0187089 57.3394 -0.0249689 42.6574 0.0343081 27.9755C0.0904652 14.5099 9.93356 3.39648 23.3146 1.38727C38.7359 -0.927583 51.7753 9.24412 54.8203 22.6305C58.2552 37.7267 48.1532 53.051 32.8207 55.7724C26.1427 56.9577 19.7954 56.0222 13.8256 52.7531C13.5682 52.6119 13.3404 52.3513 12.7492 52.4707V52.4692ZM42.2801 28.6628C42.2785 20.6431 35.7846 14.1748 27.7291 14.1655C19.669 14.1578 13.147 20.6151 13.1314 28.6178C13.1158 36.6546 19.5474 43.1384 27.6059 43.2144C35.6863 43.2889 42.2832 36.7493 42.2816 28.6628H42.2801Z" fill="#409130"/>
<path d="M144.383 3.08447H156.937C156.937 10.2742 156.892 17.4266 156.862 24.6458C157.611 24.6086 158.015 24.1664 158.485 23.8871C162.946 21.2278 167.707 19.6546 172.97 19.788C186.074 20.1216 197.416 30.0233 199.455 42.9273C201.826 57.9428 191.965 72.0026 176.987 74.5424C165.999 76.4057 157.047 72.5161 150.188 63.9192C146.224 58.9512 144.208 53.1827 144.193 46.8138C144.16 32.6438 144.19 18.4739 144.198 4.30396C144.198 3.94866 144.135 3.58251 144.383 3.08447ZM171.902 61.9969C180.051 62.0217 186.607 55.5752 186.632 47.5135C186.657 39.4364 180.137 32.8688 172.056 32.8316C163.987 32.7928 157.332 39.3495 157.309 47.3615C157.285 55.4448 163.795 61.9736 171.902 61.9984V61.9969Z" fill="#409130"/>
<path d="M75.7653 21.1782H87.538C87.7845 21.7492 87.7003 22.3217 87.7003 22.8678C87.7003 32.0683 87.6971 41.2703 87.6753 50.4707C87.6722 51.9881 87.8812 53.4574 88.4038 54.8801C91.1383 62.315 100.175 64.8781 106.335 59.9474C108.625 58.115 109.949 55.7164 110.236 52.7918C110.316 51.971 110.328 51.141 110.328 50.314C110.319 41.216 110.3 32.1179 110.293 23.0214C110.293 22.4613 110.191 21.8888 110.431 21.2279H122.335C122.702 21.5475 122.561 21.9881 122.56 22.3806C122.546 31.9426 122.501 41.5061 122.53 51.0681C122.569 63.3979 113.129 72.9925 101.64 74.3004C88.2868 75.8209 78.4546 66.4435 76.1834 55.839C75.8246 54.168 75.6093 52.4753 75.6062 50.7655C75.5953 41.306 75.5922 31.8464 75.5906 22.3868C75.5906 22.03 75.5267 21.6638 75.7669 21.1798L75.7653 21.1782Z" fill="#409130"/>
<path d="M316.079 34.6281C318.444 29.9782 320.642 25.6557 322.846 21.3208H336.553C334.47 25.7659 332.235 29.9891 330.09 34.2542C327.953 38.5022 325.778 42.7316 323.554 47.1007C328.77 55.7519 334.016 64.4497 339.37 73.329H326.136C323.29 68.7272 320.411 64.068 317.381 59.1668C314.687 63.9485 312.435 68.7427 309.703 73.3414H296.446C300.954 64.4838 305.403 55.7457 309.884 46.944C304.71 38.4743 299.541 30.0108 294.268 21.3782H308.055C310.635 25.6387 313.277 30.0015 316.08 34.6297L316.079 34.6281Z" fill="#409130"/>
<path d="M234.858 73.1057H222.284V3.31261C223.334 2.99145 232.907 2.91543 234.858 3.23038V73.1073V73.1057Z" fill="#409130"/>
<path d="M260.828 73.1133V21.2168H273.272C273.574 22.3618 273.624 71.5648 273.317 73.1133H260.828Z" fill="#409130"/>
<path d="M275.552 7.77928C275.577 12.153 272.058 15.6873 267.685 15.6765C263.375 15.6656 259.872 12.1949 259.845 7.90495C259.817 3.53745 263.344 -0.0061979 267.713 8.13911e-06C272.013 0.00466267 275.527 3.49246 275.552 7.77928Z" fill="#409130"/>
<path d="M354.564 73.5169C351.478 73.551 349.066 71.2781 348.984 68.2573C348.9 65.2039 351.332 62.7836 354.49 62.7774C357.565 62.7712 359.98 65.1077 359.998 68.1052C360.017 71.0997 357.623 73.4828 354.564 73.5154V73.5169ZM356.955 71.2672C357.29 71.6753 357.492 71.2983 357.666 71.1121C358.936 69.756 359.131 67.4427 358.133 65.7811C357.148 64.1427 355.156 63.3638 353.285 63.8898C351.5 64.3894 350.172 66.1255 350.191 68.0758C350.207 69.7173 350.837 71.1043 352.317 71.9592C353.724 72.7722 355.181 72.766 356.607 71.9856C356.854 71.8506 357.368 71.7358 356.986 71.2362L356.955 71.2688V71.2672Z" fill="#409130"/>
<path d="M356.988 71.2359C356.679 71.2204 356.372 71.2064 356.136 71.194C355.125 70.4368 355.174 68.8078 353.695 68.485C353.185 69.3896 353.692 70.3329 353.302 71.1055C353.019 71.2452 352.771 71.2498 352.439 71.0683V65.1617C353.406 64.9755 354.381 65.0221 355.342 65.1074C356.106 65.1757 356.757 65.5201 356.918 66.3657C357.077 67.1973 356.891 67.9079 356.071 68.3392C355.901 68.4276 355.677 68.4556 355.601 68.7007C355.857 69.6471 356.751 70.2817 356.958 71.27L356.989 71.2374L356.988 71.2359ZM355.514 66.06C354.863 65.8894 354.222 65.9126 353.484 66.0104C353.501 66.617 353.289 67.1538 353.651 67.6658C354.392 67.7962 355.085 67.8148 355.687 67.4083C356.046 66.9459 356.041 66.541 355.515 66.06H355.514Z" fill="#409130"/>
</g>
<defs>
<clipPath id="clip0_2722_16672">
<rect width="360" height="75" fill="white"/>
</clipPath>
</defs>
</svg>
