<svg width="360" height="90" viewBox="0 0 360 90" fill="none" xmlns="http://www.w3.org/2000/svg">
<g clip-path="url(#clip0_2772_15475)">
<path d="M209.927 53.6835C208.314 62.8353 205.668 71.7117 203.528 80.7041C203.146 82.3122 203.118 82.2828 201.458 82.4933C199.305 82.7642 197.153 83.0536 195.009 83.3879C194.314 83.4962 194.026 83.3399 193.844 82.6264C192.075 75.7049 190.257 68.7942 188.475 61.8757C188.04 60.1902 187.792 58.4661 187.377 56.7403C187.302 57.6906 187.212 58.6394 187.153 59.5897C186.837 64.7019 186.282 69.794 185.789 74.8908C185.5 77.8624 185.211 80.8326 184.958 83.8073C184.903 84.4512 184.767 84.7685 184.009 84.8644C179.626 85.4123 175.252 86.0407 170.873 86.632C169.96 86.7558 169.938 86.7341 170.067 85.8581C170.969 79.6996 171.882 73.5427 172.788 67.3842C173.637 61.608 174.485 55.8318 175.329 50.054C175.963 45.7281 176.595 41.4021 177.213 37.0731C177.275 36.6366 177.461 36.4834 177.899 36.4246C182.767 35.7838 187.632 35.126 192.495 34.4543C192.884 34.4001 193.043 34.493 193.131 34.8737C194.912 42.4531 197.238 49.9055 198.409 57.6256C198.505 58.2618 198.555 58.9041 198.633 59.5417C198.659 59.7569 198.594 60.0107 198.921 60.2104C199.109 58.9211 199.275 57.6798 199.473 56.4447C200.32 51.105 201.705 45.886 203.053 40.6577C203.67 38.2679 204.286 35.8798 204.879 33.4838C205.003 32.9824 205.18 32.7425 205.77 32.6666C210.537 32.0553 215.298 31.3959 220.057 30.7258C220.656 30.6406 220.776 30.8341 220.85 31.3897C221.846 38.8607 222.874 46.3271 223.886 53.7949C224.74 60.0912 225.581 66.389 226.431 72.6852C226.685 74.5719 226.929 76.4602 227.21 78.3422C227.291 78.8793 227.13 79.0325 226.592 79.1022C222.159 79.6826 217.731 80.2862 213.306 80.9146C212.599 81.0152 212.34 80.8945 212.273 80.1036C211.814 74.719 211.272 69.3421 210.797 63.959C210.525 60.8821 210.331 57.8005 210.096 54.7205C210.07 54.3784 210.149 54.0085 209.927 53.6835Z" fill="#0168B3"/>
<path d="M324.86 79.5883C321.209 79.449 317.616 79.3113 314.024 79.1735C311.516 79.0776 309.009 78.9646 306.501 78.8965C305.891 78.8795 305.549 78.6891 305.257 78.1195C302.804 73.306 300.311 68.5111 297.828 63.7131C297.7 63.467 297.562 63.2255 297.416 62.9578C297.174 63.176 297.286 63.4175 297.284 63.6218C297.261 68.3083 297.236 72.9965 297.245 77.6831C297.245 78.2913 297.155 78.5188 296.463 78.4879C291.243 78.2495 286.021 78.0452 280.798 77.8657C280.194 77.8456 280.296 77.5128 280.298 77.1661C280.322 69.3113 280.346 61.4565 280.372 53.6001C280.399 45.9774 280.436 38.3532 280.44 30.7306C280.44 30.0774 280.549 29.8685 281.274 29.8994C288.356 30.2043 295.441 30.4349 302.523 30.7507C306.664 30.9349 310.698 31.6484 314.327 33.809C318.661 36.3891 320.921 40.2693 321.454 45.2144C321.741 47.8843 321.64 50.5232 320.664 53.0506C319.289 56.6058 316.802 58.9027 312.917 59.4692C312.147 59.5806 312.434 59.8716 312.672 60.243C316.606 66.4108 320.539 72.5786 324.466 78.751C324.612 78.9801 324.833 79.1813 324.859 79.593L324.86 79.5883ZM297.37 47.519H297.346C297.346 48.9089 297.359 50.3003 297.339 51.6902C297.332 52.1019 297.429 52.3046 297.887 52.3015C298.972 52.2953 300.062 52.3851 301.144 52.3263C302.456 52.2551 303.616 51.7768 304.41 50.6609C306.307 47.9926 304.832 44.0025 301.66 43.2271C300.393 42.9175 299.093 42.9702 297.803 42.9067C297.363 42.885 297.365 43.1141 297.367 43.4252C297.374 44.7903 297.37 46.1539 297.37 47.519Z" fill="#0168B3"/>
<path d="M1.4487 54.1061C1.89433 46.2668 2.34151 38.4274 2.78714 30.5896C2.83838 29.6904 2.90514 28.7911 2.92999 27.8903C2.94086 27.4554 3.04799 27.344 3.51536 27.4276C7.58347 28.1535 11.6625 28.8252 15.729 29.5573C19.6931 30.2708 23.696 30.7846 27.6011 31.8015C30.337 32.5135 32.9502 33.5303 35.3615 35.027C39.1113 37.3533 41.6128 40.633 42.7028 44.8815C44.0878 50.2847 43.9698 55.7034 42.2773 61.0245C40.6097 66.2652 36.8118 69.0248 31.2919 69.3684C27.6601 69.5944 24.1308 68.9815 20.5921 68.3516C20.0828 68.2618 19.5502 68.2448 19.0689 68.0761C18.2646 67.7959 18.1388 68.1364 18.1047 68.8422C17.8935 73.1109 17.6373 77.3765 17.4153 81.6436C17.3081 83.699 17.3345 83.6727 15.33 83.3183C10.4467 82.4547 5.56029 81.6127 0.670787 80.7846C0.175471 80.7011 -0.0279343 80.5664 0.00467274 80.0154C0.372666 73.7702 0.715816 67.5251 1.06362 61.2784C1.19716 58.8871 1.32293 56.4974 1.45336 54.1061H1.45025H1.4487ZM19.249 49.955C19.19 50.9394 19.1155 52.2209 19.0316 53.5025C19.013 53.7935 18.9618 54.0767 19.3748 54.134C20.8017 54.3305 22.2007 54.7546 23.6634 54.6525C25.4226 54.5317 26.5685 53.5334 26.9334 51.8046C27.4629 49.2988 26.2999 47.1165 23.9211 46.1398C22.6417 45.6152 21.2675 45.5223 19.9338 45.2437C19.5083 45.1555 19.4773 45.414 19.4633 45.7312C19.4027 47.0391 19.3313 48.3485 19.249 49.9535V49.955Z" fill="#E41937"/>
<path d="M45.8004 61.4752C46.0784 53.1112 46.3656 44.7472 46.6203 36.3831C46.6405 35.7114 46.8485 35.5845 47.4743 35.6356C51.8809 36.0024 56.2906 36.3367 60.6987 36.6803C65.5975 37.0611 70.4964 37.4403 75.3952 37.821C76.6063 37.9154 77.8174 38.0377 79.0301 38.1058C79.4664 38.1306 79.5238 38.3178 79.5099 38.6862C79.353 43.0091 79.1993 47.3319 79.0689 51.6563C79.0549 52.1361 78.8717 52.1918 78.4602 52.1578C73.6918 51.7647 68.9235 51.3963 64.1551 50.9939C63.6365 50.9506 63.489 51.0806 63.4859 51.5882C63.4765 52.8233 63.4424 54.0615 63.3554 55.2935C63.3151 55.86 63.5464 55.9869 64.0433 56.0225C67.5773 56.281 71.1081 56.558 74.6406 56.8289C75.389 56.8862 76.1358 56.9636 76.8842 56.9914C77.291 57.0069 77.409 57.1648 77.3951 57.5579C77.2553 61.6238 77.1202 65.6898 77.0116 69.7572C76.996 70.3237 76.7026 70.2897 76.3144 70.2587C72.7835 69.9739 69.2511 69.6953 65.7202 69.4152C64.947 69.3533 64.1706 69.313 63.402 69.2171C62.9579 69.1614 62.885 69.3533 62.8772 69.7247C62.843 71.1409 62.8135 72.5571 62.725 73.9702C62.6909 74.5212 62.8912 74.6775 63.3973 74.7116C65.5649 74.8617 67.7294 75.0366 69.8955 75.2053C72.6282 75.4173 75.361 75.6371 78.0953 75.8321C78.4897 75.86 78.6326 75.9714 78.6171 76.3785C78.4556 80.7524 78.3019 85.1279 78.1652 89.5034C78.1512 89.96 77.8966 89.9043 77.6047 89.8811C74.7943 89.6582 71.9839 89.4384 69.175 89.2155C65.5913 88.9307 62.0092 88.6398 58.4256 88.3612C54.1711 88.03 49.9182 87.6956 45.6607 87.3969C44.9915 87.3505 44.8999 87.0812 44.9216 86.4899C45.2306 78.1522 45.5147 69.8145 45.8035 61.4768L45.8004 61.4752Z" fill="#E41937"/>
<path d="M145.244 88.7881C138.848 88.7433 133.091 87.1723 127.593 84.5411C127.223 84.3647 127.194 84.1975 127.321 83.8323C128.84 79.463 130.35 75.089 131.827 70.7058C132.029 70.1053 132.26 70.2523 132.631 70.4767C135.113 71.9719 137.67 73.3122 140.496 74.0489C142.387 74.5427 144.3 74.7981 146.241 74.3105C146.8 74.1697 147.317 73.9452 147.758 73.5722C148.943 72.5724 148.877 71.1175 147.582 70.2632C146.46 69.5218 145.162 69.2633 143.861 69.0327C141.676 68.6458 139.466 68.4059 137.347 67.6846C131.622 65.7329 128.357 61.3822 128.152 55.3676C127.875 47.2621 132.625 40.565 140.583 37.9709C147.483 35.7205 154.338 36.1817 161.119 38.5467C162.238 38.9367 163.321 39.4289 164.428 39.8545C164.811 40.0016 164.912 40.1827 164.766 40.5928C163.316 44.6603 161.875 48.7309 160.464 52.8107C160.276 53.354 160.107 53.2519 159.723 53.0181C157.254 51.5122 154.635 50.4009 151.716 50.1037C150.52 49.9815 149.342 50.0403 148.176 50.3282C147.694 50.4473 147.247 50.6454 146.856 50.9519C145.747 51.8186 145.767 53.1203 146.929 53.9189C148.19 54.7857 149.669 55.0859 151.126 55.4295C153.264 55.9326 155.469 56.0734 157.591 56.6631C163.45 58.2944 167.164 63.1234 167.421 69.172C167.852 79.268 160.754 85.654 153.181 87.7248C151.984 88.053 150.772 88.3084 149.542 88.474C148.03 88.6767 146.506 88.7742 145.239 88.7866L145.244 88.7881Z" fill="#0168B3"/>
<path d="M253.931 28.3872C256.518 28.3872 259.105 28.4026 261.69 28.3732C262.198 28.367 262.393 28.5218 262.536 29.0016C267.266 44.8614 272.006 60.7196 276.771 76.5685C276.99 77.296 276.709 77.3177 276.153 77.3269C271.161 77.4214 266.169 77.522 261.179 77.6489C260.687 77.6613 260.573 77.457 260.49 77.0545C260.145 75.3938 259.757 73.7408 259.429 72.077C259.334 71.5956 259.137 71.4749 258.665 71.4857C255.251 71.5693 251.838 71.6343 248.422 71.6746C247.919 71.6808 247.765 71.8634 247.675 72.3215C247.347 73.9854 246.936 75.6353 246.639 77.3037C246.532 77.9104 246.229 77.9553 245.743 77.9646C240.803 78.0559 235.864 78.1504 230.924 78.2788C230.268 78.2958 230.202 78.1333 230.381 77.556C232.208 71.6653 234.016 65.7684 235.828 59.873C238.947 49.7275 242.073 39.5851 245.167 29.4334C245.344 28.8515 245.582 28.6843 246.169 28.6905C248.756 28.7215 251.341 28.7044 253.928 28.7044V28.3887L253.931 28.3872ZM253.693 43.4916C253.349 43.6913 253.464 43.9482 253.439 44.1556C253.301 45.3288 253.214 46.5097 253.035 47.6767C252.439 51.5631 251.47 55.3721 250.56 59.1904C250.405 59.8389 250.552 59.9705 251.183 59.9426C252.653 59.8792 254.127 59.8885 255.599 59.8575C256.735 59.8343 256.726 59.8281 256.48 58.7617C255.536 54.6602 254.498 50.5757 253.976 46.3906C253.858 45.4449 253.79 44.493 253.693 43.4916Z" fill="#0168B3"/>
<path d="M100.832 39.0403C106.521 39.2075 112.21 39.3793 117.899 39.5294C118.401 39.5433 118.558 39.6764 118.545 40.1918C118.426 45.3149 118.323 50.4379 118.244 55.561C118.236 56.1089 118.031 56.1785 117.554 56.16C114.918 56.0563 112.28 55.999 109.643 55.8876C109.07 55.8628 108.904 56.0052 108.893 56.5949C108.747 65.4263 108.575 74.2562 108.406 83.0877C108.366 85.1988 108.299 87.3099 108.28 89.4211C108.275 89.9101 108.125 90.0138 107.653 89.9984C102.636 89.8328 97.6192 89.6919 92.6039 89.5418C91.5838 89.5108 91.5853 89.5062 91.604 88.5327C91.8151 77.7712 92.0216 67.0097 92.2514 56.2482C92.2654 55.609 92.166 55.3582 91.4425 55.3505C88.8556 55.3195 86.2719 55.1818 83.6851 55.1431C83.0563 55.1338 82.9274 54.9465 82.9414 54.3599C83.064 49.288 83.1712 44.2175 83.2426 39.144C83.2519 38.5032 83.5423 38.5327 83.9972 38.5466C89.6087 38.7137 95.2202 38.8685 100.832 39.0264C100.832 39.0295 100.832 39.0341 100.832 39.0372V39.0403Z" fill="#E41937"/>
<path d="M359.693 44.7746C359.693 47.2448 359.682 49.7166 359.702 52.1868C359.707 52.7115 359.567 52.8121 359.037 52.7285C356.46 52.3245 353.871 51.9856 351.291 51.5955C350.634 51.4965 350.356 51.5832 350.344 52.3663C350.201 61.3758 350.018 70.3837 349.842 79.3931C349.813 80.9378 349.752 82.4809 349.733 84.0255C349.727 84.4651 349.692 84.6353 349.142 84.5533C343.979 83.7902 338.812 83.0613 333.643 82.3508C333.18 82.2874 333.039 82.1605 333.05 81.6977C333.155 76.9879 333.236 72.2781 333.331 67.5668C333.45 61.6219 333.57 55.6754 333.713 49.7305C333.725 49.2167 333.537 49.0975 333.074 49.0356C330.362 48.6672 327.655 48.2555 324.943 47.8918C324.514 47.8345 324.39 47.703 324.399 47.2804C324.514 42.2611 324.621 37.2433 324.702 32.2239C324.711 31.6544 325.013 31.7457 325.348 31.7921C327.702 32.1202 330.056 32.4499 332.408 32.7827C337.371 33.4838 342.333 34.1849 347.296 34.8861C351.337 35.4572 355.378 36.0391 359.421 36.5901C359.952 36.6629 360.006 36.9152 360.003 37.3609C359.984 39.8311 359.994 42.3029 359.994 44.7731C359.894 44.7731 359.795 44.7731 359.696 44.7731L359.693 44.7746Z" fill="#0168B3"/>
<path d="M179.439 13.447C179.422 20.9009 173.39 26.883 165.909 26.8598C158.461 26.8365 152.478 20.8545 152.483 13.433C152.489 5.99457 158.557 -0.0339069 166.004 0.000143538C173.435 0.034194 179.457 6.05958 179.441 13.447H179.439ZM157.377 11.6531C159.04 9.30521 161.325 7.8627 163.957 6.92941C165.731 6.30103 167.543 5.77943 169.331 5.19284C169.667 5.08295 170.05 5.02878 170.423 4.68053C168.428 4.4298 166.574 4.09239 164.681 4.18216C162.81 4.27038 161.125 4.83066 159.826 6.2515C158.425 7.78377 157.77 9.65964 157.377 11.6531Z" fill="#E41937"/>
<path d="M42.7416 14.4932C44.2322 13.6203 45.8703 13.0817 47.4634 12.4486C53.373 10.0976 59.4224 8.18924 65.6814 6.99902C73.9775 5.42187 82.2659 5.11077 90.5155 7.31322C99.498 9.71223 106.712 14.7811 112.581 21.8574C116.575 26.6725 119.665 32.0385 122.237 37.7125C122.29 37.8286 122.34 37.9478 122.377 38.0685C122.39 38.1103 122.362 38.166 122.343 38.2573C122.026 38.2109 121.913 37.9308 121.742 37.7388C116.418 31.7289 110.601 26.2623 103.906 21.7661C96.1208 16.5378 87.6274 13.0925 78.3143 11.7506C73.1484 11.0061 67.9592 10.9319 62.7545 11.3296C56.216 11.8295 49.7925 13.0043 43.4092 14.439C43.1888 14.4886 42.9621 14.5814 42.7276 14.4777L42.7416 14.4932Z" fill="#0168B3"/>
<path d="M125.164 43.7983C127.498 31.1454 135.254 22.0153 145.048 14.1821C145.527 15.3894 145.687 16.6415 145.905 17.8751C146.345 20.3607 147.477 22.4254 149.512 23.9685C149.57 24.0119 149.606 24.0862 149.688 24.1914C147.711 24.7006 145.82 25.3522 144.005 26.219C139.654 28.296 135.998 31.2863 132.676 34.7223C130.108 37.3798 127.802 40.2539 125.615 43.2256C125.453 43.4454 125.352 43.7302 125.164 43.7998V43.7983Z" fill="#0168B3"/>
<path d="M42.7276 14.4776C42.7338 14.6339 42.622 14.6123 42.5257 14.6045C42.5056 14.6045 42.4885 14.572 42.4698 14.5535C42.5599 14.5333 42.6515 14.5132 42.7416 14.4916L42.7276 14.4761V14.4776Z" fill="#0168B3"/>
<path d="M124.944 44.0924L124.938 44.0444L124.97 44.0506L124.944 44.0924Z" fill="#0168B3"/>
</g>
<defs>
<clipPath id="clip0_2772_15475">
<rect width="360" height="90" fill="white"/>
</clipPath>
</defs>
</svg>
