<svg width="360" height="78" viewBox="0 0 360 78" fill="none" xmlns="http://www.w3.org/2000/svg">
<g clip-path="url(#clip0_2064_5247)">
<path fill-rule="evenodd" clip-rule="evenodd" d="M89.3218 20.7924H105.202V65.4201H118.398V20.7924H134.28V9.49499H89.3218V20.7924ZM122.202 65.4201H136.07L140.021 54.1247H156.198L160.004 65.4201H173.648L154.411 9.49693H139.983L122.202 65.4201ZM152.389 43.9605H142.757L147.598 30.5006L152.389 43.9605ZM174.768 65.4201H187.516V45.288H196.689C198.625 45.288 200.872 44.9359 202.021 46.5097C203.169 48.0835 203.061 50.8232 203.021 53.6552C202.977 56.4873 202.99 59.4078 203.633 61.4914C204.272 63.5751 205.422 65.4201 207.09 65.4201H218.607C217.284 64.0298 216.347 62.3191 215.886 60.4564C215.432 58.5825 215.496 56.5411 215.578 54.2786C215.661 52.018 215.759 49.538 215.496 47.5044C215.236 45.4669 214.62 43.8778 213.612 42.6195C212.592 41.3601 211.219 40.4331 209.67 39.9568C212.102 38.2117 214.141 35.8896 215.382 33.4269C216.619 30.9662 217.054 28.3669 217.22 25.7927C217.385 23.2185 217.275 20.6712 216.464 18.2509C215.648 15.8305 214.13 13.5353 212.087 11.9615C210.022 10.3776 207.497 9.51212 204.895 9.49693H174.766L174.768 65.4201ZM202.323 21.8717C203.856 22.8856 204.791 24.7461 204.768 26.6296C204.745 27.5917 204.496 28.5348 204.042 29.3832C203.588 30.2317 202.941 30.9617 202.153 31.5145C200.553 32.615 198.403 32.3803 196.405 32.3803H187.506V21.3292H196.893C198.767 21.3292 200.785 20.8578 202.323 21.8717ZM223.898 19.3937C221.981 22.2257 220.569 25.5503 219.802 29.8022C219.036 34.0541 218.911 39.2353 219.601 43.7566C220.288 48.2797 221.793 52.1411 223.619 55.1347C225.444 58.1284 227.594 60.2505 229.935 62.0629C232.276 63.8752 234.801 65.3759 237.65 66.2186C240.522 67.0489 243.538 67.2561 246.496 66.8265C249.342 66.4033 251.866 65.3701 253.834 64.4755C255.799 63.5789 257.209 62.8209 258.531 61.932L260.77 65.4182H269.049L269.029 34.0637H245.319V45.0033H256.437C256.87 46.8906 256.61 48.957 255.652 50.677C254.694 52.3951 253.034 53.7668 250.681 54.7365C248.328 55.7042 245.284 56.2679 242.319 55.3695C239.358 54.471 236.48 52.1103 234.583 49.4072C232.69 46.7079 231.776 43.6642 231.374 40.2954C230.976 36.9285 231.089 33.2345 231.895 30.0138C232.702 26.7932 234.202 24.0419 236.086 22.0603C237.971 20.0786 240.242 18.8684 243.1 18.3509C245.959 17.8334 249.405 18.0123 251.702 19.2936C254.002 20.575 255.152 22.9568 255.814 24.471C256.476 25.9851 256.653 26.6296 256.674 27.2915H268.585C268.408 24.8173 267.706 22.3989 266.286 19.6361C264.862 16.8733 262.727 13.77 259.691 11.5825C256.655 9.39496 252.72 8.12708 249.074 7.64609C245.719 7.1874 242.306 7.41319 239.041 8.30985C236.02 9.14677 233.333 10.5147 230.781 12.3655C228.23 14.2221 225.812 16.5616 223.898 19.3937ZM313.113 65.4201V54.1247H286.832V41.1496L309.419 41.1034L309.423 30.8604H286.832V20.7943H313.113V9.49693L273.683 9.50462L273.747 65.4201H313.113ZM315.016 20.7924H330.9V65.4201H344.096V20.7924H359.976V9.49499H315.016V20.7924ZM350.462 62.9113H351.188V62.7709C351.082 62.7728 350.936 62.7382 350.872 62.5977L350.32 61.6819C350.845 61.5145 351.057 60.8392 350.512 60.4794C350.276 60.3525 350.072 60.3332 349.768 60.3255H348.427V60.4506C348.577 60.414 348.848 60.5256 348.79 60.7199C348.779 61.3683 348.821 61.9763 348.76 62.665C348.646 62.8113 348.59 62.7555 348.44 62.7709V62.9113H349.752V62.7709C349.61 62.8055 349.331 62.6978 349.389 62.5015V61.6819H349.752L350.462 62.9113ZM349.387 61.553V60.4968C349.706 60.4814 350.202 60.5449 350.202 60.9239C350.229 61.0759 350.202 61.5145 349.827 61.5434C349.695 61.5645 349.533 61.5511 349.387 61.553ZM349.702 64.0791C350.164 64.0791 350.664 63.9502 351.141 63.6097C352.313 62.64 352.486 61.4299 351.697 60.1889C350.724 59.0057 349.51 58.8306 348.252 59.6291C347.072 60.5968 346.899 61.807 347.692 63.0498C348.255 63.8002 348.992 64.0714 349.702 64.0791ZM349.702 63.8098C349.296 63.8098 348.85 63.6944 348.425 63.3923C347.376 62.5265 347.218 61.451 347.928 60.3313C348.788 59.2866 349.872 59.1346 350.98 59.8407C352.028 60.7026 352.186 61.7858 351.48 62.8921C350.98 63.5597 350.322 63.804 349.702 63.8098Z" fill="black"/>
<path fill-rule="evenodd" clip-rule="evenodd" d="M45.0173 27.5335C43.0434 26.3945 40.7635 25.7827 38.4836 25.7827C36.2038 25.7827 33.9239 26.3945 31.9499 27.5335C29.9652 28.6841 28.3157 30.3336 27.1651 32.3184C26.0222 34.3065 25.4186 36.5588 25.4143 38.852C25.4143 41.1338 26.0261 43.4137 27.1651 45.3877C28.306 47.3616 29.974 49.0316 31.9499 50.1706C33.9258 51.3096 36.2038 51.9214 38.4836 51.9214C40.7635 51.9214 43.0434 51.3115 45.0173 50.1706C46.9913 49.0297 48.6613 47.3616 49.8022 45.3877C50.9454 43.399 51.549 41.1459 51.553 38.852C51.553 36.5722 50.9431 34.2923 49.8022 32.3184C48.6516 30.3336 47.0021 28.6841 45.0173 27.5335Z" fill="#CA3432"/>
<path fill-rule="evenodd" clip-rule="evenodd" d="M71.6216 19.7051C68.2759 13.9083 63.3756 9.00802 57.5807 5.66228C51.7858 2.31655 45.0904 0.523438 38.3971 0.523438C31.7037 0.523438 25.0122 2.31655 19.2154 5.66228C13.3899 9.03855 8.54878 13.8797 5.17251 19.7051C1.82485 25.502 0.0317383 32.1954 0.0317383 38.8887C0.0317383 45.5821 1.82485 52.2755 5.17251 58.0724C8.54764 63.8987 13.389 68.7401 19.2154 72.1152C25.0511 75.4732 31.6641 77.2455 38.3971 77.256C45.0904 77.256 51.7838 75.4629 57.5807 72.1152C63.3775 68.7695 68.2759 63.8692 71.6216 58.0724C74.9673 52.2755 76.7605 45.5821 76.7605 38.8887C76.7605 32.1954 74.9673 25.5001 71.6216 19.7051ZM60.38 51.5752C58.155 55.4164 54.9632 58.6082 51.122 60.8332C47.2735 63.046 42.9133 64.2139 38.474 64.2213C34.0624 64.2213 29.6508 63.04 25.8279 60.8332C22.007 58.6265 18.7767 55.3962 16.5699 51.5752C14.3632 47.7543 13.1819 43.3408 13.1819 38.9292C13.1819 34.5156 14.3632 30.1021 16.5699 26.2812C18.7767 22.4602 22.007 19.228 25.8279 17.0232C29.6755 14.8098 34.0353 13.6418 38.474 13.6351C42.8875 13.6351 47.2991 14.8164 51.122 17.0232C54.9627 19.2487 58.1544 22.4404 60.38 26.2812C62.5942 30.1292 63.7629 34.4896 63.77 38.9292C63.7617 43.368 62.5931 47.7275 60.38 51.5752Z" fill="#CA3432"/>
</g>
<defs>
<clipPath id="clip0_2064_5247">
<rect width="360" height="76.9839" fill="white" transform="translate(0 0.399902)"/>
</clipPath>
</defs>
</svg>
