<svg width="360" height="173" viewBox="0 0 360 173" fill="none" xmlns="http://www.w3.org/2000/svg">
<g clip-path="url(#clip0_2064_5239)">
<path fill-rule="evenodd" clip-rule="evenodd" d="M180 6.81348L271.538 47.6466H324.634V64.7344H353.672V166.675H6.32581V64.7344H35.3658V47.6466H88.4623L180 6.81348Z" fill="#2F5693"/>
<path fill-rule="evenodd" clip-rule="evenodd" d="M180 0.0551758L272.847 41.4724H330.8V58.5603H359.834V172.849H0.166443V58.5603H29.2043V41.4724H87.1528L180 0.0551758ZM180 13.5718L89.7719 53.8208H41.5273V70.9086H12.4895V160.501H347.51V70.9086H318.477V53.8208H270.228L180 13.5718Z" fill="#B52D4C"/>
<path fill-rule="evenodd" clip-rule="evenodd" d="M180 6.81348L271.538 47.6466H324.639V64.7344H353.672V166.675H6.328V64.7344H35.3658V47.6466H88.4624L180 6.81348Z" fill="#2F5693"/>
<path fill-rule="evenodd" clip-rule="evenodd" d="M180 5.36572L271.818 46.324H325.959V63.4118H354.992V167.998H5.00787V63.4118H34.0457V46.324H88.1818L180 5.36572ZM180 8.26163L88.7429 48.9696H36.6859V66.0574H7.64807V165.352H352.352V66.0574H323.318V48.9696H271.257L180 8.26163Z" fill="white"/>
<path fill-rule="evenodd" clip-rule="evenodd" d="M134.371 83.2692C137.412 83.2692 140.178 85.8757 141.008 88.7711L141.839 92.2486V134.242C141.008 136.846 139.35 139.744 136.584 140.61L132.713 141.192H106.441C103.952 141.192 101.462 140.324 100.079 138.006C98.9733 136.559 98.9733 134.819 98.6958 133.373V89.3511C99.2486 87.0334 100.632 84.718 102.845 83.847L105.058 83.267L134.371 83.2692ZM126.626 96.3018H113.629V127.582H126.903L126.626 96.3018ZM69.9333 70.8145V127.58H92.8865V141.19H54.7229V70.8145H69.9333ZM271.538 70.8145V87.3245H258.54V70.8145H271.538ZM306.937 88.1912V100.064C304.449 99.195 301.408 97.4595 298.919 96.5885C294.495 94.8508 287.578 92.5332 284.262 96.0085C283.152 96.8774 282.877 98.3261 282.877 99.486C283.707 103.541 288.131 104.119 290.895 106.146C297.807 109.043 307.211 114.252 308.041 123.229C309.701 129.893 307.211 135.973 302.511 140.028C293.383 147.848 269.602 139.446 269.602 139.446V126.125C269.602 126.125 285.363 132.209 289.234 131.626C291.447 131.338 293.383 130.18 294.213 128.151C294.493 126.416 294.493 124.676 293.383 123.225C285.64 117.434 275.686 116.565 270.432 107.01C267.944 101.797 267.944 94.5554 271.262 89.6334C275.686 82.6828 282.874 80.6562 290.619 81.525C298.917 82.6893 306.937 88.1912 306.937 88.1912ZM187.745 127.582H195.763V83.2692H211.251V132.504C211.251 135.69 209.591 139.164 206.552 140.61L203.508 141.192H184.977C183.041 140.903 181.105 138.588 180 136.848C178.617 139.453 177.787 141.192 175.023 141.192H157.324C155.941 140.903 155.386 140.903 154.558 140.324C152.898 139.455 150.132 138.295 150.132 132.504V83.2692H165.342V127.582H173.64V83.2692H187.745V127.582ZM255.222 96.3018H234.757V105.857H255.222V118.894H234.757V127.582H255.222V141.192H219.549V83.2692H255.222V96.3018ZM309.977 87.6134C309.977 84.718 312.19 82.6893 314.68 82.6893C316.893 82.6893 319.104 84.718 319.104 87.6134C319.104 90.2199 316.893 92.2486 314.68 92.2486C312.19 92.2486 309.977 90.2199 309.977 87.6134ZM314.68 91.3776C316.616 91.3776 318.274 89.9288 318.274 87.6134C318.274 85.298 316.614 83.5581 314.68 83.5581C312.467 83.5581 310.807 85.2958 310.807 87.6134C310.807 89.931 312.465 91.3776 314.68 91.3776ZM313.575 90.2199H312.745V84.718H314.68C316.065 84.718 316.616 85.2979 316.616 86.4557C316.616 87.3245 316.065 87.6134 315.235 87.9044L316.896 90.2199H315.786L314.405 87.9044H313.575V90.2199ZM314.68 87.3245C315.235 87.3245 315.786 87.0335 315.786 86.1646C315.786 85.5847 315.235 85.5847 314.68 85.5847H313.575V87.3223L314.68 87.3245Z" fill="white"/>
</g>
<defs>
<clipPath id="clip0_2064_5239">
<rect width="360" height="173" fill="white"/>
</clipPath>
</defs>
</svg>
