<svg width="300" height="300" viewBox="0 0 300 300" fill="none" xmlns="http://www.w3.org/2000/svg">
<g clip-path="url(#clip0_2064_5241)">
<path d="M55.6375 300C56.94 297.698 56.6325 296.47 54.56 294.233C54.1325 293.77 53.6825 293.325 53.2375 292.878C39.895 279.553 26.55 266.228 13.2075 252.903C10.4375 250.138 7.6675 247.373 4.89 244.613C3.7675 243.498 2.4975 242.898 0.907502 243.6C0.605002 243.735 0.302502 243.868 0.00250244 244V299.998H55.64L55.6375 300Z" fill="#F86303"/>
<path d="M146.512 131.992C146.465 132.022 146.417 132.065 146.367 132.12C146.36 132.137 146.353 132.157 146.345 132.175C146.448 132.16 146.587 132.167 146.512 131.992Z" fill="#F86303"/>
<path d="M0 0V233.015C6.47 226.53 12.9375 220.047 19.405 213.56C20.3625 212.6 21.3525 211.72 22.7125 211.337C24.115 210.942 25.3025 211.272 26.275 212.307C27.245 213.34 27.5775 214.553 27.0175 215.913C26.68 216.728 26.3225 217.535 25.9375 218.327C25.1575 219.935 25.455 221.34 26.6825 222.587C27.48 223.397 28.2825 224.203 29.085 225.005C44.62 240.543 60.1575 256.077 75.6925 271.612C76.08 272 76.4625 272.39 76.86 272.765C78.67 274.473 79.56 274.615 81.845 273.585C82.42 273.325 82.9825 273.042 83.5675 272.807C85.03 272.222 86.3775 272.368 87.5125 273.533C88.6375 274.685 88.7825 276.027 88.2275 277.497C87.785 278.672 86.965 279.57 86.1 280.435C79.6425 286.895 73.1875 293.357 66.725 299.81C66.66 299.875 66.59 299.935 66.52 299.997H151.83C152.22 299.082 152.005 298.513 151.045 297.535C147.035 293.45 142.99 289.4 138.95 285.345C133.99 280.365 128.998 275.415 124.07 270.405C122.725 269.037 121.433 268.265 119.563 269.443C118.578 270.063 117.618 269.79 116.883 268.87C116.125 267.925 116.47 267.057 117.115 266.242C117.505 265.747 117.915 265.263 118.36 264.82C122.295 260.898 126.24 256.985 130.185 253.072C130.36 252.9 130.55 252.743 130.655 252.648C143.155 265.15 155.618 277.613 168.13 290.125C164.948 293.325 161.69 296.6 158.308 300H299.995V158.325C299.95 158.38 299.905 158.435 299.855 158.482C296.333 161.985 292.825 165.5 289.31 169.01C288.683 169.637 288.05 170.255 287.078 170.3C285.493 170.375 284.325 169.033 285.098 167.688C286.448 165.345 285.38 163.98 283.77 162.385C273.573 152.285 263.45 142.108 253.308 131.955C252.983 131.63 252.683 131.28 252.493 131.072C256.55 126.942 260.57 122.85 264.778 118.567C267.05 120.917 269.303 123.303 271.618 125.628C279.845 133.888 288.095 142.127 296.338 150.372C296.605 150.64 296.878 150.905 297.155 151.16C298.298 152.205 298.793 152.41 299.993 151.917V66.9125C296.093 70.7525 292.178 74.605 288.135 78.5875C286.473 76.6575 284.915 74.8525 283.36 73.0475C283.203 73.165 283.048 73.285 282.89 73.4025C283.165 72.9425 283.42 72.4725 283.715 72.025C288.945 64.1075 289.3 55.7775 285.838 47.12C285.355 45.9125 284.783 44.73 284.41 43.49C283.74 41.2575 284.24 39.925 285.953 38.935C287.47 38.0575 288.883 38.3575 290.463 39.9275C293.565 43.015 296.655 46.115 299.753 49.2075C299.833 49.2875 299.913 49.37 299.993 49.4525V0H249.098C250.245 1.09 251.383 2.1625 252.493 3.2625C254.768 5.5125 257.038 7.7675 259.265 10.06C260.41 11.24 260.433 12.3125 259.505 13.835C258.538 15.425 257.175 16.145 255.783 15.8075C254.958 15.6075 254.208 15.235 253.453 14.8625C248.16 12.2475 242.663 10.865 236.738 12.1425C233.45 12.8525 230.468 14.2725 227.65 16.0725C227.263 16.32 226.873 16.57 226.603 16.7425C224.843 15.03 223.135 13.3675 221.26 11.5425C225.07 7.795 228.93 3.9975 232.995 0L0 0ZM161.168 71.8C168.58 64.3925 175.998 56.99 183.41 49.5825C184.188 48.805 184.995 48.0825 186.068 47.7175C187.515 47.2225 188.805 47.4525 189.91 48.5225C190.993 49.5725 191.243 50.8325 190.703 52.2225C190.353 53.1225 189.933 53.9925 189.543 54.8775C188.938 56.255 189.138 57.505 190.15 58.6125C190.775 59.295 191.408 59.9725 192.063 60.6275C207.838 76.4 223.615 92.1675 239.393 107.935C239.513 108.055 239.63 108.173 239.75 108.293C242.435 110.963 242.993 111.06 246.49 109.45C249.28 108.165 251.595 109.025 252.198 111.58C252.48 112.773 252.083 113.84 251.44 114.8C250.975 115.493 250.405 116.128 249.813 116.72C241.995 124.555 234.165 132.383 226.335 140.205C225.32 141.218 224.29 142.2 222.818 142.55C221.41 142.888 220.238 142.51 219.268 141.48C218.313 140.465 218.093 139.263 218.573 137.973C218.91 137.07 219.363 136.21 219.745 135.322C220.333 133.962 220.188 132.697 219.198 131.562C218.865 131.183 218.538 130.798 218.18 130.44C204.518 116.783 190.853 103.128 177.188 89.4725C177.04 89.325 176.875 89.195 176.718 89.0575C176.663 89.105 176.605 89.1525 176.548 89.1975C178.035 92.015 179.5 94.8475 181.015 97.6525C191.015 116.177 201.028 134.695 211.033 153.217C211.29 153.695 211.533 154.178 211.808 154.708C210.933 155.513 210.105 156.278 209.148 157.163C207.62 156.418 205.928 155.603 204.248 154.77C181.328 143.408 158.41 132.043 135.493 120.68C133.04 119.465 130.545 118.395 127.83 117.87C126.65 117.643 125.688 117.87 124.775 118.598C124.023 119.2 123.295 119.852 122.378 120.21C121.095 120.707 119.898 120.648 118.885 119.61C117.833 118.535 117.398 117.29 117.928 115.81C118.248 114.92 118.805 114.183 119.463 113.525C127.055 105.94 134.653 98.36 142.25 90.7825C142.338 90.695 142.455 90.64 142.645 90.51C154.92 96.4725 167.233 102.453 179.685 108.503C173.23 96.51 166.82 84.6 160.385 72.6425C160.66 72.345 160.903 72.0625 161.168 71.7975V71.8ZM182.998 224.845C182.763 224.453 182.58 224.015 182.445 223.577C182.233 222.885 182.383 222.232 182.878 221.7C183.523 221.005 184.29 220.783 185.138 221.315C185.525 221.558 185.88 221.87 186.205 222.193C189.99 225.963 193.768 229.743 197.55 233.52C198.183 234.15 198.73 234.83 198.948 235.7C197.933 237.642 197.083 237.927 195.19 236.982C194.328 236.55 193.485 236.07 192.598 235.695C190.753 234.913 188.905 235.043 187.038 235.88C186.115 234.873 185.185 233.857 184.098 232.667C185.378 230.047 184.523 227.405 182.998 224.845ZM186.925 218.55C181.415 215.44 175.68 214.788 170.135 218.99C169.11 217.95 168.175 217.003 167.405 216.223C171.048 212.458 174.695 208.688 178.333 204.928C181.798 208.36 185.225 211.697 188.583 215.105C189.62 216.157 188.98 217.568 186.925 218.55ZM151.388 195.625C142.945 187.16 134.493 178.71 126.043 170.253C118.903 163.108 111.76 155.963 104.62 148.815C103.325 147.52 101.915 146.438 100.088 145.973C98.415 145.548 96.8375 145.868 95.2575 146.38C94.745 146.545 94.265 146.858 93.7575 146.785C92.085 145.12 90.4525 143.495 88.8075 141.857C88.9 141.3 89.41 141.085 89.7875 140.79C101.97 131.302 115.458 128.85 129.753 134.693C147.645 142.005 160.183 154.915 166.24 173.43C170.688 187.022 167.07 200.498 158.148 210.928C156.415 209.31 154.67 207.678 152.963 206.083C152.938 205.44 153.193 204.945 153.37 204.435C154.523 201.087 153.89 198.132 151.388 195.622V195.625ZM179.803 177.497C182.43 171.032 179.795 165.823 175.483 161.378C165.965 151.568 156.213 141.985 146.555 132.312C146.498 132.255 146.413 132.227 146.34 132.185C146.34 132.182 146.343 132.178 146.345 132.175C146.338 132.175 146.33 132.175 146.323 132.178C146.338 132.155 146.355 132.137 146.37 132.12C146.398 132.057 146.428 131.99 146.468 131.9C146.488 131.935 146.505 131.965 146.515 131.99C146.835 131.793 147.14 132.142 147.393 132.265C153.465 135.232 159.525 138.225 165.583 141.22C166.27 141.56 166.785 142.13 167.32 142.665C171.628 146.982 175.935 151.3 180.245 155.615C182.535 157.908 185.205 159.617 188.238 160.76C190.395 161.572 192.58 161.652 194.79 160.995C195.113 160.9 195.43 160.793 195.75 160.695C198.135 159.958 199.388 160.205 200.415 161.617C201.42 162.997 201.268 164.612 199.818 166.467C199.045 167.457 198.143 168.352 197.255 169.245C193.96 172.552 190.65 175.845 187.333 179.13C186.315 180.14 185.24 181.08 183.808 181.482C182.55 181.835 181.465 181.515 180.578 180.602C179.733 179.735 179.313 178.692 179.8 177.492L179.803 177.497ZM142.888 58.2725C142.598 57.53 142.265 56.8025 142.035 56.04C141.783 55.2 141.99 54.4275 142.75 53.9325C143.548 53.4125 144.39 53.475 145.063 54.145C148.303 57.37 151.518 60.62 154.703 63.8225C151.105 67.455 147.538 71.055 143.888 74.74C143.065 73.8475 142.103 73.1175 141.45 72.0725C141.513 71.49 141.9 71.0775 142.168 70.615C144.495 66.6175 144.538 62.4925 142.888 58.2675V58.2725ZM138.105 58.845C137.415 59.81 136.288 59.9025 134.7 58.965C132.38 57.595 130.01 56.915 127.288 58.1725C126.395 57.205 125.568 56.3125 124.59 55.255C125.738 52.545 124.943 49.8925 123.383 47.3425C123.123 46.92 122.968 46.4275 123.003 45.9C123.098 44.525 124.483 43.77 125.65 44.4875C126.04 44.7275 126.393 45.0425 126.718 45.365C130.208 48.835 133.695 52.3075 137.173 55.79C138.48 57.1 138.728 57.97 138.103 58.8425L138.105 58.845ZM119.458 29.14C119.595 29.1575 119.825 29.605 120.138 29.915C122.863 32.605 125.553 35.3275 128.295 38C129.15 38.8325 129.59 39.6475 128.848 40.7525C128.155 41.7825 127.463 41.935 125.993 41.2425C123.205 39.925 120.353 39.0825 117.218 39.6575C115.705 39.935 114.325 40.505 113.01 41.275C112.508 41.57 112.048 41.96 111.138 42.0275C110.42 41.2175 109.65 40.345 108.81 39.3975C112.255 36.0775 115.768 32.6975 119.455 29.1425L119.458 29.14ZM93.72 54.615C93.85 54.4 94 54.19 94.1775 54.015C98.31 49.9375 102.445 45.8675 106.625 41.7525C118.298 53.48 129.983 65.22 141.793 77.0875C140.39 78.465 138.89 79.9275 137.405 81.4025C134.868 83.9225 132.335 86.4475 129.803 88.9725C129.385 89.3875 128.968 89.79 128.395 90.0125C127.62 90.3125 126.918 90.2725 126.283 89.705C125.678 89.165 125.423 88.3975 125.825 87.765C127.313 85.4225 125.943 84.06 124.38 82.515C116.273 74.5 108.235 66.4125 100.17 58.3525C98.4125 56.595 98.4 56.58 96.145 57.5375C95.2375 57.9225 94.4375 57.9675 93.7475 57.175C93.015 56.335 93.205 55.47 93.725 54.6175L93.72 54.615ZM76.2925 71.9075C80.71 67.46 85.15 63.035 89.5875 58.605C89.9775 58.215 90.4375 57.91 90.965 57.7375C92.3125 57.295 93.5675 58.345 93.3725 59.745C93.35 59.91 93.3275 60.095 93.24 60.23C91.9425 62.29 92.99 63.635 94.4675 65.095C102.578 73.11 110.635 81.18 118.66 89.28C120.013 90.645 121.268 91.4475 123.133 90.26C123.923 89.7575 124.768 89.9425 125.395 90.69C126.025 91.435 125.958 92.26 125.493 93.0375C125.195 93.5375 124.803 93.995 124.39 94.4075C120.318 98.4875 116.235 102.558 112.143 106.618C111.7 107.058 111.2 107.468 110.66 107.775C109.945 108.18 109.205 108.135 108.563 107.54C107.95 106.973 107.595 106.257 108.053 105.512C109.353 103.405 108.41 102.028 106.845 100.548C103.453 97.34 100.205 93.9775 96.8925 90.6875C96.6025 90.4 96.375 90.0175 95.795 89.86C94.58 91.1575 93.32 92.5025 92.0075 93.9075C90.84 93.0025 89.9925 92.0475 89.0025 90.9275C90.405 89.63 91.7875 88.3525 93.0775 87.16C92.985 86.5725 92.6675 86.3975 92.4375 86.17C89.0175 82.7475 85.565 79.3575 82.175 75.9025C81.0925 74.8 80.04 74.4075 78.6075 75.195C77.625 75.735 76.545 75.9075 75.8175 74.7725C75.15 73.73 75.49 72.7175 76.2925 71.91V71.9075ZM58.88 89.31C63.0325 85.1275 67.1975 80.96 71.37 76.8C71.7825 76.3875 72.2425 75.9875 72.7525 75.715C74.095 74.9975 75.5725 75.835 75.565 77.2575C75.58 77.8225 75.365 78.3325 75.125 78.8225C74.5225 80.05 74.7775 81.01 75.765 81.975C79.1375 85.27 82.445 88.63 85.7775 91.9625C91.015 97.2 96.275 102.417 101.473 107.695C102.455 108.692 103.393 108.885 104.625 108.372C105.67 107.94 106.788 107.382 107.68 108.647C108.305 109.535 107.988 110.78 106.868 111.902C102.77 116.02 98.67 120.133 94.5575 124.235C94.085 124.708 93.56 125.147 93 125.507C92.2575 125.985 91.475 125.925 90.7575 125.4C90.03 124.87 90.05 124.12 90.2 123.345C90.2075 123.305 90.21 123.255 90.2325 123.223C91.69 121.085 90.4425 119.737 88.9625 118.272C81.0975 110.485 73.29 102.635 65.4625 94.81C64.9875 94.335 64.495 93.8725 64.025 93.39C63.2025 92.55 62.315 92.2925 61.185 92.835C60.13 93.3425 58.985 93.9375 58.025 92.6325C57.32 91.675 57.5775 90.625 58.8825 89.3075L58.88 89.31ZM55.4775 93.0225C59.0375 96.5475 62.6975 100.128 66.295 103.768C67.2275 104.713 67.1575 105.665 66.3525 106.575C65.545 107.485 64.57 107.68 63.53 107.037C62.3175 106.287 61.16 105.445 59.9575 104.683C57.345 103.023 54.545 102.003 51.595 102.298C50.4925 101.313 49.59 100.507 48.7625 99.77C51.0625 97.46 53.2725 95.24 55.48 93.0225H55.4775ZM46.88 102.005C47.5475 102.702 48.4325 103.657 49.3525 104.577C58.45 113.68 67.58 122.75 76.63 131.902C77.905 133.19 79.06 133.547 80.6125 132.68C80.795 132.577 80.9975 132.505 81.1975 132.452C82.545 132.09 83.7375 133.228 83.4625 134.61C83.3 135.435 82.775 136.035 82.205 136.605C78.1025 140.71 73.9975 144.815 69.8925 148.915C69.4175 149.39 68.93 149.853 68.29 150.115C67.5225 150.428 66.805 150.367 66.1675 149.825C65.54 149.292 65.35 148.495 65.73 147.88C67.135 145.6 65.885 144.23 64.34 142.7C54.835 133.292 45.39 123.822 35.925 114.372C35.6325 114.08 35.3525 113.773 35.1525 113.565C39.04 109.733 42.885 105.942 46.88 102.007V102.005ZM32.675 115.622C33.935 116.112 34.5125 117.268 35.465 118.11C35.1 121.963 36.705 125.192 38.8525 128.245C39.3825 129 39.8925 129.777 40.33 130.59C40.9 131.647 40.57 132.585 39.66 133.255C38.7975 133.893 37.81 133.967 37.0125 133.165C33.3675 129.497 29.755 125.795 26.3475 122.327C28.4175 120.135 30.545 117.88 32.675 115.622ZM122.07 243.262C121.758 244.497 121.055 245.472 120.188 246.342C112.1 254.442 104.008 262.535 95.9075 270.622C95.07 271.457 94.1525 272.19 92.985 272.543C91.5625 272.973 90.315 272.682 89.285 271.617C88.2425 270.542 88.03 269.272 88.5825 267.892C88.9425 266.997 89.36 266.125 89.74 265.237C90.2875 263.96 90.155 262.78 89.205 261.728C88.7825 261.26 88.3825 260.77 87.9375 260.325C80.89 253.27 73.835 246.22 66.78 239.173C66.4875 238.88 66.1725 238.608 65.74 238.205C63.1575 240.89 60.6875 243.46 58.3175 245.923C56.3725 244 54.68 242.33 52.79 240.462C55.245 238.052 57.815 235.53 60.3325 233.055C60.3 232.462 59.8975 232.243 59.61 231.955C53.06 225.413 46.505 218.875 39.95 212.34C39.5325 211.925 39.115 211.51 38.6825 211.107C36.8575 209.412 35.99 209.28 33.6875 210.318C33.0375 210.61 32.3925 210.917 31.73 211.18C30.3825 211.715 29.165 211.473 28.13 210.46C27.0775 209.43 26.7375 208.198 27.1725 206.768C27.46 205.82 27.9875 205.017 28.68 204.325C37.0325 195.955 45.3825 187.585 53.7475 179.227C54.6875 178.287 55.8 177.618 57.18 177.548C59.7275 177.418 61.54 179.818 60.665 182.208C60.32 183.153 59.87 184.057 59.4675 184.98C58.865 186.367 59.1325 187.607 60.1175 188.715C60.48 189.125 60.855 189.523 61.2425 189.91C77.3675 206.038 93.495 222.165 109.623 238.29C110.01 238.677 110.41 239.047 110.8 239.432C112.105 240.715 113.57 240.882 115.19 240.09C115.908 239.74 116.628 239.398 117.363 239.085C118.703 238.513 119.928 238.762 120.983 239.727C122.02 240.677 122.428 241.837 122.068 243.26L122.07 243.262ZM126.495 225.227C118.445 224.97 111.045 222.437 104.263 218.212C92.3575 210.792 83.0475 200.96 77.725 187.842C71.5275 172.567 74.15 158.54 84.4025 145.867C86.0725 147.517 87.71 149.133 89.4825 150.88C89.63 151.375 89.36 152.003 89.115 152.628C87.9575 155.58 88.55 158.232 90.485 160.652C90.825 161.077 91.2175 161.465 91.605 161.852C107.048 177.305 122.503 192.745 137.928 208.215C140.753 211.047 143.918 211.945 147.685 210.445C148.033 210.308 148.4 210.218 148.84 210.08C150.52 211.8 152.133 213.453 153.813 215.173C153.798 215.195 153.738 215.353 153.625 215.445C145.76 221.973 136.815 225.557 126.498 225.227H126.495ZM170.555 287.71C169.57 286.74 168.65 285.835 167.655 284.853C169.788 281.753 168.34 279.285 166.123 277.055C158.738 269.627 151.32 262.235 143.913 254.833C143.555 254.478 143.18 254.135 142.79 253.818C140.693 252.1 138.48 251.352 135.955 253.152C134.95 252.235 133.873 251.443 133.13 250.13C135.858 247.293 139.093 245.28 142.91 244.285C147.18 243.173 151.45 243.39 155.55 244.982C163.99 248.26 170.738 253.585 174.78 261.858C178.99 270.473 177.143 281.49 170.558 287.712L170.555 287.71ZM187.808 270.19C185.278 269.518 184.678 268.623 185.61 266.853C186.543 265.08 186 263.91 184.725 262.642C177.673 255.65 170.665 248.61 163.64 241.59C161.675 239.627 159.683 237.69 157.74 235.705C156.663 234.603 155.57 234.332 154.135 235.077C152.705 235.82 151.698 235.603 151.09 234.693C150.503 233.813 150.715 232.505 151.725 231.485C156.048 227.123 160.395 222.783 164.85 218.315C177.353 230.93 189.755 243.445 202.26 256.065C197.438 260.628 192.923 265.89 187.805 270.188L187.808 270.19ZM204.713 253.525C203.718 252.532 202.803 251.62 201.823 250.643C203.418 248.475 204.425 246.033 204.665 243.285C204.885 240.758 204.495 238.345 203.523 236.012C203.215 235.277 202.873 234.548 202.655 233.785C202.378 232.818 202.545 231.918 203.5 231.375C204.423 230.85 205.265 231.042 206.02 231.78C209.448 235.135 212.88 238.483 216.15 241.675C212.185 245.785 208.453 249.655 204.715 253.527L204.713 253.525ZM234.53 223.525C234.16 224.127 233.67 224.667 233.168 225.17C228.795 229.547 224.413 233.915 220.025 238.277C218.998 239.3 218.15 239.43 217.105 238.773C216.083 238.128 215.813 237.278 216.47 235.925C217.105 234.615 216.833 233.727 215.813 232.712C206.7 223.67 197.638 214.578 188.558 205.505C186.808 203.758 186.653 203.705 184.383 204.688C183.37 205.127 182.495 205.142 181.785 204.247C181.088 203.372 181.25 202.44 181.813 201.553C181.993 201.27 182.2 200.997 182.435 200.76C186.713 196.467 190.995 192.182 195.673 187.5C196.76 188.742 197.695 189.942 198.763 191.012C208.238 200.525 217.758 209.993 227.205 219.533C228.67 221.013 230.003 221.845 232.013 220.595C232.83 220.088 233.723 220.283 234.398 221.068C235.075 221.855 235.025 222.715 234.53 223.523V223.525ZM252.228 199.792C243.975 200.202 237.37 196.568 231.49 191.223C230.66 190.468 229.763 189.752 229.215 188.73V188.725C228.92 189.07 229.075 189.452 229.145 189.812C230.005 194.25 229.15 198.322 226.618 202.062C224.983 204.477 223.023 206.605 220.915 208.688C219.983 207.715 219.088 206.782 218.093 205.745C218.05 205.615 218.245 205.418 218.358 205.205C219.495 203.04 219.21 201.047 217.55 199.29C214.285 195.832 210.963 192.427 207.473 189.197C205.705 187.562 203.758 186.493 200.725 188.333C199.813 187.365 198.898 186.393 197.903 185.335C201.77 181.505 205.848 177.668 211.878 176.975C215.833 176.52 219.24 177.8 222.355 180.1C222.693 180.348 223.01 180.62 223.698 181.167C219.28 171.635 220.118 163.055 226.615 155.122C226.86 155.34 227.023 155.47 227.173 155.613C227.935 156.335 228.693 157.06 229.43 157.762C229.393 158.077 229.415 158.302 229.338 158.48C228.275 160.94 229.165 162.798 230.955 164.568C239.088 172.625 247.19 180.71 255.235 188.852C257.4 191.045 259.52 192.892 262.645 191.31C263.735 192.317 264.68 193.192 265.715 194.15C261.68 197.412 257.34 199.533 252.228 199.785V199.792ZM252.898 135.977C252.525 140.052 254.093 143.477 256.36 146.67C256.628 147.047 256.888 147.43 257.15 147.81C257.975 149.005 258.803 150.2 257.928 151.753C261.3 154.088 264.233 156.718 266.725 159.815C270.123 164.04 272.65 168.68 273.385 174.143C274.285 180.845 272.215 186.643 267.913 191.913C266.898 190.988 265.958 190.152 265.185 189.107C265.203 188.862 265.163 188.592 265.25 188.367C266.185 185.925 265.223 184.088 263.508 182.383C255.065 173.99 246.628 165.587 238.245 157.135C236.355 155.23 234.323 154.65 231.778 155.78C230.885 154.73 230.028 153.718 229.118 152.645C235.143 147.568 242.223 146.053 250.258 147.818C247.728 145.443 245.198 143.067 242.775 140.795C245.393 138.165 247.723 135.823 250.153 133.378C251.073 134.018 251.923 135.048 252.895 135.975L252.898 135.977ZM285.77 123.785C285.035 124.735 283.75 124.905 282.475 124.14C281.578 123.602 280.75 122.947 279.87 122.375C276.8 120.372 273.603 118.755 269.783 119.3C268.748 118.343 267.76 117.44 267.04 116.473C269.403 114.085 271.728 111.735 274.158 109.28C274.335 109.282 274.51 109.61 274.738 109.838C278.275 113.368 281.81 116.9 285.338 120.438C286.478 121.582 286.61 122.7 285.77 123.785ZM249.185 21.795C250.283 20.595 251.75 20.3425 253.185 21.1175C253.935 21.5225 254.54 22.1075 255.138 22.7025C261.983 29.5475 268.83 36.3925 275.673 43.24C276.028 43.595 276.368 43.975 276.665 44.3825C277.735 45.85 277.798 47.0825 276.895 48.3225C275.908 49.6825 274.408 50.1625 272.76 49.63C271.59 49.2525 270.558 48.5975 269.488 48.015C266.945 46.63 264.298 45.6675 261.333 45.72C259.64 45.75 258.145 46.385 256.745 46.9275C254.808 45.0975 253.008 43.3975 251.215 41.705C251.278 41.3975 251.278 41.1775 251.363 40.9975C253.193 37.0625 252.458 33.295 250.608 29.6075C249.988 28.37 249.253 27.1825 248.703 25.915C248.085 24.49 248.033 23.05 249.185 21.79V21.795ZM283.755 82.75C283.703 82.8075 283.455 83.09 283.19 83.355C275.875 90.68 268.56 98.005 261.243 105.325C260.283 106.285 259.25 107.13 257.89 107.475C255.3 108.135 253.035 106.005 253.543 103.39C253.698 102.592 254.075 101.888 254.41 101.168C255.613 98.595 255.473 97.71 253.505 95.6475C253.273 95.405 253.033 95.1675 252.793 94.93C236.873 79.0125 220.955 63.095 205.035 47.175C204.885 47.025 204.738 46.8775 204.588 46.73C201.94 44.1 201.325 43.985 197.958 45.595C196.828 46.135 195.68 46.53 194.44 46.1075C192.67 45.505 191.753 43.47 192.34 41.55C192.655 40.5175 193.285 39.695 194.04 38.9375C201.42 31.56 208.79 24.1725 216.168 16.7925C216.49 16.47 216.758 16.0725 217.013 16.005C239.305 38.3 261.508 60.505 283.748 82.7475L283.755 82.75Z" fill="#F86303"/>
</g>
<defs>
<clipPath id="clip0_2064_5241">
<rect width="300" height="300" fill="white"/>
</clipPath>
</defs>
</svg>
