<svg width="360" height="58" viewBox="0 0 360 58" fill="none" xmlns="http://www.w3.org/2000/svg">
<g clip-path="url(#clip0_2722_16880)">
<mask id="mask0_2722_16880" style="mask-type:luminance" maskUnits="userSpaceOnUse" x="1" y="1" width="358" height="120">
<path d="M1.44238 120.606H358.559V1.44159H1.44238V120.606Z" fill="white"/>
</mask>
<g mask="url(#mask0_2722_16880)">
<path d="M238.103 21.0185C238.672 22.8125 237.719 24.749 238.287 26.6836C239.608 27.843 242.287 26.2347 242.921 28.301C242.934 29.6136 243.154 30.9929 242.472 32.1036C241.102 33.4234 238.815 32.2009 237.587 33.8669C237.21 39.3265 237.111 43.9531 237.495 49.2631C237.928 51.5421 243.46 52.7411 239.961 55.3231C236.104 55.7648 231.619 56.5599 228.352 54.1673C225.984 51.0138 227.469 46.9281 227.3 43.1309C227.417 40.5129 227.808 37.2602 227.235 34.4367C226.602 33.2647 225.088 33.692 224.049 33.4234C221.219 33.5135 217.556 33.1277 215.993 36.0414L215.582 37.0114C215.624 41.4289 214.973 46.4052 215.624 50.545C216.051 51.9261 217.856 52.8727 216.967 54.4666C216.215 55.7161 214.562 55.662 213.183 55.7432C210.421 55.9018 207.865 55.5755 205.243 55.5286C204.617 55.2563 203.786 55.1229 203.644 54.3693C203.076 52.7826 204.868 52.0109 205.203 50.6983C205.982 44.7519 205.938 38.6035 205.403 32.3289C205.248 30.6016 202.484 30.1401 203.577 28.1982C204.26 27.4355 205.293 27.2191 206.328 27.0713C208.604 26.7774 211.159 26.5538 213.506 26.8784C215.096 27.486 214.766 29.3539 214.78 30.8036C215.68 31.4148 216.221 29.7542 216.837 29.408C220.049 25.5135 226.155 29.1267 229.51 25.5062C231.844 23.8312 234.103 21.4656 236.506 20.0683C237.194 19.9926 237.96 20.3351 238.103 21.0185Z" fill="#03A1E3"/>
<path d="M56.6689 1.60701C57.015 1.73863 56.8095 2.08842 56.6743 2.22725C45.1825 15.7843 33.8962 28.9915 22.8894 42.5431C20.7767 45.9419 20.8163 50.8461 23.0534 54.2088C23.331 54.6902 23.8177 55.0292 23.8916 55.5809C17.4021 55.8423 11.3291 55.7522 5.11537 55.5989C1.77689 52.7231 0.495218 47.5538 2.18609 43.2571C2.66379 42.4241 2.99908 41.4577 3.61558 40.695C14.4891 27.8322 25.6348 14.212 36.7841 1.55472C43.1348 1.22837 49.9721 1.72781 56.6689 1.60701Z" fill="#1F4FA2"/>
<path d="M59.1583 2.13663C69.9615 15.1708 80.9035 28.4808 91.5733 41.6556C93.8086 45.0886 93.6391 50.0577 91.6652 53.5953C90.845 54.4337 90.2321 55.6832 89.0586 55.8942L70.7673 55.9014L70.697 55.6273C73.4316 52.2935 74.0787 47.108 72.2527 43.1864C69.6695 39.272 66.3977 35.9147 63.5387 32.2077L48.8292 14.2332L48.8923 13.5444L58.6734 2.07172L59.1583 2.13663Z" fill="#03A1E3"/>
<path d="M53.1955 33.7397C52.1896 37.5441 48.8998 40.5407 47.3387 43.9395C44.8114 38.5682 39.2485 33.7126 42.0282 27.1315C43.454 24.1511 45.6406 21.4376 47.555 18.733C50.4194 23.264 55.1495 27.9267 53.1955 33.7397Z" fill="#1F4FA2"/>
<path d="M115.468 25.6505C114.709 25.7965 114.026 26.4203 113.824 27.0478C112.741 30.0895 111.317 33.0717 111.205 36.4579C112.728 36.9952 114.246 36.9825 115.971 37.0438C116.937 36.896 118.388 37.0925 119.073 36.1892C119.194 34.1824 118.214 32.1883 117.988 30.1184C117.491 28.4686 117.749 25.8398 115.468 25.6505ZM122.443 16.9634C123.201 17.3042 123.832 18.1282 124.182 18.8837C127.16 29.0113 129.522 39.4184 132.364 49.6146C132.784 50.5071 133.139 51.6827 134.109 52.0884C134.663 52.2885 135.146 52.0108 135.555 51.7314C136.516 50.6207 136.363 48.9619 136.559 47.5105C136.849 40.8825 136.925 32.8013 136.319 25.9011C136.849 23.4111 131.724 21.2438 135.714 19.4805C138.537 18.359 141.354 16.8859 144.386 16.0331C145.145 16.0962 146.181 16.0871 146.535 17.0518L146.751 18.1534C146.351 28.6525 145.816 39.633 146.308 49.5046C145.981 51.7837 149.715 52.8655 147.872 55.222C145.738 56.2083 142.978 55.9505 140.424 56.0424L124.615 56.165C123.443 55.9685 121.988 55.9775 121.291 54.9498C120.443 52.5427 123.746 50.9957 122.068 48.4535C121.502 46.6612 121.554 44.5246 120.577 43.0119C118.086 42.4115 114.987 43.331 112.77 42.1753L110.195 39.779L109.644 39.8548C108.425 43.1075 107.486 46.4286 106.545 49.7534C105.323 52.0361 108.434 52.9142 107.621 54.9227C106.942 56.0965 105.42 55.9036 104.182 56.0533C102.039 55.7936 99.0047 56.4391 98.4333 53.8896C99.0282 50.5702 100.661 47.6583 101.604 44.4742C104.243 38.0319 106.403 31.4562 108.973 24.9455C109.444 23.1442 110.875 20.7859 109.273 19.073C109.197 18.2472 109.19 17.4809 109.808 16.9941C112.492 15.7301 116.018 16.5325 118.985 16.5091L122.443 16.9634Z" fill="#03A1E3"/>
<path d="M263.909 28.3448C265.241 30.2669 264.084 32.829 263.063 34.632C262.039 35.9518 260.88 37.69 258.87 37.2897C258.113 37.1563 257.28 36.8858 257.07 36.1303C257.125 34.5401 259.117 33.2816 257.863 31.7039C257.374 31.0187 256.475 31.3018 255.993 30.6834C254.331 30.6978 252.399 30.5752 251.514 32.1673C250.903 33.2761 251.534 34.3796 252.228 35.2703C256.403 39.0368 264.468 37.8018 265.214 45.1113C265.376 48.0106 264.922 51.5319 262.872 53.6198C259.372 56.8292 253.78 56.3839 249.149 56.0791C246.728 55.2678 242.661 56.0611 242.49 52.3991C242.337 50.2607 241.349 46.9594 243.406 45.7658C246.375 45.3998 245.991 49.0599 248.274 49.9434C250.494 51.3714 253.607 52.0367 256.22 50.9856C256.907 50.423 257.039 49.5954 257.035 48.766C256.044 45.8758 252.449 45.4881 249.953 44.2675C246.767 43.2541 243.166 41.2834 242.859 37.4844C242.76 33.9649 242.315 29.6178 246.027 27.7264C251.397 25.4059 257.953 25.4906 263.215 27.8616L263.909 28.3448Z" fill="#03A1E3"/>
<path d="M318.232 27.0137C319.344 28.4561 319.912 30.0374 320.337 31.6926C322.252 37.9617 323.405 44.5122 325.666 50.5704C326.219 51.1906 326.778 51.5927 327.539 51.9353L327.744 51.7315C328.074 49.7897 326.809 47.3159 328.732 46.1241C329.284 46.052 329.63 46.0484 330.187 46.1133C331.714 47.5539 332.766 49.8221 334.982 50.5001C337.06 51.0338 339.683 51.5638 341.68 50.5794C342.574 50.1575 342.704 49.2614 342.832 48.432C342.405 46.2251 339.921 45.969 338.187 45.2226C334.794 44.0776 330.857 43.351 328.75 39.9144C328.036 36.4003 327.032 31.4329 329.841 28.5102C332.992 25.7245 337.547 25.7588 341.689 25.8616C344.525 26.2528 347.836 26.1591 349.516 28.9069C349.951 31.3933 349.351 34.0185 347.775 35.8251C346.477 36.8024 344.961 37.7147 343.158 37.1089C342.884 36.9016 342.4 36.6293 342.398 36.2128C342.104 34.7 343.62 33.858 343.335 32.4787C343.184 31.7214 342.906 31.0309 342.21 30.6198C340.893 30.2159 339.173 30.1636 338.071 31.0687C337.459 31.5574 337.462 32.2479 337.264 32.9421C337.067 34.7379 338.731 35.8991 340.119 36.6491C344.204 38.4792 350.836 38.7695 351.501 44.6312C351.735 48.2949 351.214 52.0939 347.923 54.1206C346.068 55.5882 343.582 55.5377 341.24 55.8316C337.024 55.6585 331.993 56.6664 328.451 53.8645C327.899 53.8645 327.766 54.629 327.216 54.8382C324.186 55.828 321.076 55.6459 317.835 55.4674C316.797 55.1302 315.688 54.5172 315.333 53.4841C313.765 47.6981 312.613 41.5606 310.843 35.9135C310.493 35.0156 309.797 34.2637 308.825 33.858C308.067 33.8634 307.241 33.8003 306.691 34.4278C306.145 35.1202 305.941 35.9514 306.091 36.9827C305.983 41.2685 305.882 46.1006 306.608 50.4478C307.106 51.6828 308.696 52.5014 308.088 54.0899C305.83 56.3185 301.747 55.453 298.642 55.6171C297.4 55.3484 295.6 55.3646 295.317 53.7095C295.167 52.3301 296.539 51.4214 296.878 50.107C297.31 44.5122 297.052 38.1637 296.6 32.9186C296.515 31.1931 293.952 30.1077 295.05 28.3029C296.34 26.9831 298.208 26.9668 299.931 26.608C301.862 26.5954 304.342 25.6758 305.738 27.2535C306.087 27.9405 305.678 28.9123 306.441 29.318C308.442 28.6797 310.156 27.3563 312.081 26.581C313.943 25.9445 316.696 25.3693 318.232 27.0137Z" fill="#03A1E3"/>
<path d="M277.121 31.4837C275.214 35.0879 276.292 40.0499 276.322 43.9174C276.548 46.4038 276.842 48.8181 278.516 50.6698C279.767 51.8309 281.835 51.3279 283.214 51.0448V51.1855C283.347 50.6986 283.832 50.5562 284.104 50.2082C285.53 47.3666 284.539 43.8543 284.586 40.8126C284.072 37.6447 284.319 33.7735 282.156 31.1663C280.701 30.4181 278.352 30.5064 277.121 31.4837ZM291.825 31.3665C293.456 36.8784 294.12 42.8825 293.756 48.8217C293.366 51.7228 291.385 54.705 288.496 55.4875C283.605 56.7713 277.597 57.0273 272.759 55.547C266.386 52.9037 266.597 45.1002 266.622 39.0943C266.997 34.6696 267.304 29.8357 271.358 27.3854C276.038 25.2776 282.323 25.9862 287.236 26.9166C289.377 27.517 291.118 29.3002 291.825 31.3665Z" fill="#03A1E3"/>
<path d="M162.824 33.7695C161.993 33.9138 161.169 34.1283 160.687 34.8928C159.813 37.7308 160.253 40.5598 160.066 43.2481C160.222 45.8048 159.628 48.8483 161.093 50.9759C161.993 51.5222 163.101 51.8576 164.273 51.5709C165.374 51.2175 166.268 50.5882 166.811 49.6218C167.819 46.3655 166.688 42.9235 166.18 39.6817C165.407 37.5487 165.38 34.5791 162.824 33.7695ZM160.552 17.4953C161.133 21.1447 160.543 25.1564 160.504 28.8202C160.574 29.0239 160.785 29.2295 160.922 29.2295C163.88 28.1711 167.035 25.2448 170.362 27.4968C173.636 30.6503 174.288 35.0587 175.494 39.0542C176.296 44.1586 177.167 50.298 172.853 54.1312C171.069 55.5899 168.722 55.406 166.514 55.9054C161.688 56.2173 156.577 56.12 151.88 55.8134C151.051 55.6151 150.22 55.204 149.937 54.3133C149.926 53.0692 150.539 52.0974 151.015 51.1219C151.707 42.7613 151.714 34.8243 151.234 26.5429C151.631 24.4677 147.692 23.741 150.023 21.7198C152.839 19.7635 155.795 18.2886 158.892 17.0229C159.512 16.9472 160.066 17.0806 160.552 17.4953Z" fill="#03A1E3"/>
<path d="M42.0559 39.4217C44.6246 41.1292 46.3029 44.0844 47.3629 46.9043C48.4408 43.7184 50.4201 40.6676 53.5134 38.9169C57.0124 36.4016 62.0597 37.3302 66.478 37.2959C67.4082 41.4303 65.5785 45.9325 61.8705 48.2422C58.9231 50.752 54.2868 49.3348 50.777 50.8151C48.9185 51.5886 47.9667 53.6675 47.1519 55.1226C46.5102 52.4378 44.1451 50.4527 41.3799 50.0578C36.2766 50.5861 31.4961 48.5487 29.1833 43.9437C28.1305 41.9478 27.9737 39.5317 28.2333 37.2527L28.4388 37.112C33.0644 37.1445 38.3046 36.4828 42.0559 39.4217Z" fill="#1F4FA2"/>
<path d="M194.452 44.086C192.177 44.7909 189.623 44.9514 187.564 46.2803C187.37 48.2834 188.148 50.1388 189.605 51.372C190.995 52.187 192.581 51.9706 194.093 51.5451C196.222 50.2127 197.102 47.7227 196.805 45.2399C196.588 44.1346 195.344 43.9399 194.452 44.086ZM189.511 30.8643C187.382 31.9173 187.539 34.611 187.278 36.753C187.433 38.2009 186.753 40.1409 188.278 40.9559C190.211 40.8062 192.628 40.7846 193.722 39.0501C194.391 36.4195 194.019 33.4535 192.693 31.3241C191.856 30.5722 190.544 30.5812 189.511 30.8643ZM200.206 30.0908C201.956 33.2533 202.887 36.9766 202.014 40.6386C201.407 42.0954 199.752 42.2451 198.513 42.9464V43.2241C199.903 44.2482 201.98 44.7152 202.065 46.8554C202.297 50.0955 200.392 53.2905 197.434 54.8285C193.306 56.7271 188.473 56.2853 184.047 55.3477C182.385 54.677 180.444 53.8602 179.669 52.0049C177.615 45.5338 177.686 36.9658 180.188 30.5271C183.326 24.9756 191.063 26.1548 196.388 27.013C198.045 27.4854 199.161 28.6484 200.206 30.0908Z" fill="#03A1E3"/>
<path d="M354.533 26.3469C355.153 26.3433 356.106 26.4406 356.105 25.5427C356.096 24.8666 355.501 24.7927 354.96 24.7945L353.702 24.8017L353.718 26.3541L354.533 26.3469ZM356.613 28.7774L355.978 28.781L354.706 26.7688L353.721 26.776L353.738 28.799L353.202 28.8026L353.164 24.4158L355.075 24.4032C355.45 24.3996 355.82 24.4158 356.148 24.6106C356.476 24.7927 356.647 25.1821 356.653 25.5481C356.656 26.4136 356.052 26.7399 355.27 26.7634L356.613 28.7774ZM358.084 26.565C358.071 24.6683 356.516 23.1375 354.614 23.1483C352.705 23.1645 351.173 24.7187 351.187 26.6209C351.203 28.5448 352.761 30.0738 354.67 30.0575C356.571 30.0413 358.102 28.4889 358.084 26.565ZM350.706 26.6245C350.689 24.4681 352.431 22.6957 354.612 22.6759C356.784 22.6615 358.54 24.4032 358.558 26.565C358.571 28.7413 356.845 30.5137 354.673 30.5281C352.492 30.5498 350.727 28.8026 350.706 26.6245Z" fill="#03A1E3"/>
</g>
</g>
<defs>
<clipPath id="clip0_2722_16880">
<rect width="360" height="58" fill="white"/>
</clipPath>
</defs>
</svg>
