<svg width="360" height="201" viewBox="0 0 360 201" fill="none" xmlns="http://www.w3.org/2000/svg">
<g clip-path="url(#clip0_2722_16671)">
<path d="M0 55.5907H18.5033V93.807C20.8067 93.4228 22.7767 92.7313 24.7167 91.9697C36.55 87.3296 43.34 78.4303 46.2933 66.2872C47.18 62.6426 47.44 58.9246 47.6267 55.2031C48.49 38.0091 55.59 23.8951 68.7633 12.9714C88.8433 -3.68144 118.41 -4.36292 139.07 11.3245C153.59 22.3518 161.357 37.0871 162.34 55.3602C162.377 56.0216 162.343 56.6864 162.343 57.4848H145.887C145.787 54.3814 145.487 51.298 144.803 48.2514C141.013 31.3313 125.97 18.1961 108.703 16.7897C86.5033 14.9824 67.3233 30.3525 64.3867 52.3436C63.77 56.9703 63.9567 61.6605 63.13 66.2906C61.1867 77.1742 56.89 86.8719 49.32 95.0196C49.1367 95.2167 48.9867 95.4439 48.7367 95.7646C52.7767 101.841 56.8 107.901 60.8333 113.951C64.8567 119.991 68.8933 126.024 73.06 132.267H50.9033C45.4667 123.675 39.92 114.91 34.26 105.967C29.2767 108.145 24.16 109.899 18.6 110.801V132.431H0V55.5973V55.5907Z" fill="#154C94"/>
<path d="M360 90.667C357.73 90.6503 355.497 90.1759 353.213 90.2527C346.797 90.4699 342.173 93.443 339.21 99.1186C338.78 99.9438 338.65 100.772 338.65 101.678C338.663 111.188 338.663 120.702 338.653 130.213C338.653 130.864 338.8 131.539 338.467 132.261H321.257V74.6555H338.197V83.2508C339.057 83.184 339.23 82.5092 339.577 82.0883C342.777 78.2099 346.343 74.8459 351.477 73.7736C354.347 73.1756 357.21 73.2758 360 74.2914V90.6603V90.667Z" fill="#154C94"/>
<path d="M232.517 126.926C230.79 127.841 229.083 128.96 227.17 129.665C216.043 133.771 204.43 130.276 196.467 120.525C186.313 108.098 187.96 83.6083 208.303 75.2735C216.68 71.8394 224.967 72.4841 232.143 78.8446C232.213 78.9047 232.343 78.8981 232.65 78.9682V74.6355H249.19C249.533 75.1867 249.367 75.8648 249.367 76.5028C249.377 100.943 249.43 125.379 249.357 149.819C249.28 175.421 229.647 197.509 204.367 200.596C178.07 203.806 154.05 187.374 147.56 161.721C146.727 158.424 146.27 155.064 146.077 151.669C146.033 150.911 145.883 150.126 146.25 149.304H162.513C162.677 151.543 162.82 153.744 163.247 155.912C168.077 180.586 197.5 192.448 217.79 177.86C227.45 170.915 232.537 161.421 232.847 149.508C233.033 142.333 232.893 135.147 232.893 127.965C232.893 127.644 232.957 127.293 232.523 126.926H232.517ZM232.75 102.676C232.787 93.1256 225.197 86.8854 216.337 89.3608C210.663 90.9476 207.963 95.1834 207.107 100.799C206.27 106.278 209.187 112.491 213.843 114.803C222.597 119.145 232.793 113.734 232.75 102.676Z" fill="#154C94"/>
<path d="M313.29 108.299H273.87C274.577 112.204 276.26 115.297 279.793 116.784C286.29 119.513 292.583 118.778 298.493 114.916C298.95 114.616 299.363 114.248 299.87 113.854C304.073 116.212 308.217 118.538 312.547 120.969C307.337 126.592 301.59 130.998 294.113 132.518C286.123 134.141 278.237 133.851 270.987 129.688C262.027 124.547 257.607 116.446 256.887 106.291C256.003 93.8739 260.343 83.8355 271.2 77.3213C284.367 69.4208 305.5 72.1902 312.367 93.9808C313.91 98.8748 314.15 104.684 313.29 108.299ZM274.12 97.7891H296.087C295.483 92.5745 290.707 88.0379 285.723 87.8308C280.307 87.607 275.437 91.7226 274.12 97.7891Z" fill="#154C94"/>
<path d="M183.733 103.508C183.687 120.559 171.003 133.406 154.263 133.35C137.533 133.293 124.787 120.184 124.77 103.254C124.757 86.9221 137.667 73.0888 154.667 73.3727C171.203 73.6466 183.777 86.5112 183.733 103.508ZM167.14 103.485C167.097 102.673 167.12 101.885 167.007 101.12C166.267 96.2223 163.883 92.3706 159.277 90.403C154.967 88.5624 150.587 88.8797 146.817 91.8428C142.13 95.5242 140.767 100.582 141.673 106.328C143.097 115.327 152.577 120.235 160.363 115.865C165.093 113.213 167.06 108.796 167.14 103.491V103.485Z" fill="#154C94"/>
<path d="M80.47 74.6455C80.6366 74.6121 80.7966 74.5486 80.9566 74.5486C86.3966 74.5419 91.8366 74.5452 97.44 74.5452V83.2976C98.3566 83.1038 98.5833 82.419 98.96 81.948C101.597 78.6308 104.65 75.8481 108.683 74.3515C112.187 73.052 115.713 73.1489 119.257 74.2412V90.7404C117.903 90.6001 116.603 90.4431 115.3 90.3396C108.297 89.7717 102.63 91.9631 98.9266 98.2668C98.2333 99.4493 97.8866 100.652 97.8933 102.052C97.9366 111.462 97.9166 120.869 97.9133 130.28C97.9133 130.884 97.9133 131.489 97.9133 132.227H80.47V74.6488V74.6455Z" fill="#154C94"/>
<path d="M262.263 176.083C262.273 179.477 259.433 182.39 256.073 182.43C252.56 182.473 249.657 179.661 249.623 176.19C249.59 172.762 252.353 170.04 255.887 170.013C259.41 169.986 262.253 172.692 262.263 176.083ZM251.233 176.046C251.18 178.952 253.197 181.08 256.02 181.097C258.543 181.11 260.58 179.056 260.653 176.417C260.733 173.587 258.74 171.329 256.123 171.286C253.353 171.239 251.283 173.253 251.23 176.049L251.233 176.046Z" fill="#154C94"/>
<path d="M258.76 179.249C258.297 179.597 257.877 179.48 257.407 179.36C257.153 178.681 256.9 178.013 256.653 177.359C256.217 177.038 255.757 176.898 255.2 176.991C254.747 177.676 255.187 178.501 254.88 179.249C254.517 179.577 254.12 179.507 253.63 179.239V173.367C254.63 172.952 255.577 173.096 256.503 173.113C257.36 173.129 258.193 173.283 258.547 174.225C258.883 175.11 258.367 175.698 257.637 176.306C258.417 177.151 258.65 178.194 258.76 179.249ZM255.073 175.869C255.81 175.819 256.433 176.016 256.927 175.461C257.207 174.73 256.943 174.285 256.187 174.148C255.813 174.081 255.413 174.025 255.073 174.412V175.869Z" fill="#154C94"/>
</g>
<defs>
<clipPath id="clip0_2722_16671">
<rect width="360" height="201" fill="white"/>
</clipPath>
</defs>
</svg>
