<svg width="360" height="141" viewBox="0 0 360 141" fill="none" xmlns="http://www.w3.org/2000/svg">
<g clip-path="url(#clip0_2722_15004)">
<path d="M128.503 141C127.378 140.487 126.137 140.498 124.951 140.241C111.635 137.324 101.213 126.386 99.0255 112.976C96.0304 94.6137 107.704 77.5897 125.981 74.1313C136.981 72.0508 146.868 74.89 155.135 82.5206C162.779 89.5823 166.286 98.4904 165.929 108.882C165.406 124.182 153.727 137.653 138.69 140.42C137.699 140.604 136.658 140.565 135.712 140.995H128.503V141ZM133.357 93.2415C129.555 93.2415 127.122 94.0614 124.94 95.7237C118.348 100.733 117.519 110.74 123.158 117.193C127.712 122.409 135.717 122.721 140.655 117.885C145.165 113.467 146.445 106.573 143.678 100.894C141.379 96.1699 137.649 93.4534 133.357 93.2471V93.2415Z" fill="#EE4317"/>
<path d="M186.344 32.4192C187.975 32.9603 189.444 33.4846 190.836 34.2153C194.739 36.2513 197.082 39.4252 197.823 43.7704C198.468 47.5578 198.418 51.2895 196.871 54.8817C194.878 59.517 191.153 62.2279 186.611 63.985C182.675 65.5133 178.555 66.1325 174.369 66.1548C163.024 66.2106 151.672 66.1604 140.327 66.1883C139.464 66.1883 139.202 66.0042 139.202 65.095C139.23 44.278 139.23 23.461 139.202 2.64401C139.202 1.82962 139.375 1.57861 140.232 1.57861C151.945 1.61766 163.664 1.56746 175.377 1.6567C180.153 1.69575 184.807 2.57149 189.005 5.04253C193.642 7.77574 195.974 11.87 196.03 17.2639C196.047 18.9707 195.974 20.6609 195.613 22.3398C194.694 26.6237 192.233 29.6581 188.309 31.5323C187.713 31.8168 187.101 32.0734 186.338 32.4081L186.344 32.4192ZM166.43 40.3065C164.404 40.3065 162.734 40.3232 161.069 40.2953C160.546 40.2897 160.296 40.379 160.301 40.9926C160.335 43.6979 160.329 46.4032 160.307 49.1085C160.307 49.6161 160.429 49.8113 160.975 49.8058C164.243 49.7723 167.516 49.8058 170.784 49.7388C172.159 49.7054 173.495 49.3428 174.647 48.534C176.095 47.53 176.735 46.1522 176.434 44.384C176.089 42.3369 174.725 41.0707 172.359 40.5519C170.277 40.1001 168.167 40.4069 166.436 40.3065H166.43ZM165.456 26.9361C167.405 26.8636 169.587 27.1536 171.702 26.4898C173.189 26.0269 174.324 25.179 174.714 23.5893C175.36 20.9509 173.968 18.8592 171.084 18.2958C167.689 17.6376 164.237 18.0838 160.813 17.9667C160.218 17.9444 160.318 18.3739 160.318 18.7253C160.318 21.2298 160.335 23.7287 160.301 26.2333C160.296 26.8245 160.507 26.9584 161.047 26.9472C162.445 26.9138 163.847 26.9361 165.451 26.9361H165.456Z" fill="#EE4317"/>
<path d="M250.626 32.419C252.535 33.0438 254.25 33.6796 255.842 34.6112C259.382 36.6806 261.425 39.7652 262.121 43.7814C262.667 46.9441 262.7 50.0956 261.776 53.197C260.245 58.3176 256.649 61.5082 251.917 63.572C247.725 65.4016 243.283 66.1211 238.757 66.149C227.378 66.216 215.993 66.1602 204.614 66.1936C203.724 66.1936 203.507 65.965 203.507 65.0836C203.529 44.2666 203.529 23.4552 203.507 2.63822C203.507 1.81268 203.707 1.58398 204.548 1.58398C216.294 1.62303 228.046 1.55609 239.792 1.66765C244.88 1.71786 249.818 2.68842 254.161 5.58897C258.241 8.31102 260.234 12.1989 260.334 17.0852C260.379 19.3331 260.223 21.5476 259.549 23.7174C258.419 27.3486 256.053 29.8699 252.685 31.5098C252.357 31.6716 252.017 31.8054 251.678 31.9505C251.377 32.0843 251.076 32.2182 250.631 32.419H250.626ZM230.584 40.3063C228.603 40.3063 226.966 40.3286 225.329 40.2951C224.734 40.284 224.511 40.4346 224.522 41.0705C224.555 43.7088 224.561 46.3472 224.522 48.9856C224.511 49.6717 224.756 49.8167 225.385 49.8111C228.285 49.7833 231.191 49.8 234.092 49.7944C235.506 49.7944 236.875 49.5546 238.178 48.9744C240.137 48.0931 241.061 46.3751 240.711 44.2666C240.388 42.3199 238.94 41.037 236.53 40.5406C234.448 40.111 232.338 40.4234 230.59 40.3174L230.584 40.3063ZM229.449 26.9303C230.551 26.9303 231.648 26.9359 232.75 26.9303C233.986 26.9191 235.211 26.7964 236.374 26.3446C238.245 25.625 239.08 24.4369 239.096 22.4847C239.113 20.5602 238.261 19.3331 236.402 18.6024C235.684 18.3235 234.943 18.1338 234.175 18.0781C231.18 17.8549 228.179 18.0278 225.184 17.9609C224.622 17.9498 224.522 18.2119 224.528 18.6916C224.544 21.1961 224.555 23.6951 224.522 26.1996C224.511 26.8689 224.789 26.9582 225.351 26.947C226.715 26.9136 228.085 26.9359 229.449 26.9359V26.9303Z" fill="#EE4317"/>
<path d="M217.947 105.926C220.252 106.657 222.223 107.443 224.01 108.653C226.543 110.366 228.274 112.664 229.07 115.626C230.111 119.514 230.234 123.418 228.948 127.267C227.311 132.17 223.709 135.205 219.1 137.157C215.125 138.847 210.927 139.594 206.624 139.617C195.078 139.673 183.532 139.656 171.992 139.712C171.034 139.712 170.862 139.405 170.862 138.529C170.884 117.785 170.884 97.0401 170.862 76.2956C170.862 75.4087 171.057 75.1187 172.003 75.1187C183.482 75.1521 194.961 75.1075 206.44 75.1577C211.323 75.18 216.077 75.9665 220.402 78.4152C225.229 81.1484 227.645 85.3263 227.695 90.882C227.712 92.7227 227.6 94.5467 227.161 96.3484C226.07 100.822 223.219 103.728 219.061 105.48C218.766 105.602 218.471 105.719 217.958 105.931L217.947 105.926ZM197.249 123.318C198.647 123.318 200.049 123.346 201.447 123.312C203.056 123.273 204.631 123.033 206.051 122.191C208.873 120.512 208.856 116.485 206.017 114.845C205.115 114.321 204.13 114.019 203.089 113.919C199.565 113.579 196.03 113.858 192.501 113.752C191.799 113.729 191.883 114.181 191.883 114.611C191.883 117.216 191.911 119.815 191.86 122.42C191.844 123.212 192.133 123.363 192.846 123.34C194.31 123.29 195.78 123.323 197.244 123.323L197.249 123.318ZM196.659 91.4677C195.29 91.4677 193.92 91.49 192.556 91.4565C192.027 91.4454 191.872 91.6183 191.877 92.137C191.899 94.675 191.899 97.213 191.877 99.751C191.877 100.342 192.117 100.471 192.657 100.465C195.256 100.443 197.862 100.487 200.461 100.437C201.352 100.42 202.254 100.264 203.128 100.058C205.288 99.5446 206.435 98.1111 206.452 96.0249C206.474 93.8829 205.349 92.4885 203.134 91.886C201.007 91.3059 198.83 91.5067 196.665 91.4677H196.659Z" fill="#EE4317"/>
<path d="M282.285 105.909C283.933 106.489 285.336 106.985 286.666 107.672C290.691 109.741 293.068 112.987 293.792 117.466C294.41 121.293 294.326 125.064 292.695 128.65C290.697 133.051 287.111 135.695 282.741 137.408C278.945 138.897 274.975 139.589 270.917 139.611C259.366 139.667 247.82 139.65 236.268 139.7C235.394 139.7 235.155 139.499 235.155 138.601C235.183 117.812 235.183 97.0287 235.155 76.2396C235.155 75.3862 235.333 75.1073 236.246 75.1129C247.797 75.1463 259.349 75.0961 270.895 75.1575C275.922 75.1854 280.804 76.0332 285.185 78.6995C289.683 81.4327 291.905 85.4991 291.983 90.7591C292.021 93.1799 291.804 95.5561 290.975 97.8543C289.678 101.441 287.123 103.784 283.716 105.301C283.32 105.474 282.925 105.641 282.285 105.909ZM261.498 123.318C262.934 123.318 264.365 123.351 265.801 123.318C267.415 123.273 268.991 123.028 270.399 122.169C273.2 120.456 273.122 116.418 270.255 114.817C269.375 114.326 268.423 114.019 267.415 113.924C263.886 113.579 260.351 113.857 256.821 113.757C256.254 113.74 256.17 113.997 256.17 114.477C256.187 117.182 256.198 119.887 256.165 122.587C256.153 123.256 256.426 123.346 256.994 123.334C258.492 123.301 259.995 123.323 261.498 123.323V123.318ZM261.13 91.4675C259.588 91.4675 258.219 91.4898 256.849 91.4563C256.32 91.4452 256.165 91.6181 256.17 92.1368C256.192 94.6748 256.187 97.2128 256.176 99.7508C256.176 100.147 256.17 100.476 256.727 100.459C259.928 100.37 263.134 100.677 266.324 100.27C268.095 100.046 269.742 99.4496 270.477 97.5921C271.49 95.0151 270.21 92.6668 267.421 91.8803C265.294 91.2834 263.118 91.4954 261.13 91.4563V91.4675Z" fill="#EE4317"/>
<path d="M0.0167009 33.7581C0.0167009 23.3663 0.0278349 12.969 0 2.57723C0 1.72938 0.161443 1.43932 1.08556 1.4449C7.59336 1.48953 14.1067 1.48395 20.6145 1.4449C21.483 1.4449 21.65 1.72938 21.65 2.52703C21.6222 9.77839 21.65 17.0298 21.611 24.2811C21.611 25.1234 21.8448 25.3186 22.6632 25.3131C28.1021 25.274 33.5466 25.274 38.9856 25.3131C39.8262 25.3186 40.1101 25.168 40.099 24.2421C40.0544 17.0242 40.0934 9.80628 40.0544 2.58839C40.0544 1.64013 40.3328 1.4449 41.2346 1.45048C47.709 1.48953 54.189 1.48395 60.6634 1.45048C61.4706 1.45048 61.6488 1.68476 61.6488 2.46009C61.6265 23.3161 61.6265 44.1666 61.6488 65.0226C61.6488 65.8593 61.4261 66.0657 60.6022 66.0601C54.1612 66.0267 47.7146 66.0099 41.2736 66.0713C40.188 66.0825 40.0489 65.7255 40.0544 64.7828C40.0934 57.6318 40.0544 50.4809 40.0934 43.3299C40.0934 42.4374 39.8986 42.1474 38.9522 42.1585C33.58 42.2087 28.2023 42.2087 22.8302 42.1585C21.8838 42.153 21.5999 42.3593 21.6055 43.3522C21.65 50.5701 21.6166 57.788 21.65 65.0059C21.65 65.8314 21.444 66.0657 20.609 66.0601C14.1012 66.0267 7.5878 66.0211 1.07999 66.0601C0.155876 66.0657 0 65.7812 0.00556698 64.939C0.0334019 54.5472 0.0222679 44.1499 0.0222679 33.7581H0.0167009Z" fill="#EE4317"/>
<path d="M100.506 67.4935C81.946 67.4935 66.7927 52.3827 66.8539 33.7802C66.9207 14.235 82.9537 -0.462976 101.464 0.0111521C119.289 0.468546 134.337 15.0549 134.309 33.942C134.281 52.4776 119.156 67.499 100.506 67.499V67.4935ZM100.568 47.8144C102.605 47.8423 104.487 47.3403 106.24 46.3697C114.474 41.8236 115.938 29.9147 109.091 23.2378C104.498 18.7587 97.6227 18.5077 92.7348 22.641C87.7858 26.8245 86.2716 34.2822 89.2221 40.2618C91.5379 44.9585 95.2734 47.5857 100.568 47.8144Z" fill="#EE4317"/>
<path d="M328.547 1.6342C327.183 3.79288 325.919 5.78421 324.655 7.77555C318.014 18.2231 311.372 28.6706 304.72 39.1126C304.38 39.6481 304.241 40.1724 304.247 40.8027C304.263 48.8908 304.247 56.9789 304.275 65.0669C304.275 65.898 304.135 66.2104 303.195 66.2048C296.72 66.1546 290.24 66.1602 283.766 66.2048C282.847 66.2104 282.68 65.9371 282.686 65.0836C282.719 57.1629 282.697 49.2422 282.719 41.3215C282.719 40.5517 282.541 39.9103 282.14 39.2576C274.664 27.0474 267.198 14.8317 259.744 2.61035C259.577 2.34261 259.304 2.10275 259.332 1.63978C259.627 1.63978 259.917 1.63978 260.201 1.63978C267.878 1.63978 275.554 1.65094 283.237 1.62305C283.949 1.62305 284.289 1.87963 284.623 2.45974C287.913 8.11023 291.237 13.744 294.549 19.3833C294.716 19.6678 294.889 19.9467 295.139 20.3595C295.852 19.1658 296.514 18.0613 297.166 16.9569C300.055 12.0762 302.944 7.19544 305.828 2.30914C306.056 1.92426 306.245 1.62862 306.796 1.6342C313.972 1.65651 321.148 1.65094 328.552 1.65094L328.547 1.6342Z" fill="#EE4317"/>
<path d="M290.813 75.1354C291.348 75.1354 291.676 75.1354 292.005 75.1354C299.581 75.1354 307.158 75.1465 314.735 75.1187C315.503 75.1187 315.915 75.3473 316.305 76.0223C319.734 81.9349 323.208 87.8253 326.676 93.7379C327.11 93.5594 327.205 93.1411 327.4 92.8176C330.718 87.2229 334.041 81.6337 337.331 76.0167C337.721 75.3529 338.138 75.1242 338.907 75.1242C345.648 75.1577 352.39 75.141 359.131 75.1465C359.415 75.1465 359.727 75.0406 360.005 75.2693C359.95 75.7211 359.632 76.0334 359.404 76.3904C351.766 88.4165 344.123 100.437 336.468 112.452C336.073 113.071 335.889 113.679 335.889 114.415C335.912 122.47 335.889 130.519 335.923 138.574C335.923 139.488 335.661 139.661 334.809 139.656C328.368 139.622 321.927 139.617 315.486 139.656C314.551 139.661 314.256 139.477 314.262 138.473C314.306 130.519 314.284 122.57 314.295 114.616C314.295 113.958 314.156 113.4 313.805 112.831C306.334 100.627 298.874 88.411 291.415 76.1952C291.248 75.9163 291.092 75.6318 290.813 75.141V75.1354Z" fill="#EE4317"/>
<path d="M50.5538 107.337C50.5538 96.9788 50.5649 86.6205 50.5315 76.2622C50.5315 75.3307 50.7876 75.1132 51.6894 75.1188C58.1304 75.1578 64.5714 75.1578 71.018 75.1188C71.892 75.1188 72.1314 75.3307 72.1314 76.2232C72.1036 90.8933 72.1202 105.563 72.0813 120.233C72.0813 121.271 72.3596 121.494 73.3561 121.488C81.3002 121.444 89.2443 121.477 97.1884 121.444C98.0179 121.444 98.2517 121.656 98.2461 122.498C98.2071 127.909 98.2127 133.325 98.2461 138.736C98.2461 139.461 98.0902 139.706 97.3108 139.706C82.0239 139.684 66.737 139.684 51.45 139.706C50.6373 139.706 50.5482 139.405 50.5482 138.719C50.5649 128.26 50.5593 117.801 50.5593 107.343L50.5538 107.337Z" fill="#EE4317"/>
<path d="M350.737 135.517C350.726 138.094 348.666 140.163 346.105 140.169C343.511 140.169 341.406 138.055 341.418 135.45C341.429 132.901 343.527 130.815 346.077 130.809C348.694 130.809 350.753 132.884 350.737 135.522V135.517ZM346.077 131.573C343.939 131.579 342.202 133.319 342.186 135.456C342.169 137.659 343.906 139.394 346.11 139.394C348.254 139.394 349.996 137.664 350.013 135.522C350.03 133.353 348.248 131.568 346.077 131.573Z" fill="#EE4317"/>
<path d="M346.979 135.751C347.474 136.543 347.909 137.24 348.382 137.999C347.886 138.161 347.586 138.099 347.352 137.67C347.068 137.146 346.701 136.66 346.417 136.13C346.177 135.69 345.815 135.639 345.398 135.706C344.886 135.79 345.081 136.214 345.058 136.51C345.03 136.906 345.047 137.313 345.047 137.709C345.047 137.943 344.947 138.088 344.691 138.083C344.451 138.077 344.312 137.949 344.312 137.714C344.312 136.214 344.312 134.708 344.312 133.207C344.312 132.828 344.574 132.8 344.858 132.8C345.359 132.8 345.86 132.8 346.361 132.8C347.73 132.8 348.326 133.135 348.476 134C348.666 135.104 348.009 135.567 346.973 135.745L346.979 135.751ZM346.188 133.369C345.531 133.33 345.019 133.269 345.014 134.284C345.014 135.327 345.565 135.199 346.194 135.182C346.428 135.177 346.662 135.182 346.89 135.137C347.391 135.054 347.797 134.825 347.797 134.256C347.797 133.682 347.402 133.453 346.884 133.403C346.65 133.38 346.422 133.38 346.188 133.369Z" fill="#EE4317"/>
</g>
<defs>
<clipPath id="clip0_2722_15004">
<rect width="360" height="141" fill="white"/>
</clipPath>
</defs>
</svg>
