<svg width="360" height="124" viewBox="0 0 360 124" fill="none" xmlns="http://www.w3.org/2000/svg">
<g clip-path="url(#clip0_2722_15104)">
<mask id="mask0_2722_15104" style="mask-type:luminance" maskUnits="userSpaceOnUse" x="0" y="0" width="360" height="124">
<path d="M359.489 0.529785H0V123.282H359.489V0.529785Z" fill="white"/>
</mask>
<g mask="url(#mask0_2722_15104)">
<path d="M71.549 9.67236H69.8354V23.1724H71.5941C74.6981 23.1724 77.0881 20.1499 77.0129 16.4224C77.0129 12.7249 74.6981 9.67236 71.5565 9.67236H71.549Z" fill="black"/>
<path d="M117.673 9.74707H114.2V16.3471H117.673C119.319 16.3471 120.671 14.8546 120.671 13.0246C120.671 11.1946 119.326 9.74707 117.673 9.74707Z" fill="black"/>
<path d="M56.0818 9.74707H52.6021V16.3471H56.0818C57.7653 16.3471 59.1407 14.8546 59.073 13.0246C59.073 11.2396 57.7277 9.74707 56.0818 9.74707Z" fill="black"/>
<path d="M35.9324 9.34229C32.0093 9.34229 28.8376 12.5073 28.8376 16.4298C28.8376 20.3523 32.0168 23.5173 35.9324 23.5173C39.8481 23.5173 43.0347 20.3448 43.0347 16.4298C43.0347 12.5148 39.8631 9.34229 35.9324 9.34229Z" fill="black"/>
<path d="M136.815 9.34229C132.884 9.34229 129.713 12.5073 129.713 16.4298C129.713 20.3523 132.884 23.5173 136.815 23.5173C140.746 23.5173 143.91 20.3448 143.91 16.4298C143.91 12.5148 140.738 9.34229 136.815 9.34229Z" fill="black"/>
<path d="M0 0.529785V32.5998H175.521V0.529785H0ZM22.1035 26.3823L10.7775 14.1498L10.7023 14.0373V25.9323H7.78622V6.53729L19.2251 19.0323V6.91229H22.1035V26.3823ZM35.9324 26.4198C30.4008 26.4198 25.914 21.9048 25.914 16.4223C25.914 10.9398 30.4384 6.42479 35.9324 6.42479C41.4263 6.42479 45.9132 10.9023 45.9507 16.4223C45.9507 21.9423 41.4263 26.4198 35.9324 26.4198ZM59.8472 25.9698L55.443 19.3248V19.2948H52.5946V25.9698H49.6785V6.94979H56.3674C59.4714 6.94979 62.0117 9.67229 62.0117 13.0998C62.0117 15.1173 61.0797 17.0523 59.509 18.2073C59.2534 18.4323 58.9528 18.5823 58.6071 18.7698L58.577 18.7998L63.3194 25.9698H59.8397H59.8472ZM71.6618 25.9248H66.9495V6.91229H71.6618C76.2238 6.91229 79.914 11.1948 79.914 16.4223C79.914 21.6498 76.2539 25.9323 71.6618 25.9323V25.9248ZM91.4656 24.6573C90.5336 25.6248 89.2259 26.1873 87.7678 26.2623H87.6927C83.7695 26.2623 82.4242 23.1273 82.1987 22.4973L84.6639 21.3048L84.7766 21.5298C85.19 22.2723 85.8965 23.5473 87.7303 23.5473H87.843C88.4818 23.5473 88.9253 23.3223 89.3386 22.8723C89.7896 22.3473 90.015 21.6798 89.9775 20.9673C89.8647 19.9998 89.3762 19.1748 88.1812 18.2073L86.0543 16.3023C84.1077 14.6973 83.1758 13.2048 83.1006 11.5623C83.0255 10.1823 83.4388 8.95229 84.3332 8.05979C85.19 7.20479 86.3925 6.67979 87.7754 6.60479C90.1653 6.49229 91.9992 8.17228 92.3749 8.80228H92.4125L90.0977 10.3698L90.0601 10.3323C89.2785 9.13978 87.8205 9.32728 87.8205 9.32728C86.663 9.36478 85.9491 10.1823 85.9491 11.2698C85.9491 12.2373 86.4376 13.0998 87.4071 13.8423L89.6843 15.8223C92.2998 17.9448 92.7883 19.8873 92.8259 20.8923C92.901 22.3098 92.4125 23.6523 91.4806 24.6573H91.4656ZM107.391 9.58979H102.829V25.9248H99.838V9.55979H95.276V6.91229H107.384V9.59729L107.391 9.58979ZM121.446 25.9698L117.034 19.3248V19.2948H114.193V25.9698H111.269V6.94979H117.958C121.062 6.94979 123.61 9.67229 123.61 13.0998C123.61 15.1173 122.671 17.0523 121.107 18.2073C120.844 18.4323 120.544 18.5823 120.205 18.7698L120.16 18.7998L124.91 25.9698H121.43H121.446ZM136.808 26.4198C131.276 26.4198 126.789 21.9048 126.789 16.4223C126.789 10.9398 131.314 6.42479 136.808 6.42479C142.301 6.42479 146.788 10.9023 146.826 16.4223C146.826 21.9423 142.301 26.4198 136.808 26.4198ZM167.644 25.9323H164.766V15.4923L159.122 23.0298L153.477 15.4923V25.9323H150.599V6.53729L159.084 18.0648L167.644 6.53729V25.9323Z" fill="black"/>
<path d="M88.7599 121.835H48.1603L43.9365 93.9725H39.3745V121.835H0V38.5925H64.7324C76.5244 38.5925 84.7541 46.805 84.7541 58.5725V61.79C84.7541 74.33 77.1933 80.435 64.8451 81.6575L53.2785 82.7675V86.3225L65.9574 86.765C77.0806 87.2075 84.0852 90.2075 85.423 99.4175L88.7599 121.835ZM39.3745 76.3325H45.3795V59.1275H39.3745V76.3325ZM175.521 121.842H140.152V108.41H136.59C134.034 115.85 129.585 123.282 118.462 123.282H110.788C98.9962 123.282 90.7666 115.07 90.7666 103.302V91.4225C90.7666 79.655 98.9962 71.4425 110.788 71.4425H136.146V58.79H130.141V66.335H90.7666V58.565C90.7666 46.7975 98.9962 38.585 110.788 38.585H155.499C167.291 38.585 175.521 46.7975 175.521 58.565V121.835V121.842ZM136.146 79.775H130.141V99.53H136.146V79.775ZM181.526 58.5725C181.526 46.805 189.755 38.5925 201.547 38.5925H246.258C258.05 38.5925 266.28 46.805 266.28 58.5725V77.4425H226.905V59.015H220.9V101.637H226.905V82.5425H266.28V101.855C266.28 113.622 258.05 121.835 246.258 121.835H201.547C189.755 121.835 181.526 113.622 181.526 101.855V58.565V58.5725ZM359.158 121.842H319.896L315.116 89.6525H311.667V121.842H272.292V38.5925H311.667V71.45H315.116L319.896 38.5925H359.496L356.16 61.6775C354.604 72.7775 347.035 77.5475 336.138 78.1025L325.127 78.6575V82.1L335.92 82.5425C347.93 83.0975 354.048 86.87 355.603 97.64L359.166 121.835L359.158 121.842Z" fill="black"/>
</g>
</g>
<defs>
<clipPath id="clip0_2722_15104">
<rect width="360" height="123" fill="white" transform="translate(0 0.529785)"/>
</clipPath>
</defs>
</svg>
