<svg width="360" height="47" viewBox="0 0 360 47" fill="none" xmlns="http://www.w3.org/2000/svg">
<g clip-path="url(#clip0_2721_14979)">
<path d="M225 46.0389C223.447 45.724 221.87 45.4954 220.348 45.0774C210.67 42.413 204.48 34.286 204.081 23.7817C203.633 12.0566 211.008 2.61135 222.553 0.501569C235.69 -1.90085 247.809 5.22281 250.169 18.6702C252.478 31.825 244.491 44.2803 230.422 45.8104C230.203 45.8355 229.995 45.9609 229.781 46.0361H225V46.0389ZM211.081 23.0654C211.224 24.3474 211.266 25.649 211.525 26.9059C212.74 32.8228 215.946 37.2347 221.996 38.9348C228.229 40.685 234.186 39.9688 238.885 35.136C243.408 30.4845 244.181 24.7153 242.972 18.6173C241.686 12.143 236.99 7.7395 230.293 6.55222C223.546 5.35658 217.086 8.02099 213.73 13.4167C211.894 16.3682 211.146 19.6151 211.081 23.0654Z" fill="black"/>
<path d="M360 44.9298C358.031 44.9326 356.063 44.888 354.097 44.9604C353.197 44.9939 352.778 44.7068 352.493 43.8568C351.467 40.7994 350.359 37.7699 349.284 34.7432C343.513 34.7432 337.846 34.7209 332.179 34.7905C331.796 34.7961 331.22 35.4176 331.082 35.8552C330.261 38.4973 329.507 41.1645 328.807 43.84C328.593 44.6622 328.23 44.9465 327.369 44.9158C325.547 44.8517 323.722 44.8963 321.722 44.8963C321.871 44.3584 321.967 43.9264 322.107 43.5112C326.633 29.8909 331.175 16.2763 335.661 2.64209C336.012 1.57187 336.476 1.18726 337.618 1.25694C339.345 1.36006 341.089 1.34891 342.818 1.25972C343.859 1.20677 344.258 1.61646 344.59 2.5334C349.518 16.1648 354.482 29.7822 359.443 43.4025C359.598 43.8289 359.814 44.2358 360 44.6538V44.9298ZM340.118 8.54224C340.026 8.55061 339.933 8.56175 339.84 8.57011C337.568 15.5795 335.298 22.5889 333.008 29.6457H347.316C344.886 22.522 342.503 15.5321 340.121 8.53946L340.118 8.54224Z" fill="black"/>
<path d="M0 11.1313C0.233437 10.3453 0.43875 9.54824 0.705937 8.77344C2.39625 3.91564 6.78375 0.674322 12.1472 0.367748C16.3237 0.13085 20.1713 1.32649 24.0581 3.14363C23.3775 5.07784 22.7166 6.9563 22.0078 8.97411C19.6059 7.26287 17.1169 6.10068 14.2875 6.04772C12.915 6.02264 11.4441 6.16757 10.1784 6.64694C6.5925 8.00422 5.55469 12.4523 8.18438 15.2059C9.25313 16.3235 10.6313 17.1986 11.9841 18.0013C14.3466 19.4004 16.8497 20.5737 19.1981 21.9951C22.2272 23.829 24.6066 26.2621 25.5684 29.7654C27.7031 37.5329 23.13 44.283 14.9738 45.501C10.1419 46.2228 5.57438 45.3728 1.15594 43.4497C0.77625 43.2853 0.385313 43.1431 0 42.9899C0 42.8979 0 42.8059 0 42.7139C0.905625 40.8745 1.81125 39.0351 2.73937 37.1482C3.25687 37.4269 3.69562 37.6889 4.15687 37.9063C7.73719 39.6008 11.4216 40.6488 15.3984 39.4141C17.6428 38.7173 19.2487 37.3823 19.6959 34.9632C20.1572 32.4549 19.2488 30.4817 17.1731 29.1021C15.6291 28.0764 13.9387 27.2654 12.3075 26.3708C10.0631 25.1389 7.73156 24.0436 5.58844 22.6584C2.87438 20.9054 1.08281 18.4054 0.376875 15.2254C0.25875 14.6903 0.126562 14.158 0 13.6257C0 12.7951 0 11.9646 0 11.1313Z" fill="black"/>
<path d="M270.439 1.22907C272.09 1.22907 273.673 1.16496 275.251 1.24021C279.734 1.45482 284.299 1.28481 288.681 2.06796C296.592 3.48099 300.797 11.8895 297.675 19.2222C296.601 21.7444 295.237 22.9902 291.021 25.2477C295.56 31.6328 300.091 38.004 304.853 44.7012C303.877 44.7012 303.171 44.7124 302.468 44.7012C300.462 44.6594 298.136 45.214 296.547 44.3891C295.006 43.592 294.21 41.3847 293.11 39.7793C290.253 35.6127 287.395 31.4461 284.577 27.2516C284.108 26.5521 283.613 26.2845 282.758 26.3207C280.991 26.396 279.219 26.343 277.324 26.343V44.587H270.436V1.22907H270.439ZM277.338 21.2428C280.924 21.3988 284.38 21.6023 287.736 20.5098C290.773 19.5204 292.416 17.4803 292.528 14.7072C292.672 11.1816 291.26 8.81537 288.155 7.56678C284.67 6.1649 281.017 6.53558 277.338 6.56066V21.2455V21.2428Z" fill="black"/>
<path d="M148.286 1.49365H154.98V18.4528H177.578V1.52431H184.334V44.7317H177.643V24.3362H155.047V44.7596H148.286V1.49365Z" fill="black"/>
<path d="M54.2137 39.116H74.8378V44.7291H47.2725V1.30713H74.8125V6.93694H54.194V18.8877H68.7796V24.3141H54.2109V39.116H54.2137Z" fill="black"/>
<path d="M99.0674 1.28189C102.982 1.28189 106.861 1.16483 110.728 1.3209C113.611 1.43517 116.567 1.56616 119.334 2.28243C126.036 4.01875 129.201 8.92393 128.424 15.7215C127.581 23.0849 122.383 27.7281 114.626 28.0318C111.738 28.1433 108.849 28.2297 105.834 28.3301V44.7039H99.0674V1.28189ZM106.048 22.2404C108.998 22.2404 111.802 22.324 114.595 22.2014C115.782 22.1484 116.997 21.7777 118.114 21.343C121.011 20.2142 122.538 18.071 122.625 14.9662C122.715 11.7388 121.435 9.33084 118.361 7.99864C114.393 6.28183 110.225 6.8253 106.048 6.80858V22.2432V22.2404Z" fill="black"/>
</g>
<defs>
<clipPath id="clip0_2721_14979">
<rect width="360" height="46" fill="white" transform="translate(0 0.0390625)"/>
</clipPath>
</defs>
</svg>
