<svg width="360" height="90" viewBox="0 0 360 90" fill="none" xmlns="http://www.w3.org/2000/svg">
<path fill-rule="evenodd" clip-rule="evenodd" d="M309.158 6.48096H287.306L281.846 13.5391H303.685" fill="#C2121C"/>
<path fill-rule="evenodd" clip-rule="evenodd" d="M341.689 15.7734C339.652 15.7734 338.005 17.3727 338.005 19.3167C338.005 21.3033 339.652 22.9025 341.689 22.9025C343.712 22.9025 345.352 21.3033 345.352 19.3167C345.352 17.3727 343.712 15.7734 341.689 15.7734ZM341.689 22.2087C340.028 22.2087 338.705 20.9433 338.705 19.3167C338.705 17.7403 340.028 16.4596 341.689 16.4596C343.33 16.4596 344.652 17.7403 344.652 19.3167C344.652 20.9433 343.33 22.2087 341.689 22.2087Z" fill="#C2121C"/>
<path fill-rule="evenodd" clip-rule="evenodd" d="M343.576 18.3893C343.576 18.0576 343.415 17.7042 343.117 17.5274C342.806 17.3507 342.466 17.3354 342.112 17.3354H340.331V21.3238H340.924V19.4791H341.653L342.833 21.3238H343.52L342.282 19.4791C343.005 19.466 343.576 19.1682 343.576 18.3893ZM341.604 18.998H340.925V17.7827H341.993C342.509 17.7827 342.962 17.8525 342.962 18.3838C342.962 19.0907 342.169 18.998 341.604 18.998Z" fill="#C2121C"/>
<path fill-rule="evenodd" clip-rule="evenodd" d="M60.4462 40.9071C60.4462 35.8856 56.3825 31.8198 51.3589 31.8198C46.344 31.8198 42.2749 35.8867 42.2749 40.9071C42.2749 45.9144 46.344 49.9944 51.3589 49.9944C56.3836 49.9944 60.4462 45.9144 60.4462 40.9071Z" fill="#C2121C"/>
<path fill-rule="evenodd" clip-rule="evenodd" d="M91.3964 31.8198C86.3782 31.8198 82.3091 35.8867 82.3091 40.9071C82.3091 45.922 86.3782 49.9878 91.3964 49.9878C96.4069 49.9878 100.484 45.9209 100.484 40.9071C100.484 35.8867 96.4069 31.8198 91.3964 31.8198Z" fill="#C2121C"/>
<path fill-rule="evenodd" clip-rule="evenodd" d="M55.9735 6.49512H6.28589V21.6937H22.7673V60.3544H39.4812V21.6937H55.9735" fill="#C2121C"/>
<path fill-rule="evenodd" clip-rule="evenodd" d="M63.2106 6.65869V58.2761C63.2106 64.6972 60.0044 67.2565 51.0022 67.2565V83.9889C66.984 83.9889 79.9331 74.2438 79.9331 58.2761L79.9266 6.65869" fill="#C2121C"/>
<path fill-rule="evenodd" clip-rule="evenodd" d="M160.836 5.73926C154.411 5.73926 148.612 8.33453 144.404 12.5422C140.19 8.33453 134.274 5.73926 127.848 5.73926C115.009 5.73926 103.111 16.1422 103.111 28.9778V62.0673H119.72L119.755 28.9778C119.755 24.5007 123.382 20.8723 127.848 20.8723C132.338 20.8723 135.96 24.5007 135.96 28.9778V62.0673H152.696L152.724 28.9778C152.724 24.5007 156.367 20.8723 160.836 20.8723C165.306 20.8723 168.948 24.5007 168.948 28.9778L168.92 62.0673H185.584V28.9778C185.583 16.1422 173.675 5.73926 160.836 5.73926Z" fill="#C2121C"/>
<path fill-rule="evenodd" clip-rule="evenodd" d="M318.14 39.9806L336.655 15.7886H315.679L307.637 26.1686L299.612 15.7886H277.335L296.387 40.73L274.987 68.7849H296.711L307.637 53.8984L331.633 85.0646H352.835" fill="#C2121C"/>
<path fill-rule="evenodd" clip-rule="evenodd" d="M272.575 13.6812H275.354L270.009 6.60125H248.701L267.661 31.3311L248.701 55.9638V6.60125H231.991V8.9707C227.719 6.50961 222.826 5.10889 217.535 5.10889C201.397 5.10889 188.315 18.1845 188.315 34.3376C188.315 50.4831 201.397 63.5729 217.535 63.5729C222.804 63.5729 227.747 61.9594 232.005 59.5278L231.991 62.0729H265.935L278.467 45.4682L284.088 52.6954L293.451 40.7511M217.534 47.6609C210.172 47.6609 204.211 41.6991 204.211 34.3376C204.211 26.9685 210.172 21.0132 217.534 21.0132C224.903 21.0132 230.865 26.9685 230.865 34.3376C230.865 41.7002 224.903 47.6609 217.534 47.6609Z" fill="#C2121C"/>
</svg>
