<svg width="360" height="246" viewBox="0 0 360 246" fill="none" xmlns="http://www.w3.org/2000/svg">
<g clip-path="url(#clip0_2064_5244)">
<path d="M339.228 245.768C339.235 245.845 339.242 245.923 339.249 246H24.3641C24.3822 245.95 24.4069 245.901 24.4182 245.847C24.4227 245.822 24.4047 245.793 24.3957 245.764C24.8844 245.768 25.371 245.773 25.8597 245.773C129.866 245.773 233.87 245.773 337.877 245.773C338.327 245.773 338.778 245.768 339.228 245.766V245.768Z" fill="#01674B"/>
<path d="M339.228 245.768C338.778 245.77 338.327 245.775 337.877 245.775C233.87 245.775 129.866 245.775 25.8597 245.775C25.3709 245.775 24.8844 245.768 24.3956 245.766C19.3728 245.46 15.35 243.188 12.2687 239.32C3.99794 228.94 9.82037 213.567 22.8933 211.207C23.9947 211.009 25.1344 210.955 26.2561 210.955C130.017 210.944 233.776 210.944 337.537 210.949C347.727 210.949 355.468 218.886 355.232 229.043C355.036 237.368 348.605 244.585 340.35 245.732C339.983 245.784 339.602 245.759 339.231 245.768H339.228ZM61.4137 224.047C61.5488 224.123 61.6817 224.2 61.8169 224.276C61.8169 227.446 61.8034 230.614 61.8259 233.784C61.8326 234.794 61.5083 235.336 60.3911 235.271C59.5712 235.224 59.0014 235.653 58.9676 236.519C58.9293 237.48 59.6208 237.705 60.3956 237.71C63.3958 237.725 66.3982 237.725 69.3984 237.712C70.1259 237.71 70.7746 237.514 70.7679 236.596C70.7634 235.73 70.2791 235.233 69.4367 235.273C68.3038 235.327 67.9974 234.733 67.9974 233.761C68.0019 229.788 68.0019 225.817 67.9929 221.844C67.9929 220.94 68.2925 220.431 69.3151 220.506C70.1868 220.569 70.7791 220.177 70.7679 219.21C70.7566 218.229 70.0539 218.087 69.2903 218.076C67.9028 218.058 66.5064 218.15 65.1279 218.035C63.5963 217.907 62.4993 218.479 61.47 219.563C59.614 221.522 57.6252 223.354 55.7534 225.3C55.125 225.952 54.7939 226.058 54.1452 225.295C52.3951 223.241 50.5549 221.264 48.7305 219.275C48.2327 218.731 47.7552 218.087 46.9083 218.085C44.4329 218.076 41.9553 218.076 39.4799 218.101C38.7659 218.107 38.2095 218.44 38.1983 219.225C38.1848 220.031 38.6938 220.422 39.4709 220.517C40.989 220.706 41.0521 220.753 41.0588 222.319C41.0768 225.991 41.0768 229.664 41.0656 233.336C41.0588 234.99 41.0363 234.99 39.3988 235.269C38.6735 235.392 38.2276 235.815 38.2005 236.54C38.1735 237.262 38.6488 237.642 39.3335 237.676C41.8449 237.804 44.3586 237.804 46.87 237.673C47.5029 237.64 47.9556 237.311 47.9782 236.636C47.9984 235.966 47.6696 235.493 46.9939 235.314C46.852 235.275 46.6943 235.244 46.5501 235.262C45.2888 235.421 45.0253 234.738 45.0501 233.649C45.0974 231.7 45.0591 229.752 45.0591 227.804C45.0591 226.553 45.0591 225.302 45.0591 223.79C47.343 226.245 49.4242 228.49 51.5167 230.724C52.8974 232.2 53.5055 232.229 54.9426 230.769C57.1251 228.551 59.2604 226.29 61.4159 224.047H61.4137ZM167.495 228.526C168.116 228.33 168.619 228.191 169.107 228.015C171.328 227.221 172.409 225.806 172.517 223.509C172.619 221.36 171.466 219.99 169.646 219.099C168.979 218.773 168.26 218.526 167.54 218.339C164.339 217.504 161.073 217.543 157.812 217.741C155.42 217.885 153.021 218.069 150.732 218.888C149.962 219.162 149.415 219.664 149.487 220.542C149.559 221.421 150.282 221.554 150.971 221.608C151.753 221.669 152.102 222.026 152.097 222.821C152.079 226.53 152.084 230.24 152.088 233.95C152.088 234.816 151.744 235.296 150.811 235.246C149.899 235.197 149.207 235.547 149.21 236.54C149.212 237.527 149.989 237.716 150.798 237.721C153.724 237.73 156.649 237.734 159.575 237.721C160.364 237.716 161.134 237.599 161.138 236.546C161.143 235.507 160.503 235.19 159.582 235.246C158.735 235.298 158.294 234.888 158.289 234.067C158.271 230.022 158.116 225.973 158.413 221.932C158.469 221.163 158.749 220.447 159.605 220.197C161.289 219.707 162.954 219.745 164.515 220.593C165.889 221.34 166.366 222.602 166.238 224.103C166.114 225.523 165.303 226.42 163.976 226.888C163.084 227.203 162.145 227.257 161.224 227.421C159.909 227.655 159.665 228.234 160.539 229.248C162.74 231.804 164.995 234.315 167.242 236.83C167.702 237.345 168.283 237.705 169.004 237.71C171.067 237.723 173.13 237.732 175.191 237.71C175.923 237.703 176.531 237.417 176.633 236.585C176.734 235.748 176.225 235.374 175.488 235.183C174.511 234.931 173.506 234.726 172.711 234.042C170.803 232.4 169.283 230.402 167.497 228.528L167.495 228.526ZM117.354 237.748V237.719C118.967 237.719 120.58 237.73 122.192 237.714C122.888 237.707 123.321 237.316 123.429 236.641C123.53 236.015 123.278 235.455 122.665 235.302C121.499 235.012 120.983 234.141 120.503 233.19C118.3 228.816 116.066 224.456 113.908 220.062C113.104 218.422 111.872 217.655 110.083 217.642C108.284 217.63 107.072 218.407 106.268 220.053C104.09 224.524 101.822 228.951 99.603 233.399C99.1075 234.391 98.5962 235.302 97.3461 235.527C96.7515 235.633 96.5645 236.162 96.6141 236.753C96.6637 237.334 97.006 237.674 97.5533 237.68C100.254 237.705 102.952 237.712 105.653 237.685C106.299 237.678 106.678 237.217 106.741 236.594C106.806 235.952 106.491 235.52 105.838 235.372C105.655 235.332 105.477 235.257 105.295 235.23C104.452 235.107 103.842 234.706 103.907 233.786C103.979 232.771 104.775 232.717 105.567 232.72C107.818 232.724 110.07 232.762 112.32 232.702C113.421 232.672 113.888 233.181 114.045 234.171C114.21 235.203 113.392 235.212 112.773 235.352C112.014 235.523 111.496 235.862 111.599 236.702C111.703 237.548 112.336 237.748 113.079 237.746C114.505 237.746 115.931 237.746 117.356 237.746L117.354 237.748ZM269.289 237.721C269.289 237.721 269.289 237.705 269.289 237.696C272.402 237.696 275.515 237.683 278.628 237.707C279.333 237.712 279.74 237.44 279.981 236.792C280.4 235.671 280.876 234.573 281.288 233.451C281.461 232.976 281.729 232.405 281.105 232.051C280.477 231.696 279.812 231.637 279.258 232.225C278.718 232.796 278.222 233.41 277.673 233.97C277.175 234.481 276.634 235.028 275.896 235.084C273.391 235.275 270.882 235.356 268.375 235.048C267.645 234.958 267.321 234.558 267.309 233.856C267.289 232.582 267.28 231.309 267.249 230.036C267.222 229.014 267.62 228.539 268.719 228.607C270.028 228.688 271.343 228.65 272.657 228.627C273.918 228.605 274.589 228.036 274.587 227.066C274.587 226.121 273.986 225.64 272.717 225.604C271.967 225.581 271.217 225.599 270.467 225.599C267.003 225.599 267.026 225.599 267.253 222.112C267.321 221.091 267.78 220.596 268.778 220.591C270.503 220.584 272.233 220.526 273.952 220.62C275.492 220.704 276.884 221.248 277.851 222.553C278.173 222.985 278.614 223.151 279.116 223.163C280.297 223.19 280.639 222.695 280.218 221.597C279.923 220.83 279.562 220.08 279.346 219.291C279.076 218.314 278.477 218.042 277.522 218.047C271.783 218.074 266.044 218.06 260.305 218.062C260.118 218.062 259.931 218.074 259.741 218.08C258.917 218.112 258.174 218.341 258.226 219.327C258.273 220.218 258.883 220.638 259.775 220.562C260.845 220.47 261.066 221.208 261.073 221.986C261.104 225.957 261.095 229.93 261.079 233.901C261.075 234.753 260.748 235.289 259.73 235.275C258.642 235.262 258.151 235.892 258.349 236.819C258.525 237.644 259.187 237.707 259.834 237.71C262.985 237.725 266.136 237.716 269.287 237.716L269.289 237.721ZM318.831 218.062V218.069C315.493 218.069 312.152 218.067 308.814 218.071C308.339 218.071 307.785 217.966 307.553 218.555C307.044 219.84 306.571 221.14 306.073 222.429C305.922 222.816 306.046 223.059 306.382 223.268C307.145 223.743 308.321 223.64 308.796 222.879C310.186 220.659 312.297 220.409 314.607 220.593C315.445 220.661 315.9 221.007 315.878 221.934C315.837 223.693 315.871 225.457 315.869 227.217C315.864 229.39 315.855 231.563 315.846 233.736C315.842 234.783 315.407 235.377 314.27 235.242C314.085 235.219 313.893 235.228 313.707 235.246C312.945 235.316 312.551 235.781 312.531 236.501C312.513 237.21 312.95 237.638 313.643 237.667C317.168 237.811 320.693 237.824 324.216 237.662C325.237 237.615 325.687 236.598 325.151 235.788C324.788 235.237 324.223 235.242 323.649 235.235C322.259 235.219 322.076 235.057 322.067 233.678C322.047 230.418 322.031 227.158 322.056 223.898C322.083 220.413 321.479 220.578 325.487 220.557C326.728 220.551 327.653 220.969 328.352 221.981C328.647 222.411 328.987 222.827 329.374 223.174C330.03 223.759 330.784 223.606 331.471 223.239C332.253 222.821 331.678 222.247 331.521 221.777C331.221 220.893 330.782 220.056 330.507 219.167C330.237 218.296 329.719 218.038 328.845 218.047C325.507 218.085 322.166 218.062 318.828 218.062H318.831ZM225.419 218.071C225.419 218.071 225.419 218.074 225.419 218.076C223.843 218.076 222.268 218.076 220.692 218.076C220.104 218.076 219.647 218.308 219.514 218.906C219.379 219.509 219.397 220.125 219.966 220.53C221.079 221.322 221.122 221.592 220.093 222.485C218.392 223.959 216.691 225.433 214.95 226.857C214.178 227.487 214.02 227.986 214.802 228.751C217.563 231.453 220.279 234.198 223.016 236.924C223.392 237.298 223.798 237.658 224.354 237.685C226.528 237.797 228.703 237.797 230.879 237.685C231.514 237.651 231.918 237.239 231.994 236.609C232.075 235.939 231.688 235.563 231.064 235.41C229.589 235.05 228.438 234.168 227.386 233.129C225.865 231.626 224.332 230.137 222.831 228.614C222.131 227.901 220.825 227.244 220.917 226.445C221.005 225.689 222.241 225.05 223.003 224.393C225.142 222.539 227.091 220.357 230.294 220.4C231.017 220.409 231.449 219.912 231.375 219.117C231.298 218.299 230.746 218.076 230.039 218.071C228.501 218.065 226.962 218.071 225.424 218.071H225.419ZM206.155 227.813H206.159C206.159 229.835 206.15 231.86 206.164 233.883C206.168 234.789 205.837 235.309 204.837 235.246C203.963 235.19 203.326 235.57 203.296 236.488C203.267 237.473 204.006 237.716 204.83 237.719C207.792 237.728 210.756 237.73 213.718 237.716C214.538 237.712 215.266 237.476 215.221 236.465C215.178 235.525 214.545 235.19 213.673 235.244C212.795 235.298 212.419 234.803 212.414 234.022C212.392 229.977 212.385 225.932 212.396 221.887C212.398 221.016 212.784 220.472 213.784 220.56C214.7 220.641 215.221 220.184 215.223 219.259C215.225 218.308 214.554 218.087 213.772 218.085C210.772 218.076 207.772 218.076 204.772 218.085C203.988 218.087 203.296 218.332 203.294 219.252C203.294 220.152 203.853 220.623 204.758 220.562C205.797 220.492 206.17 220.994 206.159 221.97C206.139 223.918 206.152 225.867 206.152 227.815L206.155 227.813Z" fill="#01674B"/>
<path d="M54.3097 81.3287C53.5845 83.3557 52.9448 85.1285 52.3141 86.9058C49.1472 95.8216 45.9533 104.726 42.827 113.658C41.5792 117.224 39.3786 118.15 35.964 117.775C34.4436 117.608 33.3309 116.771 32.4885 115.536C31.6574 114.317 31.1686 112.938 30.6641 111.57C23.3078 91.6438 15.9515 71.7177 8.59291 51.7916C8.38569 51.2314 8.13792 50.6847 7.91268 50.1312C7.24823 48.4867 6.08374 47.427 4.32912 47.0378C3.63539 46.8826 2.9439 46.7094 2.26368 46.5091C0.448252 45.9737 -0.171156 45.0355 0.036064 43.1727C0.186974 41.8049 1.19379 40.8937 2.87408 40.824C4.93502 40.7362 7.00272 40.7677 9.06591 40.7655C14.7712 40.7587 20.4788 40.761 26.1841 40.7655C26.7832 40.7655 27.3891 40.761 27.9838 40.8307C29.6212 41.022 30.4569 41.9264 30.5627 43.5619C30.6664 45.1435 29.9951 46.0547 28.3419 46.4371C27.4319 46.6486 26.4904 46.7184 25.5692 46.8848C23.6051 47.238 22.8213 48.3359 23.1073 50.3247C23.3438 51.9693 24.015 53.4834 24.5646 55.0312C29.3983 68.6715 34.2454 82.3073 39.0903 95.9454C39.2142 96.2941 39.3674 96.6293 39.5633 97.1085C41.5049 91.6573 43.3991 86.3456 45.2866 81.0339C46.7282 76.9821 48.1494 72.9236 49.6112 68.8785C49.8522 68.2081 49.8748 67.6254 49.636 66.9392C47.8048 61.6365 45.9691 56.3361 44.2415 50.9997C43.6109 49.0559 42.4464 47.868 40.4935 47.382C39.8043 47.2111 39.1128 47.0266 38.4506 46.7701C36.9776 46.2009 36.455 45.3685 36.5271 43.8432C36.5969 42.3673 37.3515 41.3864 38.7795 40.9792C39.1714 40.8667 39.5881 40.7925 39.9958 40.7925C47.6539 40.7835 55.312 40.7857 62.9679 40.7902C63.1932 40.7902 63.4184 40.806 63.6414 40.842C65.2248 41.0962 66.074 41.9849 66.1979 43.5147C66.3172 44.9838 65.6573 45.9332 64.1572 46.4844C63.1256 46.8646 62.0197 46.8668 60.9678 47.1301C59.4001 47.5215 58.846 48.2257 58.819 49.8253C58.7987 51.0469 59.1479 52.1943 59.5128 53.3349C63.959 67.1867 68.4142 81.034 72.8807 94.879C72.964 95.1399 72.928 95.4909 73.3627 95.7114C74.2569 92.7777 75.1399 89.871 76.025 86.9643C79.4712 75.6593 82.9219 64.3565 86.3613 53.0492C86.5662 52.372 86.7194 51.6723 86.832 50.9727C87.1564 48.9726 86.4784 47.8995 84.5278 47.3775C83.6989 47.1548 82.8295 47.0806 81.9894 46.8938C80.1965 46.4956 79.3271 45.3528 79.4487 43.6092C79.5703 41.8589 80.451 41.004 82.3565 40.8285C82.9917 40.77 83.6314 40.7677 84.2688 40.7677C96.2448 40.7655 108.219 40.7632 120.194 40.7677C121.318 40.7677 122.449 40.7182 123.551 41.031C125.093 41.4697 125.749 42.5203 125.58 44.3044C125.422 45.9804 124.449 47.0513 122.947 47.1503C122.237 47.1953 121.519 47.1458 120.809 47.1818C119.544 47.2493 118.748 47.958 118.449 49.1886C118.26 49.9648 118.266 50.7522 118.264 51.5373C118.251 57.3125 118.264 63.0854 118.226 68.8605C118.221 69.6637 118.458 69.8459 119.233 69.8414C126.666 69.8121 134.099 69.8076 141.531 69.8459C142.399 69.8504 142.581 69.5962 142.577 68.775C142.54 63.0764 142.554 57.3777 142.554 51.6768C142.554 51.5261 142.554 51.3776 142.549 51.2269C142.466 47.805 141.885 47.2313 138.448 47.1751C135.966 47.1346 134.596 45.3842 135.139 42.9905C135.385 41.9039 136.103 41.3504 137.103 41.0557C138.126 40.7542 139.182 40.77 140.232 40.7677C146.989 40.761 153.746 40.7587 160.503 40.7677C161.515 40.7677 162.528 40.7542 163.522 41.0265C165.118 41.4629 165.855 42.5203 165.706 44.2076C165.553 45.9264 164.481 47.0581 162.886 47.1571C162.364 47.1908 161.837 47.1728 161.31 47.1751C159.467 47.1818 158.623 47.8972 158.388 49.7173C158.287 50.4957 158.224 51.2854 158.224 52.0705C158.215 69.6929 158.215 87.3153 158.219 104.938C158.219 105.912 158.26 106.893 158.499 107.84C158.846 109.219 159.474 109.698 160.888 109.732C161.526 109.748 162.168 109.705 162.803 109.745C164.513 109.853 165.625 111.057 165.722 112.861C165.817 114.639 164.995 115.671 163.193 115.977C162.53 116.09 161.852 116.173 161.181 116.173C154.012 116.186 146.843 116.189 139.671 116.173C139 116.173 138.322 116.094 137.66 115.979C135.835 115.667 135.105 114.733 135.164 112.859C135.216 111.217 136.292 109.961 137.869 109.777C138.5 109.703 139.144 109.745 139.781 109.732C141.45 109.698 142.232 108.996 142.419 107.313C142.502 106.569 142.547 105.817 142.547 105.07C142.554 97.4212 142.552 89.772 142.547 82.1228C142.547 81.4479 142.507 80.773 142.457 80.1003C142.349 78.6065 141.788 77.972 140.288 77.7021C139.626 77.5828 138.948 77.5086 138.277 77.5063C132.945 77.4928 127.616 77.4996 122.285 77.5063C121.873 77.5063 121.456 77.5063 121.048 77.5513C119.194 77.7605 118.566 78.3747 118.336 80.2398C118.264 80.8337 118.264 81.4367 118.264 82.0373C118.26 89.799 118.257 97.5607 118.264 105.322C118.264 106.144 118.255 106.969 118.442 107.784C118.728 109.03 119.404 109.646 120.69 109.718C121.363 109.754 122.041 109.709 122.717 109.741C124.303 109.817 125.37 110.974 125.492 112.715C125.621 114.569 124.925 115.595 123.28 115.959C122.359 116.164 121.422 116.195 120.481 116.193C113.836 116.193 107.191 116.193 100.547 116.193C99.531 116.193 98.5197 116.164 97.5219 115.952C95.9294 115.615 95.1276 114.625 95.1366 113.017C95.1434 111.43 96.1569 110.067 97.6097 109.831C98.38 109.707 99.1796 109.754 99.9657 109.732C101.432 109.687 102.067 109.183 102.369 107.732C102.475 107.223 102.515 106.692 102.515 106.171C102.522 87.7225 102.522 69.2767 102.522 50.8287C102.522 50.6419 102.522 50.453 102.513 50.2662C102.446 48.6262 101.855 47.6115 100.777 47.2763C99.6639 46.9321 97.9904 47.5215 97.1638 48.5857C96.3461 49.6385 95.9159 50.8804 95.5285 52.1358C90.8773 67.2564 86.2329 82.3793 81.5817 97.4999C80.0861 102.362 78.5815 107.219 77.0769 112.078C76.7323 113.19 76.2345 114.231 75.7232 115.275C73.9213 118.969 67.8106 118.492 66.1145 115.554C65.396 114.308 64.8892 112.994 64.441 111.646C61.2088 101.925 57.9789 92.204 54.7444 82.4828C54.6431 82.1813 54.5192 81.8866 54.3075 81.3287H54.3097Z" fill="#01674B"/>
<path d="M143.649 175.355C141.696 183.61 137.993 190.566 131.492 195.833C126.38 199.977 120.463 202.262 113.978 203.122C107.07 204.038 100.259 203.633 93.6928 201.167C83.5525 197.36 76.9643 190.08 73.4978 179.94C70.9166 172.388 70.5472 164.617 71.6013 156.745C72.3514 151.155 73.9911 145.857 76.9372 141.022C81.9466 132.799 89.2646 127.786 98.6526 125.802C107.349 123.964 115.922 124.423 124.125 127.98C134.373 132.425 140.392 140.5 143.286 151.094C143.41 151.548 143.532 152.005 143.741 152.781C144.16 151.359 144.457 150.239 144.822 149.139C149.5 135.098 159.204 127.089 173.876 125.168C180.982 124.236 187.967 124.889 194.654 127.575C204.463 131.517 210.925 138.696 214.025 148.693C217.802 160.874 217.439 173 211.865 184.593C206.725 195.284 197.819 201.176 186.199 203C178.971 204.134 171.824 203.707 164.934 201.059C154.766 197.151 148.32 189.736 144.883 179.553C144.441 178.249 144.106 176.91 143.651 175.353L143.649 175.355ZM199.585 164.691C199.562 161.308 199.377 158.241 198.902 155.202C198.089 149.978 196.636 144.975 193.566 140.574C186.178 129.984 171.889 130.212 164.846 141.022C163.071 143.746 161.875 146.723 161.073 149.857C159.03 157.848 158.859 165.938 160.048 174.057C160.776 179.022 162.24 183.763 165.173 187.934C170.114 194.969 179.241 197.453 186.804 193.779C191.201 191.644 194.005 188.006 195.976 183.668C198.76 177.542 199.49 171.02 199.582 164.691H199.585ZM128.071 164.453C128.089 160.622 127.812 156.813 127.055 153.056C126.015 147.899 124.292 143.026 120.83 138.934C113.865 130.702 101.655 130.763 94.8055 139.06C92.0778 142.365 90.4899 146.223 89.4741 150.329C87.6339 157.769 87.4514 165.308 88.3974 172.876C89.0213 177.848 90.3232 182.638 93.0351 186.942C97.9273 194.71 107.151 197.603 115.163 193.848C119.755 191.695 122.605 187.923 124.607 183.423C127.294 177.385 128.037 170.982 128.071 164.455V164.453Z" fill="#01674B"/>
<path d="M224.359 77.3897C224.226 73.2906 223.953 68.7326 222.982 64.2421C221.543 57.5806 218.029 52.2689 212.583 48.2058C211.952 47.7356 211.317 47.2677 210.691 46.793C209.315 45.7536 208.851 44.5275 209.292 43.1034C209.664 41.9065 210.7 41.2946 212.45 41.2856C219.016 41.2496 224.453 43.8885 229.021 48.4308C234.443 53.8212 237.636 60.4423 239.312 67.808C241.565 77.7024 241.105 87.4889 237.326 96.9469C232.81 108.25 224.251 114.846 212.432 117.269C205.362 118.72 198.249 118.799 191.255 116.801C180.59 113.753 173.509 106.729 169.416 96.5757C166.382 89.048 165.684 81.2031 166.423 73.1782C167.08 66.0262 169.195 59.4074 173.545 53.6052C176.874 49.162 181.117 45.7356 185.746 42.7412C188.924 40.6849 192.235 38.8536 195.521 36.9773C196.017 36.6938 196.731 36.5183 196.51 35.7017C196.283 34.8625 195.598 35.1032 195.019 35.155C192.057 35.4294 189.3 34.6623 186.606 33.5351C185.122 32.9142 183.647 32.264 182.135 31.7196C178.804 30.5205 175.711 31.0289 172.916 33.1977C171.939 33.9558 171.011 34.777 170.069 35.5779C169.128 36.3766 168.096 36.6578 166.954 36.0774C166.078 35.6319 165.67 34.4485 165.88 33.0987C166.15 31.3506 166.929 29.8073 168.004 28.4462C172.538 22.7115 178.356 19.5416 185.804 19.9263C189.449 20.1153 192.805 21.4652 196.091 22.959C198.544 24.0749 200.979 25.229 203.454 26.2954C204.727 26.8421 206.074 27.2606 207.495 27.0333C208.074 26.9411 208.79 26.8421 208.945 26.1559C209.117 25.4045 208.504 24.9546 207.927 24.7161C203.47 22.8645 199.859 19.7171 195.96 17.0084C192.393 14.5292 188.55 12.5089 184.135 12.1512C177.153 11.5842 171.439 14.131 167.148 19.6766C166.429 20.6058 166.073 21.8071 165.499 22.8555C164.564 24.5563 163.467 25.2763 162.278 24.9636C160.623 24.5271 160.499 23.1322 160.343 21.7689C160.217 20.6755 160.276 19.5844 160.614 18.5427C163.35 10.0656 168.556 3.81806 177.175 0.933865C182.928 -0.98968 188.428 0.211692 193.629 3.08239C197.571 5.2579 200.968 8.13985 204.17 11.2648C205.754 12.8103 207.288 14.4009 208.792 16.0253C210.781 18.1693 213.453 18.7587 216.232 18.9837C217.471 19.0827 218.694 19.2334 219.865 19.6631C222.449 20.6103 223.509 22.5721 222.91 25.2605C222.532 26.9613 221.62 28.3562 220.442 29.5981C218.568 31.5778 216.318 33.0717 214.029 34.5093C209.428 37.3957 204.623 39.9492 200.152 43.0471C197.528 44.8627 195.019 46.8177 192.67 48.9865C186.618 54.5749 183.599 61.6144 182.716 69.6685C182.144 74.8992 181.953 80.1389 182.705 85.3696C183.678 92.1459 185.696 98.5082 190.323 103.773C196.53 110.837 207.198 112.171 214.419 106.758C218.516 103.687 220.786 99.3699 222.322 94.6229C223.926 89.6734 224.419 85.3584 224.354 77.3897H224.359Z" fill="#01674B"/>
<path d="M250.392 124.79C256.162 124.819 262.289 125.242 268.168 127.327C277.396 130.598 283.77 136.923 287.135 146.014C291.579 158.012 291.602 170.187 287.079 182.165C282.871 193.308 274.591 199.914 262.958 202.337C255.8 203.828 248.572 203.801 241.333 203.137C235.988 202.647 230.699 201.801 225.577 200.123C224.043 199.621 222.545 199.036 221.201 198.127C219.84 197.207 219.313 196.082 219.613 194.705C219.928 193.254 220.971 192.672 222.329 192.406C226.298 191.63 226.379 191.616 226.388 187.574C226.422 171.942 226.401 156.311 226.388 140.68C226.388 139.784 226.264 138.887 226.197 137.991C226.113 136.905 225.516 136.279 224.453 136.106C223.75 135.991 223.043 135.908 222.338 135.811C221.059 135.638 220.02 135.107 219.651 133.777C219.257 132.349 219.8 131.199 220.912 130.306C221.915 129.501 223.084 128.99 224.282 128.544C228.381 127.015 232.663 126.27 236.972 125.689C241.288 125.107 245.632 124.864 250.389 124.792L250.392 124.79ZM242.171 164.329H242.177C242.177 172.61 242.155 180.892 242.189 189.173C242.202 192.429 243.159 193.819 246.279 194.627C252.73 196.298 258.789 195.466 264.102 191.196C267.697 188.307 269.868 184.422 271.206 180.1C274.139 170.617 274.179 160.997 272.193 151.343C271.184 146.441 269.276 141.928 265.881 138.133C260.07 131.636 251.099 131.289 245.668 133.489C243.707 134.284 242.389 135.543 242.339 137.809C242.319 138.707 242.18 139.602 242.177 140.497C242.164 148.441 242.171 156.385 242.171 164.329Z" fill="#01674B"/>
<path d="M328.714 116.198C321.133 116.198 313.549 116.202 305.967 116.191C305.371 116.191 304.767 116.128 304.181 116.018C302.273 115.656 301.492 114.61 301.65 112.693C301.794 110.956 302.974 109.91 304.814 109.892C308.197 109.856 308.756 109.309 308.864 105.928C308.88 105.442 308.886 104.954 308.886 104.465C308.886 87.0321 308.884 69.5987 308.88 52.1653C308.88 51.0404 308.841 49.929 308.452 48.8424C308.06 47.758 307.384 47.1663 306.202 47.1956C305.602 47.2113 304.999 47.2203 304.4 47.1843C302.823 47.0898 301.683 45.893 301.564 44.2371C301.433 42.4351 302.138 41.4497 303.83 41.0245C304.864 40.7635 305.916 40.7883 306.965 40.7883C321.153 40.7815 335.343 40.7815 349.531 40.7883C352.488 40.7883 353.04 41.1797 354.101 43.9402C355.148 46.6624 356.212 49.3778 357.232 52.1091C357.757 53.5152 357.554 54.3543 356.619 55.1597C355.63 56.0124 354.362 56.1406 353.166 55.5174C352.421 55.1305 351.795 54.6288 351.355 53.8909C351.049 53.3779 350.639 52.9302 350.313 52.4263C348.921 50.2688 346.923 49.0044 344.4 48.7727C338.936 48.271 333.456 48.2935 327.989 48.6962C325.906 48.8492 325.104 49.7896 324.809 51.8346C324.716 52.4623 324.637 53.1012 324.635 53.7334C324.615 58.7571 324.631 63.7808 324.595 68.8045C324.59 69.5357 324.784 69.7404 325.525 69.7382C330.291 69.7269 335.059 69.7179 339.823 69.8124C342.233 69.8597 343.197 70.8608 343.294 73.0341C343.411 75.6123 342.393 76.9734 340.046 77.3266C339.492 77.4099 338.927 77.4369 338.366 77.4414C334.726 77.4684 331.084 77.4594 327.444 77.5088C325.5 77.5336 325.034 77.9768 324.73 79.9116C324.642 80.4628 324.617 81.0297 324.617 81.5899C324.613 88.2627 324.606 94.9377 324.628 101.611C324.633 102.769 324.746 103.93 324.863 105.084C325.02 106.634 325.849 107.588 327.41 107.964C328.809 108.301 330.23 108.414 331.649 108.459C336.19 108.607 340.729 108.603 345.267 108.299C348.179 108.106 350.493 106.807 352.29 104.56C353.063 103.595 353.768 102.578 354.497 101.581C355.155 100.684 355.966 100.139 357.151 100.186C359.178 100.265 360.342 101.649 359.917 103.64C359.752 104.402 359.482 105.154 359.18 105.874C358.036 108.598 356.833 111.296 355.702 114.025C355.155 115.348 354.25 116.074 352.813 116.121C351.799 116.155 350.788 116.218 349.774 116.22C342.756 116.229 335.735 116.225 328.717 116.225V116.207L328.714 116.198Z" fill="#01674B"/>
<path d="M316.132 124.801C319.937 124.871 323.698 125.33 327.358 126.356C329.322 126.907 331.032 126.704 332.64 125.438C333.413 124.83 334.316 124.655 335.298 124.907C336.8 125.291 337.339 126.473 337.647 127.782C338.291 130.513 338.868 133.26 339.476 136C339.81 137.499 340.143 138.995 340.488 140.489C340.882 142.203 340.391 143.436 339.032 144.104C337.465 144.873 335.998 144.574 334.935 143.184C334.138 142.144 333.474 141.001 332.656 139.978C328.897 135.271 324.036 132.754 317.952 132.864C314.092 132.934 311.193 134.981 310.348 138.207C309.65 140.875 309.992 143.404 311.7 145.667C313.139 147.571 314.903 149.132 316.808 150.545C321.838 154.271 327.079 157.71 331.982 161.609C334.012 163.225 335.915 164.977 337.661 166.892C345.506 175.49 345.145 189.707 336.852 197.407C333.091 200.899 328.5 202.634 323.477 203.243C317.673 203.945 311.945 203.502 306.352 201.729C304.839 201.248 303.58 201.428 302.298 202.499C299.895 204.508 297.379 203.795 296.564 200.818C295.338 196.348 294.266 191.83 293.237 187.311C292.773 185.27 293.617 183.704 295.248 183.025C296.958 182.312 298.613 182.849 299.791 184.642C302.028 188.044 304.681 190.996 308.323 192.942C312.801 195.333 317.502 196.159 322.446 194.712C328.89 192.829 331.631 186.573 328.732 180.525C327.282 177.502 324.905 175.268 322.396 173.169C317.991 169.483 313.204 166.311 308.531 162.988C305.319 160.703 302.298 158.235 299.591 155.323C291.98 147.137 292.809 129.161 309.652 125.433C311.785 124.961 313.952 124.794 316.132 124.805V124.801Z" fill="#01674B"/>
<path d="M44.7213 126.367C51.4402 126.367 58.1591 126.364 64.8779 126.367C68.0786 126.367 68.7476 126.819 69.8828 129.793C70.8828 132.412 71.8806 135.035 72.8199 137.676C73.4055 139.323 72.9663 140.574 71.6959 141.274C70.3648 142.007 68.9841 141.706 67.8984 140.405C67.4682 139.888 67.065 139.339 66.7181 138.763C65.0401 135.969 62.5692 134.565 59.3303 134.353C54.5327 134.041 49.7306 133.881 44.9443 134.356C42.7842 134.569 42.1581 135.402 42.1445 137.553C42.1062 143.289 42.1288 149.026 42.0837 154.761C42.077 155.53 42.3923 155.587 43.0095 155.582C47.1381 155.562 51.2667 155.573 55.3976 155.571C56.2242 155.571 57.0464 155.593 57.8617 155.767C59.738 156.165 60.7133 157.294 60.8079 159.204C60.9025 161.099 59.9362 162.446 58.1275 162.995C57.2491 163.263 56.3481 163.254 55.4494 163.256C51.9965 163.265 48.5436 163.256 45.0884 163.265C44.6424 163.265 44.192 163.319 43.7482 163.382C42.7031 163.533 42.158 164.133 42.1468 165.204C42.14 165.879 42.1062 166.554 42.1062 167.229C42.1062 175.139 42.1062 183.052 42.1085 190.962C42.1085 191.45 42.1175 191.936 42.1378 192.424C42.2279 194.453 43.2099 195.383 45.2686 195.394C45.906 195.396 46.5457 195.38 47.1831 195.398C48.8612 195.443 50.0662 196.57 50.2464 198.247C50.4424 200.067 49.654 201.214 47.8544 201.596C46.7529 201.83 45.6245 201.878 44.496 201.878C37.8154 201.871 31.1326 201.884 24.452 201.864C23.4812 201.862 22.4992 201.794 21.5396 201.644C19.785 201.365 18.9021 200.224 19.0034 198.508C19.1048 196.775 20.3143 195.497 21.9676 195.405C22.6028 195.369 23.2447 195.405 23.8821 195.394C25.1457 195.371 25.9318 194.755 26.1525 193.513C26.2967 192.705 26.3778 191.875 26.3778 191.056C26.3913 173.135 26.3913 155.213 26.3778 137.292C26.3778 136.434 26.2944 135.568 26.148 134.722C25.9363 133.498 25.1255 132.869 23.8641 132.839C23.3753 132.828 22.8888 132.839 22.4001 132.837C20.4923 132.83 19.3391 131.732 19.2264 129.816C19.1138 127.888 20.0305 126.767 21.9811 126.547C22.9474 126.436 23.9272 126.378 24.9002 126.376C31.5065 126.362 38.1128 126.369 44.719 126.369L44.7213 126.367Z" fill="#01674B"/>
<path d="M268.172 116.202C260.816 116.202 253.46 116.207 246.103 116.196C245.506 116.196 244.9 116.148 244.315 116.043C242.326 115.68 241.567 114.668 241.725 112.661C241.858 110.945 243.058 109.795 244.907 109.916C248.009 110.119 248.928 109.179 248.932 105.874C248.968 87.6551 248.948 69.4343 248.944 51.2157C248.944 50.804 248.932 50.3878 248.871 49.9828C248.527 47.7646 247.851 47.2021 245.596 47.1931C245.072 47.1931 244.542 47.2021 244.024 47.1346C242.619 46.9502 241.598 45.7645 241.499 44.2572C241.385 42.4866 242.062 41.4742 243.646 41.0535C244.376 40.8601 245.123 40.7993 245.876 40.7993C253.345 40.7993 260.814 40.8038 268.283 40.8016C269.037 40.8016 269.783 40.8713 270.512 41.0558C272.1 41.4562 272.88 42.5721 272.731 44.219C272.58 45.8883 271.542 47.0424 270.019 47.1594C269.235 47.2201 268.445 47.1796 267.656 47.1999C265.814 47.2426 264.899 48.0818 264.731 49.9131C264.679 50.471 264.69 51.0357 264.69 51.5982C264.69 68.3184 264.69 85.0386 264.692 101.757C264.692 102.843 264.692 103.928 264.863 105.01C265.179 106.985 265.987 107.826 267.976 108.099C271.263 108.549 274.571 108.339 277.869 108.398C279.819 108.434 281.772 108.364 283.723 108.321C286.25 108.263 288.365 107.302 290.084 105.43C291.509 103.878 292.62 102.085 293.94 100.458C295.059 99.0771 296.548 98.7666 298.05 99.5248C299.264 100.139 299.836 101.262 299.35 102.512C297.859 106.344 296.302 110.15 294.737 113.953C294.066 115.581 292.687 116.164 291.03 116.184C288.403 116.216 285.775 116.216 283.148 116.218C278.157 116.223 273.166 116.218 268.172 116.218V116.202Z" fill="#01674B"/>
<path d="M112.018 229.716H105.682C106.752 227.304 107.818 224.904 108.93 222.393C109.725 224.996 111.052 227.241 112.018 229.716Z" fill="#01674B"/>
</g>
<defs>
<clipPath id="clip0_2064_5244">
<rect width="360" height="246" fill="white"/>
</clipPath>
</defs>
</svg>
