<svg width="360" height="101" viewBox="0 0 360 101" fill="none" xmlns="http://www.w3.org/2000/svg">
<g clip-path="url(#clip0_2064_5251)">
<path d="M70.2043 3.13C68.846 11.3834 67.4893 19.6321 66.114 27.997C64.4537 26.6047 62.8353 25.3672 61.031 24.4178C52.6242 19.9945 44.4514 20.3043 36.6224 25.8008C34.2156 27.4906 32.4066 29.7394 31.3953 32.5504C29.8729 36.7847 31.067 40.9184 34.6229 43.6752C37.53 45.9286 40.9063 46.8439 44.5134 46.9369C51.1545 47.1088 57.1296 45.0025 62.6556 41.4511C62.8895 41.3009 63.1311 41.16 63.5369 40.9106C61.5963 49.1609 59.6959 57.2393 57.7894 65.3424C56.047 65.9728 54.2566 66.3259 52.4539 66.6201C47.3275 67.4565 42.1608 67.8623 36.9724 67.9521C29.4748 68.0806 22.2189 66.9129 15.46 63.5009C9.12713 60.3043 4.20051 55.706 1.61871 48.941C-0.786524 42.6421 -0.357516 36.3449 1.90988 30.1157C4.28878 23.5799 8.39612 18.2475 13.6371 13.7685C21.5064 7.04219 30.6395 2.99062 40.8118 1.2529C50.617 -0.422866 60.2829 0.418115 69.8403 2.98442C69.9364 3.01075 70.0262 3.05876 70.2028 3.13H70.2043Z" fill="#E21837"/>
<path d="M95.3931 68.9429C89.1222 68.8748 83.0758 68.0524 77.3578 65.5356C72.7455 63.5052 68.8256 60.6121 66.2237 56.1966C63.0549 50.8177 62.8923 45.0795 64.4596 39.2143C66.3181 32.2573 70.4565 26.835 76.1141 22.5326C82.5539 17.6354 89.8966 14.8817 97.8495 13.6535C102.933 12.8683 108.026 12.7815 113.119 13.5094C119.396 14.4077 125.272 16.3592 130.202 20.5083C135.946 25.3436 138.423 31.5712 137.535 39.0161C136.374 48.7578 131.077 55.8961 123.073 61.1882C117.079 65.1515 110.41 67.3322 103.331 68.3497C100.67 68.7323 97.9935 68.8872 95.3931 68.9429ZM98.5217 51.8027C99.9992 51.8275 101.46 51.6773 102.885 51.2885C107.542 50.0185 111.059 47.4104 112.614 42.6712C114.375 37.3032 111.776 32.677 106.298 31.2846C103.695 30.6233 101.069 30.6543 98.4969 31.3466C93.4603 32.7018 89.7711 35.615 88.3401 40.8173C87.0143 45.6371 89.2802 49.6453 94.0318 51.1662C95.4954 51.6339 96.9961 51.8166 98.5248 51.8012L98.5217 51.8027Z" fill="#E21837"/>
<path d="M317.573 68.9386C311.384 68.8782 305.338 68.045 299.621 65.5252C295.113 63.5365 291.264 60.71 288.659 56.4339C285.506 51.2564 285.201 45.6762 286.576 39.9287C288.212 33.0893 292.073 27.6625 297.467 23.2795C303.544 18.342 310.562 15.4504 318.199 13.9807C323.946 12.8748 329.733 12.6828 335.526 13.5238C341.745 14.4267 347.57 16.3781 352.465 20.4839C357.843 24.9955 360.443 30.7879 359.938 37.8193C359.292 46.813 354.956 53.832 347.986 59.3208C342.474 63.662 336.138 66.2345 329.324 67.7012C325.452 68.5344 321.529 68.8999 317.572 68.9386H317.573ZM320.886 51.7984C322.329 51.8325 323.791 51.6714 325.215 51.2796C329.812 50.0127 333.309 47.4371 334.881 42.7676C336.699 37.367 334.108 32.6898 328.603 31.2835C325.998 30.6191 323.372 30.6578 320.793 31.3439C315.927 32.6386 312.307 35.4264 310.754 40.3825C309.27 45.1186 311.197 49.1872 315.62 50.9218C317.297 51.5801 319.052 51.8294 320.886 51.7969V51.7984Z" fill="#E21837"/>
<path d="M156.212 77.607C155.965 77.7387 155.896 78.002 155.764 78.2157C151.541 85.0891 147.322 91.9657 143.101 98.8422C142.954 99.0822 142.804 99.3208 142.641 99.5794H133.367C133.092 95.1855 132.818 90.8041 132.543 86.4242C132.455 86.4025 132.367 86.3793 132.279 86.3576C130.9 91.0689 128.198 95.1499 126.254 99.5825H117.152C115.293 91.5026 113.436 83.4335 111.567 75.3102H122.565C122.87 80.1114 123.176 84.9079 123.482 89.7029C123.548 89.7184 123.613 89.7339 123.68 89.7494C125.407 84.6756 128.216 80.1253 130.42 75.3056H138.615C139.025 80.1191 139.434 84.9095 139.843 89.6998C139.908 89.7169 139.973 89.7354 140.038 89.7525C141.638 84.6942 144.364 80.1532 146.47 75.287H167.014C166.5 78.0283 165.998 80.6984 165.486 83.4258H171.984C172.502 80.7232 173.013 78.0453 173.533 75.3257H183.758C183.137 78.6122 182.519 81.8847 181.881 85.2688C182.028 85.1511 182.101 85.1217 182.123 85.0706C184.082 80.5962 187.616 77.8564 192.08 76.2612C197.116 74.4615 202.227 74.2137 207.278 76.2286C210.593 77.5513 212.976 79.8125 213.756 83.4474C213.906 84.1475 213.942 84.8723 214.106 85.5987C214.755 82.196 215.404 78.7919 216.064 75.3335H226.682C225.646 80.7882 224.614 86.2197 223.561 91.7612H232.474C231.968 94.4282 231.485 96.9775 230.992 99.5686H211.459C212.136 95.9816 212.81 92.4179 213.474 88.896C211.074 95.3172 206.005 98.3822 199.58 99.5918C195.457 100.368 191.35 100.211 187.429 98.52C184.357 97.1959 182.135 95.0632 181.405 91.6621C181.255 90.9636 181.212 90.2434 181.097 89.3622C180.427 92.8763 179.785 96.2294 179.147 99.5732H168.919C169.449 96.7746 169.971 94.0209 170.507 91.1975H164.004C163.472 93.9729 162.936 96.7699 162.397 99.5809H152.177C152.569 97.4917 152.947 95.4442 153.336 93.3967C154.29 88.3849 155.251 83.3747 156.207 78.3644C156.25 78.1383 156.258 77.906 156.283 77.6752C156.373 77.5807 156.393 77.4816 156.284 77.3438C156.255 77.4475 156.232 77.5265 156.209 77.607H156.212ZM198.736 82.8821C196.871 82.8821 195.372 83.3359 194.081 84.386C192.978 85.2827 192.275 86.4304 192.062 87.8382C191.832 89.3684 192.279 90.6616 193.621 91.5181C196.323 93.2449 201.711 92.2274 202.904 88.103C203.613 85.6513 202.387 83.5713 199.899 83.0355C199.444 82.9379 198.987 82.8698 198.735 82.8806L198.736 82.8821Z" fill="#015DAA"/>
<path d="M129.787 63.9422C133.239 58.8282 136.654 53.7699 140.1 48.6667C141.379 49.6022 142.612 50.485 143.935 51.233C147.594 53.3037 151.488 54.5148 155.732 54.3863C157.158 54.3429 158.55 54.0858 159.857 53.4787C160.592 53.138 161.256 52.7028 161.683 51.9826C162.411 50.756 162.058 49.5681 160.767 48.9718C159.723 48.4901 158.583 48.3848 157.468 48.1974C154.042 47.6197 150.56 47.3224 147.243 46.1902C145.304 45.5289 143.458 44.6817 141.842 43.404C138.443 40.7153 137.168 37.2461 138.049 32.9885C139.189 27.4811 142.4 23.3893 146.845 20.1632C151.61 16.7048 157.002 14.7193 162.757 13.7265C170.222 12.4395 177.603 12.8205 184.838 15.1963C186.846 15.8561 188.776 16.7033 190.687 17.7688C187.624 22.3965 184.585 26.9886 181.517 31.6225C179.753 30.5554 177.984 29.6184 176.092 28.9308C173.245 27.8977 170.319 27.3882 167.287 27.5973C166.251 27.6685 165.25 27.9055 164.316 28.3779C163.921 28.5777 163.565 28.8301 163.263 29.1553C162.116 30.3913 162.382 31.7526 163.949 32.3443C165.622 32.9746 167.409 33.1403 169.152 33.4857C172.536 34.1579 175.949 34.7139 179.14 36.1217C181.116 36.9937 182.942 38.0871 184.404 39.7086C186.82 42.3911 187.407 45.5676 186.826 49.0183C185.775 55.249 182.096 59.6428 176.92 62.9417C172.392 65.8286 167.391 67.4966 162.122 68.2803C151.146 69.9127 140.551 68.3298 130.301 64.1869C130.16 64.1296 130.025 64.0568 129.788 63.9437L129.787 63.9422Z" fill="#E21837"/>
<path d="M289.824 15.2814C288.736 22.1223 287.655 28.9276 286.557 35.8428C286.062 35.4432 285.651 35.1041 285.233 34.7757C281.7 31.9957 277.743 30.2936 273.195 30.4283C267.957 30.5832 263.481 32.5161 260.248 36.7659C257.414 40.4922 257.495 44.8241 260.301 47.8922C261.604 49.3171 263.227 50.2541 265.054 50.8178C269.001 52.0352 272.905 51.6093 276.771 50.4167C279.252 49.6516 281.527 48.4529 283.694 47.0404C283.906 46.901 284.124 46.7694 284.479 46.5463C282.922 53.3702 281.398 60.0531 279.871 66.7469C278.143 67.3989 276.367 67.7195 274.585 67.9735C270.111 68.6147 265.613 69.036 261.091 68.9028C254.719 68.7138 248.675 67.289 243.31 63.6757C237.923 60.0485 234.542 55.0863 233.715 48.569C233.134 43.9986 234.034 39.6265 235.928 35.468C239.129 28.4366 244.372 23.2622 250.94 19.3779C259.833 14.1183 269.464 12.252 279.706 13.3052C282.893 13.6335 286.034 14.1771 289.117 15.0506C289.336 15.1126 289.548 15.19 289.825 15.2814H289.824Z" fill="#E21837"/>
<path d="M242.983 13.9136C241.197 19.8004 239.435 25.6099 237.652 31.4874C233.298 31.3202 228.946 31.1544 224.543 30.9856C220.795 43.337 217.06 55.6513 213.31 68.0058H189.25C192.99 55.6761 196.718 43.382 200.479 30.9872C195.989 31.156 191.612 31.3202 187.074 31.4905C188.861 25.5866 190.624 19.7695 192.396 13.9151H242.981L242.983 13.9136Z" fill="#E21837"/>
<path d="M275.818 95.9178C275.705 95.8434 275.632 95.9224 275.558 95.989C272.083 99.037 267.92 100.007 263.437 99.9709C259.948 99.9446 256.587 99.2368 253.282 97.8878C253.157 98.4639 253.039 98.9998 252.915 99.5698H232.969C234.503 91.4898 236.035 83.4332 237.575 75.3269H257.228C256.81 77.5262 256.395 79.7084 255.974 81.9262H247.053C246.872 82.6774 246.7 83.3913 246.643 84.2277H254.76C254.348 86.3944 253.957 88.4558 253.552 90.5916H245.382C245.229 91.3969 245.089 92.1248 244.936 92.9348H254.18C253.931 94.3009 253.699 95.5786 253.465 96.8563C253.508 96.8796 253.552 96.9012 253.597 96.9245C254.924 94.9312 256.25 92.9364 257.602 90.906C258.983 91.9343 260.413 92.7924 262.071 93.1888C263.264 93.4738 264.461 93.5946 265.668 93.2833C265.866 93.2322 266.067 93.1718 266.252 93.0851C266.812 92.8233 267.316 92.4764 267.272 91.7748C267.226 91.033 266.575 90.9292 266.036 90.8239C264.772 90.5761 263.493 90.4073 262.226 90.1734C261.182 89.9813 260.187 89.6344 259.257 89.1109C256.965 87.8193 256.123 85.8322 256.826 83.2953C257.557 80.6609 259.246 78.7497 261.576 77.4456C267.398 74.1855 273.371 73.9826 279.444 76.7487C279.58 76.8106 279.706 76.9005 279.921 77.0275C278.578 79.0966 277.252 81.1379 275.897 83.2241C274.624 82.4869 273.343 81.8379 271.908 81.5886C270.991 81.4291 270.072 81.3082 269.142 81.4956C268.733 81.5777 268.347 81.714 268.011 81.9665C267.703 82.1972 267.526 82.5008 267.554 82.8957C267.585 83.3387 267.927 83.5214 268.276 83.6035C269.354 83.856 270.441 84.0697 271.527 84.2865C272.767 84.5328 273.988 84.8441 275.134 85.397C277.698 86.636 278.682 88.5921 278.163 91.4031C278.129 91.589 278.124 91.781 278.22 92.0118C281.6 86.4471 284.979 80.8839 288.368 75.3052H300.148C301.886 82.5984 303.626 89.9024 305.367 97.2063C305.414 97.2063 305.459 97.2063 305.505 97.2079C306.89 89.9302 308.274 82.651 309.667 75.3285H320.285C319.25 80.7786 318.22 86.207 317.169 91.75H326.079C325.566 94.448 325.08 97.0158 324.59 99.5945H294.713C294.575 98.6188 294.438 97.6384 294.295 96.6194H286.283C285.823 97.5687 285.335 98.5785 284.846 99.5914H273.658C274.393 98.3292 275.1 97.1181 275.804 95.9069C275.834 95.8729 275.863 95.8403 275.896 95.8032C275.773 95.7846 275.775 95.8372 275.821 95.9178H275.818ZM294.089 90.7604C293.875 88.2529 293.497 85.8415 293.586 83.3635C293.041 83.5664 290.443 88.9483 289.938 90.7604H294.091H294.089Z" fill="#015DAA"/>
<path d="M2.29688 81.886V75.3564H109.204C109.684 77.4845 110.175 79.6574 110.68 81.886H2.29688Z" fill="#015DAA"/>
<path d="M2.29517 99.6011V93.4727H113.365C113.831 95.4953 114.297 97.5242 114.776 99.6011H2.29517Z" fill="#015DAA"/>
<path d="M111.328 84.6245C111.799 86.6689 112.267 88.6962 112.742 90.7669H2.31689V84.6245H111.328Z" fill="#015DAA"/>
<path d="M338.985 90.5761C338.827 91.3939 338.686 92.1249 338.528 92.938H347.793C347.364 95.193 346.952 97.3628 346.53 99.5714H326.567C328.105 91.4806 329.637 83.4178 331.176 75.3208H350.824C350.413 77.5046 350.006 79.662 349.586 81.8938H340.636C340.483 82.6836 340.343 83.4054 340.184 84.2324H348.353C347.941 86.4053 347.553 88.4683 347.153 90.5777H338.983L338.985 90.5761Z" fill="#015DAA"/>
<path d="M348.243 68.8611C347.946 68.8332 347.58 68.8317 347.23 68.7604C344.797 68.2648 343.927 65.8828 345.451 63.9159C346.698 62.3067 349.137 61.5881 351.019 62.2773C352.897 62.965 353.58 64.8281 352.524 66.5318C351.565 68.079 350.085 68.7512 348.245 68.8611H348.243ZM349.349 62.9123C347.659 62.9061 346.328 63.7548 345.895 65.1131C345.5 66.3568 346.019 67.4424 347.244 67.7971C348.499 68.1611 349.696 67.9752 350.763 67.1993C351.708 66.5132 352.143 65.3129 351.84 64.3511C351.558 63.4575 350.625 62.9185 349.349 62.9139V62.9123Z" fill="#E21837"/>
<path d="M349.741 65.7589C349.893 66.2994 350.274 66.6649 350.305 67.2039H349.382C349.166 66.7455 348.94 66.2638 348.711 65.7759C348.497 65.6474 348.274 65.7202 348.017 65.7155C347.909 66.2096 347.807 66.6804 347.709 67.1326C347.433 67.2751 347.189 67.2457 346.834 67.1574C347.048 66.0067 347.26 64.8606 347.483 63.6588C348.27 63.6588 349.012 63.6526 349.753 63.6619C350.234 63.6681 350.732 63.7192 350.828 64.3092C350.918 64.8653 350.698 65.3175 350.162 65.5715C350.024 65.6365 349.884 65.6954 349.743 65.7573L349.741 65.7589ZM348.33 64.3046C348.251 64.5632 348.073 64.7553 348.239 64.9861C349.592 65.1053 349.78 65.0496 349.966 64.4471C349.456 64.2008 348.914 64.3604 348.329 64.3046H348.33Z" fill="#E21837"/>
</g>
<defs>
<clipPath id="clip0_2064_5251">
<rect width="360" height="99.6554" fill="white" transform="translate(0 0.383789)"/>
</clipPath>
</defs>
</svg>
