<svg width="360" height="49" viewBox="0 0 360 49" fill="none" xmlns="http://www.w3.org/2000/svg">
<path d="M34.0609 33.4917C35.7203 25.9825 37.3767 18.4734 39.1051 10.6455C36.5185 11.5356 34.7121 9.00651 32.1885 9.68916C31.8914 9.94779 31.5224 10.2696 31.1413 10.6004C30.4991 10.465 30.3401 10.0981 30.5501 9.51173C31.3603 7.24726 32.1585 4.97678 33.6709 3.05814C35.2522 1.04929 37.2717 0.264395 39.7743 0.980124C41.4457 1.45828 43.1381 1.30491 44.9265 1.18161C45.3646 1.74397 45.8207 2.32437 46.1298 2.71832C42.2289 17.9351 38.559 32.9864 35.1562 48.2092H28.0115C27.1773 42.0533 25.4969 36.1411 24.1016 30.1145C22.4362 36.0629 20.4618 41.903 19.4175 48.0288H12.0868C9.05911 33.7954 5.53629 19.7304 2.32254 5.51207C1.52436 5.46395 0.798186 5.41884 0 5.37073V1.02824H14.2683C14.5114 2.39955 14.3403 3.825 14.3583 5.25646C13.5512 5.64139 12.726 5.28352 11.7717 5.57221C13.8962 14.6812 16.0207 23.7902 18.1452 32.8962L18.4183 32.8722C19.5466 28.6921 20.6958 24.518 21.7911 20.3289C22.1092 19.1109 21.512 17.9621 21.275 16.7983C20.5038 13.0302 19.6846 9.26814 18.8684 5.4429H16.2818V0.995162H30.055V5.26848C29.5569 5.65943 28.8997 5.26247 28.1586 5.6474C30.034 14.9007 31.9184 24.2143 33.8059 33.5247C33.8929 33.5157 33.9769 33.5067 34.0639 33.4977L34.0609 33.4917Z" fill="#B42B31"/>
<path d="M176.099 43.638C176.81 43.7102 177.395 43.7703 178.044 43.8335C178.248 45.2048 178.146 46.537 178.101 47.9715H169.816V43.9177C170.392 43.5237 171.091 43.8906 171.976 43.4936C172.918 30.9624 173.873 18.2717 174.83 5.49986C174.113 5.45175 173.528 5.41265 172.864 5.37055V1.23857H182.254C184.435 10.0138 186.62 18.813 188.807 27.6123C188.909 27.6183 189.011 27.6243 189.113 27.6303C191.097 18.8431 193.08 10.0559 195.079 1.2085H205.068V5.24725C204.537 5.63218 203.895 5.27432 203.123 5.5991C204.066 18.2116 205.014 30.8992 205.965 43.6199C206.664 43.7011 207.192 43.7643 207.778 43.8335V47.9835H194.803C194.547 46.6182 194.751 45.2469 194.691 43.8124C195.388 43.7463 195.97 43.6921 196.711 43.623C196.195 36.3754 195.685 29.1821 195.175 21.9857C195.088 21.9706 195.001 21.9586 194.914 21.9436C192.81 30.6075 190.71 39.2745 188.591 48.0015H184.858C182.614 39.2293 180.363 30.4391 178.113 21.6489C178.035 21.6579 177.957 21.6639 177.876 21.6729C177.284 28.9776 176.696 36.2852 176.102 43.641L176.099 43.638Z" fill="#B42B31"/>
<path d="M77.7151 14.152C77.112 14.0979 76.6289 14.0558 76.0678 14.0046C75.8607 12.5371 75.9477 11.1147 76.0258 9.50577C81.8111 9.81853 87.5664 8.92537 93.2438 10.2035C98.1679 11.3131 100.983 14.4708 101.727 19.4869C102.213 22.7708 102.153 25.9645 100.562 28.9928C99.6503 30.7341 98.306 32.0182 96.5145 32.9685C97.9309 36.487 99.3292 39.9513 100.737 43.4518C101.34 43.5059 101.877 43.554 102.513 43.6112V47.9867H92.9947C92.0615 43.4668 90.2641 39.1995 88.6317 34.8209C87.9415 34.9773 87.3654 35.1066 86.7233 35.251V43.3976C87.2244 43.4788 87.6985 43.557 88.2056 43.6382V48.0288H76.0558V43.6322C76.5689 43.563 77.097 43.4909 77.7121 43.4097V14.155L77.7151 14.152ZM86.7503 14.173V30.6138C89.3399 30.5476 91.1673 29.462 92.1545 27.1524C93.2228 24.6504 93.4178 22.019 93.0187 19.3486C92.4906 15.815 90.4831 14.152 86.7533 14.1761L86.7503 14.173Z" fill="#B42B31"/>
<path d="M243.906 14.152C243.303 14.0948 242.817 14.0497 242.255 13.9986C242.045 12.5341 242.135 11.1146 242.213 9.52681C247.621 9.74334 252.977 9.06971 258.273 9.95986C264.563 11.0154 267.644 14.6121 268.146 21.1349C268.377 24.1451 267.995 27.0261 266.384 29.6604C265.499 31.1069 264.212 32.1023 262.726 32.9985C264.146 36.52 265.541 39.9844 266.942 43.4578C267.578 43.5119 268.116 43.554 268.737 43.6051V47.9927H259.182C258.087 43.5089 256.272 39.2386 254.633 34.8239C253.982 34.9623 253.409 35.0856 252.737 35.2299V43.3255C253.082 43.7495 253.679 43.3525 254.189 43.7164V47.9927H242.252V43.6292C242.79 43.5721 243.312 43.5149 243.912 43.4488V14.146L243.906 14.152ZM252.716 30.719C255.531 30.7491 257.331 29.5702 258.303 26.996C259.278 24.4098 259.398 21.7243 258.915 19.0207C258.351 15.8721 256.074 14.1971 252.716 14.4557V30.722V30.719Z" fill="#B42B31"/>
<path d="M299.02 14.0885C298.474 14.4584 297.883 14.1607 297.144 14.4494C295.443 16.9635 293.628 19.646 291.734 22.4397C294.309 29.4917 296.892 36.5648 299.476 43.6379C300.199 43.6981 300.784 43.7462 301.45 43.8003V48.1999H291.926C290.231 42.2486 287.935 36.5107 285.943 30.4781C284.956 31.6179 284.304 32.6012 284.343 34.0387C284.433 37.2806 284.37 40.5284 284.37 43.8364C284.998 43.8875 285.481 43.9266 286.084 43.9747V48.3082H273.658C273.352 46.7715 273.583 45.349 273.475 43.8725C274.132 43.7793 274.651 43.7041 275.242 43.6199V14.4103C274.666 14.3321 274.141 14.2629 273.553 14.1848V9.76709H285.898V14.0855C285.415 14.4885 284.793 14.1126 284.22 14.4765V25.862C286.933 21.8593 289.409 18.2145 291.893 14.5486C291.263 14.0404 290.531 14.5005 289.919 14.0765V9.8152H299.02V14.0885Z" fill="#B42B31"/>
<path d="M133.012 43.6112V14.561C132.502 14.0828 131.875 14.4497 131.305 14.1129V9.67119C136.64 9.90876 141.996 9.02162 147.214 10.6095C151.892 12.0349 155.34 15.0151 156.997 19.6312C159.859 27.6215 159.553 35.4074 154.353 42.4624C151.61 46.1824 147.698 47.9777 143.076 48.0499C139.191 48.11 135.302 48.0619 131.326 48.0619V43.8668C131.848 43.7856 132.367 43.7044 133.009 43.6052L133.012 43.6112ZM142.218 43.6052C142.458 43.6382 142.605 43.6803 142.752 43.6743C145.882 43.527 148.115 41.5783 149.102 38.0447C150.377 33.4827 150.203 28.8305 149.765 24.1873C149.522 21.6251 148.88 19.1501 147.268 17.06C146.005 15.4241 144.376 14.4437 142.218 14.3595V43.6052Z" fill="#B42B31"/>
<path d="M73.3672 28.6709C73.2682 32.872 72.584 37.1904 70.4325 41.1691C68.0649 45.5506 64.5061 48.3474 59.5189 48.9007C55.8281 49.3097 52.6473 47.9053 50.0817 45.2379C47.006 42.0412 45.5747 38.0776 45.1156 33.7441C44.4914 27.8258 44.8785 22.0338 47.6752 16.6268C49.2596 13.5594 51.5191 11.1355 54.7298 9.74915C60.1191 7.41852 65.7214 9.00636 69.2172 13.7999C71.9839 17.5921 73.3822 22.518 73.3672 28.6739V28.6709ZM64.065 29.973C63.96 27.1793 63.945 24.3224 63.5159 21.4895C63.2008 19.4085 62.8167 17.3425 61.8655 15.4359C61.2383 14.1789 60.4222 13.0541 58.8768 13.0361C57.3314 13.0181 56.4852 14.1097 55.8491 15.3727C55.399 16.2689 55.0599 17.2102 54.8439 18.1936C53.5686 23.9976 53.8086 29.8377 54.4508 35.6838C54.7148 38.0776 55.1649 40.4443 56.3652 42.5825C57.0074 43.7252 57.8836 44.5763 59.3119 44.5733C60.7252 44.5703 61.4454 43.611 62.0185 42.5193C62.3636 41.8577 62.6337 41.151 62.8707 40.4413C64.002 37.0581 63.93 33.5366 64.068 29.976L64.065 29.973Z" fill="#B42B31"/>
<path d="M306.813 14.3925C306.225 14.3233 305.696 14.2602 305.114 14.188V9.7583H326.035V17.3817C325.039 17.6975 324.004 17.4419 322.956 17.5471C322.794 16.9457 322.692 16.4044 322.5 15.9021C322.131 14.9458 321.48 14.2993 320.382 14.2902C318.887 14.2812 317.393 14.2902 315.782 14.2902V25.3901H322.662C323.019 24.6623 322.641 23.7722 322.92 22.9091H326.002V32.6406H323.004C322.575 31.8888 322.983 31.0527 322.683 30.1656H315.752V43.6923C317.411 43.7765 319.083 43.8817 320.751 43.5028C321.828 43.2592 322.317 42.4623 322.482 41.4639C322.662 40.3813 322.746 39.2836 322.881 38.1258C323.89 37.801 324.913 38.0266 326.02 37.9905V48.1881H305.129V43.8186C305.696 43.7434 306.228 43.6742 306.813 43.596V14.3865V14.3925Z" fill="#B42B31"/>
<path d="M236.854 43.4426C237.43 43.5057 237.91 43.5568 238.442 43.614V47.9595H226.052V43.7553C226.625 43.3012 227.336 43.7132 228.065 43.3644C227.966 41.8848 227.402 40.4624 227.018 38.9166H217.854C217.539 40.3421 217.209 41.8277 216.891 43.2621C217.344 43.6982 217.845 43.4215 218.346 43.6621V47.9775H210.991C210.709 46.5761 210.97 45.1477 210.856 43.7944C211.366 43.3313 211.933 43.6982 212.549 43.2952C215.36 32.1864 218.214 20.9121 221.074 9.61084H228.101C231.012 20.858 233.917 32.0751 236.857 43.4396L236.854 43.4426ZM225.569 33.8524C224.482 29.3686 223.42 24.993 222.361 20.6174C222.265 20.6265 222.172 20.6355 222.076 20.6445C221.026 25.011 219.975 29.3776 218.898 33.8524H225.569Z" fill="#B42B31"/>
<path d="M338.281 14.2121C335.754 14.4587 334.593 15.9984 333.825 20.0762C332.721 20.2507 331.601 20.2477 330.401 20.0672C330.668 16.6149 330.932 13.2377 331.199 9.77637H354.35C354.62 13.1686 354.893 16.5788 355.172 20.0642C354.002 20.2807 352.924 20.1815 351.76 20.1364C351.235 17.4629 350.809 14.7023 347.289 14.0737V43.4577C347.82 43.5058 348.345 43.554 348.939 43.6081V48.0107H336.673C336.415 46.5823 336.565 45.1598 336.583 43.7825C337.096 43.3224 337.723 43.7254 338.281 43.3465V14.2181V14.2121Z" fill="#B42B31"/>
<path d="M109.036 14.1516C108.472 14.0975 107.983 14.0524 107.401 13.9982V9.69786C108.001 9.4272 108.607 9.56253 109.193 9.55953C112.679 9.54449 116.166 9.55351 119.716 9.55351V13.8449C119.23 14.302 118.597 13.884 118.03 14.2869V43.301C122.252 44.4017 123.92 43.0845 125.042 37.6805H128.01V47.9984H107.425C107.128 46.582 107.398 45.1565 107.278 43.8093C107.842 43.3251 108.463 43.716 109.033 43.3371V14.1516H109.036Z" fill="#B42B31"/>
<path d="M352.507 45.22C352.495 43.1329 354.095 41.497 356.162 41.4849C358.14 41.4729 359.931 43.184 359.994 45.1508C360.057 47.1446 358.209 49.0211 356.204 49.0001C354.233 48.979 352.519 47.2258 352.507 45.223V45.22ZM356.408 48.2152C358.197 48.2182 359.445 46.9942 359.436 45.238C359.427 43.5178 357.993 42.0984 356.288 42.1195C354.572 42.1435 353.33 43.4547 353.351 45.22C353.375 46.9371 354.674 48.2092 356.408 48.2152Z" fill="#B42B31"/>
<path d="M357.96 47.1387C356.558 47.4304 357.032 45.3704 355.775 45.7102C355.313 46.1102 355.832 46.8049 355.13 47.3402V43.2653C355.877 43.0428 356.768 43.0578 357.671 43.4067C358.248 44.2758 358.044 45.0095 357.29 45.6531C357.515 46.1553 357.714 46.6004 357.96 47.1417V47.1387ZM355.622 44.9554C356.39 44.9554 357.086 45.1719 357.218 44.1374C356.693 43.7344 356.183 43.6442 355.577 43.975C355.592 44.2697 355.604 44.5554 355.622 44.9524V44.9554Z" fill="#B42B31"/>
</svg>
