<svg width="360" height="75" viewBox="0 0 360 75" fill="none" xmlns="http://www.w3.org/2000/svg">
<g clip-path="url(#clip0_2064_5249)">
<path d="M250.694 39.2066C250.694 33.7371 259.006 25.2865 263.165 25.2865C264.306 25.2865 265.047 25.7762 265.047 26.9371C265.047 29.9666 258.643 35.3701 250.694 39.2066ZM230.192 25.3025C231.332 25.3025 232.074 25.792 232.074 26.9535C232.074 29.983 225.669 35.3855 217.72 39.223C217.72 33.7531 226.033 25.3025 230.192 25.3025ZM145.492 39.8295C145.492 33.3057 155.408 26.0976 163.081 26.0976C164.599 26.0976 166.127 26.3545 167.482 26.9057C158.473 41.2691 145.492 46.9807 145.492 39.8295ZM136.951 69.8998C136.073 69.8998 135.509 69.4609 135.509 68.5289C135.509 66.4969 139.499 61.2119 149.994 57.435C145.533 64.7225 140.342 69.8998 136.951 69.8998ZM78.0204 39.8295C78.0204 33.531 87.8139 26.0736 95.6604 26.0736C97.2409 26.0736 98.7299 26.333 100.017 26.9057C90.5284 41.8336 78.0204 46.7396 78.0204 39.8295ZM139.117 11.0289C139.983 11.0289 140.362 11.4619 140.362 12.2734C140.362 16.0069 131.434 27.5855 122.453 34.8896C124.725 26.9361 134.897 11.0289 139.117 11.0289ZM341.903 43.9435C348.687 35.4262 339.8 22.9754 349.406 19.6004C349.183 17.2074 346.94 15.7774 344.076 15.7774C341.495 15.7774 338.734 17.1879 336.967 19.4664C326.848 32.5236 316.343 42.5795 310.333 42.5795C308.331 42.5795 307.628 41.6596 307.628 40.091C307.628 35.2211 313.742 28.0791 318.45 23.1014C319.045 22.4524 319.315 21.8024 319.315 21.2074C319.315 19.7464 317.638 18.7729 315.582 18.7729C310.413 18.7729 299.681 26.9535 291.753 34.4236C294.593 29.0596 297.745 24.79 297.745 22.4774C297.745 20.0419 295.202 19.3389 292.28 19.3934C280.962 34.4381 266.44 45.5531 257.118 45.5531C254.704 45.5531 253.092 44.7387 252.081 43.5351C263.951 38.6836 273.864 30.581 273.864 24.6012C273.864 20.8964 270.756 19.2479 266.402 19.2479C255.224 19.2479 241.081 31.1416 240.382 43.05C229.609 46.924 221.585 46.234 219.108 43.5516C230.977 38.7 240.891 30.5971 240.891 24.6176C240.891 20.9129 237.783 19.2649 233.429 19.2649C222.154 19.2649 207.863 31.3625 207.391 43.3736C201.998 45.0316 195.866 45.7605 195.866 41.3156C195.866 33.983 206.849 27.9615 206.849 23.0819C206.849 21.7289 206.254 20.5924 205.226 19.9979C201.723 21.8024 196.515 23.2979 192.727 23.2979C193.701 20.2684 192.673 17.8874 189.698 17.8874C185.315 17.8874 181.973 22.8109 181.973 26.815C181.973 28.5715 182.621 29.7926 183.682 30.6C179.335 36.4486 173.827 41.8 166.399 46.0516C168.617 41.4516 170.334 36.499 172.72 29.5086C178.484 26.1086 181.41 19.1844 169.795 19.1844C160.274 19.1844 149.757 24.906 143.175 32.6016C134.582 42.649 124.118 48.2601 122.262 40.6355C136.451 29.9615 149.644 14.8734 149.499 7.35789C149.447 4.63988 147.829 2.79338 144.023 2.79338C135.015 2.79338 114.007 23.2719 112.223 41.4996C97.1834 49.5531 98.8874 36.8646 103.485 30.1887C110.168 26.758 114.793 19.1844 102.331 19.1844C84.2489 19.1844 69.3659 35.998 69.6174 46.7535C69.6919 49.9381 71.2914 52.5654 74.6739 52.5668C78.5494 52.5699 84.7704 49.8836 91.3224 43.1141C90.0609 49.5976 91.5629 52.5668 96.8789 52.5668C101.201 52.5668 106.738 50.393 112.591 47.0285C113.563 50.0555 116.088 52.5668 121.049 52.5668C126.198 52.5668 132.544 48.5125 137.513 43.2791C137.257 44.44 137.122 45.6035 137.122 46.7586C137.122 50.5203 139.142 52.5654 142.139 52.5668C145.515 52.5693 150.57 49.8891 156.136 44.6361C155.26 47.025 154.259 49.4551 153.082 51.8238C141.107 56.0523 128.756 60.6293 128.756 68.9184C128.756 72.435 131.673 74.5293 135.352 74.5293C144.328 74.5293 155.359 63.8074 162.245 53.3514C170.779 49.5262 180.713 42.282 188.375 31.9221C190.368 31.9705 192.578 31.6271 194.622 31.0896C188.07 38.0516 185.044 42.5601 185.044 46.9426C185.044 50.568 187.804 52.5668 192.673 52.5668C196.923 52.5668 202.264 51.0635 208.579 48.2846C210.425 51.1148 214.274 52.5668 219.222 52.5668C226.604 52.5668 234.771 50.0469 241.104 47.433C242.507 50.4248 245.884 52.5668 251.299 52.5668C262.307 52.5668 272.267 45.5816 280.671 38.0965C276.877 43.8705 271.231 52.5668 279.168 52.5668C280.413 52.5668 282.165 52.3658 283.602 51.8853C289.229 41.6057 296.537 34.9506 303.841 30.5682C297.835 38.0346 295.346 43.716 295.346 47.3951C295.346 50.8033 297.456 52.5668 300.919 52.5668C311.465 52.5668 323.855 41.7266 334.521 29.3156C335.068 34.056 337.955 39.142 332.9 43.5566C325.264 43.3771 320.994 45.5785 321.002 49.159C321.007 51.3644 322.855 52.5668 325.469 52.5668C328.126 52.5668 330.733 51.7949 333.152 50.6064C337.429 51.8453 341.845 53.1744 347.006 53.1744C354.533 53.1744 359.833 49.3941 359.999 43.1346C355.683 45.3941 348.727 44.5441 341.903 43.9435Z" fill="#E62324"/>
<path d="M39.6595 36.0847C39.822 25.9667 46.9635 15.3335 50.589 15.3335C51.66 15.3335 51.8875 16.029 51.8875 16.7685C51.8875 20.231 46.7474 29.4837 39.6595 36.0847ZM75.5965 -0.00100327C72.2215 -0.0195045 68.9645 2.02349 66.8555 5.08999C76.82 11.606 64.6105 44.0511 46.6035 44.0511C44.4455 44.0511 42.6144 43.4226 41.3894 42.1392C51.1375 33.3581 58.1795 21.417 58.1795 14.375C58.1795 10.7745 56.4205 8.49049 52.298 8.49049C40.3381 8.49049 27.7285 28.1136 30.0676 42.2702C22.5265 44.9491 18.7789 41.5981 18.7789 34.8677C18.7789 20.815 33.4619 6.2405 32.6095 1.8555C17.3955 6.55899 5.4885 -4.36901 0 13.416C7.3955 9.39199 14.222 15.8245 22.6586 11.1215C15.4131 19.4795 8.1 31.3132 8.19845 41.3071C8.2635 47.8481 11.7965 52.5669 19.45 52.5669C23.7961 52.5669 28.306 51.045 32.647 48.5626C34.507 50.8874 37.5045 52.5669 42.0855 52.5669C60.763 52.5669 81.176 26.3235 81.176 7.59699C81.176 2.62899 79.2045 0.0189972 75.5965 -0.00100327Z" fill="#E62324"/>
</g>
<defs>
<clipPath id="clip0_2064_5249">
<rect width="360" height="74.53" fill="white"/>
</clipPath>
</defs>
</svg>
