<svg width="360" height="90" viewBox="0 0 360 90" fill="none" xmlns="http://www.w3.org/2000/svg">
<g clip-path="url(#clip0_2064_5238)">
<path d="M360 63.4669C359.521 65.8101 359.259 68.1895 358.464 70.4697C355.79 78.0944 350.379 83.0603 343.053 86.1066C335.853 89.0988 328.265 89.9009 320.559 89.8378C313.251 89.7837 306.114 88.7743 299.438 85.6289C289.041 80.726 283.648 72.3443 282.374 61.0154H309.556C309.71 61.5201 309.854 62.0249 310.017 62.5386C311.128 66.0355 313.441 68.2526 317.081 68.9826C320.848 69.7397 324.615 69.8208 328.319 68.6581C331.408 67.6848 332.872 65.729 332.782 62.9892C332.7 60.5468 331.255 59.1498 329.159 58.2576C326.35 57.0679 323.359 56.4911 320.424 55.7611C313.775 54.1028 307.153 52.3273 300.694 50.0291C294.389 47.7849 289.194 44.1889 286.294 37.9792C281.877 28.5069 282.699 12.4735 297.821 4.74066C303.088 2.04588 308.725 0.784118 314.57 0.252374C315.049 0.207311 315.572 0.369538 316.006 0.0090332H325.004C325.257 0.324475 325.618 0.207311 325.934 0.225336C330.017 0.51374 334.028 1.20771 337.913 2.50553C346.973 5.53377 353.541 11.1306 356.377 20.4947C356.992 22.5406 357.461 24.6225 357.507 26.7855H331.219C329.927 22.6758 328.473 20.9904 325.248 20.0351C322.492 19.2149 319.665 19.2239 316.828 19.5754C315.708 19.7196 314.633 20.017 313.639 20.5758C310.387 22.4144 310.179 26.9748 313.26 29.0657C314.552 29.9399 315.997 30.4627 317.488 30.8502C324.281 32.6167 331.083 34.3291 337.877 36.1046C343.577 37.5917 348.852 39.9079 353.198 44.0267C356.558 47.2171 358.753 51.0024 359.575 55.5718C359.657 56.0405 359.485 56.6353 360 56.9958V63.4669Z" fill="#CB0000"/>
<path d="M168.252 0C172.1 0.387543 175.948 0.748047 179.706 1.73042C189.851 4.39816 197.864 9.79672 202.607 19.3952C204.955 24.1358 206.076 29.2009 206.491 34.5093H180.014C179.815 33.4458 179.661 32.3373 179.39 31.2738C177.836 25.3074 173.645 21.9007 167.276 21.432C165.198 21.2788 163.112 21.2788 161.061 21.7474C155.722 22.9551 152.515 26.452 150.754 31.418C148.847 36.7895 148.622 42.3683 148.893 47.9832C149.064 51.5161 149.615 54.986 150.907 58.3026C153.888 65.9633 160.167 68.9195 167.737 68.2796C175.686 67.6127 179.517 62.2231 180.519 55.707C180.592 55.2564 180.673 54.8147 180.754 54.319H206.852C206.708 57.8069 206.112 61.1596 205.109 64.4492C201.631 75.8231 194.178 83.4658 182.877 87.134C170.79 91.0545 158.586 90.9824 146.607 86.6833C135.044 82.5285 127.257 74.3992 123.427 62.8089C119.307 50.3265 119.362 37.7358 124.041 25.4066C128.901 12.5816 138.441 4.84879 151.684 1.50511C154.475 0.802123 157.312 0.369517 160.185 0.189265C160.465 0.17124 160.772 0.225315 161.016 0H168.27L168.252 0Z" fill="#CB0000"/>
<path d="M55.3222 89.8377C51.2299 85.8451 47.1829 81.8976 43.1358 77.9591C30.1906 65.3414 17.2363 52.7147 4.29108 40.0971C-0.424481 35.4916 -1.33688 29.1197 1.96944 23.9104C2.60179 22.919 3.38772 22.0718 4.21881 21.2517C10.0455 15.5557 15.8632 9.85972 21.6989 4.16375C27.2546 -1.25284 34.9874 -1.27086 40.5522 4.14572C45.2045 8.66104 49.8297 13.2124 54.464 17.7368C54.726 17.9981 55.006 18.2324 55.4486 18.647C56.1533 17.899 56.8037 17.1509 57.4993 16.457C61.6096 12.3923 65.7199 8.33659 69.8392 4.28091C75.4853 -1.27086 83.2091 -1.2979 88.8912 4.20881C94.6186 9.76058 100.265 15.4115 106.1 20.8551C111.828 26.1996 111.864 34.5903 106.164 40.1061C89.3158 56.4099 72.6397 72.885 55.8913 89.2969C55.7468 89.4411 55.5842 89.5763 55.3222 89.8287V89.8377Z" fill="#CB0000"/>
<path d="M244.18 56.9777C249.365 38.8443 254.559 20.7019 259.754 2.53247H287.198C277.45 30.9042 267.73 59.2038 257.992 87.5485H230.123C220.412 59.2939 210.692 30.9853 200.926 2.56852H229.391C234.242 20.7019 239.103 38.8713 243.963 57.0318C244.035 57.0137 244.107 56.9957 244.18 56.9687V56.9777Z" fill="#CB0000"/>
</g>
<defs>
<clipPath id="clip0_2064_5238">
<rect width="360" height="90" fill="white"/>
</clipPath>
</defs>
</svg>
