<svg width="360" height="96" viewBox="0 0 360 96" fill="none" xmlns="http://www.w3.org/2000/svg">
<g clip-path="url(#clip0_2722_14989)">
<path d="M233.46 75.7784C232.991 76.1451 232.712 76.6374 232.385 77.0809C228.806 81.93 224.881 86.4584 220.075 90.147C217.409 92.1931 214.603 94.0219 211.212 94.6487C208.483 95.1529 205.93 94.7995 203.867 92.7667C202.159 91.0843 201.535 88.9125 201.485 86.584C201.402 82.7949 202.221 79.1521 203.502 75.6114C206.973 66.0151 212.194 57.4403 218.88 49.7645C221.378 46.8978 224.24 44.4141 227.725 42.7509C230.078 41.6273 232.552 41.0596 235.16 41.1572C238.056 41.2651 240.179 42.7613 241.772 45.0543C243.384 47.3739 244.298 49.9345 244.077 52.8144C244.031 53.4132 243.821 53.9616 243.574 54.5027C242.819 56.1541 240.703 56.3241 239.672 54.7334C238.513 52.9445 236.937 51.5016 234.99 50.5643C232.27 49.2559 229.628 49.7245 227.178 51.2355C223.1 53.7488 220.112 57.3354 217.817 61.469C214.426 67.5762 212.058 74.0753 210.858 80.972C210.571 82.6219 210.412 84.2999 210.778 85.9631C211.2 87.8703 212.253 88.404 214.034 87.6278C216.439 86.5796 218.451 84.9652 220.294 83.1364C224.718 78.7485 228.024 73.5312 231.245 68.2563C232.86 65.6129 234.324 62.8749 236.097 60.3291C237.144 58.8271 238.517 57.7242 240.388 57.4581C243.037 57.0811 245.3 59.0976 245.542 61.9376C245.693 63.7102 245.251 65.4104 244.999 67.1327C244.34 71.6448 243.813 76.1643 244.295 80.734C244.371 81.4451 244.461 82.1562 244.73 82.8245C245.152 83.8653 245.882 84.1772 246.921 83.7603C248.114 83.2813 249.04 82.4209 249.92 81.5294C251.355 80.0776 252.643 78.4928 253.941 76.9183C254.233 76.5649 254.209 76.2116 254.159 75.8124C253.594 71.3136 253.583 66.8252 254.518 62.3678C255.697 56.7514 257.85 51.5622 261.464 47.0575C263.883 44.0416 266.84 41.7072 270.623 40.6294C273.757 39.7365 276.845 39.84 279.654 41.6687C283.017 43.8597 284.197 47.1787 283.857 50.9989C283.295 57.2792 280.433 62.4728 275.854 66.7424C273.508 68.929 270.8 70.5567 267.807 71.7054C266.239 72.3071 264.722 71.7956 264.349 70.4902C264.015 69.3222 264.507 68.3598 265.324 67.5644C265.797 67.1032 266.318 66.6759 266.872 66.3181C270.259 64.136 272.612 61.0624 274.501 57.5778C275.163 56.3567 275.675 55.0941 275.743 53.6778C275.89 50.6663 273.646 49.1258 270.874 50.3189C268.533 51.3257 267.017 53.1515 265.83 55.2996C264.093 58.4382 263.145 61.84 262.589 65.3601C261.776 70.5124 261.861 75.6158 263.561 80.6039C264.572 83.5726 266.113 86.244 268.743 88.0403C272.322 90.4841 276.171 90.7236 280.1 88.88C283.367 87.3484 285.823 84.8336 288.062 82.0927C291.329 78.0936 293.956 73.6732 296.452 69.1714C296.63 68.8521 296.61 68.5712 296.538 68.2548C294.915 61.2309 294.386 54.0977 294.506 46.9141C294.626 39.7291 295.442 32.6194 297.311 25.6636C298.586 20.9194 300.269 16.3289 302.908 12.1465C305.49 8.05285 308.639 4.49434 312.969 2.18064C317.296 -0.13158 321.801 -0.774685 326.492 1.06888C330.865 2.78678 333.634 6.83317 333.711 11.533C333.789 16.2905 332.844 20.878 331.498 25.4004C329.172 33.2152 325.744 40.5673 322.027 47.7967C319.338 53.0258 316.271 58.0479 313.539 63.2534C312.981 64.3149 311.871 64.8042 310.883 64.4953C309.943 64.2025 309.441 63.2859 309.56 62.0485C309.645 61.1748 309.998 60.3912 310.418 59.6298C313.49 54.0681 316.18 48.3289 318.425 42.3828C321.077 35.3634 323.096 28.1724 324.145 20.7346C324.585 17.6137 324.899 14.4735 324.652 11.3112C324.568 10.2291 324.387 9.16165 323.914 8.16669C322.861 5.95352 321.083 5.1951 318.739 5.955C316.753 6.59958 315.135 7.82813 313.554 9.138C310.544 11.6276 308.747 14.9614 307.129 18.3987C304.405 24.1866 303.026 30.3338 302.451 36.6806C301.88 42.986 302.115 49.2722 302.852 55.5494C303.89 64.3932 305.83 73.0522 308.272 81.6018C309.049 84.3206 310.011 86.9877 310.881 89.6798C311.378 91.2203 311.322 92.7475 310.646 94.2185C309.856 95.9394 308.266 96.4302 306.607 95.5003C305.153 94.6857 304.203 93.4157 303.525 91.9388C301.744 88.0565 300.568 83.9643 299.372 79.8795C299.338 79.7612 299.318 79.6385 299.271 79.5247C299.218 79.3946 299.169 79.2024 299.07 79.1654C298.858 79.0871 298.795 79.3266 298.71 79.4567C297.879 80.7355 296.996 81.9788 296.047 83.1734C292.731 87.344 288.886 90.8965 284.005 93.1629C277.793 96.0488 271.506 96.513 265.207 93.4187C262.194 91.9388 259.955 89.5615 257.975 86.9167C257.339 86.0681 256.76 85.1781 256.294 84.226C256.042 83.7086 255.851 83.7352 255.45 84.0989C253.412 85.9454 251.195 87.5081 248.592 88.4897C243.251 90.5033 237.856 88.3256 235.404 83.1689C234.408 81.0755 233.805 78.8949 233.63 76.5886C233.611 76.3328 233.642 76.0578 233.463 75.774L233.46 75.7784Z" fill="#CF112E"/>
<path d="M12.0893 61.9037C11.866 61.7825 11.9089 61.5918 11.9281 61.4351C12.2683 58.7873 12.0893 56.1232 12.1736 53.4665C12.3733 47.1907 12.5774 40.9134 13.1808 34.6597C13.8049 28.1873 14.6805 21.7533 16.5766 15.5071C17.7405 11.6721 19.2595 8.00565 21.8788 4.88622C25.5748 0.487976 30.8548 -0.564646 35.9114 1.19465C38.0826 1.95012 39.461 3.68576 40.5377 5.65499C42.1587 8.62066 43.0698 11.8332 43.7812 15.1094C45.0353 20.8929 45.7319 26.7518 46.1845 32.6476C46.6134 38.2464 46.9063 43.851 47.0601 49.4645C47.2405 56.0389 47.4446 62.6134 47.6398 69.1863C47.6428 69.278 47.6546 69.3697 47.6783 69.6358C48.0983 68.9735 48.0821 68.3466 48.1708 67.7745C49.7208 57.7701 51.855 47.8929 54.7479 38.1887C56.8584 31.1057 59.3579 24.1661 62.8483 17.6271C65.4454 12.7631 68.4537 8.19045 72.8167 4.68368C75.6239 2.42764 78.7756 0.980284 82.4361 0.785135C88.9466 0.436232 93.4457 3.78038 94.9957 10.1138C95.8106 13.4462 95.7559 16.7992 95.3433 20.1685C94.7872 24.7012 93.5492 29.0847 92.4193 33.4903C90.9714 39.1378 89.6861 44.8149 88.8875 50.5984C87.6747 59.3949 86.9884 68.2224 87.2798 77.1076C87.3863 80.3645 87.932 83.552 88.8179 86.6936C89.3829 88.7012 89.9479 90.7252 89.9435 92.8452C89.9405 93.7825 89.7482 94.64 88.8416 95.1012C87.8803 95.5906 86.9722 95.3481 86.1498 94.7228C84.2848 93.3035 83.2126 91.3091 82.2409 89.2571C80.4365 85.4473 79.6423 81.392 79.237 77.2185C78.7667 72.3797 78.6055 67.5409 78.8037 62.6858C79.0951 55.5614 80.086 48.5301 81.5591 41.558C82.6476 36.4043 84.0896 31.3407 85.3808 26.2388C86.2312 22.8798 86.7281 19.4766 86.3658 16.0008C86.1927 14.348 85.8171 12.7439 84.8616 11.3439C83.711 9.65555 82.0678 9.12775 80.1496 9.83147C78.0938 10.5855 76.566 12.0535 75.1802 13.6694C71.8983 17.497 69.5851 21.9159 67.4835 26.4576C65.1644 31.4664 63.2033 36.6112 61.6548 41.9128C60.2054 46.8787 59.136 51.929 58.1732 57.0058C57.0921 62.7095 56.0834 68.4279 54.7242 74.0739C54.0735 76.7765 53.0574 79.3341 51.1244 81.4142C49.8421 82.7936 48.3305 83.7678 46.3472 83.6747C44.2263 83.5741 42.7888 82.3752 41.7372 80.6528C40.6309 78.8418 40.31 76.7942 40.0704 74.7318C39.2968 68.0494 39.0218 61.3331 38.7141 54.6182C38.3932 47.6076 38.0915 40.5941 37.5295 33.5983C37.1597 28.9871 36.6938 24.3804 35.7532 19.8417C35.1986 17.1673 34.5389 14.5106 33.0984 12.1393C32.4565 11.0822 31.6268 10.1922 30.3223 10.0133C28.9365 9.8226 27.984 10.6062 27.1928 11.6085C25.8898 13.2584 25.1621 15.1966 24.5409 17.1703C22.9303 22.2841 22.1213 27.5575 21.4646 32.8576C20.2844 42.3711 19.7742 51.9319 19.4843 61.509C19.2402 69.5633 19.2373 77.6162 19.4177 85.6705C19.4665 87.8674 19.4251 90.0614 18.6191 92.1518C17.9476 93.8904 16.8162 95.0288 14.8284 95.1781C13.697 95.2624 12.9989 94.7272 12.4605 93.8697C11.5199 92.3692 11.0511 90.6808 10.6473 88.9792C9.62087 84.6608 9.11062 80.2611 8.56931 75.8643C7.69966 68.8094 6.96165 61.7367 5.60541 54.7468C4.76978 50.4417 3.14585 46.4692 0.841576 42.7584C0.488097 42.1907 0.17603 41.6023 0.0458784 40.943C-0.158223 39.9125 0.362383 39.231 1.40951 39.2295C3.62208 39.2295 5.18833 40.464 6.5283 42.0503C8.80743 44.7498 10.0232 47.9461 10.8263 51.3376C11.5273 54.2959 11.7817 57.3118 12.0257 60.3278C12.0671 60.8422 12.3674 61.3641 12.0908 61.9052L12.0893 61.9037Z" fill="#D0102E"/>
<path d="M167.091 75.6083C167.454 75.3585 167.459 75.0391 167.555 74.7804C170.361 67.2376 174.169 60.298 179.804 54.4642C182.722 51.4438 186.001 48.9143 189.987 47.4477C192.877 46.3833 195.852 45.922 198.898 46.7248C201.802 47.4921 203.564 49.8013 203.699 52.8025C203.807 55.233 203.107 57.4624 202.156 59.649C200.735 62.9192 199.318 66.1879 198.387 69.6489C197.074 74.535 196.789 79.4995 197.092 84.5186C197.24 86.9757 197.577 89.4225 197.466 91.8929C197.447 92.3335 197.401 92.7755 197.33 93.2116C197.062 94.8512 196.398 95.5579 194.743 95.923C193.396 96.2187 192.381 95.6466 191.623 94.5821C190.413 92.8864 190.019 90.9068 189.741 88.8991C189.23 85.212 189.698 81.5825 190.398 77.9678C191.414 72.7225 192.773 67.5614 194.181 62.4106C194.493 61.2693 194.687 60.1102 194.663 58.9142C194.619 56.667 193.356 55.4547 191.124 55.7164C188.585 56.0136 186.443 57.1889 184.701 59.0354C182.363 61.5117 180.381 64.2616 178.655 67.1962C174.974 73.4513 172.436 80.178 170.39 87.1117C170.022 88.3625 169.698 89.628 169.287 90.8639C168.534 93.1229 166.617 93.8296 164.533 92.641C163.115 91.8323 162.235 90.5875 161.75 89.0573C160.926 86.4613 160.621 83.7676 160.32 81.0769C160.232 80.3022 160.151 79.5261 160.046 78.5488C159.406 79.3708 158.891 80.0435 158.362 80.7058C153.948 86.2277 148.599 90.5372 142.005 93.1909C138.114 94.7566 134.096 95.6052 129.879 94.8482C125.93 94.1386 122.941 92.0703 121.044 88.5C120.637 87.7342 120.65 87.7341 120.045 88.4142C117.708 91.0443 115.157 93.4038 111.915 94.9C107.469 96.952 103.124 95.9156 100.117 92.054C97.7273 88.9864 96.4568 85.4278 95.8593 81.6446C94.1319 70.7266 96.0087 60.3423 100.684 50.4016C101.135 49.4436 101.681 48.5343 102.293 47.668C103.884 45.4179 106.563 44.6254 109.009 45.6736C111.433 46.7115 112.721 49.2321 112.207 51.9169C111.745 54.3238 110.757 56.5606 109.932 58.8477C108.089 63.9555 106.672 69.1713 105.977 74.5616C105.415 78.9214 105.097 83.2901 106.193 87.6277C106.368 88.3181 106.586 88.9937 106.933 89.625C108.011 91.5972 109.481 91.9653 111.405 90.7782C113.569 89.4432 114.909 87.4414 116 85.2283C117.562 82.0586 118.302 78.6553 118.923 75.2047C120.309 67.5067 122.946 60.3039 127.769 54.0488C131.182 49.6224 135.381 46.1556 140.683 44.1952C143.82 43.0362 147.007 42.7671 150.199 44.0592C153.639 45.4533 155.881 49.0695 155.587 52.7522C155.383 55.3128 153.555 56.738 150.865 56.3846C149.147 56.1585 147.662 55.4902 146.621 54.0059C146.142 53.3229 145.571 52.7049 144.892 52.1963C143.89 51.4453 142.822 51.3492 141.69 51.8445C139.283 52.8956 137.545 54.7288 136.041 56.7956C132.001 62.3485 129.829 68.5918 129.262 75.4132C129.049 77.9752 128.986 80.5299 129.765 83.0254C131.006 87.0009 134.106 88.6493 137.879 88.2516C143.504 87.6588 148.102 84.9947 151.727 80.728C155.932 75.7783 158.768 70.0717 160.45 63.8181C160.867 62.2687 160.827 60.5996 161.024 58.9881C161.63 54.0488 162.64 49.1848 163.792 44.349C165.845 35.7284 168.352 27.2409 171.341 18.8998C172.934 14.4527 174.647 10.0501 176.923 5.8928C178.038 3.85704 179.431 2.07408 181.517 0.928323C184.084 -0.482072 187.107 0.214255 188.616 2.57526C189.238 3.54953 189.38 4.54893 188.903 5.65625C186.239 11.8182 183.602 17.9906 180.958 24.1599C177.497 32.2335 174.225 40.3795 171.68 48.796C169.861 54.8087 168.405 60.9056 167.66 67.1548C167.366 69.6252 167.148 72.103 167.101 74.5912C167.095 74.9001 167.101 75.2106 167.101 75.6053L167.091 75.6083Z" fill="#D0102E"/>
<path d="M338.17 95.4677C332.121 95.4499 326.928 93.219 322.522 89.183C319.479 86.3947 317.765 82.8954 317.72 78.6923C317.704 77.1784 317.905 75.6941 318.6 74.3162C319.625 72.2864 321.848 71.2204 323.889 71.7793C324.886 72.0528 325.485 72.687 325.689 73.71C326.047 75.5034 326.047 77.2272 324.926 78.8061C324.509 79.393 324.455 80.0657 324.6 80.7857C325.146 83.5104 326.788 85.4279 329.089 86.8131C334.337 89.968 342.428 89.6132 347.21 83.7277C348.718 81.8694 350.048 79.9267 350.505 77.5421C351.145 74.2053 349.902 71.4644 347.615 69.1107C345.799 67.242 343.53 66.0578 341.212 64.9579C338.592 63.7131 335.903 62.5925 333.596 60.7814C330.877 58.6481 328.934 55.953 328.149 52.5763C327.252 48.7206 328.37 45.344 331.157 42.5867C334.328 39.4496 338.197 37.8928 342.666 38.2314C346.272 38.5049 349.396 39.9271 351.523 42.9918C352.777 44.7999 352.882 46.8002 352.008 48.8271C351.7 49.5411 351.188 50.0852 350.372 50.1547C349.518 50.2271 348.939 49.7274 348.501 49.0533C348.368 48.8493 348.248 48.6245 348.183 48.3909C347.636 46.4069 346.225 45.3706 344.312 44.9773C341.819 44.4643 339.444 44.8531 337.338 46.3197C334.742 48.1278 334.347 51.0639 336.302 53.5713C337.499 55.1073 339.063 56.222 340.674 57.2747C344.298 59.6416 348.142 61.6685 351.571 64.334C354.35 66.494 356.888 68.8801 358.499 72.0779C360.815 76.6772 360.389 81.1538 357.637 85.3924C354.297 90.5313 349.359 93.3935 343.52 94.8408C341.771 95.274 339.986 95.4987 338.172 95.4632L338.17 95.4677Z" fill="#CF112E"/>
<path d="M114.456 27.8162C116.002 27.8369 117.462 28.14 118.552 29.3375C119.983 30.909 120.159 33.3262 119.063 35.4876C118.203 37.1834 116.999 38.5967 115.496 39.7528C113.877 40.9991 112.096 41.4042 110.161 40.597C108.172 39.7661 107.311 38.1 107.087 36.0775C106.653 32.1819 109.108 28.7846 112.909 27.9256C113.42 27.8103 113.936 27.8162 114.453 27.8162H114.456Z" fill="#CF112E"/>
<path d="M356.863 36.4573C358.332 36.4588 359.507 37.6415 359.527 39.1347C359.546 40.6367 358.343 41.8697 356.841 41.8889C355.354 41.9081 354.085 40.6737 354.085 39.2071C354.085 37.6799 355.32 36.4558 356.862 36.4573H356.863ZM358.954 39.1169C358.942 37.9091 358.057 37.0294 356.859 37.0324C355.641 37.0368 354.665 38.0362 354.701 39.2441C354.733 40.3558 355.74 41.3168 356.872 41.3168C358.059 41.3168 358.966 40.3588 358.954 39.1169Z" fill="#CF112E"/>
<path d="M356.733 37.7893C357.147 37.7982 357.583 37.7479 357.881 38.1338C358.005 38.2935 358.125 38.5344 358.006 38.6778C357.62 39.1465 357.873 39.5649 358.023 40.0069C358.079 40.1755 358.215 40.4076 357.926 40.4978C357.7 40.5687 357.484 40.5096 357.379 40.2583C357.323 40.1237 357.277 39.9833 357.219 39.8487C357.101 39.5797 356.876 39.5279 356.61 39.559C356.305 39.5945 356.397 39.8325 356.379 40.0099C356.354 40.2612 356.459 40.6057 356.016 40.5658C355.628 40.5318 355.757 40.2169 355.749 39.9966C355.736 39.5797 355.746 39.1628 355.746 38.7459C355.747 38.1052 356.076 37.7859 356.733 37.7879V37.7893ZM356.865 38.2447C356.53 38.1988 356.436 38.3615 356.43 38.6246C356.425 38.8508 356.393 39.0962 356.736 39.0711C357.007 39.0504 357.296 39.0268 357.319 38.6572C357.341 38.3053 357.051 38.3053 356.863 38.2447H356.865Z" fill="#CF112E"/>
</g>
<defs>
<clipPath id="clip0_2722_14989">
<rect width="360" height="96" fill="white"/>
</clipPath>
</defs>
</svg>
