<svg width="360" height="160" viewBox="0 0 360 160" fill="none" xmlns="http://www.w3.org/2000/svg">
<g clip-path="url(#clip0_2772_15525)">
<mask id="mask0_2772_15525" style="mask-type:luminance" maskUnits="userSpaceOnUse" x="0" y="0" width="360" height="160">
<path d="M0 0H360V160H0V0Z" fill="white"/>
</mask>
<g mask="url(#mask0_2772_15525)">
<path d="M0 0H360V160H0V0Z" fill="#006554"/>
<path fill-rule="evenodd" clip-rule="evenodd" d="M62.0258 134.933H20.4588V31.0493H61.1675L77.2423 46.1218V119.884M41.5206 51.7102V116.475H51.5181V51.7102H41.5206ZM108.418 134.933H84.9433V31.0493H108.418V134.933ZM172.74 70.887H149.822V50.6203H139.709V115.362H149.822V90.5971H172.74V119.884L157.222 134.933H133.028L116.211 119.884V46.1218L131.613 31.0493H157.222L172.74 46.1218V70.887ZM203.637 75.3856H203.915L219.294 31.0493H243.348L222.982 79.5827L246.479 134.933H220.987L203.915 90.5971H203.637V134.933H180.139V31.0493H203.637V75.3856ZM323.026 31.0493L339.541 46.1218V64.5102H316.067V50.6203H306.371V71.7682L323.467 73.2058L339.541 88.2783V119.884L324.162 134.933H298.113L282.897 119.884V101.612H306.371V115.362H316.067V93.6348L299.273 92.3363L282.897 77.2638V46.1218L298.253 31.0493H323.026Z" fill="white"/>
<path d="M257.521 75.8494C259.423 74.2726 260.698 72.8349 261.51 71.4436C262.322 70.0523 262.647 68.7305 262.647 67.5247C262.647 66.3885 262.369 65.3914 261.997 64.4639L260.513 65.09C260.838 65.8552 261.046 66.6436 261.046 67.5015C261.046 68.4291 260.814 69.4494 260.119 70.632C259.423 71.7914 258.286 73.1131 256.5 74.5972L257.521 75.8262V75.8494Z" fill="#147C6B"/>
<path d="M256.57 79.3741C259.863 77.1944 261.858 75.2466 263.041 73.3915C263.304 73.005 263.528 72.6031 263.714 72.1857C263.915 71.7683 264.077 71.3355 264.201 70.8872C264.325 70.4543 264.417 70.006 264.479 69.5422C264.541 69.0939 264.572 68.6379 264.572 68.1741C264.572 67.8495 264.572 67.5248 264.549 67.2002L262.948 67.293C262.972 67.5944 262.972 67.8727 262.972 68.1741C262.972 69.5886 262.716 70.9335 261.696 72.5335C260.675 74.1335 258.866 75.9422 255.665 78.0524L256.546 79.3741H256.57Z" fill="#147C6B"/>
<path d="M254.899 83.2464C258.309 81.9479 261.209 79.6522 263.273 77.287C264.317 76.0812 265.129 74.8522 265.709 73.6696C266.265 72.487 266.613 71.374 266.613 70.3305C266.613 70.1914 266.613 70.0754 266.59 69.9595L265.013 70.0986V70.3305C265.013 71.0261 264.781 71.9537 264.271 72.974C263.528 74.5276 262.206 76.2899 260.513 77.8667C260.064 78.2841 259.593 78.6783 259.098 79.0493C258.619 79.4358 258.124 79.7914 257.613 80.116C257.088 80.4406 256.554 80.7421 256.013 81.0203C255.456 81.2986 254.899 81.5459 254.343 81.7624L254.923 83.2696L254.899 83.2464Z" fill="#147C6B"/>
<path d="M257.033 75.4089C258.912 73.8321 260.211 72.3945 261.023 70.98C261.835 69.6118 262.183 68.2901 262.16 67.0611C262.16 65.9481 261.881 64.9278 261.487 64.0234L260.026 64.6263C260.351 65.4147 260.559 66.2031 260.559 67.0611C260.559 67.9887 260.327 69.0089 259.631 70.1916C258.936 71.351 257.799 72.6959 255.99 74.18L257.01 75.3858C257.01 75.3858 257.033 75.3858 257.033 75.4089Z" fill="white"/>
<path d="M256.083 78.9332C259.376 76.7535 261.371 74.8057 262.577 72.9506C262.825 72.5641 263.041 72.1622 263.227 71.7448C263.428 71.3119 263.59 70.8791 263.714 70.4462C263.838 69.9979 263.938 69.5496 264.015 69.1013C264.077 68.6375 264.101 68.1738 264.085 67.71C264.085 67.3854 264.085 67.0607 264.062 66.7593L262.461 66.852C262.485 67.1535 262.508 67.4317 262.508 67.71C262.508 69.1245 262.229 70.4694 261.232 72.0694C260.211 73.6694 258.379 75.5013 255.201 77.6115L256.083 78.9332Z" fill="white"/>
<path d="M254.412 82.806C257.845 81.5075 260.722 79.235 262.786 76.8466C263.83 75.6408 264.642 74.4118 265.222 73.2292C265.802 72.0466 266.126 70.9335 266.126 69.8901C266.126 69.7741 266.126 69.635 266.103 69.519L264.503 69.6582V69.8901C264.503 70.5625 264.271 71.4901 263.784 72.5335C263.041 74.0872 261.719 75.8263 260.003 77.4263C259.57 77.8437 259.106 78.2379 258.611 78.6089C258.131 78.9799 257.629 79.3277 257.103 79.6524C256.593 79.977 256.059 80.2785 255.503 80.5567C254.961 80.835 254.405 81.0901 253.833 81.3219L254.412 82.806Z" fill="white"/>
<path d="M266.729 58.2491C264.526 57.5071 262.137 57.6926 260.095 58.736C258.031 59.8027 256.477 61.6346 255.804 63.8375C255.108 66.0404 255.34 68.4288 256.43 70.4462C257.521 72.4868 259.399 73.994 261.603 74.6433C263.76 75.2462 266.08 75.0143 268.052 73.9476C270.023 72.881 271.508 71.0955 272.18 68.9389C272.853 66.8056 272.644 64.4868 271.624 62.4926C270.603 60.4752 268.84 58.9679 266.729 58.2491Z" fill="#231F20"/>
<path d="M266.729 58.2493L266.753 58.0869C265.662 57.7623 264.503 57.6232 263.366 57.7391C262.229 57.8319 261.116 58.1565 260.095 58.6898C259.075 59.2232 258.17 59.9652 257.451 60.8464C256.709 61.7275 256.152 62.7478 255.827 63.8377C255.131 66.0637 255.34 68.4522 256.43 70.4927C257.497 72.5565 259.353 74.0869 261.557 74.7826C263.784 75.4551 266.173 75.2464 268.214 74.1565C270.278 73.0898 271.809 71.2348 272.505 69.0319C272.76 68.1739 272.9 67.2927 272.9 66.4348C272.9 62.7014 270.51 59.2464 266.753 58.0869L266.729 58.2493L266.683 58.4116C267.727 58.7362 268.724 59.2696 269.559 59.9884C270.418 60.684 271.113 61.5652 271.624 62.5391C272.134 63.513 272.459 64.5797 272.552 65.6927C272.668 66.7826 272.552 67.8956 272.204 68.9623C271.879 70.0058 271.345 71.0029 270.65 71.8377C269.93 72.6956 269.072 73.3913 268.075 73.9014C267.101 74.4116 266.034 74.7362 264.92 74.829C263.83 74.9449 262.717 74.829 261.673 74.5043C260.606 74.1565 259.631 73.6232 258.773 72.9275C257.938 72.2087 257.219 71.3507 256.709 70.3536C256.198 69.3797 255.874 68.313 255.781 67.2C255.688 66.1101 255.804 64.9971 256.129 63.9536C256.454 62.8869 256.987 61.913 257.706 61.0551C258.402 60.1971 259.284 59.5014 260.258 58.9913C261.232 58.4811 262.299 58.1565 263.412 58.0637C264.503 57.9478 265.616 58.0869 266.683 58.4116L266.729 58.2493Z" fill="#231F20"/>
<path d="M272.737 66.852C272.644 66.8288 272.598 66.8752 272.575 66.9216C272.482 67.2694 272.32 67.5013 272.343 67.8491C272.343 67.9882 272.412 67.965 272.436 67.7795C272.436 67.5245 272.691 67.2694 272.714 67.0607C272.714 67.3853 272.552 68.2201 272.482 68.4288L272.389 68.3129C272.227 68.452 272.157 68.6375 272.041 68.7998C272.026 68.8462 272.003 68.8849 271.972 68.9158C271.941 68.9467 271.91 68.9776 271.879 69.0085C271.848 69.0394 271.817 69.0626 271.786 69.0781C271.755 69.109 271.717 69.1322 271.67 69.1477V69.194C271.763 69.2868 271.925 69.0549 271.856 69.2636L271.879 69.31C271.972 69.2636 271.948 69.1708 272.041 69.1013C272.157 68.8926 272.296 68.6839 272.459 68.4984C272.366 68.8926 272.25 69.2636 272.088 69.6578C272.041 69.565 271.925 69.5419 271.809 69.565C271.601 69.6346 271.229 70.1216 271.137 70.4694C271.09 70.6085 271.137 70.6317 271.206 70.5621C271.369 70.3534 271.74 69.8897 271.879 69.9129C271.74 70.2839 271.601 70.8172 271.229 70.8868C271.16 70.91 271.021 70.9795 271.067 70.7477C270.835 70.8636 270.58 71.0259 270.348 71.0259C270.162 71.281 269.652 72.0926 269.211 71.7216L269.072 71.7911C269.026 71.3274 269.861 70.9563 270.255 70.9332C270.325 70.91 270.348 70.8404 270.302 70.7013C270.162 70.3998 269.49 70.7477 269.142 71.4201C268.794 71.1187 268.284 71.4665 268.168 71.6056C267.959 71.8839 267.263 72.2085 266.845 71.6056C266.729 71.6288 266.59 71.6984 266.428 71.6984C266.196 72.1158 265.57 72.3708 265.106 71.9534C264.967 71.9766 264.851 71.9766 264.711 71.9766C264.479 72.394 263.714 72.394 263.366 71.7216C263.064 71.7216 262.786 71.5361 262.485 71.4897C262.206 71.7448 261.812 71.7679 261.51 71.6056C261.464 71.5747 261.418 71.5438 261.371 71.5129C261.325 71.4665 261.286 71.4201 261.255 71.3737C261.224 71.3274 261.201 71.2733 261.186 71.2114C261.155 71.165 261.131 71.1109 261.116 71.0491H261.046C260.884 70.423 260.443 69.9824 259.608 70.3303C259.284 70.3303 259.168 70.052 259.028 69.8665C258.982 69.4491 258.773 69.0085 258.402 68.7998C258.356 68.7844 258.309 68.7689 258.263 68.7535C258.201 68.738 258.147 68.7303 258.101 68.7303C258.054 68.7303 258.008 68.738 257.961 68.7535C257.9 68.7689 257.845 68.7844 257.799 68.7998C257.729 68.7766 257.706 68.6839 257.66 68.6143C257.544 68.3824 257.242 68.3129 257.196 68.0346C257.289 67.4549 256.964 66.7129 256.5 66.8752C256.43 67.1998 255.943 66.8288 256.129 65.9708C255.804 65.6694 256.036 65.0201 255.92 64.7419C255.851 64.5332 256.106 63.7216 256.268 63.1419C256.175 63.4433 256.175 63.9535 256.245 64.0694L256.314 64.0462C256.361 63.9689 256.392 63.8839 256.407 63.7911C256.423 63.7138 256.438 63.6288 256.454 63.5361C256.454 63.4433 256.446 63.3583 256.43 63.281C256.415 63.1882 256.4 63.1032 256.384 63.0259L256.314 62.9564C256.848 61.0549 260.768 56.5332 266.521 58.1564C270.951 59.4085 272.946 63.652 272.691 66.8056L272.737 66.852Z" fill="white"/>
<path fill-rule="evenodd" clip-rule="evenodd" d="M256.338 64.371V64.3942C256.338 64.3787 256.33 64.371 256.314 64.371H256.338ZM256.477 65.1826H256.384L256.407 64.9507C256.477 64.7652 256.407 64.6492 256.407 64.6029L256.338 64.3942C256.57 64.4405 256.639 64.8579 256.477 65.1826ZM264.108 58.1797C264.363 58.1565 264.595 58.0869 264.642 58.0869C264.549 58.2956 263.76 58.342 263.552 58.226C263.598 58.1565 263.853 58.2029 264.108 58.1797ZM262.554 58.342C262.763 58.2724 263.018 58.1565 263.064 58.1797C262.856 58.4347 262.206 58.5971 262.044 58.4811C262.044 58.4579 262.299 58.4116 262.554 58.342ZM261.557 58.6666C261.418 58.8058 260.977 59.0608 260.93 58.8753C261.255 58.8521 261.348 58.5971 261.58 58.5275V58.6666H261.557ZM260.397 59.0145C260.397 59.2463 259.979 59.5014 259.887 59.4087C260.142 59.2463 260.095 59.1536 260.304 58.9681L260.397 59.0145ZM258.912 59.9884C258.912 59.9884 259.284 59.7101 259.353 59.5014C259.492 59.6174 258.959 60.1507 258.912 59.9884ZM257.985 61.0087C258.046 60.9777 258.101 60.9314 258.147 60.8695C258.193 60.8077 258.232 60.7459 258.263 60.684C258.309 60.6222 258.348 60.5603 258.379 60.4985C258.394 60.4212 258.41 60.3439 258.425 60.2666C258.518 60.5217 258.309 61.0087 257.985 61.0087ZM272.32 65.1362C272.25 65.4608 272.482 65.8318 272.32 65.855C272.134 65.6927 271.972 64.9043 272.32 64.8116C272.459 64.8811 272.343 64.9971 272.32 65.1362ZM272.134 67.0145C272.111 67.1304 272.111 67.1304 272.064 67.3855C271.948 67.2 272.064 66.342 272.343 66.4116C272.459 66.6666 272.18 66.8289 272.134 67.0145ZM257.312 61.9594C257.358 62.2145 257.034 62.8637 256.894 62.8637C257.103 62.5855 257.034 62.1217 257.219 61.8898C257.289 61.7971 257.289 61.8898 257.312 61.9594ZM271.624 68.8C271.508 68.7536 271.74 67.7565 272.064 67.7333C272.227 68.1971 271.647 68.3826 271.624 68.8ZM271.345 69.7507C271.276 70.0058 270.997 69.8202 270.835 69.9826C270.742 70.0753 270.696 70.2376 270.557 70.2144C270.626 69.8434 271.253 69.3797 271.345 69.7507Z" fill="#231F20"/>
<path d="M255.711 65.8782C255.711 65.8009 255.711 65.7236 255.711 65.6463C255.727 65.5691 255.735 65.4995 255.735 65.4377C255.75 65.3604 255.765 65.2831 255.781 65.2058C255.796 65.1285 255.812 65.0589 255.827 64.9971C255.99 65.2521 255.92 65.6463 255.735 65.8782H255.711Z" fill="white"/>
<path d="M256.639 66.7361C256.57 66.3651 256.523 66.0868 256.245 65.8549C256.384 65.2984 256.964 66.0172 256.639 66.7361Z" fill="#231F20"/>
<path d="M256.013 66.8754L255.943 67.0145C255.711 66.8986 255.711 66.5971 255.711 66.3652C255.742 66.3962 255.773 66.4348 255.804 66.4812C255.835 66.5121 255.866 66.5507 255.897 66.5971C255.912 66.6435 255.936 66.6899 255.967 66.7362C255.982 66.7826 255.997 66.829 256.013 66.8754ZM268.423 72.4406C268.307 72.4638 268.214 72.5102 268.098 72.4406C268.052 72.3942 267.959 72.3478 267.959 72.2551V72.2087C268.237 72.2087 268.492 72.1391 268.724 72.0696L268.979 71.9305C268.933 72.1855 268.631 72.3015 268.423 72.4406Z" fill="white"/>
<path fill-rule="evenodd" clip-rule="evenodd" d="M260.35 59.5014C260.35 59.7797 259.887 59.9884 259.794 59.9652C260.119 59.8725 260.003 59.4783 260.281 59.4087L260.35 59.5014ZM259.098 60.2203C259.144 60.5217 258.773 60.8927 258.495 60.8C258.518 60.6841 259.005 60.5681 259.028 60.0812L259.098 60.2435V60.2203ZM257.637 62.0754C258.077 61.8435 258.031 61.4029 257.961 61.1246C258.24 61.3565 258.263 62.1217 257.637 62.0754ZM271.74 67.1536C271.755 67.1536 271.763 67.1536 271.763 67.1536H271.74ZM271.206 67.942C271.183 67.7101 271.16 67.2464 271.508 66.9217C271.624 66.8058 271.786 66.8985 271.74 67.1536C271.438 67.1072 271.253 67.7333 271.206 67.942ZM257.196 63.0725C257.265 63.2812 257.08 64.0232 256.894 64C257.126 63.513 256.941 63.0956 256.941 63.0956C256.894 62.9565 257.103 62.8174 257.219 63.0725H257.196ZM271.392 68.4058C271.322 68.6841 270.974 68.5681 270.812 68.8464C270.789 68.9391 270.742 69.0319 270.673 69.0783C270.673 68.7072 271.229 67.8956 271.392 68.4058ZM257.219 64.2783C257.428 64.6029 257.219 65.1362 257.126 65.2754C257.173 64.9971 257.242 64.7652 257.033 64.5101C256.732 64.2319 257.103 64.0464 257.242 64.2551C257.242 64.2551 257.219 64.2551 257.219 64.2783ZM270.51 69.3565C270.487 69.4956 270.417 69.4493 270.278 69.4261C270.07 69.4261 269.652 69.913 269.652 69.913C269.698 69.4956 270.278 68.6841 270.51 69.3565ZM257.567 66.6435C257.358 66.5971 257.613 65.9246 257.033 65.7855C257.08 65.2058 257.892 65.7855 257.567 66.6435ZM269.443 70.1681C269.42 70.2841 269.304 70.2377 269.234 70.2609C268.956 70.3768 268.724 70.6087 268.492 70.771C268.446 70.4927 269.281 69.658 269.466 70.1913L269.443 70.1681ZM258.147 68.0812C258.147 68.0812 258.031 68.1043 257.961 67.9652C257.892 67.8261 257.683 67.4319 257.451 67.3855C257.312 67.3623 257.358 67.2696 257.428 67.2C257.892 66.713 258.402 67.7797 258.147 68.0812ZM267.982 71.1188C267.796 71.1188 267.402 70.9565 267.077 71.258C267.24 70.7942 267.75 70.6319 268.028 70.7246C268.283 70.8174 268.307 71.0725 267.982 71.1188ZM260.258 69.7971C260.258 69.7971 260.165 70.0058 259.933 69.658C259.84 69.542 259.631 69.1942 259.075 69.1942C259.539 68.4522 260.281 69.1246 260.258 69.7971ZM266.358 71.1652C266.428 71.258 266.358 71.6522 266.01 71.4898C265.933 71.4435 265.848 71.4048 265.755 71.3739C265.678 71.3584 265.593 71.3507 265.5 71.3507C265.407 71.3507 265.322 71.3584 265.245 71.3739C265.152 71.3894 265.067 71.4203 264.99 71.4667C265.454 70.6551 266.173 70.9333 266.358 71.1652ZM264.804 71.5594C264.85 71.7681 264.619 71.7681 264.479 71.6754C264.317 71.5826 263.76 71.4435 263.482 71.6058C263.389 71.6522 263.366 71.5826 263.389 71.5362C263.459 71.0029 264.665 70.7942 264.804 71.5594ZM262.6 71.2348C262.554 71.4435 262.299 71.3043 262.16 71.2116C262.098 71.1652 262.021 71.1266 261.928 71.0956C261.85 71.0647 261.773 71.0338 261.696 71.0029C261.619 70.972 261.533 70.9488 261.441 70.9333C261.363 70.9179 261.278 70.9024 261.186 70.887L261.139 70.8174C261.789 69.9594 262.67 70.8638 262.6 71.2348Z" fill="#231F20"/>
<path fill-rule="evenodd" clip-rule="evenodd" d="M260.768 71.3507C260.722 71.3816 260.667 71.4048 260.606 71.4203C260.559 71.4357 260.505 71.4512 260.443 71.4667C260.397 71.4667 260.343 71.4589 260.281 71.4435C260.234 71.428 260.188 71.4126 260.142 71.3971C260.095 71.3662 260.057 71.3275 260.026 71.2812C259.995 71.2502 259.964 71.2116 259.933 71.1652C259.917 71.1188 259.902 71.0725 259.887 71.0261C259.871 70.9642 259.863 70.9101 259.863 70.8638C260.142 70.9797 260.536 71.0957 260.768 71.3507ZM259.771 73.7159C259.709 73.685 259.647 73.6541 259.585 73.6232C259.539 73.5768 259.485 73.5382 259.423 73.5072C259.361 73.4609 259.299 73.4145 259.237 73.3681C259.191 73.3372 259.137 73.2985 259.075 73.2522C259.353 73.3449 259.655 73.4609 259.771 73.7159Z" fill="white"/>
<path d="M256.314 64.3711C256.546 64.4175 256.639 64.8581 256.477 65.1827H256.361L256.407 64.9508C256.454 64.7653 256.407 64.6494 256.407 64.603L256.338 64.3711H256.314Z" fill="#231F20"/>
<path fill-rule="evenodd" clip-rule="evenodd" d="M270.951 71.1882C270.936 71.2037 270.928 71.2114 270.928 71.2114C270.928 71.196 270.936 71.1805 270.951 71.165V71.1882ZM270.928 71.2114C270.789 71.5592 270.557 71.8839 270.255 71.9534C270.039 71.9844 270.015 71.822 270.186 71.4665C270.278 71.7216 270.789 71.4201 270.928 71.2114ZM270.557 72.1621C270.58 71.9071 270.858 71.6056 270.974 71.5824C270.959 71.6443 270.936 71.6984 270.905 71.7447C270.874 71.7911 270.835 71.8375 270.789 71.8839C270.758 71.9303 270.719 71.9766 270.673 72.023C270.642 72.0694 270.603 72.1158 270.557 72.1621ZM270.116 72.394C270 72.394 269.907 72.4404 269.861 72.4868C269.845 72.5332 269.83 72.5718 269.814 72.6027C269.783 72.6336 269.753 72.6646 269.722 72.6955C269.706 72.7264 269.683 72.7573 269.652 72.7882C269.621 72.8191 269.582 72.8423 269.536 72.8578C269.536 72.6723 269.745 72.2317 270.139 72.1158C270.325 72.0926 270.278 72.3708 270.116 72.394ZM268.91 72.6259C269.072 72.7187 269.513 72.3708 269.606 72.1853C269.513 72.6955 268.933 72.9969 268.747 72.765C268.608 72.6259 268.747 72.5332 268.91 72.6259ZM268.979 73.1361C269.211 73.0201 269.142 73.3447 268.979 73.3447C268.817 73.3447 268.446 73.7853 268.376 73.8549C268.399 73.5071 268.701 73.252 268.956 73.1361H268.979ZM266.915 74.4114C267.031 73.9013 267.912 73.6694 268.168 73.9476C267.68 73.9476 267.193 74.11 266.915 74.4114ZM267.843 72.8114C267.866 73.252 267.054 73.5998 266.799 73.1824C267.402 73.2752 267.727 72.9274 267.843 72.8114ZM267.193 72.3245C267.054 72.9505 265.987 73.1361 265.918 72.394C265.964 72.6723 267.124 72.6027 267.193 72.3245ZM266.289 73.3911C266.126 73.7853 265.523 73.8781 265.384 73.7621C265.314 73.6694 265.361 73.5998 265.546 73.4607C265.5 73.6462 266.173 73.5534 266.289 73.3911ZM265.291 74.852C265.454 74.3418 266.544 74.2491 266.799 74.5505C266.289 74.481 265.593 74.5969 265.291 74.852ZM263.412 74.7824C263.691 74.4114 264.827 74.4114 265.013 74.7361C264.889 74.7051 264.758 74.6819 264.619 74.6665C264.479 74.651 264.34 74.651 264.201 74.6665C264.077 74.6665 263.946 74.6742 263.807 74.6897C263.668 74.7206 263.536 74.7515 263.412 74.7824ZM265.5 72.7419C265.245 73.3679 264.526 73.0201 264.41 72.9042C264.271 72.765 264.41 72.6027 264.572 72.765C264.711 72.9042 265.43 72.881 265.5 72.7419ZM264.526 73.739C264.619 73.994 264.178 74.5274 263.668 73.9708C263.83 74.0172 264.387 74.2259 264.526 73.739ZM264.039 73.3216C263.992 73.7621 263.25 74.0172 262.832 73.3216C263.32 73.7621 263.969 73.4607 264.039 73.3216ZM263.389 72.394C263.389 72.881 262.206 73.1361 261.997 72.1158C262.461 72.881 263.32 72.51 263.389 72.394ZM262.369 73.252C262.369 73.8085 261.209 73.6462 261.418 72.9737C261.487 73.2056 262.067 73.5998 262.369 73.252ZM261.696 72.2781C261.603 72.7419 260.652 72.8114 260.42 71.8143C260.884 72.5332 261.603 72.4172 261.696 72.2781ZM263.018 73.8549C262.995 74.2955 262.206 74.4114 262.206 73.7853C262.299 73.9708 262.693 74.11 263.018 73.8549ZM261.139 73.1129C261.487 73.8549 260.049 73.4607 260.258 72.7882C260.351 73.1361 261.232 73.5766 261.139 73.1129ZM260.304 72.1853C260.397 72.9274 259.168 72.5795 259.376 71.9071C259.423 72.2085 260.003 72.5563 260.304 72.1853Z" fill="white"/>
<path d="M265.639 58.3421C265.941 58.4116 266.173 58.3884 266.242 58.4348C266.103 58.6203 265.152 58.3884 265.013 58.2029C265.082 58.1566 265.268 58.2725 265.639 58.3653V58.3421ZM267.332 58.829C267.634 58.9682 267.866 58.9682 267.936 59.0145C267.75 59.1769 266.799 58.7595 266.706 58.5508C266.776 58.5276 266.985 58.6899 267.332 58.8522V58.829ZM269.049 59.8261C269.327 60.0116 269.582 60.0812 269.606 60.1044C269.397 60.2203 268.539 59.6406 268.492 59.4087C268.562 59.4087 268.724 59.5942 269.049 59.8261ZM270.441 60.9624C270.626 61.2174 270.858 61.3798 270.881 61.4261C270.649 61.4725 270 60.6609 270.023 60.429C270.093 60.429 270.186 60.6841 270.441 60.9624ZM271.485 62.6319C271.624 62.9334 271.809 63.0957 271.832 63.1884C271.601 63.1884 271.113 62.4232 271.229 62.0754C271.299 62.0986 271.299 62.3073 271.485 62.6319ZM272.018 63.9769C272.088 64.2783 272.25 64.4406 272.25 64.5102C272.018 64.4406 271.716 63.6754 271.902 63.3508C271.948 63.3971 271.925 63.5826 272.018 63.9537V63.9769Z" fill="#231F20"/>
<path fill-rule="evenodd" clip-rule="evenodd" d="M258.564 72.8811C258.503 72.8348 258.448 72.7884 258.402 72.742C258.34 72.6956 258.286 72.6493 258.24 72.6029C258.193 72.5411 258.147 72.4869 258.101 72.4406C258.054 72.3787 258.008 72.3246 257.961 72.2783C258.216 72.4406 258.472 72.6261 258.564 72.8811ZM257.637 71.7449C257.544 71.6754 257.474 71.5362 257.405 71.4203C257.289 71.3275 257.173 71.2348 257.126 71.0956C257.188 71.1266 257.25 71.1652 257.312 71.2116C257.358 71.258 257.405 71.3121 257.451 71.3739C257.497 71.4203 257.536 71.4821 257.567 71.5594C257.598 71.6213 257.629 71.6831 257.66 71.7449H257.637ZM257.776 71.4898C257.822 71.2811 257.753 70.9797 257.428 70.6783C257.753 70.771 258.031 71.3043 257.776 71.4898ZM259.028 72C259.168 72.3014 258.657 72.2087 258.402 71.7681C258.68 72.0232 258.982 72.0464 259.028 72ZM258.495 72C258.68 72.1855 258.82 72.5333 258.75 72.742C258.719 72.6802 258.696 72.6183 258.68 72.5565C258.665 72.4947 258.642 72.4328 258.611 72.371C258.595 72.3092 258.58 72.2473 258.564 72.1855C258.549 72.1237 258.526 72.0618 258.495 72ZM258.332 70.7014C258.216 71.0725 257.637 70.8174 257.59 70.2609C257.799 70.5855 258.124 70.771 258.332 70.7014ZM259.585 71.5362C259.33 71.9768 258.472 71.0261 258.657 70.8174C258.866 71.3043 259.376 71.4667 259.585 71.5362ZM258.843 70.0058C258.657 70.3304 257.892 70.0985 257.915 69.1942C258.077 69.4956 258.448 69.8667 258.843 70.0058ZM256.454 69.7971C256.686 69.913 257.103 70.6319 256.987 70.9565C256.918 70.6087 256.523 69.9826 256.454 69.7971ZM257.01 69.5188C257.196 69.658 257.289 70.0522 257.149 70.2377C257.126 70.0985 257.08 69.7275 257.01 69.5188ZM257.706 69.4029C257.59 69.913 256.755 69.3333 257.08 68.7304C257.15 69.2174 257.474 69.5652 257.706 69.4029ZM256.314 69.542C256.291 69.2869 256.198 68.7536 256.106 68.5217C256.407 68.8232 256.384 69.3797 256.314 69.542ZM257.126 68.1507C256.964 68.6145 256.454 68.313 256.523 67.4087C256.616 67.6638 256.941 68.1043 257.126 68.1507ZM256.361 68.1507C256.361 68.6377 255.966 68.2898 255.99 67.5942C256.106 67.6869 256.082 67.7797 256.106 67.8956C256.152 68.0116 256.175 68.1971 256.361 68.1507Z" fill="white"/>
<path d="M257.033 61.6346L257.173 61.7506C257.544 61.1709 258.008 60.6375 258.518 60.1738C259.028 59.71 259.608 59.2926 260.211 58.968C260.814 58.6433 261.464 58.3883 262.137 58.2259C262.809 58.0636 263.505 57.9709 264.201 57.9709C265.802 57.9709 267.425 58.4115 268.863 59.3854C271.253 60.9854 272.552 63.652 272.552 66.3419C272.552 67.9651 272.088 69.6115 271.09 71.0723C270.719 71.652 270.255 72.1854 269.745 72.6491C269.235 73.1129 268.655 73.5071 268.052 73.8317C267.448 74.1796 266.799 74.4115 266.126 74.597C265.454 74.7593 264.758 74.852 264.062 74.852C262.972 74.852 261.881 74.6201 260.861 74.2028C259.84 73.7854 258.936 73.1593 258.147 72.3941C257.381 71.6057 256.755 70.6781 256.338 69.681C255.92 68.6607 255.711 67.5709 255.711 66.481C255.711 64.8578 256.175 63.1883 257.173 61.7274L257.033 61.6346L256.894 61.5419C255.874 63.0491 255.387 64.7651 255.387 66.481C255.387 69.2868 256.732 72.0462 259.237 73.7158C260.722 74.7129 262.392 75.1767 264.062 75.1767C266.892 75.1767 269.675 73.8086 271.392 71.281C272.412 69.7738 272.899 68.0346 272.899 66.3419C272.899 65.623 272.83 64.9274 272.644 64.2317C272.482 63.5361 272.227 62.8636 271.879 62.2375C271.554 61.6115 271.137 61.0317 270.673 60.4984C270.186 59.9651 269.652 59.5013 269.072 59.1071C268.716 58.8598 268.345 58.6433 267.959 58.4578C267.572 58.2723 267.17 58.1177 266.753 57.9941C266.351 57.8704 265.933 57.7776 265.5 57.7158C265.082 57.654 264.657 57.623 264.224 57.623C261.418 57.623 258.611 58.9912 256.894 61.5419L257.033 61.6346Z" fill="black"/>
<path d="M278.791 55.2812C278.652 52.1276 277.283 49.1826 274.964 47.0493C272.644 44.916 269.582 43.8029 266.428 43.9189C263.273 44.058 260.304 45.4493 258.193 47.7681C256.059 50.087 254.946 53.1479 255.062 56.3015C255.201 59.4551 256.593 62.4 258.912 64.5334C261.232 66.6667 264.294 67.7797 267.448 67.6638C270.58 67.5247 273.549 66.1334 275.683 63.8145C277.817 61.4957 278.93 58.4348 278.791 55.2812Z" fill="white"/>
<path d="M278.791 55.2812H279.116C279.046 53.7276 278.698 52.1971 278.049 50.7826C277.399 49.3682 276.495 48.0696 275.381 47.0029C274.245 45.9131 272.946 45.0551 271.485 44.4754C270.046 43.8957 268.492 43.5942 266.938 43.5942H266.405C264.851 43.6638 263.32 44.0348 261.905 44.6841C260.49 45.3102 259.191 46.2145 258.124 47.3508C257.034 48.4638 256.198 49.7855 255.619 51.2232C255.039 52.6841 254.737 54.2145 254.737 55.7913V56.3247C254.784 57.8783 255.155 59.4087 255.804 60.8232C256.43 62.2377 257.335 63.5131 258.472 64.6029C259.585 65.6696 260.907 66.5276 262.369 67.1073C263.807 67.687 265.338 67.9884 266.892 67.9884H267.425C269.003 67.9421 270.534 67.5711 271.948 66.9218C273.363 66.2957 274.639 65.3682 275.729 64.2551C276.796 63.1189 277.655 61.8203 278.235 60.3595C278.814 58.9218 279.116 57.3681 279.116 55.8145V55.3044H278.791L278.467 55.3276V55.8377C278.467 57.2986 278.188 58.7595 277.631 60.1276C277.075 61.4957 276.286 62.7479 275.265 63.8145C274.245 64.8812 273.015 65.7392 271.67 66.3653C270.325 66.9682 268.887 67.316 267.402 67.3624H266.892C265.43 67.3624 263.969 67.0841 262.601 66.5276C261.232 65.9942 259.979 65.1826 258.912 64.1624C257.845 63.1421 256.987 61.9363 256.384 60.5913C255.781 59.2464 255.433 57.7855 255.363 56.3247V55.8145C255.363 54.3305 255.642 52.8696 256.198 51.5015C256.755 50.1334 257.567 48.8812 258.588 47.8145C259.608 46.7479 260.814 45.8899 262.16 45.287C263.505 44.6841 264.943 44.3363 266.428 44.2667H266.938C268.4 44.2667 269.861 44.545 271.229 45.1015C272.598 45.658 273.851 46.4696 274.918 47.4899C275.985 48.5102 276.843 49.716 277.446 51.0609C278.072 52.4058 278.397 53.8435 278.467 55.3276H278.791V55.2812Z" fill="#231F20"/>
<path d="M270.487 57.7624L272.969 56.603L272.691 56.0233L270.186 57.1827M261.371 53.4958L263.204 55.5595L263.691 55.1189L261.858 53.0552" fill="#231F20"/>
<path d="M277.33 61.0085C276.881 60.7767 276.441 60.5061 276.008 60.197C275.59 59.9032 275.196 59.5786 274.825 59.223C274.454 58.8675 274.106 58.481 273.781 58.0636C273.472 57.6462 273.186 57.2134 272.923 56.7651L272.134 57.2288C273.271 59.2462 274.964 60.823 276.936 61.8201L277.33 61.0085ZM262.879 66.7593C263.714 65.0665 264.155 63.1883 264.155 61.2868C264.155 59.6636 263.83 57.9941 263.134 56.4404L262.322 56.8114C262.948 58.2491 263.25 59.7796 263.25 61.2868C263.25 63.0491 262.832 64.7883 262.067 66.3419L262.879 66.7593Z" fill="#BDBFC1"/>
<path d="M273.874 56.5564L273.085 57.0665L271.392 57.2752C271.33 57.2752 271.268 57.2907 271.206 57.3216C271.16 57.3525 271.113 57.3912 271.067 57.4375C271.036 57.4839 271.013 57.538 270.997 57.5999C270.982 57.6617 270.974 57.7235 270.974 57.7854C270.99 57.8472 271.013 57.9013 271.044 57.9477C271.075 58.0095 271.113 58.0559 271.16 58.0868C271.206 58.1332 271.26 58.1641 271.322 58.1796C271.369 58.195 271.423 58.195 271.485 58.1796L273.41 57.9477L274.384 57.3216C274.43 57.2907 274.469 57.252 274.5 57.2057C274.546 57.1593 274.57 57.1052 274.57 57.0433C274.585 56.9815 274.593 56.9197 274.593 56.8578C274.577 56.796 274.554 56.7419 274.523 56.6955C274.492 56.6491 274.446 56.6105 274.384 56.5796C274.338 56.5332 274.284 56.51 274.222 56.51C274.16 56.4945 274.106 56.4868 274.059 56.4868C273.997 56.5023 273.936 56.5255 273.874 56.5564ZM274.848 57.739L274.082 58.3187L272.389 58.6433C272.343 58.6433 272.289 58.6588 272.227 58.6897C272.18 58.7206 272.142 58.767 272.111 58.8288C272.08 58.8752 272.057 58.9293 272.041 58.9912C272.026 59.053 272.026 59.1148 272.041 59.1767C272.057 59.223 272.08 59.2772 272.111 59.339C272.142 59.3854 272.18 59.424 272.227 59.4549C272.289 59.5013 272.351 59.5245 272.412 59.5245C272.459 59.54 272.513 59.54 272.575 59.5245L274.477 59.1767L275.405 58.481C275.451 58.4346 275.49 58.3883 275.521 58.3419C275.536 58.2955 275.552 58.2414 275.567 58.1796C275.583 58.1177 275.583 58.0559 275.567 57.9941C275.552 57.9477 275.528 57.8936 275.497 57.8317C275.451 57.7854 275.405 57.7467 275.358 57.7158C275.312 57.7003 275.258 57.6849 275.196 57.6694C275.134 57.654 275.072 57.654 275.01 57.6694C274.964 57.6849 274.918 57.7081 274.871 57.739H274.848ZM275.567 58.8288L274.848 59.4549L273.201 59.9187C273.139 59.9342 273.085 59.9573 273.039 59.9883C272.992 60.0346 272.954 60.081 272.923 60.1274C272.892 60.1892 272.876 60.2511 272.876 60.3129C272.861 60.3747 272.861 60.4288 272.876 60.4752C272.907 60.5371 272.938 60.5912 272.969 60.6375C273.016 60.6839 273.062 60.7226 273.108 60.7535C273.155 60.7844 273.209 60.8076 273.271 60.823C273.332 60.823 273.394 60.8153 273.456 60.7999L275.312 60.2897L276.17 59.5245C276.217 59.4781 276.255 59.4317 276.286 59.3854C276.317 59.3235 276.333 59.2617 276.333 59.1999C276.333 59.138 276.325 59.0839 276.309 59.0375C276.294 58.9757 276.263 58.9216 276.217 58.8752C276.186 58.8288 276.139 58.7902 276.077 58.7593C276.015 58.7438 275.961 58.7284 275.915 58.7129C275.853 58.7129 275.791 58.7206 275.729 58.7361C275.668 58.7515 275.613 58.7825 275.567 58.8288Z" fill="#939598"/>
<path d="M276.611 59.5245L275.938 60.197L274.338 60.7999C274.222 60.8463 274.129 60.939 274.082 61.0549C274.036 61.1477 274.013 61.2868 274.059 61.4028C274.106 61.5187 274.198 61.6115 274.314 61.6578C274.407 61.7042 274.546 61.7042 274.662 61.6578L276.472 60.9854L277.26 60.1506C277.307 60.1042 277.338 60.0578 277.353 60.0115C277.384 59.9496 277.4 59.8878 277.4 59.826C277.4 59.7641 277.384 59.71 277.353 59.6636C277.338 59.6018 277.307 59.5477 277.26 59.5013C277.229 59.4704 277.183 59.4395 277.121 59.4086C277.059 59.3931 276.997 59.3854 276.936 59.3854C276.889 59.3854 276.835 59.3931 276.773 59.4086C276.711 59.4395 276.657 59.4704 276.611 59.5013V59.5245ZM276.982 61.1477L275.358 62.0057C275.296 62.0366 275.25 62.0752 275.219 62.1216C275.173 62.168 275.142 62.2144 275.126 62.2607C275.111 62.3226 275.103 62.3844 275.103 62.4463C275.103 62.5081 275.119 62.5699 275.149 62.6318C275.18 62.6781 275.219 62.7245 275.265 62.7709C275.312 62.8018 275.366 62.825 275.428 62.8405C275.474 62.8714 275.528 62.8791 275.59 62.8636C275.652 62.8636 275.714 62.8482 275.776 62.8173L277.4 61.9825C277.446 61.9516 277.492 61.9129 277.539 61.8665C277.57 61.8202 277.601 61.7661 277.631 61.7042C277.647 61.6424 277.655 61.5806 277.655 61.5187C277.639 61.4569 277.624 61.4028 277.608 61.3564C277.577 61.2946 277.539 61.2482 277.492 61.2173C277.446 61.1709 277.392 61.14 277.33 61.1245C277.268 61.1091 277.206 61.1013 277.144 61.1013C277.082 61.1013 277.028 61.1168 276.982 61.1477ZM262.369 60.1042L263.389 59.9187H263.505L265.082 58.7825C265.129 58.7516 265.168 58.7052 265.198 58.6434C265.229 58.597 265.253 58.5429 265.268 58.481C265.268 58.4192 265.268 58.3651 265.268 58.3187C265.253 58.2569 265.229 58.2028 265.198 58.1564C265.168 58.0946 265.121 58.0482 265.059 58.0173C265.013 57.9864 264.959 57.9632 264.897 57.9477C264.835 57.9477 264.781 57.9554 264.735 57.9709C264.673 57.9709 264.611 57.9941 264.549 58.0405L263.134 59.0376L262.229 59.1999C262.168 59.1999 262.113 59.2153 262.067 59.2463C262.021 59.2926 261.974 59.339 261.928 59.3854C261.897 59.4318 261.874 59.4859 261.858 59.5477C261.843 59.5941 261.843 59.6482 261.858 59.71C261.874 59.7719 261.897 59.826 261.928 59.8723C261.959 59.9187 261.997 59.9651 262.044 60.0115C262.09 60.0424 262.144 60.0656 262.206 60.081C262.268 60.0965 262.322 60.0965 262.369 60.081V60.1042ZM261.974 58.9216L263.064 58.6434L264.595 57.4144C264.642 57.368 264.68 57.3216 264.711 57.2752C264.727 57.2134 264.742 57.1516 264.758 57.0897C264.758 57.0279 264.75 56.9661 264.735 56.9042C264.719 56.8578 264.688 56.8115 264.642 56.7651C264.611 56.7187 264.564 56.6801 264.503 56.6492C264.456 56.6182 264.402 56.595 264.34 56.5796C264.278 56.5796 264.217 56.5873 264.155 56.6028C264.093 56.6337 264.039 56.6646 263.992 56.6955L262.647 57.8086L261.742 58.0173C261.696 58.0327 261.642 58.0636 261.58 58.11C261.534 58.1409 261.495 58.1796 261.464 58.226C261.433 58.2878 261.41 58.3496 261.394 58.4115C261.394 58.4578 261.402 58.512 261.418 58.5738C261.433 58.6356 261.456 58.6897 261.487 58.7361C261.518 58.7825 261.564 58.8211 261.626 58.8521C261.673 58.883 261.727 58.9062 261.789 58.9216C261.851 58.9371 261.905 58.9371 261.951 58.9216H261.974ZM262.508 61.4955L263.552 61.3796H263.644L265.291 60.3593C265.338 60.3284 265.384 60.2897 265.43 60.2434C265.461 60.197 265.485 60.1429 265.5 60.081C265.515 60.0192 265.515 59.9574 265.5 59.8955C265.5 59.8337 265.485 59.7796 265.454 59.7332C265.423 59.6868 265.376 59.6405 265.314 59.5941C265.268 59.5632 265.214 59.54 265.152 59.5245C265.106 59.5091 265.052 59.5091 264.99 59.5245C264.928 59.5245 264.866 59.54 264.804 59.5709L263.343 60.4752L262.415 60.5912C262.369 60.5912 262.314 60.6066 262.253 60.6376C262.206 60.6685 262.16 60.7071 262.113 60.7535C262.082 60.7999 262.059 60.8463 262.044 60.8926C262.013 60.9545 262.005 61.0163 262.021 61.0781C262.021 61.14 262.036 61.1941 262.067 61.2405C262.098 61.3023 262.137 61.3487 262.183 61.3796C262.229 61.426 262.284 61.4569 262.345 61.4723C262.407 61.4878 262.469 61.4955 262.531 61.4955H262.508ZM262.345 63.0492L263.366 63.026H263.482L265.198 62.1216C265.245 62.0907 265.291 62.0521 265.338 62.0057C265.384 61.9593 265.415 61.9129 265.43 61.8665C265.446 61.8047 265.454 61.7429 265.454 61.681C265.438 61.6192 265.423 61.5574 265.407 61.4955C265.376 61.4492 265.338 61.4028 265.291 61.3564C265.245 61.3255 265.191 61.3023 265.129 61.2868C265.067 61.2559 265.005 61.2482 264.943 61.2637C264.881 61.2637 264.827 61.2791 264.781 61.31L263.227 62.0984L262.322 62.1448C262.26 62.1448 262.198 62.1525 262.137 62.168C262.09 62.1989 262.044 62.2376 261.997 62.2839C261.951 62.3149 261.92 62.3612 261.905 62.4231C261.889 62.4849 261.881 62.5467 261.881 62.6086C261.881 62.8636 262.09 63.0492 262.345 63.0492ZM262.183 64.3013L263.227 64.3709H263.32L265.106 63.6289C265.152 63.5979 265.198 63.5593 265.245 63.5129C265.291 63.482 265.322 63.4356 265.338 63.3738C265.353 63.312 265.361 63.2579 265.361 63.2115C265.361 63.1496 265.353 63.0878 265.338 63.026C265.307 62.9796 265.276 62.9332 265.245 62.8868C265.198 62.8405 265.144 62.8095 265.082 62.7941C265.036 62.7632 264.982 62.7477 264.92 62.7477C264.858 62.7477 264.796 62.7632 264.735 62.7941L263.157 63.4665L262.253 63.4202C261.997 63.4202 261.765 63.5825 261.765 63.8376C261.765 64.0926 261.951 64.3013 262.206 64.3013H262.183ZM262.067 65.5767L263.064 65.6694H263.18L264.99 64.9738C265.036 64.9583 265.082 64.9274 265.129 64.881C265.175 64.8347 265.214 64.7883 265.245 64.7419C265.26 64.6801 265.268 64.6182 265.268 64.5564C265.268 64.4946 265.26 64.4405 265.245 64.3941C265.214 64.3322 265.175 64.2781 265.129 64.2318C265.098 64.1854 265.052 64.1545 264.99 64.139C264.928 64.1081 264.866 64.0926 264.804 64.0926C264.758 64.0926 264.704 64.1081 264.642 64.139L263.041 64.7651L262.137 64.6955C262.075 64.6955 262.013 64.7033 261.951 64.7187C261.889 64.7342 261.835 64.7651 261.789 64.8115C261.742 64.8424 261.711 64.881 261.696 64.9274C261.665 64.9893 261.642 65.0511 261.626 65.1129C261.626 65.1748 261.634 65.2289 261.649 65.2752C261.68 65.3371 261.711 65.3912 261.742 65.4376C261.789 65.4839 261.835 65.5226 261.881 65.5535C261.943 65.5844 262.005 65.5999 262.067 65.5999V65.5767ZM263.227 66.968L263.575 66.8984H263.621L264.897 66.4347C264.959 66.4192 265.005 66.3883 265.036 66.3419C265.082 66.311 265.121 66.2646 265.152 66.2028C265.183 66.1564 265.198 66.1023 265.198 66.0405C265.198 65.9786 265.191 65.9168 265.175 65.855C265.16 65.7931 265.129 65.739 265.082 65.6926C265.052 65.6617 265.005 65.6308 264.943 65.5999C264.897 65.569 264.843 65.5535 264.781 65.5535C264.719 65.5535 264.657 65.5612 264.595 65.5767L263.389 65.9941L263.088 66.0636C263.026 66.0636 262.972 66.0791 262.925 66.11C262.863 66.1409 262.817 66.1796 262.786 66.226C262.755 66.2878 262.732 66.3419 262.717 66.3883C262.701 66.4501 262.693 66.512 262.693 66.5738C262.74 66.8289 262.972 67.0144 263.227 66.968Z" fill="#939598"/>
<path d="M273.781 56.4408L272.992 56.9509L271.299 57.1596C271.237 57.1751 271.183 57.1983 271.137 57.2292C271.075 57.2446 271.028 57.2833 270.997 57.3451C270.951 57.3915 270.92 57.4379 270.905 57.4843C270.889 57.5461 270.889 57.6079 270.905 57.6698C270.905 57.7316 270.92 57.7857 270.951 57.8321C270.982 57.8939 271.021 57.9403 271.067 57.9712C271.113 58.0176 271.168 58.0485 271.229 58.064C271.291 58.0794 271.353 58.0794 271.415 58.064L273.317 57.8321L274.291 57.2292C274.338 57.1828 274.376 57.1364 274.407 57.0901C274.454 57.0437 274.477 56.9896 274.477 56.9277C274.492 56.8659 274.5 56.8118 274.5 56.7654C274.485 56.7036 274.461 56.6418 274.43 56.5799C274.399 56.5335 274.361 56.4949 274.314 56.464C274.268 56.4331 274.214 56.4099 274.152 56.3944C274.09 56.3789 274.028 56.3789 273.967 56.3944C273.905 56.3944 273.851 56.4099 273.804 56.4408H273.781ZM274.732 57.6234L273.967 58.2031L272.296 58.5277C272.235 58.5277 272.18 58.5432 272.134 58.5741C272.072 58.6205 272.026 58.6669 271.995 58.7132C271.964 58.7596 271.941 58.8137 271.925 58.8756C271.925 58.9374 271.933 58.9992 271.948 59.0611C271.948 59.1075 271.972 59.1616 272.018 59.2234C272.049 59.2698 272.088 59.3084 272.134 59.3393C272.18 59.3703 272.235 59.3934 272.296 59.4089C272.358 59.4244 272.42 59.4244 272.482 59.4089L274.361 59.0611L275.289 58.3654C275.335 58.3345 275.374 58.2881 275.405 58.2263C275.436 58.1799 275.459 58.1258 275.474 58.064C275.474 58.0021 275.467 57.948 275.451 57.9017C275.436 57.8398 275.412 57.7857 275.381 57.7393C275.351 57.693 275.312 57.6543 275.265 57.6234C275.204 57.5925 275.142 57.5693 275.08 57.5538C275.034 57.5384 274.979 57.5384 274.918 57.5538C274.856 57.5693 274.802 57.5925 274.755 57.6234H274.732ZM275.451 58.7132L274.732 59.3393L273.085 59.8031C273.023 59.8186 272.969 59.8495 272.923 59.8959C272.876 59.9268 272.838 59.9654 272.807 60.0118C272.776 60.0736 272.76 60.1355 272.76 60.1973C272.76 60.2591 272.768 60.3132 272.784 60.3596C272.799 60.4215 272.822 60.4756 272.853 60.5219C272.9 60.5683 272.946 60.607 272.992 60.6379C273.054 60.6688 273.108 60.6843 273.155 60.6843C273.217 60.6997 273.278 60.6997 273.34 60.6843L275.196 60.1509L276.077 59.3857C276.108 59.3548 276.139 59.3084 276.17 59.2466C276.201 59.2002 276.217 59.1461 276.217 59.0843C276.217 59.0224 276.209 58.9606 276.193 58.8988C276.178 58.8369 276.147 58.7828 276.101 58.7364C276.07 58.6901 276.023 58.6591 275.961 58.6437C275.915 58.6128 275.861 58.5973 275.799 58.5973C275.737 58.5973 275.683 58.605 275.637 58.6205C275.575 58.636 275.521 58.6669 275.474 58.7132H275.451Z" fill="#F9A13A"/>
<path d="M276.518 59.4088L275.845 60.0813L274.245 60.6842C274.129 60.7305 274.036 60.8233 273.99 60.9392C273.943 61.0552 273.943 61.1711 273.99 61.2871C274.013 61.403 274.106 61.4957 274.222 61.5421C274.338 61.5885 274.454 61.5885 274.57 61.5653L276.379 60.8697L277.191 60.0349C277.222 59.9885 277.253 59.9421 277.283 59.8957C277.299 59.8339 277.307 59.7721 277.307 59.7102C277.307 59.6484 277.299 59.5943 277.283 59.5479C277.253 59.4861 277.222 59.432 277.191 59.3856C277.144 59.3547 277.09 59.3238 277.028 59.2929C276.982 59.2774 276.928 59.2697 276.866 59.2697C276.804 59.2697 276.742 59.2774 276.68 59.2929C276.634 59.3238 276.588 59.3547 276.541 59.3856L276.518 59.4088ZM276.843 61.032L275.219 61.89C275.173 61.9209 275.126 61.9595 275.08 62.0059C275.049 62.0523 275.026 62.1064 275.01 62.1682C274.979 62.2146 274.972 62.2687 274.987 62.3305C274.987 62.3924 275.003 62.4542 275.033 62.516C275.064 62.5624 275.103 62.6088 275.149 62.6552C275.196 62.6861 275.25 62.7093 275.312 62.7247C275.374 62.7557 275.436 62.7634 275.497 62.7479C275.559 62.7479 275.613 62.7325 275.66 62.7015L277.283 61.8668C277.345 61.8358 277.392 61.7972 277.423 61.7508C277.469 61.7044 277.5 61.6503 277.515 61.5885C277.531 61.5267 277.539 61.4648 277.539 61.403C277.539 61.3412 277.523 61.2871 277.492 61.2407C277.461 61.1788 277.423 61.1325 277.376 61.1015C277.33 61.0552 277.276 61.0243 277.214 61.0088C277.152 60.9933 277.09 60.9856 277.028 60.9856C276.982 60.9856 276.928 61.0011 276.866 61.032H276.843ZM262.253 59.9885L263.273 59.8262H263.366L264.966 58.69C265.013 58.6436 265.052 58.5972 265.082 58.5508C265.113 58.5044 265.129 58.4503 265.129 58.3885C265.144 58.3267 265.144 58.2648 265.129 58.203C265.129 58.1412 265.106 58.0871 265.059 58.0407C265.028 57.9943 264.99 57.9557 264.943 57.9247C264.897 57.8938 264.843 57.8706 264.781 57.8552C264.719 57.8552 264.657 57.8552 264.595 57.8552C264.533 57.8706 264.479 57.8938 264.433 57.9247L263.018 58.9218L262.113 59.0842C262.052 59.0996 261.99 59.1228 261.928 59.1537C261.881 59.1846 261.843 59.2233 261.812 59.2697C261.765 59.316 261.735 59.3701 261.719 59.432C261.719 59.4938 261.719 59.5557 261.719 59.6175C261.735 59.6793 261.758 59.7334 261.789 59.7798C261.82 59.8262 261.858 59.8648 261.905 59.8957C261.951 59.9421 262.005 59.9653 262.067 59.9653C262.129 59.9808 262.191 59.9885 262.253 59.9885ZM261.858 58.8059L262.948 58.5276L264.456 57.2755C264.503 57.2445 264.541 57.1982 264.572 57.1363C264.603 57.09 264.619 57.0358 264.619 56.974C264.634 56.9122 264.634 56.8503 264.619 56.7885C264.588 56.7267 264.557 56.6726 264.526 56.6262C264.479 56.5798 264.433 56.5412 264.387 56.5102C264.325 56.4793 264.263 56.4639 264.201 56.4639C264.139 56.4639 264.085 56.4716 264.039 56.4871C263.977 56.5025 263.923 56.5334 263.876 56.5798L262.531 57.6697L261.626 57.9015C261.564 57.917 261.51 57.9402 261.464 57.9711C261.417 58.0175 261.379 58.0639 261.348 58.1102C261.317 58.1566 261.294 58.2107 261.278 58.2726C261.263 58.3344 261.263 58.3962 261.278 58.4581C261.294 58.5199 261.325 58.574 261.371 58.6204C261.402 58.6668 261.441 58.7054 261.487 58.7363C261.533 58.7672 261.588 58.7904 261.649 58.8059C261.711 58.8059 261.773 58.7982 261.835 58.7827L261.858 58.8059ZM262.415 61.3798L263.436 61.2871H263.552L265.198 60.2668C265.245 60.2204 265.283 60.174 265.314 60.1276C265.361 60.0813 265.392 60.0272 265.407 59.9653C265.407 59.9035 265.407 59.8494 265.407 59.803C265.392 59.7412 265.369 59.6793 265.338 59.6175C265.307 59.5711 265.268 59.5325 265.222 59.5015C265.175 59.4552 265.121 59.4243 265.059 59.4088C264.997 59.3933 264.936 59.3933 264.874 59.4088C264.812 59.4243 264.758 59.4397 264.711 59.4552L263.25 60.3595L262.322 60.4755C262.26 60.4755 262.206 60.4909 262.16 60.5218C262.098 60.5528 262.052 60.5914 262.021 60.6378C261.974 60.6842 261.943 60.7383 261.928 60.8001C261.912 60.8465 261.905 60.9006 261.905 60.9624C261.92 61.0243 261.943 61.0861 261.974 61.1479C262.005 61.1943 262.044 61.2407 262.09 61.2871C262.137 61.318 262.191 61.3412 262.253 61.3566C262.299 61.3721 262.353 61.3798 262.415 61.3798ZM262.276 62.9334L263.296 62.9102H263.412L265.129 62.0059C265.191 61.975 265.237 61.9363 265.268 61.89C265.314 61.8436 265.345 61.7895 265.361 61.7276C265.376 61.6813 265.384 61.6272 265.384 61.5653C265.384 61.5035 265.369 61.4416 265.338 61.3798C265.307 61.3334 265.268 61.2871 265.222 61.2407C265.175 61.2098 265.121 61.1788 265.059 61.1479C265.013 61.1325 264.959 61.1325 264.897 61.1479C264.835 61.1479 264.773 61.1634 264.711 61.1943L263.18 61.9827L262.253 62.0291C262.191 62.0291 262.137 62.0368 262.09 62.0523C262.028 62.0832 261.974 62.1218 261.928 62.1682C261.897 62.2146 261.866 62.261 261.835 62.3073C261.82 62.3692 261.812 62.431 261.812 62.4929C261.812 62.7479 262.021 62.9334 262.276 62.9334ZM262.113 64.1856L263.157 64.2552H263.25L265.013 63.5131C265.075 63.4822 265.129 63.4436 265.175 63.3972C265.206 63.3508 265.237 63.3044 265.268 63.2581C265.283 63.1962 265.291 63.1344 265.291 63.0726C265.291 63.0262 265.283 62.9721 265.268 62.9102C265.237 62.8484 265.198 62.802 265.152 62.7711C265.121 62.7247 265.075 62.6938 265.013 62.6784C264.966 62.6474 264.912 62.632 264.85 62.632C264.789 62.632 264.727 62.6474 264.665 62.6784L263.088 63.3508L262.16 63.2813C262.113 63.2813 262.059 63.2967 261.997 63.3276C261.936 63.3431 261.881 63.374 261.835 63.4204C261.789 63.4513 261.758 63.4977 261.742 63.5595C261.711 63.6059 261.696 63.66 261.696 63.7218C261.696 63.9769 261.881 64.1856 262.137 64.2088L262.113 64.1856ZM261.974 65.461L263.018 65.5537H263.111L264.92 64.8581C264.966 64.8272 265.013 64.7962 265.059 64.7653C265.106 64.7189 265.144 64.6648 265.175 64.603C265.191 64.5566 265.198 64.5025 265.198 64.4407C265.198 64.3788 265.191 64.317 265.175 64.2552C265.144 64.2088 265.113 64.1624 265.082 64.116C265.036 64.0697 264.982 64.031 264.92 64.0001C264.874 63.9846 264.82 63.9769 264.758 63.9769C264.696 63.9769 264.634 63.9846 264.572 64.0001L262.972 64.6262L262.067 64.5566C262.005 64.5566 261.943 64.5644 261.881 64.5798C261.82 64.5953 261.765 64.6262 261.719 64.6726C261.673 64.7035 261.642 64.7499 261.626 64.8117C261.595 64.8581 261.572 64.9122 261.557 64.974C261.557 65.0359 261.564 65.0977 261.58 65.1595C261.611 65.2059 261.642 65.2523 261.673 65.2987C261.719 65.345 261.765 65.3837 261.812 65.4146C261.858 65.4455 261.912 65.4687 261.974 65.4842V65.461ZM262.948 66.8291L263.528 66.7131H263.552L264.827 66.3189C264.874 66.3035 264.92 66.2803 264.966 66.2494C265.013 66.203 265.052 66.1566 265.082 66.1102C265.113 66.0484 265.129 65.9866 265.129 65.9247C265.144 65.8629 265.137 65.8088 265.106 65.7624C265.036 65.5305 264.781 65.3914 264.549 65.461L263.343 65.832L262.786 65.9479C262.74 65.9479 262.686 65.9711 262.624 66.0175C262.577 66.0484 262.539 66.0871 262.508 66.1334C262.461 66.1798 262.438 66.2339 262.438 66.2958C262.423 66.3576 262.423 66.4194 262.438 66.4813C262.438 66.5431 262.454 66.5972 262.484 66.6436C262.531 66.69 262.577 66.7363 262.624 66.7827C262.67 66.8136 262.724 66.8368 262.786 66.8523C262.848 66.8523 262.91 66.8523 262.972 66.8523L262.948 66.8291Z" fill="#F9A13A"/>
<path d="M281.088 43.5246C281.041 39.6522 279.441 35.9884 276.634 33.3217C273.827 30.6783 270.07 29.287 266.219 29.4493C262.369 29.6116 258.75 31.3275 256.175 34.2029C253.624 37.1015 252.325 40.8812 252.626 44.7304C252.881 48.4406 254.598 51.8725 257.358 54.3304C260.119 56.7884 263.737 58.087 267.448 57.9246C271.137 57.7623 274.639 56.1623 277.191 53.4725C279.719 50.7826 281.134 47.2116 281.088 43.5246Z" fill="white"/>
<path d="M281.088 43.5246H281.412C281.343 41.6463 280.902 39.8376 280.137 38.1217C279.371 36.4289 278.281 34.8985 276.936 33.6232C275.59 32.3246 274.013 31.3043 272.296 30.6087C270.58 29.913 268.724 29.542 266.869 29.542C266.66 29.542 266.451 29.542 266.219 29.5652C264.363 29.6347 262.554 30.0753 260.838 30.8405C259.144 31.6058 257.613 32.6956 256.338 34.0405C255.039 35.3855 254.041 36.9623 253.345 38.6782C252.649 40.4174 252.278 42.2492 252.278 44.1043V44.7536C252.371 46.6087 252.789 48.4405 253.577 50.1333C254.343 51.826 255.41 53.3565 256.755 54.655C258.1 55.9304 259.678 56.9507 261.394 57.6463C263.134 58.342 264.966 58.6898 266.822 58.713H267.472C269.327 58.6203 271.16 58.1797 272.853 57.4145C274.546 56.6492 276.077 55.5826 277.376 54.2376C278.652 52.8927 279.673 51.3159 280.369 49.5768C281.064 47.8608 281.412 46.0058 281.412 44.1507V43.5246H281.111L280.786 43.5478V44.1507C280.786 45.9362 280.438 47.6985 279.765 49.3449C279.116 50.9913 278.142 52.4985 276.912 53.7739C275.66 55.0724 274.198 56.1159 272.575 56.8347C270.974 57.5768 269.211 57.9942 267.448 58.0637H266.822C265.059 58.0637 263.296 57.7159 261.649 57.0666C260.003 56.3942 258.495 55.4203 257.196 54.1913C255.92 52.9623 254.876 51.5014 254.157 49.8782C253.415 48.255 252.997 46.5159 252.928 44.7304V44.1275C252.928 42.342 253.276 40.5797 253.948 38.9333C254.598 37.2869 255.572 35.7797 256.802 34.5043C258.031 33.2058 259.492 32.1855 261.116 31.4434C262.74 30.7246 264.479 30.3072 266.265 30.2376H266.869C268.655 30.2376 270.418 30.5623 272.064 31.2347C273.711 31.9072 275.219 32.8811 276.518 34.1101C277.794 35.3391 278.838 36.8 279.557 38.4232C280.299 40.0463 280.716 41.7855 280.786 43.571H281.111L281.088 43.5246Z" fill="#231F20"/>
<path d="M263.528 46.1679L267.959 48.1157L271.253 45.0549L269.003 40.1157L264.155 40.9969L263.528 46.1679Z" fill="#231F20"/>
<path d="M263.528 46.1679L263.157 46.9795L268.121 49.1592L272.32 45.2636L269.513 39.1187L263.366 40.2549L262.554 46.7013L263.157 46.9795L263.528 46.1679L264.41 46.2839L264.943 41.7621L268.469 41.1129L270.186 44.8462L267.773 47.0723L263.876 45.3331L263.528 46.1679ZM276.495 45.4259L279.232 49.0201L280.206 48.6491C280.407 48.0926 280.57 47.5206 280.693 46.9331C280.817 46.3457 280.902 45.7583 280.948 45.1708C280.995 44.5834 281.01 43.9882 280.995 43.3853C280.964 42.7979 280.902 42.2104 280.809 41.623L278.698 40.9969L276.495 45.4259Z" fill="#231F20"/>
<path d="M276.518 45.4259L276.17 45.681L279.116 49.5303L280.531 48.9506L280.601 48.7651C281.134 47.2578 281.412 45.6346 281.412 43.9187V43.3158C281.412 43.1612 281.405 43.0143 281.389 42.8752C281.374 42.7206 281.358 42.5738 281.343 42.4346C281.343 42.2801 281.327 42.1332 281.296 41.9941C281.281 41.8395 281.265 41.6926 281.25 41.5535L281.204 41.2984L278.49 40.4868L276.031 45.4723L276.193 45.7042L276.518 45.4491L276.912 45.6346L278.93 41.5071L280.716 42.0404L280.832 41.6462L280.415 41.7158C280.508 42.2491 280.577 42.8057 280.601 43.3622V43.9651C280.601 45.5419 280.322 47.0955 279.835 48.51L280.229 48.6491L280.067 48.2781L279.394 48.5564L276.843 45.1941L276.518 45.4491V45.4259ZM266.057 55.4201L267.727 58.1796C268.253 58.1486 268.778 58.0868 269.304 57.9941C269.83 57.9013 270.34 57.7776 270.835 57.623C271.345 57.4685 271.848 57.283 272.343 57.0665C272.838 56.8656 273.309 56.6337 273.758 56.3709L274.198 54.7709L269.536 52.4057L266.057 55.4201Z" fill="#231F20"/>
<path d="M266.057 55.4201L265.709 55.6288L267.495 58.6201H267.75C268.291 58.5737 268.832 58.5042 269.374 58.4114C269.915 58.3187 270.448 58.1873 270.974 58.0172C271.5 57.8626 272.01 57.6771 272.505 57.4607C273.015 57.2443 273.503 57.0046 273.966 56.7418L274.129 56.6491L274.709 54.5621L269.49 51.9187L265.523 55.3505L265.709 55.6288L266.057 55.4201L266.312 55.7447L269.606 52.9158L273.688 54.9795L273.363 56.2549L273.758 56.3708L273.572 55.9998C273.124 56.2626 272.66 56.4945 272.18 56.6955C271.701 56.8964 271.214 57.0665 270.719 57.2056C270.224 57.3602 269.729 57.4839 269.235 57.5766C268.724 57.6694 268.214 57.7312 267.704 57.7621L267.727 58.1563L268.075 57.9476L266.405 55.1882L266.057 55.4201ZM256.245 48.3245L255.085 52.1042C255.966 53.3563 257.01 54.4694 258.216 55.3737L260.559 53.5187L259.933 48.3013L256.245 48.3245Z" fill="#231F20"/>
<path d="M256.245 48.3249L255.85 48.2089L254.621 52.1973L254.737 52.3596C255.619 53.6582 256.709 54.7944 257.961 55.722L258.216 55.9307L260.977 53.7046L260.281 47.8843L255.92 47.9307L255.85 48.2321L256.245 48.348V48.7654L259.562 48.7191L260.095 53.3567L257.961 55.0727L258.216 55.3973L258.472 55.0495C258.178 54.8331 257.892 54.6012 257.613 54.3538C257.335 54.1065 257.072 53.8514 256.825 53.5886C256.562 53.3258 256.314 53.0476 256.082 52.7538C255.85 52.4756 255.626 52.1819 255.41 51.8727L255.085 52.1278L255.479 52.2437L256.639 48.464L256.245 48.3249Z" fill="#231F20"/>
<path d="M259.284 49.229L263.737 46.5159L263.296 45.7971L258.843 48.5333M270.162 53.171L267.889 45.4725L267.077 45.7275L269.351 53.4029M277.631 45.0319L270 44.2203L269.93 44.8464L277.562 45.6811M279.046 48.1855L273.294 54.8638L273.758 55.2811L279.51 48.6261M266.637 55.2811L259.724 53.0319L259.539 53.658L266.451 55.884M256.825 48.8811L254.157 41.0203L253.554 41.229L256.222 49.0898M279.255 41.6464L275.683 35.3623L275.126 35.6869L278.698 41.971" fill="#231F20"/>
<path d="M262.021 13.7045C252.046 14.2147 245.25 22.1915 245.668 31.6292C245.76 33.8784 246.294 36.0813 247.245 38.1219C248.196 40.1625 249.541 41.9944 251.188 43.5016C252.835 45.0321 254.784 46.2147 256.894 46.9799C259.005 47.7451 261.232 48.0929 263.482 48.0002C265.732 47.9074 267.936 47.3509 269.977 46.4234C271.995 45.4726 273.827 44.1277 275.358 42.4813C276.866 40.8118 278.049 38.8871 278.814 36.777C279.58 34.6668 279.928 32.4176 279.835 30.1683C279.441 20.7306 271.461 13.2407 262.021 13.7045Z" fill="url(#paint0_radial_2772_15525)"/>
<path d="M262.021 13.7046V13.635C252.278 14.122 245.552 21.7046 245.552 30.8408C245.552 33.0901 245.969 35.3394 246.827 37.4263C247.686 39.5365 248.961 41.4379 250.562 43.0379C252.162 44.6379 254.041 45.9133 256.129 46.7712C258.216 47.6524 260.466 48.093 262.716 48.093C262.972 48.093 263.227 48.093 263.459 48.093C265.662 48.0002 267.82 47.4669 269.814 46.5625C271.809 45.6582 273.619 44.3828 275.149 42.806C276.657 41.2292 277.863 39.3741 278.675 37.3336C279.51 35.293 279.928 33.1133 279.928 30.9336V30.1683C279.533 20.9625 271.948 13.6118 262.856 13.6118C262.577 13.6118 262.276 13.6118 261.997 13.635V13.8205C262.276 13.8205 262.577 13.7973 262.856 13.7973C271.856 13.7973 279.371 21.0785 279.765 30.1915C279.765 30.4466 279.765 30.7017 279.765 30.9336C279.765 33.1133 279.348 35.2698 278.536 37.2872C277.724 39.3046 276.541 41.1365 275.033 42.7133C273.526 44.2901 271.74 45.5423 269.745 46.4466C267.773 47.3278 265.639 47.8379 263.459 47.9307C263.227 47.9307 262.972 47.9538 262.74 47.9538C260.559 47.9538 258.402 47.5365 256.384 46.7249C254.366 45.9133 252.533 44.7075 250.956 43.2234C249.402 41.7162 248.126 39.9075 247.245 37.9365C246.34 35.9654 245.83 33.8321 245.737 31.6524C245.737 31.3741 245.737 31.1191 245.737 30.864C245.737 21.7973 252.394 14.3075 262.021 13.8205V13.7509V13.7046Z" fill="#231F20"/>
<path d="M247.894 23.7449V23.4203C247.477 23.4434 247.222 23.513 246.874 23.5362L246.688 23.5826L246.619 23.7449C245.737 25.8782 245.157 28.1971 245.157 30.655V31.1188C245.366 38.0058 248.985 43.4318 254.366 46.2145L254.552 46.284L254.691 46.1913C258.124 44.0116 260.582 39.9072 260.582 35.571V35.084C260.513 33.5304 260.165 32 259.515 30.5855C258.866 29.171 257.961 27.8724 256.848 26.8058C255.711 25.7159 254.412 24.8811 252.951 24.2782C251.513 23.6985 249.982 23.3971 248.405 23.3971H247.894V23.7217L247.918 24.0463H248.405C249.889 24.0463 251.351 24.3478 252.719 24.8811C254.088 25.4376 255.34 26.2492 256.407 27.2695C257.474 28.2898 258.332 29.4956 258.936 30.8405C259.539 32.1855 259.887 33.6463 259.956 35.1072V35.571C259.956 39.6521 257.59 43.5942 254.366 45.6579L254.528 45.913L254.691 45.6347C249.495 42.9681 246.039 37.7739 245.807 31.1188V30.655C245.807 28.2898 246.363 26.0405 247.222 23.9768L246.92 23.8608L246.966 24.1623C247.361 24.1159 247.57 24.0695 247.918 24.0463V23.7217L247.894 23.7449ZM269.768 15.1188L269.582 14.8637C266.544 17.0898 264.735 20.6376 264.735 24.626V25.2058C264.804 26.7594 265.152 28.2898 265.802 29.7043C266.451 31.1188 267.356 32.3942 268.469 33.484C269.606 34.5507 270.928 35.4087 272.366 35.9884C273.804 36.5681 275.358 36.8695 276.912 36.8695H277.423C277.91 36.8695 278.397 36.8 278.861 36.7304L279.046 36.684L279.093 36.5217C279.765 34.6666 280.137 32.6956 280.137 30.6087C280.137 30.3536 280.137 30.0985 280.113 29.8434C279.812 23.1188 275.59 17.5072 269.884 14.8637L269.722 14.771L269.559 14.8869L269.745 15.142L269.606 15.4434C275.126 17.9942 279.186 23.4202 279.464 29.8898C279.464 30.1217 279.487 30.3768 279.487 30.6087C279.487 32.6029 279.116 34.5275 278.467 36.2898L278.768 36.4058L278.722 36.1043C278.613 36.1198 278.497 36.1352 278.374 36.1507C278.265 36.1661 278.157 36.1816 278.049 36.1971C277.941 36.2125 277.825 36.2203 277.701 36.2203C277.593 36.2357 277.485 36.2434 277.376 36.2434H276.866C275.381 36.2434 273.92 35.9652 272.552 35.4087C271.183 34.8521 269.954 34.0405 268.887 33.0202C267.82 32 266.961 30.7942 266.335 29.4492C265.732 28.1043 265.384 26.6434 265.338 25.1826V24.6492C265.338 20.8463 267.054 17.5072 269.93 15.3971L269.745 15.142L269.768 15.1188ZM256.43 14.8869L268.585 48.0232L269.165 47.8145L257.034 14.6782" fill="#231F20"/>
<path d="M247.291 38.2608L260.026 32.9043L259.794 32.3014L247.059 37.6811M266.057 29.5883L278.559 24.3246L278.304 23.7217L265.825 28.9854" fill="#231F20"/>
<path d="M257.706 47.3277L257.799 47.0262C256.059 46.5161 254.412 45.7277 252.951 44.7074C251.467 43.6639 250.144 42.3886 249.077 40.9509C247.987 39.5132 247.152 37.89 246.572 36.1741C246.015 34.4581 245.714 32.6726 245.714 30.8639C245.714 28.6378 246.155 26.4581 246.99 24.3944C247.848 22.3538 249.101 20.4987 250.655 18.9219C252.232 17.3451 254.088 16.1161 256.129 15.2581C258.193 14.4002 260.374 13.9828 262.601 13.9596C264.804 13.9596 267.008 14.4002 269.049 15.2581C271.113 16.0929 272.969 17.3451 274.546 18.9219C276.101 20.4755 277.353 22.3306 278.211 24.3944C279.046 26.4349 279.487 28.6378 279.487 30.8407C279.487 33.0668 279.046 35.2697 278.211 37.3103C277.353 39.3509 276.124 41.2291 274.546 42.7828C272.992 44.3596 271.113 45.6118 269.072 46.4465C267.031 47.3045 264.827 47.7451 262.601 47.7451C261.023 47.7451 259.4 47.5132 257.799 47.0262L257.706 47.3277L257.613 47.6291C259.284 48.1161 260.977 48.3712 262.601 48.3712C264.479 48.3712 266.335 48.0697 268.121 47.4668C269.907 46.8871 271.577 46.006 273.085 44.8929C274.57 43.7567 275.892 42.4118 276.959 40.8581C278.026 39.3277 278.861 37.6349 279.394 35.8262C280.044 33.6234 280.253 31.3277 280.021 29.032C279.789 26.7364 279.093 24.5335 278.003 22.5161C276.912 20.4755 275.428 18.69 273.642 17.2523C271.856 15.8147 269.791 14.7248 267.588 14.0755C267.186 13.9519 266.776 13.8436 266.358 13.7509C265.956 13.6581 265.546 13.5808 265.129 13.519C264.711 13.4572 264.286 13.4108 263.853 13.3799C263.436 13.349 263.018 13.3335 262.601 13.3335C260.722 13.3335 258.866 13.6349 257.08 14.2378C255.317 14.8176 253.624 15.6987 252.139 16.8118C250.631 17.948 249.332 19.2929 248.242 20.8234C247.175 22.377 246.363 24.0697 245.83 25.8552C245.343 27.5248 245.088 29.2176 245.088 30.8407C245.088 32.719 245.389 34.5741 245.992 36.3596C246.572 38.1451 247.454 39.8147 248.567 41.3219C249.704 42.8291 251.049 44.1277 252.58 45.1944C254.134 46.2842 255.827 47.0958 257.613 47.6291L257.706 47.3277Z" fill="#231F20"/>
</g>
</g>
<defs>
<radialGradient id="paint0_radial_2772_15525" cx="0" cy="0" r="1" gradientUnits="userSpaceOnUse" gradientTransform="translate(262.687 30.9769) scale(17.2605 17.255)">
<stop stop-color="#E99F46"/>
<stop offset="1" stop-color="#E58E1C"/>
</radialGradient>
<clipPath id="clip0_2772_15525">
<rect width="360" height="160" fill="white"/>
</clipPath>
</defs>
</svg>
