<svg width="360" height="78" viewBox="0 0 360 78" fill="none" xmlns="http://www.w3.org/2000/svg">
<g clip-path="url(#clip0_2772_15459)">
<mask id="mask0_2772_15459" style="mask-type:luminance" maskUnits="userSpaceOnUse" x="-1" y="0" width="254" height="79">
<path d="M-0.0149841 0.537735V78.0884H236.199L252.71 0.537735H-0.0149841Z" fill="white"/>
</mask>
<g mask="url(#mask0_2772_15459)">
<path d="M344.725 64.3965H343.926C343.926 64.3965 342.594 66.7786 338.866 66.7786C337.534 66.7786 335.936 66.2492 334.871 65.1905V59.1029C334.871 51.6919 329.811 49.3098 325.817 47.4571C322.089 45.6043 318.893 44.2809 318.893 39.2521C318.893 36.0759 317.561 33.6938 317.295 33.1645L316.23 30.7824C315.697 29.1943 315.431 27.6062 315.431 26.0182C315.431 24.4301 315.963 22.3127 317.029 20.1952C318.36 17.0191 320.757 14.3723 321.822 14.3723C322.621 14.3723 323.154 15.1664 324.219 16.7544C325.284 18.6072 326.882 20.9893 330.078 20.9893C334.072 20.9893 336.469 15.9604 336.469 11.4609C336.469 8.81409 335.67 6.16731 334.072 4.57924C332.208 2.46182 329.279 1.4031 325.551 1.4031C317.561 1.4031 313.3 5.63795 311.436 7.75537C309.838 7.22602 306.909 6.16731 303.181 6.16731C299.186 6.16731 296.257 6.96134 294.925 7.75537C293.327 5.63795 288.8 1.4031 280.811 1.4031C277.083 1.4031 274.153 2.46182 272.289 4.57924C270.691 6.43199 269.892 8.81409 269.892 11.4609V11.7255C269.36 11.4609 268.561 11.4609 268.028 11.4609C265.898 11.4609 263.501 15.1664 262.436 16.7544C261.371 18.3425 259.24 22.3127 259.24 26.2828C259.24 33.1645 262.436 36.87 264.833 39.5167C266.164 41.1048 267.229 42.1635 267.229 43.4869C267.229 44.2809 265.365 45.3397 263.767 46.1337C260.305 47.9864 255.512 50.6332 255.512 56.4561V62.0144C255.512 64.9258 253.115 67.0433 250.452 67.0433C248.322 67.0433 246.99 65.1905 246.99 65.1905L246.457 64.3965L245.658 64.6611C243.794 64.9258 240.066 66.5139 240.066 70.2194C240.066 74.7189 245.925 77.6304 251.251 77.6304C255.246 77.6304 257.909 76.5717 259.24 76.0423C260.039 76.5717 261.637 77.101 263.501 77.101H328.214C330.078 77.101 331.676 76.307 332.474 76.0423C333.806 76.5717 336.203 77.6304 340.464 77.6304C346.322 77.6304 351.382 74.4542 351.382 70.4841C350.85 66.2492 346.855 64.6611 344.725 64.3965Z" fill="white"/>
<path d="M344.725 64.3965H343.926C343.926 64.3965 342.594 66.7786 338.866 66.7786C337.534 66.7786 335.936 66.2492 334.871 65.1905V59.1029C334.871 51.6919 329.811 49.3098 325.817 47.4571C322.089 45.6043 318.893 44.2809 318.893 39.2521C318.893 36.0759 317.561 33.6938 317.295 33.1645L316.23 30.7824C315.697 29.1943 315.431 27.6062 315.431 26.0182C315.431 24.4301 315.963 22.3127 317.029 20.1952C318.36 17.0191 320.757 14.3723 321.822 14.3723C322.621 14.3723 323.154 15.1664 324.219 16.7544C325.284 18.6072 326.882 20.9893 330.078 20.9893C334.072 20.9893 336.469 15.9604 336.469 11.4609C336.469 8.81409 335.67 6.16731 334.072 4.57924C332.208 2.46182 329.279 1.4031 325.551 1.4031C317.561 1.4031 313.3 5.63795 311.436 7.75537C309.838 7.22602 306.909 6.16731 303.181 6.16731C299.186 6.16731 296.257 6.96134 294.925 7.75537C293.327 5.63795 288.8 1.4031 280.811 1.4031C277.083 1.4031 274.153 2.46182 272.289 4.57924C270.691 6.43199 269.892 8.81409 269.892 11.4609V11.7255C269.36 11.4609 268.561 11.4609 268.028 11.4609C265.898 11.4609 263.501 15.1664 262.436 16.7544C261.371 18.3425 259.24 22.3127 259.24 26.2828C259.24 33.1645 262.436 36.87 264.833 39.5167C266.164 41.1048 267.229 42.1635 267.229 43.4869C267.229 44.2809 265.365 45.3397 263.767 46.1337C260.305 47.9864 255.512 50.6332 255.512 56.4561V62.0144C255.512 64.9258 253.115 67.0433 250.452 67.0433C248.322 67.0433 246.99 65.1905 246.99 65.1905L246.457 64.3965L245.658 64.6611C243.794 64.9258 240.066 66.5139 240.066 70.2194C240.066 74.7189 245.925 77.6304 251.251 77.6304C255.246 77.6304 257.909 76.5717 259.24 76.0423C260.039 76.5717 261.637 77.101 263.501 77.101H328.214C330.078 77.101 331.676 76.307 332.474 76.0423C333.806 76.5717 336.203 77.6304 340.464 77.6304C346.322 77.6304 351.382 74.4542 351.382 70.4841C350.85 66.2492 346.855 64.6611 344.725 64.3965Z" stroke="white" stroke-width="4.41995" stroke-miterlimit="10"/>
<path d="M280.912 32.3256C280.912 32.5902 280.912 33.1196 280.38 33.3843C279.847 33.649 279.581 33.9136 279.048 33.9136C277.983 33.9136 277.184 33.1196 277.184 32.0609V31.0022C278.249 30.7375 279.048 29.6788 279.048 28.3554C279.048 28.3554 277.983 27.826 276.385 27.826C274.787 27.826 273.722 28.3554 273.722 28.3554C273.722 29.4141 274.521 30.4728 275.586 31.0022V32.0609C275.586 33.1196 274.787 33.9136 273.722 33.9136C273.189 33.9136 272.657 33.649 272.39 33.3843C272.124 33.1196 271.858 32.5902 271.858 32.0609H270.26C270.26 33.1196 270.526 33.9136 271.325 34.443C271.858 35.237 272.923 35.7664 273.722 35.7664C274.787 35.7664 275.852 35.237 276.385 34.443C277.184 35.237 277.983 35.7664 279.048 35.7664C280.113 35.7664 280.912 35.5017 281.445 34.7077C282.244 33.9136 282.776 33.1196 282.776 32.3256H280.912ZM281.977 23.8559C280.912 23.8559 279.847 24.6499 279.847 25.9733C279.847 27.032 280.912 27.826 281.977 27.826C283.043 27.826 284.108 27.032 284.108 25.9733C284.108 24.6499 283.043 23.8559 281.977 23.8559ZM272.923 25.9733C272.923 24.9146 272.124 23.8559 270.793 23.8559C269.727 23.8559 268.662 24.6499 268.662 25.9733C268.928 27.032 269.727 27.826 271.059 27.826C272.124 27.826 272.923 27.032 272.923 25.9733ZM284.374 30.2081C284.374 30.7375 284.907 31.0022 285.173 31.0022H285.439L289.967 30.2081V30.4728L288.635 32.5902L285.173 32.0609C284.641 32.0609 284.374 32.3256 284.108 32.8549C283.842 33.3843 284.374 33.649 284.907 33.9136L287.836 34.443C287.57 35.237 287.037 37.0898 287.037 38.9425C287.037 40.5306 287.57 41.854 288.369 43.1774C289.168 44.7654 290.233 46.6182 290.233 49.5296C290.233 51.1177 289.168 54.2938 288.369 57.47C286.238 64.6163 285.439 67.7924 287.57 68.5864C289.967 69.6452 288.635 73.88 288.635 74.1447H282.776C283.043 72.5566 283.575 69.1158 280.912 67.2631H280.38L282.776 57.9993C283.043 57.2053 282.51 56.6759 281.977 56.4113C281.179 56.1466 280.646 56.6759 280.38 57.2053L278.782 63.2929L277.184 57.2053C276.918 56.6759 276.385 56.1466 275.586 56.4113C275.32 56.6759 274.787 57.2053 275.054 57.9993L276.918 65.4103C276.918 65.675 277.45 68.0571 279.314 69.1158C281.179 70.4392 280.113 74.1447 280.113 74.1447H273.988C274.255 72.8213 274.521 69.9098 273.189 68.0571C272.657 67.5277 272.124 66.9984 271.325 66.7337L268.928 57.2053C268.662 56.6759 268.13 56.1466 267.331 56.4113C266.798 56.6759 266.265 57.2053 266.532 57.9993L268.662 66.469C266.798 66.2043 266.532 65.4103 266.265 65.4103V64.6163C266.532 64.0869 266.265 63.2929 265.466 63.0282C264.934 62.7635 264.135 63.0282 263.869 63.8222C263.602 64.0869 263.336 65.4103 263.869 66.469C264.668 68.0571 266.532 68.8511 269.727 69.1158C270.26 69.1158 270.526 69.3805 270.793 69.6452C271.592 70.7039 271.325 73.3507 271.059 74.4094H262.537C260.673 74.4094 259.341 73.3507 259.341 73.3507L258.543 72.8213L257.744 73.3507C257.744 73.3507 255.081 74.9387 250.553 74.9387C246.559 74.9387 242.298 72.5566 242.298 70.4392C242.298 68.8511 243.896 68.3218 244.695 68.0571C245.493 69.1158 247.358 70.4392 250.021 70.4392C254.548 70.4392 258.01 66.7337 258.01 62.4989V56.4113C258.01 52.4411 261.472 50.5883 264.668 48.7356C267.331 47.4122 269.727 45.8241 269.727 43.442C269.727 41.0599 268.13 39.2072 266.532 37.3544C265.733 36.5604 264.934 35.7664 264.401 34.7077L267.597 34.1783C268.13 34.1783 268.396 33.649 268.396 33.1196C268.396 32.5902 267.863 32.3256 267.331 32.3256L263.336 33.1196C262.803 32.3256 262.537 31.5315 262.271 30.4728L267.331 31.2669H267.597C268.13 31.2669 268.396 31.0022 268.396 30.4728C268.396 29.9435 268.13 29.6788 267.597 29.4141L261.738 28.6201C261.472 27.826 261.472 26.7673 261.472 25.9733C261.472 21.2091 265.999 14.8568 267.597 14.0628C269.195 13.7981 271.325 17.2389 272.657 20.1504L273.189 21.4738L274.521 21.2091C275.852 20.9444 277.184 20.9444 278.249 21.2091L279.581 21.7384L280.113 20.4151C281.179 17.2389 283.309 13.7981 284.641 13.7981C285.972 14.5921 290.766 20.9444 290.766 25.7086C290.766 26.5026 290.766 27.5614 290.499 28.3554L285.173 29.4141C284.641 29.4141 284.374 29.6788 284.374 30.2081Z" fill="#27ADEA"/>
<path d="M284.281 30.3827C284.281 30.9121 284.814 31.1768 285.08 31.1768H285.346L289.873 30.3827V30.6474L288.808 32.7648L285.346 32.2355C284.814 32.2355 284.547 32.5002 284.281 33.0295C284.281 33.5589 284.547 33.8235 285.08 34.0882L288.009 34.6176C287.477 35.6763 286.944 37.529 286.944 39.3818C286.944 40.9698 287.477 42.2932 288.276 43.6166C289.341 44.94 290.14 46.5281 290.14 49.7042C290.14 51.2923 289.074 54.4684 288.276 57.6446C286.145 64.7909 285.346 67.967 287.477 68.761C289.873 69.8198 288.542 74.0546 288.542 74.3193H282.683C282.949 72.7312 283.482 69.2904 280.819 67.4376L280.553 67.173L282.949 57.9092C283.216 57.3799 282.683 56.5859 282.15 56.3212C281.618 56.0565 280.819 56.5859 280.553 57.1152L278.955 63.2028L277.357 57.1152C277.091 56.5859 276.558 56.0565 275.759 56.3212C275.226 56.5859 274.694 57.1152 274.96 57.9092L276.824 65.3202C276.824 65.5849 277.357 67.967 279.221 69.0257C281.085 70.3491 280.02 74.0546 280.02 74.0546H274.161C274.428 72.7312 274.694 69.8197 273.362 67.967C272.83 67.4376 272.297 66.9083 271.498 66.6436L269.101 57.1152C268.835 56.5859 268.303 56.0565 267.504 56.3212C266.971 56.5859 266.438 57.1152 266.705 57.9092L268.835 66.3789C266.971 66.1143 266.705 65.3202 266.438 65.3202V64.5262C266.705 63.9968 266.438 63.2028 265.639 62.9381C265.107 62.6734 264.308 62.9381 264.042 63.7322C263.775 63.9968 263.509 65.3202 264.042 66.3789C264.841 67.967 266.705 68.761 269.9 69.0257C270.433 69.0257 270.699 69.2904 270.966 69.5551C271.765 70.6138 271.498 73.2606 271.232 74.3193H262.71C260.846 74.3193 259.514 73.2606 259.514 73.2606L258.715 72.7312L257.917 73.2606C257.917 73.2606 255.253 74.8486 250.726 74.8486C246.732 74.8486 242.471 72.4665 242.471 70.3491C242.471 68.761 244.069 68.2317 244.868 67.967C245.666 69.0257 247.531 70.3491 250.194 70.3491C254.721 70.3491 258.183 66.6436 258.183 62.4088V56.3212C258.183 52.351 261.645 50.4983 264.841 48.6455C267.504 47.3221 269.9 45.7341 269.9 43.352C269.9 40.9698 268.303 39.1171 266.705 37.2644C265.906 36.4703 265.107 35.6763 264.574 34.6176L267.77 34.0882C268.303 34.0882 268.569 33.5589 268.569 33.0295C268.569 32.5002 268.036 32.2355 267.504 32.2355L263.509 33.0295C263.243 31.9708 262.976 31.1768 262.444 30.1181L267.77 30.9121H268.036C268.569 30.9121 268.835 30.6474 268.835 30.1181C268.835 29.5887 268.569 29.324 268.036 29.0593L262.177 28.2653C261.911 27.4713 261.911 26.4126 261.911 25.6185C261.911 20.8543 266.438 14.502 268.036 13.708C269.368 13.9727 271.498 17.1488 272.563 20.0603L273.096 21.3837L274.428 21.119C275.759 20.8543 277.091 20.8543 278.156 21.119L279.487 21.3837L280.02 20.0603C281.085 17.1488 283.216 13.9727 284.547 13.708C285.879 14.502 290.672 20.8543 290.672 25.6185C290.672 26.4126 290.672 27.4713 290.406 28.2653L285.08 29.324C284.547 29.324 284.281 29.8534 284.281 30.3827Z" stroke="#27ADEA" stroke-width="8.8584" stroke-miterlimit="10"/>
<path d="M280.912 32.3255C280.912 32.5902 280.912 33.1195 280.38 33.3842C279.847 33.6489 279.581 33.9136 279.048 33.9136C277.983 33.9136 277.184 33.1195 277.184 32.0608V31.0021C278.249 30.7374 279.048 29.6787 279.048 28.3553C279.048 28.3553 277.983 27.826 276.385 27.826C274.787 27.826 273.722 28.3553 273.722 28.3553C273.722 29.4141 274.521 30.4728 275.586 31.0021V32.0608C275.586 33.1195 274.787 33.9136 273.722 33.9136C273.189 33.9136 272.657 33.6489 272.39 33.3842C272.124 33.1195 271.858 32.5902 271.858 32.0608H270.26C270.26 33.1195 270.526 33.9136 271.325 34.4429C271.858 35.237 272.923 35.7663 273.722 35.7663C274.787 35.7663 275.852 35.237 276.385 34.4429C277.184 35.237 277.983 35.7663 279.048 35.7663C280.113 35.7663 280.912 35.5016 281.445 34.7076C282.244 33.9136 282.776 33.1195 282.776 32.3255H280.912ZM281.978 23.8558C280.912 23.8558 279.847 24.6499 279.847 25.9732C279.847 27.032 280.912 27.826 281.978 27.826C283.043 27.826 284.108 27.032 284.108 25.9732C284.108 24.6499 283.043 23.8558 281.978 23.8558ZM272.923 25.9732C272.923 24.9145 272.124 23.8558 270.793 23.8558C269.727 23.8558 268.662 24.6499 268.662 25.9732C268.929 27.032 269.727 27.826 271.059 27.826C272.124 27.826 272.923 27.032 272.923 25.9732ZM306.478 25.9732C306.478 24.9145 307.277 23.8558 308.608 23.8558C309.673 23.8558 310.739 24.6499 310.739 25.9732C310.739 27.032 309.673 27.826 308.608 27.826C307.543 27.826 306.478 27.032 306.478 25.9732ZM295.559 25.9732C295.559 24.9145 296.358 23.8558 297.69 23.8558C298.755 23.8558 299.82 24.6499 299.82 25.9732C299.554 27.032 298.755 27.826 297.69 27.826C296.358 27.826 295.559 27.032 295.559 25.9732ZM333.641 10.8866C333.641 14.5921 331.777 17.7682 330.179 17.7682C328.581 17.7682 328.049 16.7095 326.983 14.8568C325.918 13.2687 324.853 11.1513 322.19 11.1513C318.195 11.1513 315 18.2976 314.733 18.8269C313.934 20.6797 312.869 23.3265 312.869 25.7086C312.869 27.826 313.135 29.6787 313.934 31.5315L315.266 34.1783C315.266 34.1783 316.597 36.2957 316.597 38.9425C316.331 41.8539 313.668 44.236 310.739 44.236C307.01 44.236 304.347 41.5892 304.347 38.4131V36.2957C306.744 35.7663 308.342 33.6489 308.342 31.2668C308.342 31.2668 306.211 30.2081 303.016 30.2081C300.086 30.2081 297.69 31.2668 297.69 31.2668C297.69 33.6489 299.287 35.7663 301.684 36.2957V38.4131C301.684 41.5892 299.021 44.5007 295.559 44.5007C292.364 44.5007 289.967 42.1186 289.434 39.2071C289.434 36.5604 290.766 34.4429 290.766 34.4429L292.097 31.7962C292.896 29.9434 293.162 27.826 293.162 25.9732C293.162 22.0031 290.766 18.0329 289.967 16.4448C288.902 14.8568 286.505 11.1513 284.374 11.1513H284.108C281.711 11.1513 280.38 13.004 279.581 14.8568C279.048 15.3861 278.782 16.1802 278.516 16.7095C277.717 17.2389 277.184 17.7682 276.119 17.7682C274.521 17.7682 272.657 14.5921 272.657 11.1513C272.657 9.82789 272.923 7.71046 274.521 6.1224C275.852 4.53433 277.983 3.74029 280.912 3.74029C289.434 3.74029 293.162 9.29853 293.162 9.56321L293.695 10.8866L295.027 10.0926C295.027 10.0926 298.222 8.5045 303.016 8.5045C308.076 8.5045 311.005 10.0926 311.005 10.0926L312.337 10.8866L313.135 9.56321C313.135 9.56321 316.864 3.74029 325.386 3.74029C328.315 3.74029 330.445 4.53433 331.777 5.85772C333.108 7.44578 333.641 9.56321 333.641 10.8866ZM350.951 70.4391C350.951 74.4093 346.157 77.5854 340.032 77.5854C335.772 77.5854 333.108 76.5267 332.043 75.9974C331.244 76.5267 329.646 77.0561 327.782 77.0561H263.07C261.206 77.0561 259.608 76.5267 258.809 75.9974C257.477 76.5267 254.814 77.5854 250.82 77.5854C245.494 77.5854 239.635 74.4093 239.635 70.1745C239.635 66.469 243.363 64.8809 245.227 64.6162L246.026 64.3516L246.559 65.1456C246.559 65.1456 247.89 66.9983 250.021 66.9983C252.95 66.9983 255.081 64.6162 255.081 61.9694V55.8819C255.081 50.0589 259.874 47.4122 263.336 45.5594C265.2 44.7654 267.064 43.7067 267.064 42.9126C267.064 41.5892 265.999 40.5305 264.668 38.9425C262.271 36.2957 259.075 32.5902 259.075 25.7086C259.075 21.7384 261.206 17.7682 262.271 16.1802C263.336 14.5921 265.733 10.8866 267.863 10.8866C268.662 10.8866 269.195 11.1513 269.727 11.1513V10.8866C269.727 8.23982 270.526 5.59304 272.124 4.00497C273.988 1.88755 276.918 0.828836 280.646 0.828836C288.635 0.828836 292.896 5.06368 294.76 7.18111C296.358 6.65175 299.287 5.85772 303.016 5.59304C307.01 5.59304 309.94 6.38707 311.271 7.18111C312.869 5.06368 317.396 0.828836 325.386 0.828836C329.114 0.828836 332.043 1.88755 333.907 4.00497C335.505 5.85772 336.304 8.23982 336.304 10.8866C336.304 15.6508 333.641 20.415 329.913 20.415C326.717 20.415 325.119 18.0329 324.054 16.1802C322.989 14.5921 322.456 13.7981 321.657 13.7981C320.592 13.7981 318.462 16.4448 316.864 19.621C315.799 21.7384 315.266 23.8558 315.266 25.4439C315.266 27.032 315.532 28.62 316.065 30.2081L317.663 32.8549C317.929 33.3842 319.26 35.7663 319.26 38.9425C319.26 43.7067 322.19 45.2947 326.184 47.1475C330.179 49.0002 334.973 51.3823 335.239 58.7933V64.8809C336.304 65.9396 337.902 66.469 339.234 66.469C342.695 66.469 344.293 64.0869 344.293 64.0869H345.092C346.956 64.6162 350.951 66.2043 350.951 70.4391ZM340.299 74.674C335.239 74.674 333.108 73.0859 333.108 73.0859L332.31 72.2919L331.511 73.0859C331.511 73.0859 330.179 74.1446 328.315 74.1446H317.663C317.663 74.1446 315.532 71.4979 316.597 69.6451C317.929 66.9983 320.592 66.469 324.054 66.469C325.652 66.469 326.451 65.6749 326.717 65.1456C327.516 63.5575 326.184 60.9107 325.652 60.3814C324.853 59.5873 324.054 59.5873 323.521 59.852C322.989 60.1167 322.722 60.9107 323.255 61.4401C323.788 62.2341 324.32 63.2928 324.32 63.8222H323.788C322.989 63.8222 321.657 63.8222 320.592 64.0869L319.793 61.1754C319.527 60.6461 318.994 60.1167 318.195 60.3814C317.663 60.6461 317.13 61.1754 317.396 61.9694L318.195 64.8809C316.597 65.4103 315.266 66.7337 314.201 68.5864C313.135 70.7038 313.934 72.8212 314.733 74.1446H304.88C304.614 72.0272 304.347 68.8511 305.945 68.057C306.478 67.7924 307.01 67.7924 307.277 67.5277C308.342 67.263 309.407 66.9983 309.94 65.9396C310.472 64.8809 310.472 63.5575 309.673 61.7048L308.875 57.2052C308.608 56.6759 308.076 56.1465 307.277 56.4112C306.744 56.6759 306.211 57.2052 306.478 57.9993L307.543 62.7635C308.076 64.6162 308.076 65.1456 308.076 65.1456C308.076 65.1456 307.277 65.4103 307.01 65.4103C306.478 65.4103 305.945 65.6749 305.146 65.9396C304.347 66.2043 303.548 66.9983 303.282 67.5277C302.749 66.7337 302.217 66.2043 301.418 65.9396C300.619 65.6749 300.086 65.4103 299.554 65.4103C299.287 65.4103 298.489 65.1456 298.489 65.1456C298.489 65.1456 298.222 64.6162 299.021 62.7635L300.086 57.9993C300.086 57.2052 299.554 56.6759 299.021 56.4112C298.489 56.1465 297.69 56.6759 297.423 57.2052L296.358 61.9694C295.559 64.0869 295.559 65.4103 296.092 66.469C296.624 67.5277 297.69 67.7924 298.755 68.057C299.287 68.057 299.82 68.3217 300.086 68.5864C301.418 69.1158 301.418 72.2919 301.152 74.674H291.298C291.831 72.2919 292.097 68.5864 288.902 66.7337C288.902 65.4103 289.967 61.4401 290.766 58.7933C292.097 54.8231 292.896 51.647 292.896 49.5296C292.896 48.2062 292.63 46.8828 292.364 46.0888C293.695 46.6181 294.76 46.6181 295.825 46.6181C296.624 46.6181 297.423 46.6181 298.222 46.3534C299.554 47.6768 301.152 48.2062 303.016 48.2062C304.88 48.2062 306.478 47.4122 307.809 46.3534C308.608 46.6181 309.407 46.6181 310.206 46.6181C313.135 46.6181 315.532 45.2947 317.13 43.1773C318.728 46.6181 321.924 48.2062 324.853 49.5296C328.848 51.3823 332.043 52.9704 332.043 58.5286V65.9396L332.31 66.469C334.174 68.3217 336.57 69.3804 338.701 69.3804C341.63 69.3804 343.761 68.057 344.826 67.263C345.891 67.5277 347.755 68.3217 347.755 70.1745C348.022 72.5566 344.293 74.674 340.299 74.674ZM300.619 45.2947C301.418 45.8241 302.217 46.0888 303.016 46.0888C303.815 46.0888 304.614 45.8241 305.413 45.2947C304.614 44.5007 303.815 43.7067 303.282 42.648C302.483 43.7067 301.684 44.5007 300.619 45.2947ZM284.374 30.2081C284.374 30.7374 284.907 31.0021 285.173 31.0021H285.44L289.967 30.2081V30.4728L288.635 32.5902L285.173 32.0608C284.641 32.0608 284.374 32.3255 284.108 32.8549C283.842 33.3842 284.374 33.6489 284.907 33.9136L287.836 34.4429C287.57 35.237 287.037 37.0897 287.037 38.9425C287.037 40.5305 287.57 41.8539 288.369 43.1773C289.168 44.7654 290.233 46.6181 290.233 49.5296C290.233 51.1177 289.168 54.2938 288.369 57.4699C286.238 64.6162 285.44 67.7924 287.57 68.5864C289.967 69.6451 288.635 73.88 288.635 74.1446H282.776C283.043 72.5566 283.575 69.1158 280.912 67.263H280.38L282.776 57.9993C283.043 57.2052 282.51 56.6759 281.978 56.4112C281.179 56.1465 280.646 56.6759 280.38 57.2052L278.782 63.2928L277.184 57.2052C276.918 56.6759 276.385 56.1465 275.586 56.4112C275.32 56.6759 274.787 57.2052 275.054 57.9993L276.918 65.4103C276.918 65.6749 277.45 68.057 279.314 69.1158C281.179 70.4391 280.113 74.1446 280.113 74.1446H273.988C274.255 72.8212 274.521 69.9098 273.189 68.057C272.657 67.5277 272.124 66.9983 271.325 66.7337L268.929 57.2052C268.662 56.6759 268.13 56.1465 267.331 56.4112C266.798 56.6759 266.265 57.2052 266.532 57.9993L268.662 66.469C266.798 66.2043 266.532 65.4103 266.265 65.4103V64.6162C266.532 64.0869 266.265 63.2928 265.467 63.0282C264.934 62.7635 264.135 63.0282 263.869 63.8222C263.602 64.0869 263.336 65.4103 263.869 66.469C264.668 68.057 266.532 68.8511 269.727 69.1158C270.26 69.1158 270.526 69.3804 270.793 69.6451C271.592 70.7038 271.325 73.3506 271.059 74.4093H262.537C260.673 74.4093 259.341 73.3506 259.341 73.3506L258.543 72.8212L257.744 73.3506C257.744 73.3506 255.081 74.9387 250.553 74.9387C246.559 74.9387 242.298 72.5566 242.298 70.4391C242.298 68.8511 243.896 68.3217 244.695 68.057C245.494 69.1158 247.358 70.4391 250.021 70.4391C254.548 70.4391 258.01 66.7337 258.01 62.4988V56.4112C258.01 52.441 261.472 50.5883 264.668 48.7356C267.331 47.4122 269.727 45.8241 269.727 43.442C269.727 41.0599 268.13 39.2071 266.532 37.3544C265.733 36.5604 264.934 35.7663 264.401 34.7076L267.597 34.1783C268.13 34.1783 268.396 33.6489 268.396 33.1196C268.396 32.5902 267.863 32.3255 267.331 32.3255L263.336 33.1196C262.803 32.3255 262.537 31.5315 262.271 30.4728L267.331 31.2668H267.597C268.13 31.2668 268.396 31.0021 268.396 30.4728C268.396 29.9434 268.13 29.6787 267.597 29.4141L261.738 28.62C261.472 27.826 261.472 26.7673 261.472 25.9732C261.472 21.209 265.999 14.8568 267.597 14.0627C269.195 13.7981 271.325 17.2389 272.657 20.1503L273.189 21.4737L274.521 21.209C275.852 20.9444 277.184 20.9444 278.249 21.209L279.581 21.7384L280.113 20.415C281.179 17.2389 283.309 13.7981 284.641 13.7981C285.972 14.5921 290.766 20.9444 290.766 25.7086C290.766 26.5026 290.766 27.5613 290.499 28.3553L285.173 29.4141C284.641 29.4141 284.374 29.6787 284.374 30.2081Z" fill="#231F20"/>
<path d="M225.683 36.9308C225.683 29.5198 220.357 23.1675 212.9 23.1675C204.911 23.1675 200.117 29.2551 200.117 36.4014V36.6661C200.117 43.8124 205.444 50.1647 212.9 50.1647C221.156 50.1647 225.683 44.0771 225.683 36.9308ZM186.536 36.9308C186.536 22.6382 197.987 11.257 213.166 11.257C228.346 11.257 239.531 22.3735 239.531 36.4014V36.6661C239.531 50.694 228.08 62.0752 212.9 62.0752C197.721 62.0752 186.536 50.694 186.536 36.9308ZM137.802 36.9308C137.802 22.9028 148.454 11.257 163.633 11.257C168.427 11.257 172.155 12.051 175.351 13.6391C181.21 16.2859 184.938 22.1088 179.878 26.873C177.748 28.9904 175.617 28.9904 175.617 28.9904C173.753 26.3437 171.356 22.9028 163.633 22.9028C156.709 22.9028 151.65 29.5198 151.65 36.6661C151.65 44.0771 156.443 50.1647 164.166 50.1647C168.693 50.1647 174.552 48.3119 178.014 44.0771L184.938 52.8115C180.144 58.105 173.22 62.0752 163.633 62.0752C148.72 62.0752 137.802 50.694 137.802 36.9308ZM108.774 43.0184V23.9616H102.915V12.051H108.774V0.934573H122.622V12.051H133.008V23.9616H122.622V42.489C122.622 45.6651 125.019 49.106 128.747 49.106C131.41 49.106 131.943 49.106 133.807 48.8413V60.7518C131.41 61.2811 130.079 61.2811 127.682 61.2811C118.361 61.2811 108.774 56.2523 108.774 43.0184ZM86.1381 29.7845C85.6055 25.5496 82.9424 21.8441 77.8826 21.8441C73.3554 21.8441 68.5618 25.2849 68.0292 29.7845H86.1381ZM53.6487 36.9308C53.6487 22.9028 63.502 11.257 77.8826 11.257C94.3936 11.257 99.1871 23.9616 99.1871 31.9019C99.1871 39.0482 90.1327 39.5776 87.4696 39.5776H67.4966C68.8281 45.9298 73.3554 50.4293 79.4804 50.4293C84.2739 50.4293 89.8664 48.0472 93.5947 44.3418L99.4534 53.8702C94.1273 59.1637 87.4696 62.0752 79.2141 62.0752C64.3009 62.0752 53.6487 51.7527 53.6487 36.9308ZM34.7409 37.1955C34.7409 28.9904 30.48 23.1675 23.8223 23.1675C17.1646 23.1675 12.9037 28.9904 12.9037 37.1955C12.9037 45.4005 17.9636 50.694 23.8223 50.694C29.6811 50.4293 34.7409 45.1358 34.7409 37.1955ZM48.3225 36.4014C48.3225 48.8413 41.6649 61.8105 26.4854 61.8105C19.0288 61.8105 16.632 59.6931 13.4363 56.7816V68.6921C13.4363 78.4852 0.121002 77.4265 0.121002 77.4265V12.051H12.3711V17.6093C15.8331 13.1098 21.1592 11.257 28.3495 11.257C40.8659 11.257 48.3225 23.9616 48.3225 36.4014Z" fill="#EA2229"/>
</g>
<path d="M358.659 65.0592C357.32 63.7282 355.981 63.0628 354.642 63.7282C351.963 64.3937 349.285 66.3901 345.937 65.0592C339.911 63.0628 344.598 54.4117 340.581 50.4189C337.233 47.0916 331.877 49.7535 328.529 45.7607C325.851 43.7643 325.851 40.437 326.52 37.1096C326.52 33.1168 323.172 31.7859 322.503 28.4586C321.833 22.4694 323.842 17.1457 327.859 13.8184C329.868 15.8148 331.207 18.4766 332.546 20.473H339.911C342.59 16.4802 344.598 11.822 343.259 6.49824C342.59 5.16731 341.25 3.17092 339.911 2.50546C335.894 -0.821865 329.868 -0.82187 325.181 1.17452C322.503 2.50545 319.825 4.50185 317.146 6.49824C312.459 5.16731 306.433 5.16731 301.746 6.49824C298.399 2.50546 293.712 0.509063 289.025 0.509063C284.338 0.509063 279.651 2.50546 277.642 6.49824C276.973 7.82917 277.642 9.1601 276.303 9.82557C269.608 13.1529 266.26 20.473 266.929 28.4586H264.921C263.582 28.4586 262.912 28.4586 262.912 29.1241C262.912 29.7895 263.582 30.455 263.582 30.455H266.26V31.1205V32.4514H262.912C262.242 32.4514 262.242 33.1168 262.242 33.7823C262.242 34.4478 262.912 35.1132 262.912 35.1132H266.929C267.599 36.4442 268.938 37.1096 270.277 38.4406C271.616 39.7715 272.955 40.437 274.294 41.7679C274.294 42.4334 274.294 43.7643 273.625 44.4297C270.277 45.7607 266.929 46.4261 264.251 49.088C261.573 51.0844 260.903 54.4117 260.903 57.0736V64.3937C260.903 64.3937 260.903 65.0592 260.234 65.0592L259.564 65.7246H248.851V62.3973C248.851 59.7354 246.843 57.739 244.164 57.739C241.486 57.739 239.477 59.7354 239.477 62.3973V66.3901C239.477 67.0556 239.477 70.3829 242.156 73.0447C244.834 75.7066 247.512 75.7066 248.182 75.7066H259.564C260.903 75.7066 261.573 75.0411 262.912 74.3757C263.582 75.0411 264.251 75.7066 265.59 75.7066H277.642C279.651 75.7066 280.99 75.7066 282.329 74.3757C282.999 75.0411 283.668 75.7066 285.007 76.3721C286.347 77.0375 287.686 76.3721 289.025 75.7066C289.694 75.7066 289.694 74.3757 290.364 74.3757C291.033 75.7066 292.373 76.3721 294.381 76.3721C296.39 76.3721 297.729 75.0411 298.399 74.3757C299.068 75.0411 300.407 75.7066 301.077 76.3721C303.755 77.0375 306.433 76.3721 308.442 74.3757C309.112 75.0411 309.781 75.7066 311.12 75.7066C313.799 76.3721 316.477 75.7066 318.485 73.7102C319.155 75.0411 319.825 75.7066 321.164 75.7066H337.233C338.572 75.7066 339.911 75.0411 341.25 73.7102C343.929 75.7066 347.946 76.3721 351.294 76.3721C354.642 75.7066 359.329 73.7102 359.998 69.7174C360.668 67.721 359.998 65.7246 358.659 65.0592Z" fill="#231F20"/>
<path d="M291.305 25.6646C291.305 26.9955 290.635 27.661 289.296 27.661C287.957 27.661 287.288 26.9955 287.288 25.6646C287.288 24.3337 287.957 23.6682 289.296 23.6682C290.635 23.6682 291.305 24.3337 291.305 25.6646ZM280.592 25.6646C280.592 26.9955 279.922 27.661 278.583 27.661C277.244 27.661 276.575 26.9955 276.575 25.6646C276.575 24.3337 277.244 23.6682 278.583 23.6682C279.253 23.6682 280.592 24.3337 280.592 25.6646ZM284.609 35.6466C284.609 36.312 283.94 36.312 283.94 36.312C283.27 36.9775 282.601 36.312 282.601 35.6466H284.609ZM289.966 31.6538C289.966 33.6502 288.627 34.9811 286.618 34.9811C285.279 34.9811 284.609 34.3156 283.94 33.6502C283.27 34.3156 282.601 34.9811 281.262 34.9811C279.253 34.9811 277.914 33.6502 277.914 31.6538H279.922C279.922 32.3192 280.592 33.6502 281.931 33.6502C282.601 33.6502 283.94 32.9847 283.94 31.6538V30.9883C283.27 30.3228 282.601 29.6574 282.601 28.9919H287.288C287.288 30.3228 286.618 30.9883 285.949 30.9883V31.6538C285.949 32.3192 286.618 33.6502 287.957 33.6502C288.627 33.6502 289.966 32.9847 289.966 31.6538ZM271.218 58.9378C269.879 58.9378 269.21 58.2724 269.21 56.9414C269.21 55.6105 269.879 54.945 271.218 54.945C271.218 54.945 272.557 54.945 273.896 55.6105C277.244 56.276 275.905 61.5997 276.575 64.927C277.914 64.927 279.253 64.927 280.592 65.5925V56.9414C279.922 55.6105 281.262 54.945 282.601 54.945C283.94 54.945 284.609 55.6105 284.609 56.9414V70.2507C284.609 71.5817 285.279 72.2471 286.618 72.2471C287.957 72.2471 288.627 71.5817 288.627 70.2507V56.9414C288.627 55.6105 289.296 54.945 290.635 54.945C291.975 54.945 292.644 55.6105 292.644 56.9414V70.2507C292.644 71.5817 293.314 72.2471 294.653 72.2471C295.992 72.2471 296.661 71.5817 296.661 70.2507V56.9414C296.661 54.2796 298.001 52.9486 298.67 50.9523C299.34 48.9559 298.67 46.294 298.001 45.6285C293.314 42.3012 291.975 40.3048 293.314 36.312C293.314 35.6466 293.983 34.9811 293.983 34.3156H292.644C291.975 34.3156 291.305 33.6502 291.305 32.9847C291.305 32.3192 291.975 31.6538 292.644 31.6538H295.992C295.992 30.9883 296.661 30.3228 296.661 29.6574H292.644C291.975 29.6574 291.305 28.9919 291.305 28.9919C291.305 28.3264 291.975 28.3264 292.644 28.3264H297.331C298.001 23.0027 295.992 17.679 291.975 14.3517C288.627 16.3481 287.288 19.6754 286.618 21.0063C284.609 20.3409 281.931 20.3409 279.922 21.0063C279.253 18.3445 277.244 15.6826 274.566 14.3517C270.549 17.679 268.54 23.0027 269.21 28.3264H273.227C274.566 28.3264 275.236 28.9919 275.236 28.9919C275.236 29.6574 274.566 29.6574 273.896 29.6574H270.549C270.549 30.3228 271.218 30.9883 271.218 31.6538H273.896C274.566 31.6538 275.236 32.3192 275.236 32.9847C275.236 33.6502 273.896 34.3156 273.896 34.3156H272.557C273.896 35.6466 275.905 36.9775 277.244 38.3084C279.253 39.6394 279.253 41.6357 278.583 43.6321C277.244 46.9595 273.896 47.6249 271.218 48.2904C262.514 51.6177 267.201 61.5997 265.862 68.9198V70.2507C265.862 71.5817 266.531 72.2471 267.87 72.2471H278.583C279.922 72.2471 280.592 71.5817 280.592 70.2507C280.592 68.9198 279.922 68.2543 278.583 68.2543H274.566C273.227 68.2543 272.557 67.5889 272.557 66.2579C272.557 66.2579 272.557 60.9342 271.888 59.6033C271.888 58.9378 271.218 58.9378 271.218 58.9378ZM247.114 68.2543C247.784 68.9198 249.123 68.9198 249.123 68.9198H260.505C261.175 68.9198 262.514 69.5853 262.514 70.9162C262.514 71.5817 261.844 72.9126 260.505 72.9126H249.123C249.123 72.9126 247.114 72.9126 245.105 71.5817C243.097 68.9198 243.097 66.2579 243.097 66.2579V62.2652C243.097 61.5997 243.766 60.2688 245.105 60.2688C245.775 60.2688 247.114 60.9342 247.114 62.2652V66.2579C246.444 66.2579 246.444 67.5889 247.114 68.2543Z" fill="#009DDC"/>
<path d="M338.861 69.7454C338.861 70.4109 338.192 72.4073 336.852 72.4073H322.122C320.783 72.4073 320.113 71.7418 320.113 70.4109C320.113 69.08 320.783 68.4145 322.122 68.4145H328.818C330.157 67.749 330.157 67.0836 330.826 65.7526V55.1052C330.826 53.1088 332.835 51.1124 334.844 51.1124C336.852 51.1124 338.861 53.1088 338.861 55.1052V69.7454ZM300.027 69.7454V58.4325C301.366 54.4397 304.714 51.1124 302.705 46.4542C303.374 46.4542 304.044 46.4542 304.714 45.7887C306.053 47.7851 308.731 49.116 311.409 48.4506C313.418 47.7851 314.757 47.1196 316.096 45.7887C318.774 46.4542 322.122 45.7887 324.131 43.7923C324.8 46.4542 326.809 48.4506 328.818 49.116C328.148 49.7815 327.479 50.4469 327.479 51.1124C326.139 55.1052 327.479 62.4253 326.139 63.7562C324.8 65.0872 320.113 64.4217 320.113 64.4217V56.4361C320.113 55.1052 319.444 54.4397 318.105 54.4397C316.766 54.4397 316.096 55.1052 316.096 56.4361V69.08C316.096 71.0764 314.757 72.4073 313.418 72.4073C311.409 72.4073 310.07 71.0764 310.07 69.7454V57.1016C310.07 55.7707 309.4 55.1052 308.061 55.1052C306.722 55.1052 306.053 55.7707 306.053 57.1016V69.7454C306.053 71.7418 304.714 73.0728 303.374 73.0728C301.366 72.4073 300.027 71.0764 300.027 69.7454ZM317.435 25.1593C317.435 26.4902 316.766 27.1557 315.426 27.1557C314.087 27.1557 313.418 26.4902 313.418 25.1593C313.418 23.8284 314.087 23.1629 315.426 23.1629C316.096 23.1629 317.435 24.4938 317.435 25.1593ZM306.722 25.1593C306.722 26.4902 306.053 27.1557 304.714 27.1557C303.374 27.1557 302.035 26.4902 302.035 25.1593C302.035 23.8284 302.705 23.1629 304.044 23.1629C305.383 23.1629 306.722 24.4938 306.722 25.1593ZM337.522 6.52627C336.183 5.19534 334.844 4.52987 332.835 3.86441C326.809 3.19894 321.453 5.8608 318.105 10.5191C312.748 7.8572 305.383 7.8572 300.027 10.5191C296.679 5.19534 291.322 2.53348 285.296 3.86441C283.288 5.19534 281.279 6.52627 280.609 8.52266C279.27 11.1845 280.609 14.5118 282.618 17.1737H285.296C286.635 14.5118 288.644 10.5191 291.992 9.85359C298.687 13.8464 302.035 21.1665 301.366 28.4866C301.366 32.4794 296.679 34.4758 297.348 39.134C297.348 40.465 298.687 41.7959 299.357 42.4614C301.366 43.7923 304.044 43.1268 306.053 41.7959C308.061 40.465 308.731 37.1377 308.061 35.1413H306.053C304.714 35.1413 304.044 34.4758 304.044 33.1449C304.044 31.8139 304.714 31.1485 306.053 31.1485H313.418C314.757 31.1485 315.426 31.8139 315.426 33.1449C315.426 34.4758 314.757 35.1413 313.418 35.1413H311.409C310.74 37.8031 311.409 39.7995 313.418 41.7959C314.757 43.1268 317.435 43.7923 319.444 43.1268C320.783 42.4614 321.453 41.7959 322.122 40.465C322.792 39.134 322.792 37.8031 322.122 36.4722C320.113 33.8103 318.105 31.8139 318.105 28.4866C318.105 19.8356 321.453 13.1809 328.148 9.18812C330.826 10.5191 333.505 13.8464 334.844 16.5082H337.522L338.861 13.1809C339.531 11.85 339.531 8.52266 337.522 6.52627ZM310.07 45.1232C311.409 45.1232 312.748 45.1232 314.087 43.7923C311.409 44.4578 310.07 42.4614 310.07 42.4614C310.07 42.4614 308.731 44.4578 306.053 43.7923C307.392 45.1232 308.731 45.1232 310.07 45.1232ZM342.878 66.4181V70.4109C344.887 73.0728 349.574 73.0728 352.922 71.7418C354.261 71.0764 356.939 69.7454 356.27 67.749C354.931 65.0872 352.922 68.4145 350.244 69.08C348.235 69.08 344.887 68.4145 342.878 66.4181Z" fill="#EE2A24"/>
</g>
<defs>
<clipPath id="clip0_2772_15459">
<rect width="360" height="78" fill="white"/>
</clipPath>
</defs>
</svg>
