<svg width="360" height="204" viewBox="0 0 360 204" fill="none" xmlns="http://www.w3.org/2000/svg">
<g clip-path="url(#clip0_2722_16897)">
<path d="M253.438 74.9029H226.265C226.024 73.5751 225.833 72.2662 225.547 70.9784C223.974 63.9006 220.668 57.8264 215.058 53.1342C210.995 49.738 206.273 47.6967 201.137 46.5552C198.223 45.9066 194.152 45.4597 192.095 45.5871C186.398 70.239 180.741 94.9512 175.084 119.535C175.321 120.017 175.671 120.024 175.959 120.1C187.947 123.193 199.097 121.683 209.037 113.913C213.047 110.78 216.136 106.817 218.704 102.446C219.518 101.062 220.257 99.6339 221.044 98.2H247.877C247.904 99.1646 247.628 99.9924 247.398 100.812C244.025 112.887 237.838 123.229 228.339 131.482C224.074 135.187 219.304 138.133 214.147 140.443C210.778 141.952 207.388 143.411 203.838 144.447C198.806 145.915 193.644 146.648 188.434 147.101C183.54 147.526 178.713 146.984 173.903 146.174C169.827 145.487 165.866 144.367 162.015 142.862C155.916 140.479 150.401 137.131 145.586 132.692C136.101 123.945 130.27 113.102 127.454 100.58C126.601 96.7849 125.945 92.9583 125.903 89.0396C125.845 83.7343 126.592 78.5539 127.978 73.4442C129.762 66.8593 132.122 60.5056 135.46 54.5398C142.739 41.5293 153.226 32.1166 166.978 26.3407C174.358 23.2417 182.038 21.3714 190.003 20.8101C200.24 20.0884 210.227 21.4115 219.818 25.1603C224.912 27.152 229.37 30.257 233.567 33.7145C243.191 41.6461 249.528 51.6578 252.377 63.8358C253.131 67.0586 253.541 70.3287 253.605 73.6388C253.612 74.0209 253.691 74.4206 253.44 74.9029H253.438Z" fill="#E73238"/>
<path d="M240.879 144.209C249.7 105.633 258.479 67.2461 267.246 28.909C268.24 28.6414 358.761 28.6166 360 28.8866C359.768 30.8112 359.166 32.6696 358.77 34.567C358.369 36.4892 357.896 38.3948 357.452 40.3076C357.017 42.1825 356.577 44.0564 356.143 45.9313C355.7 47.8382 355.26 49.7462 354.795 51.7603H308.838C306.999 59.4678 305.273 67.1093 303.459 74.8864C304.793 75.0444 306.034 74.95 307.266 74.9654C308.562 74.9819 309.858 74.9689 311.153 74.9689H341.664C342.96 74.9689 344.256 74.9559 345.551 74.9725C346.798 74.989 348.051 74.8934 349.288 75.0326C349.375 75.8852 344.735 96.7011 344.139 98.095H298.204C296.451 105.827 294.719 113.465 292.946 121.283H339.036C337.238 129.023 335.482 136.583 333.71 144.209H240.88H240.879Z" fill="#E73238"/>
<path d="M133.059 144.435H82.3026C76.3562 114.563 70.417 84.7236 64.4624 54.8145C77.6051 36.5363 90.7738 18.2711 103.937 0C104.043 0.0235848 104.149 0.0471695 104.255 0.0719335C113.847 48.1518 123.44 96.2306 133.059 144.437V144.435Z" fill="#E73238"/>
<path d="M0 144.435C17.7165 119.832 35.2751 95.4487 52.8325 71.0645C52.9303 71.0833 53.0269 71.101 53.1247 71.1199C58.0719 95.5278 63.0191 119.936 67.9852 144.435H0Z" fill="#E73238"/>
<path d="M59.0851 156.512C56.0489 172.047 52.9621 187.495 49.9035 202.915C49.0151 203.245 39.0182 203.284 37.7552 202.967C38.9392 196.601 40.3542 190.272 41.4323 183.729C35.4212 183.441 29.5891 183.439 23.6487 183.545C22.3633 190 21.0896 196.403 19.7854 202.953C15.7984 203.146 11.8255 203.282 7.6712 202.985C8.56781 197.719 9.71065 192.617 10.6827 187.482C11.6665 182.288 12.7256 177.107 13.7625 171.924C14.7898 166.782 15.8314 161.642 16.8705 156.479H28.9965C27.8136 162.533 26.6483 168.493 25.4843 174.448C26.7355 174.73 41.7268 174.701 43.3857 174.42C44.5745 168.51 45.7751 162.541 46.9875 156.512H59.084H59.0851Z" fill="#050505"/>
<path d="M181.697 168.438H193.763C194.815 175.489 195.857 182.46 196.898 189.433C196.974 189.455 197.049 189.478 197.124 189.5C198.316 187.246 199.297 184.886 200.376 182.576C201.455 180.263 202.501 177.934 203.554 175.61C204.622 173.253 205.682 170.892 206.781 168.452H217.764C218.293 171.888 218.577 175.434 219.008 178.959C219.441 182.493 219.815 186.034 220.342 189.606C224.199 182.597 227.835 175.503 231.517 168.393H240.342C240.151 169.298 223.22 201.12 221.969 202.938H211.392C210.426 195.605 209.461 188.288 208.496 180.971C208.41 180.957 208.324 180.941 208.238 180.927C204.763 188.202 201.448 195.554 197.982 202.995C194.563 202.96 191.124 203.06 187.713 202.901C187.337 201.847 181.69 169.517 181.694 168.438H181.697Z" fill="#050505"/>
<path d="M163.561 173.667C164.708 167.914 165.839 162.241 166.98 156.521H178.806C175.734 172.006 172.677 187.427 169.609 202.895H158.613C158.678 201.235 159.26 199.682 159.413 197.809C159.022 198.263 158.779 198.541 158.54 198.821C156.437 201.28 153.915 203.109 150.664 203.616C143.448 204.74 137.491 200.79 136.125 193.802C134.826 187.161 136.25 181.017 139.889 175.354C141.756 172.448 144.111 170.084 147.359 168.757C150.666 167.407 154.073 167.247 157.521 168.101C159.96 168.704 161.655 170.254 162.794 172.463C162.986 172.835 163.035 173.3 163.561 173.668V173.667ZM147.954 189.927C147.954 190.516 147.94 191.105 147.956 191.694C148.053 195.261 151.352 197.508 154.865 196.366C157.216 195.602 158.818 194.03 159.739 191.756C160.599 189.634 161.022 187.395 161.397 185.149C161.661 183.564 161.993 181.985 161.955 180.364C161.898 177.843 160.448 175.747 158.178 174.907C156.043 174.117 153.358 174.862 151.768 176.688C151.011 177.556 150.48 178.558 150.039 179.612C148.659 182.912 148.017 186.363 147.954 189.927Z" fill="#050505"/>
<path d="M96.3278 202.94H85.2787C84.778 201.119 85.3718 199.352 85.413 197.543C84.9653 197.63 84.8899 197.973 84.7096 198.199C82.6702 200.753 80.229 202.678 76.9383 203.365C73.0125 204.185 69.1528 204.272 65.4332 202.497C64.7982 202.194 64.182 201.834 63.607 201.429C58.4489 197.801 58.8695 190.921 63.3891 187.145C65.6088 185.291 68.1855 184.176 70.946 183.463C75.7188 182.231 80.6024 181.779 85.5049 181.473C86.2436 181.427 86.9989 181.479 87.8142 181.183C88.355 180.09 88.6471 178.887 88.4869 177.61C88.2689 175.876 87.1497 174.915 85.5674 174.428C84.0322 173.956 82.4581 174.001 80.8994 174.257C78.4216 174.664 76.5671 175.999 75.3277 178.187C75.1733 178.461 75.0166 178.732 74.8505 178.999C74.8116 179.061 74.7315 179.098 74.5642 179.231C71.2075 178.902 67.7413 178.686 64.3069 178.202C64.2362 177.662 64.5131 177.349 64.6851 177.012C66.6692 173.141 69.7984 170.626 73.8773 169.222C77.4991 167.975 81.241 167.737 85.0301 167.782C87.6386 167.814 90.2012 168.085 92.6836 168.925C94.2954 169.471 95.8047 170.211 97.103 171.331C98.9504 172.925 100.014 174.882 99.9978 177.387C99.9802 180.238 99.384 183.003 98.8621 185.782C98.108 189.796 97.1831 193.778 96.5905 197.823C96.4067 199.074 96.4715 200.332 96.4256 201.588C96.4102 202.012 96.501 202.444 96.3289 202.936L96.3278 202.94ZM86.9729 186.191C84.7249 186.223 82.7067 186.421 80.6991 186.795C78.8788 187.134 77.0891 187.555 75.4573 188.475C74.2685 189.145 73.2717 190 72.7109 191.289C71.4656 194.148 73.0314 197.128 76.0228 197.513C78.0022 197.768 79.8413 197.347 81.5026 196.197C84.937 193.818 86.1576 190.238 86.9741 186.191H86.9729Z" fill="#050505"/>
<path d="M275.639 202.994C271.79 202.968 268.116 203.048 264.357 202.902C263.959 201.054 264.442 199.329 264.55 197.604C264.189 197.546 264.102 197.817 263.977 197.99C261.153 201.926 257.245 203.732 252.484 203.857C251.699 203.878 250.912 203.882 250.129 203.857C247.094 203.76 244.39 202.792 242.019 200.851C238.089 197.633 238.442 192.258 240.682 189.149C242.276 186.936 244.481 185.557 246.949 184.529C250.135 183.204 253.496 182.632 256.888 182.193C260.12 181.775 263.359 181.443 266.584 181.408C268.049 179.877 267.995 176.871 266.519 175.494C266.053 175.059 265.53 174.695 264.932 174.504C262.275 173.654 257.891 173.895 255.473 176.717C254.853 177.441 254.485 178.314 253.861 179.213C250.42 178.889 246.925 178.559 243.454 178.231C243.3 177.704 243.591 177.389 243.763 177.057C245.885 172.956 249.243 170.317 253.615 169.032C259.263 167.372 264.995 167.278 270.727 168.597C273.057 169.132 275.168 170.172 276.842 171.943C278.645 173.849 279.436 176.085 279.122 178.731C278.568 183.38 277.511 187.935 276.657 192.528C276.026 195.927 275.279 199.306 275.638 202.996L275.639 202.994ZM266.056 186.404C265.805 186.18 265.608 186.197 265.412 186.202C262.58 186.271 259.796 186.679 257.064 187.421C256.195 187.657 255.361 188.011 254.577 188.461C253.434 189.119 252.457 189.956 251.88 191.169C250.736 193.573 251.587 196.994 255.243 197.52C256.994 197.771 258.673 197.404 260.205 196.467C261.356 195.763 262.324 194.867 263.136 193.788C264.803 191.571 265.547 189.006 266.057 186.404H266.056Z" fill="#050505"/>
<path d="M326.674 187.413C326.482 188.907 326.447 190.205 326.614 191.491C326.9 193.703 328.159 195.208 330.166 196.128C333.107 197.475 338.109 197.079 340.708 193.106C341.072 192.551 341.409 191.979 341.808 191.335C345.083 191.757 348.359 192.191 351.675 192.762C351.422 193.776 350.931 194.491 350.467 195.204C347.99 199.012 344.52 201.56 340.213 202.857C335.25 204.354 330.219 204.454 325.285 202.717C320.168 200.915 316.519 197.553 315.089 192.172C314.012 188.12 314.385 184.1 316.132 180.315C319.268 173.523 324.409 169.131 331.931 167.959C336.284 167.281 340.673 167.306 344.765 169.191C350.445 171.808 353.452 176.332 353.667 182.63C353.72 184.192 353.655 185.755 353.348 187.414H326.672L326.674 187.413ZM342.478 181.631C342.738 180.756 342.632 179.938 342.645 179.122C342.682 176.808 341.124 175.029 338.83 174.34C333.612 172.774 328.803 175.772 327.701 181.631H342.478Z" fill="#050505"/>
<path d="M312.467 177.736C311.744 177.979 311.107 177.939 310.489 177.962C306.993 178.098 304.405 179.783 302.434 182.58C301.023 184.58 300.28 186.845 299.783 189.201C298.932 193.234 298.121 197.275 297.291 201.311C297.181 201.844 297.141 202.399 296.857 202.94H284.633C286.92 191.428 289.194 179.981 291.492 168.415C295.294 168.393 299.036 168.313 302.887 168.419C302.419 170.904 301.979 173.246 301.509 175.748C301.998 175.46 302.141 175.073 302.331 174.743C303.197 173.24 304.189 171.839 305.449 170.629C306.973 169.164 308.719 168.204 310.864 168.078C311.746 168.026 312.621 167.707 313.643 167.998C313.334 171.288 312.949 174.538 312.471 177.737L312.467 177.736Z" fill="#050505"/>
<path d="M133.369 177.584C132.724 177.986 132.115 177.925 131.543 177.953C127.066 178.179 124.131 180.605 122.203 184.471C121.267 186.349 120.8 188.382 120.378 190.421C119.577 194.304 118.806 198.195 118.017 202.08C117.963 202.344 117.858 202.598 117.757 202.917H105.524C107.805 191.408 110.075 179.946 112.358 168.425H123.692C123.367 170.926 122.783 173.273 122.366 175.761C122.834 175.442 123.011 175.026 123.24 174.653C124.102 173.244 125.011 171.874 126.189 170.698C127.416 169.473 128.841 168.624 130.547 168.27C131.813 168.007 133.087 167.855 134.567 167.846C134.261 171.195 133.764 174.419 133.37 177.584H133.369Z" fill="#050505"/>
<path d="M344.934 132.606C348.324 132.617 350.887 134.611 351.439 137.611C351.794 139.536 351.165 141.195 349.83 142.559C347.334 145.112 342.926 145.16 340.328 142.714C337.548 140.096 337.948 135.758 341.162 133.698C342.351 132.937 343.648 132.551 344.934 132.606ZM350.213 138.513C350.206 135.714 347.952 133.577 345.011 133.583C342.054 133.589 339.795 135.71 339.782 138.495C339.768 141.293 342.02 143.474 344.936 143.491C347.956 143.507 350.219 141.373 350.212 138.513H350.213Z" fill="#E73238"/>
<path d="M342.655 135.133C343.878 135.033 345.046 134.985 346.206 135.172C347.32 135.353 347.855 135.879 347.961 136.775C348.074 137.73 347.748 138.256 346.715 138.791C346.579 138.861 346.453 138.947 346.21 139.093C346.803 139.981 347.373 140.837 347.941 141.688C347.532 142.047 347.21 141.972 346.802 141.783C346.229 140.932 345.619 140.023 345.042 139.163C344.601 138.949 344.223 138.967 343.776 139.093C343.491 139.942 343.808 140.863 343.589 141.714C343.323 142.005 343.035 141.988 342.653 141.806V135.132L342.655 135.133ZM343.789 138.03C344.47 138.181 345.131 138.143 345.779 138.056C346.46 137.964 346.823 137.539 346.803 136.987C346.784 136.491 346.439 136.126 345.791 136.041C345.142 135.955 344.481 135.907 343.801 136.06C343.592 136.724 343.604 137.361 343.79 138.03H343.789Z" fill="#E73238"/>
</g>
<defs>
<clipPath id="clip0_2722_16897">
<rect width="360" height="204" fill="white"/>
</clipPath>
</defs>
</svg>
